<?xml version="1.0" encoding="UTF-8" standalone="no"?>
<!DOCTYPE svg PUBLIC "-//W3C//DTD SVG 1.1//EN"
 "http://www.w3.org/Graphics/SVG/1.1/DTD/svg11.dtd">
<!-- Generated by graphviz version 13.1.2 (0)
 -->
<!-- Title: check_all_clues Pages: 1 -->
<svg width="486pt" height="66pt"
 viewBox="0.00 0.00 486.00 66.00" xmlns="http://www.w3.org/2000/svg" xmlns:xlink="http://www.w3.org/1999/xlink">
<g id="graph0" class="graph" transform="scale(1 1) rotate(0) translate(4 62)">
<title>check_all_clues</title>
<!-- Node1 -->
<g id="Node000001" class="node">
<title>Node1</title>
<g id="a_Node000001"><a xlink:title=" ">
<polygon fill="#999999" stroke="#666666" points="85.75,-39 0,-39 0,-19 85.75,-19 85.75,-39"/>
<text xml:space="preserve" text-anchor="middle" x="42.88" y="-25.5" font-family="Helvetica,sans-Serif" font-size="10.00">check_all_clues</text>
</a>
</g>
</g>
<!-- Node2 -->
<g id="Node000002" class="node">
<title>Node2</title>
<g id="a_Node000002"><a xlink:href="check_8c.html#a38570858cbbc90a33ede0f90827c4823" target="_top" xlink:title=" ">
<polygon fill="white" stroke="#666666" points="239.75,-58 129.25,-58 129.25,-38 239.75,-38 239.75,-58"/>
<text xml:space="preserve" text-anchor="middle" x="184.5" y="-44.5" font-family="Helvetica,sans-Serif" font-size="10.00">check_line_first_pass</text>
</a>
</g>
</g>
<!-- Node1&#45;&gt;Node2 -->
<g id="edge1_Node000001_Node000002" class="edge">
<title>Node1&#45;&gt;Node2</title>
<g id="a_edge1_Node000001_Node000002"><a xlink:title=" ">
<path fill="none" stroke="#63b8ff" d="M86.15,-34.75C96.15,-36.11 107.06,-37.6 117.84,-39.06"/>
<polygon fill="#63b8ff" stroke="#63b8ff" points="117.09,-42.5 127.47,-40.38 118.04,-35.56 117.09,-42.5"/>
</a>
</g>
</g>
<!-- Node5 -->
<g id="Node000005" class="node">
<title>Node5</title>
<g id="a_Node000005"><a xlink:href="check_8c.html#abf8d801f4b0d3f44703ee26c29cbc7ea" target="_top" xlink:title=" ">
<polygon fill="white" stroke="#666666" points="247.25,-20 121.75,-20 121.75,0 247.25,0 247.25,-20"/>
<text xml:space="preserve" text-anchor="middle" x="184.5" y="-6.5" font-family="Helvetica,sans-Serif" font-size="10.00">check_line_second_pass</text>
</a>
</g>
</g>
<!-- Node1&#45;&gt;Node5 -->
<g id="edge4_Node000001_Node000005" class="edge">
<title>Node1&#45;&gt;Node5</title>
<g id="a_edge4_Node000001_Node000005"><a xlink:title=" ">
<path fill="none" stroke="#63b8ff" d="M86.15,-23.25C93.76,-22.21 101.9,-21.1 110.1,-19.99"/>
<polygon fill="#63b8ff" stroke="#63b8ff" points="110.35,-23.49 119.78,-18.67 109.4,-16.55 110.35,-23.49"/>
</a>
</g>
</g>
<!-- Node3 -->
<g id="Node000003" class="node">
<title>Node3</title>
<g id="a_Node000003"><a xlink:href="check_8c.html#a9f567b488719e781e686023ac13ef057" target="_top" xlink:title=" ">
<polygon fill="white" stroke="#666666" points="369,-39 283.25,-39 283.25,-19 369,-19 369,-39"/>
<text xml:space="preserve" text-anchor="middle" x="326.12" y="-25.5" font-family="Helvetica,sans-Serif" font-size="10.00">check_clue_line</text>
</a>
</g>
</g>
<!-- Node2&#45;&gt;Node3 -->
<g id="edge2_Node000002_Node000003" class="edge">
<title>Node2&#45;&gt;Node3</title>
<g id="a_edge2_Node000002_Node000003"><a xlink:title=" ">
<path fill="none" stroke="#63b8ff" d="M239.88,-40.6C250.23,-39.19 261.05,-37.72 271.38,-36.31"/>
<polygon fill="#63b8ff" stroke="#63b8ff" points="271.84,-39.78 281.28,-34.97 270.9,-32.85 271.84,-39.78"/>
</a>
</g>
</g>
<!-- Node4 -->
<g id="Node000004" class="node">
<title>Node4</title>
<g id="a_Node000004"><a xlink:href="check_8c.html#a819919c9c0b20e3ab94f293bb3aa3ab9" target="_top" xlink:title=" ">
<polygon fill="white" stroke="#666666" points="478,-39 405,-39 405,-19 478,-19 478,-39"/>
<text xml:space="preserve" text-anchor="middle" x="441.5" y="-25.5" font-family="Helvetica,sans-Serif" font-size="10.00">count_visible</text>
</a>
</g>
</g>
<!-- Node3&#45;&gt;Node4 -->
<g id="edge3_Node000003_Node000004" class="edge">
<title>Node3&#45;&gt;Node4</title>
<g id="a_edge3_Node000003_Node000004"><a xlink:title=" ">
<path fill="none" stroke="#63b8ff" d="M369.34,-29C377.12,-29 385.3,-29 393.22,-29"/>
<polygon fill="#63b8ff" stroke="#63b8ff" points="393.06,-32.5 403.06,-29 393.06,-25.5 393.06,-32.5"/>
</a>
</g>
</g>
<!-- Node5&#45;&gt;Node3 -->
<g id="edge5_Node000005_Node000003" class="edge">
<title>Node5&#45;&gt;Node3</title>
<g id="a_edge5_Node000005_Node000003"><a xlink:title=" ">
<path fill="none" stroke="#63b8ff" d="M247.55,-18.44C255.58,-19.54 263.74,-20.65 271.61,-21.72"/>
<polygon fill="#63b8ff" stroke="#63b8ff" points="271.01,-25.17 281.39,-23.05 271.95,-18.23 271.01,-25.17"/>
</a>
</g>
</g>
</g>
</svg>
