<?xml version="1.0" encoding="UTF-8" standalone="no"?>
<!DOCTYPE svg PUBLIC "-//W3C//DTD SVG 1.1//EN"
 "http://www.w3.org/Graphics/SVG/1.1/DTD/svg11.dtd">
<!-- Generated by graphviz version 13.1.2 (0)
 -->
<!-- Title: count_visible Pages: 1 -->
<svg width="655pt" height="66pt"
 viewBox="0.00 0.00 655.00 66.00" xmlns="http://www.w3.org/2000/svg" xmlns:xlink="http://www.w3.org/1999/xlink">
<g id="graph0" class="graph" transform="scale(1 1) rotate(0) translate(4 62)">
<title>count_visible</title>
<!-- Node1 -->
<g id="Node000001" class="node">
<title>Node1</title>
<g id="a_Node000001"><a xlink:title=" ">
<polygon fill="#999999" stroke="#666666" points="647.25,-39 574.25,-39 574.25,-19 647.25,-19 647.25,-39"/>
<text xml:space="preserve" text-anchor="middle" x="610.75" y="-25.5" font-family="Helvetica,sans-Serif" font-size="10.00">count_visible</text>
</a>
</g>
</g>
<!-- Node2 -->
<g id="Node000002" class="node">
<title>Node2</title>
<g id="a_Node000002"><a xlink:href="check_8c.html#a9f567b488719e781e686023ac13ef057" target="_top" xlink:title=" ">
<polygon fill="white" stroke="#666666" points="538.25,-39 452.5,-39 452.5,-19 538.25,-19 538.25,-39"/>
<text xml:space="preserve" text-anchor="middle" x="495.38" y="-25.5" font-family="Helvetica,sans-Serif" font-size="10.00">check_clue_line</text>
</a>
</g>
</g>
<!-- Node1&#45;&gt;Node2 -->
<g id="edge1_Node000001_Node000002" class="edge">
<title>Node1&#45;&gt;Node2</title>
<g id="a_edge1_Node000001_Node000002"><a xlink:title=" ">
<path fill="none" stroke="#63b8ff" d="M562.43,-29C554.44,-29 546.19,-29 538.35,-29"/>
<polygon fill="#63b8ff" stroke="#63b8ff" points="562.36,-32.5 572.36,-29 562.36,-25.5 562.36,-32.5"/>
</a>
</g>
</g>
<!-- Node3 -->
<g id="Node000003" class="node">
<title>Node3</title>
<g id="a_Node000003"><a xlink:href="check_8c.html#a38570858cbbc90a33ede0f90827c4823" target="_top" xlink:title=" ">
<polygon fill="white" stroke="#666666" points="409,-58 298.5,-58 298.5,-38 409,-38 409,-58"/>
<text xml:space="preserve" text-anchor="middle" x="353.75" y="-44.5" font-family="Helvetica,sans-Serif" font-size="10.00">check_line_first_pass</text>
</a>
</g>
</g>
<!-- Node2&#45;&gt;Node3 -->
<g id="edge2_Node000002_Node000003" class="edge">
<title>Node2&#45;&gt;Node3</title>
<g id="a_edge2_Node000002_Node000003"><a xlink:title=" ">
<path fill="none" stroke="#63b8ff" d="M440.73,-36.3C430.42,-37.7 419.61,-39.17 409.28,-40.58"/>
<polygon fill="#63b8ff" stroke="#63b8ff" points="441.17,-39.77 450.6,-34.96 440.22,-32.84 441.17,-39.77"/>
</a>
</g>
</g>
<!-- Node7 -->
<g id="Node000007" class="node">
<title>Node7</title>
<g id="a_Node000007"><a xlink:href="check_8c.html#abf8d801f4b0d3f44703ee26c29cbc7ea" target="_top" xlink:title=" ">
<polygon fill="white" stroke="#666666" points="416.5,-20 291,-20 291,0 416.5,0 416.5,-20"/>
<text xml:space="preserve" text-anchor="middle" x="353.75" y="-6.5" font-family="Helvetica,sans-Serif" font-size="10.00">check_line_second_pass</text>
</a>
</g>
</g>
<!-- Node2&#45;&gt;Node7 -->
<g id="edge7_Node000002_Node000007" class="edge">
<title>Node2&#45;&gt;Node7</title>
<g id="a_edge7_Node000002_Node000007"><a xlink:title=" ">
<path fill="none" stroke="#63b8ff" d="M440.89,-21.72C433.07,-20.66 424.95,-19.55 416.97,-18.47"/>
<polygon fill="#63b8ff" stroke="#63b8ff" points="440.22,-25.16 450.6,-23.04 441.17,-18.23 440.22,-25.16"/>
</a>
</g>
</g>
<!-- Node4 -->
<g id="Node000004" class="node">
<title>Node4</title>
<g id="a_Node000004"><a xlink:href="check_8c.html#a21871e8a813ff7cb6342a9fe2fba2c23" target="_top" xlink:title=" ">
<polygon fill="white" stroke="#666666" points="255,-39 169.25,-39 169.25,-19 255,-19 255,-39"/>
<text xml:space="preserve" text-anchor="middle" x="212.12" y="-25.5" font-family="Helvetica,sans-Serif" font-size="10.00">check_all_clues</text>
</a>
</g>
</g>
<!-- Node3&#45;&gt;Node4 -->
<g id="edge3_Node000003_Node000004" class="edge">
<title>Node3&#45;&gt;Node4</title>
<g id="a_edge3_Node000003_Node000004"><a xlink:title=" ">
<path fill="none" stroke="#63b8ff" d="M287.22,-39.08C276.43,-37.61 265.5,-36.13 255.47,-34.76"/>
<polygon fill="#63b8ff" stroke="#63b8ff" points="286.49,-42.52 296.87,-40.4 287.43,-35.58 286.49,-42.52"/>
</a>
</g>
</g>
<!-- Node5 -->
<g id="Node000005" class="node">
<title>Node5</title>
<g id="a_Node000005"><a xlink:href="solver_8c.html#a4b4d6ba034f2f53e23499f4c24716bad" target="_top" xlink:title=" ">
<polygon fill="white" stroke="#666666" points="133.25,-39 73,-39 73,-19 133.25,-19 133.25,-39"/>
<text xml:space="preserve" text-anchor="middle" x="103.12" y="-25.5" font-family="Helvetica,sans-Serif" font-size="10.00">solve_grid</text>
</a>
</g>
</g>
<!-- Node4&#45;&gt;Node5 -->
<g id="edge4_Node000004_Node000005" class="edge">
<title>Node4&#45;&gt;Node5</title>
<g id="a_edge4_Node000004_Node000005"><a xlink:title=" ">
<path fill="none" stroke="#63b8ff" d="M157.34,-29C149.16,-29 140.99,-29 133.59,-29"/>
<polygon fill="#63b8ff" stroke="#63b8ff" points="157.32,-32.5 167.32,-29 157.32,-25.5 157.32,-32.5"/>
</a>
</g>
</g>
<!-- Node5&#45;&gt;Node5 -->
<g id="edge6_Node000005_Node000005" class="edge">
<title>Node5&#45;&gt;Node5</title>
<g id="a_edge6_Node000005_Node000005"><a xlink:title=" ">
<path fill="none" stroke="#63b8ff" d="M117.91,-50.77C115.87,-54.45 110.94,-57 103.12,-57 88.41,-57 83.93,-47.98 89.68,-39.34"/>
<polygon fill="#63b8ff" stroke="#63b8ff" points="121.39,-50.37 116.75,-40.84 114.43,-51.18 121.39,-50.37"/>
</a>
</g>
</g>
<!-- Node6 -->
<g id="Node000006" class="node">
<title>Node6</title>
<g id="a_Node000006"><a xlink:href="main_8c.html#a3c04138a5bfe5d72780bb7e82a18e627" target="_top" xlink:title=" ">
<polygon fill="white" stroke="#666666" points="37,-39 0,-39 0,-19 37,-19 37,-39"/>
<text xml:space="preserve" text-anchor="middle" x="18.5" y="-25.5" font-family="Helvetica,sans-Serif" font-size="10.00">main</text>
</a>
</g>
</g>
<!-- Node5&#45;&gt;Node6 -->
<g id="edge5_Node000005_Node000006" class="edge">
<title>Node5&#45;&gt;Node6</title>
<g id="a_edge5_Node000005_Node000006"><a xlink:title=" ">
<path fill="none" stroke="#63b8ff" d="M61.34,-29C52.86,-29 44.34,-29 37.23,-29"/>
<polygon fill="#63b8ff" stroke="#63b8ff" points="61.25,-32.5 71.25,-29 61.25,-25.5 61.25,-32.5"/>
</a>
</g>
</g>
<!-- Node7&#45;&gt;Node4 -->
<g id="edge8_Node000007_Node000004" class="edge">
<title>Node7&#45;&gt;Node4</title>
<g id="a_edge8_Node000007_Node000004"><a xlink:title=" ">
<path fill="none" stroke="#63b8ff" d="M279.45,-19.97C271.2,-21.1 263.02,-22.21 255.36,-23.25"/>
<polygon fill="#63b8ff" stroke="#63b8ff" points="279.76,-23.46 289.2,-18.65 278.81,-16.53 279.76,-23.46"/>
</a>
</g>
</g>
</g>
</svg>
