<?xml version="1.0" encoding="UTF-8" standalone="no"?>
<!DOCTYPE svg PUBLIC "-//W3C//DTD SVG 1.1//EN"
 "http://www.w3.org/Graphics/SVG/1.1/DTD/svg11.dtd">
<!-- Generated by graphviz version 13.1.2 (0)
 -->
<!-- Title: main Pages: 1 -->
<svg width="718pt" height="400pt"
 viewBox="0.00 0.00 718.00 400.00" xmlns="http://www.w3.org/2000/svg" xmlns:xlink="http://www.w3.org/1999/xlink">
<g id="graph0" class="graph" transform="scale(1 1) rotate(0) translate(4 396)">
<title>main</title>
<!-- Node1 -->
<g id="Node000001" class="node">
<title>Node1</title>
<g id="a_Node000001"><a xlink:title=" ">
<polygon fill="#999999" stroke="#666666" points="37,-228 0,-228 0,-208 37,-208 37,-228"/>
<text xml:space="preserve" text-anchor="middle" x="18.5" y="-214.5" font-family="Helvetica,sans-Serif" font-size="10.00">main</text>
</a>
</g>
</g>
<!-- Node2 -->
<g id="Node000002" class="node">
<title>Node2</title>
<g id="a_Node000002"><a xlink:href="init_8c.html#a79db2189c2216dd3be41dbd2e411b64d" target="_top" xlink:title=" ">
<polygon fill="white" stroke="#666666" points="168.5,-392 100,-392 100,-372 168.5,-372 168.5,-392"/>
<text xml:space="preserve" text-anchor="middle" x="134.25" y="-378.5" font-family="Helvetica,sans-Serif" font-size="10.00">count_clues</text>
</a>
</g>
</g>
<!-- Node1&#45;&gt;Node2 -->
<g id="edge1_Node000001_Node000002" class="edge">
<title>Node1&#45;&gt;Node2</title>
<g id="a_edge1_Node000001_Node000002"><a xlink:title=" ">
<path fill="none" stroke="#63b8ff" d="M20.28,-228.45C22.83,-254.9 33.18,-325.05 73,-363 77.57,-367.35 83.12,-370.71 88.99,-373.29"/>
<polygon fill="#63b8ff" stroke="#63b8ff" points="87.73,-376.56 98.32,-376.66 90.1,-369.97 87.73,-376.56"/>
</a>
</g>
</g>
<!-- Node3 -->
<g id="Node000003" class="node">
<title>Node3</title>
<g id="a_Node000003"><a xlink:href="init_8c.html#a1d549b982a080aa9dea24da0edc121dc" target="_top" xlink:title=" ">
<polygon fill="white" stroke="#666666" points="159.12,-354 109.38,-354 109.38,-334 159.12,-334 159.12,-354"/>
<text xml:space="preserve" text-anchor="middle" x="134.25" y="-340.5" font-family="Helvetica,sans-Serif" font-size="10.00">init_grid</text>
</a>
</g>
</g>
<!-- Node1&#45;&gt;Node3 -->
<g id="edge2_Node000001_Node000003" class="edge">
<title>Node1&#45;&gt;Node3</title>
<g id="a_edge2_Node000001_Node000003"><a xlink:title=" ">
<path fill="none" stroke="#63b8ff" d="M21.76,-228.2C26.97,-249.4 41.87,-298.44 73,-325 80.1,-331.06 89.13,-335.19 98.03,-338"/>
<polygon fill="#63b8ff" stroke="#63b8ff" points="97.05,-341.36 107.62,-340.52 98.84,-334.59 97.05,-341.36"/>
</a>
</g>
</g>
<!-- Node4 -->
<g id="Node000004" class="node">
<title>Node4</title>
<g id="a_Node000004"><a xlink:href="errors_8c.html#a5ce4df56399c027d6ab1b044d9293f2f" target="_top" xlink:title=" ">
<polygon fill="white" stroke="#666666" points="185,-316 83.5,-316 83.5,-284 185,-284 185,-316"/>
<text xml:space="preserve" text-anchor="start" x="91.5" y="-302.5" font-family="Helvetica,sans-Serif" font-size="10.00">invalid_clues_count</text>
<text xml:space="preserve" text-anchor="middle" x="134.25" y="-290.5" font-family="Helvetica,sans-Serif" font-size="10.00">_error</text>
</a>
</g>
</g>
<!-- Node1&#45;&gt;Node4 -->
<g id="edge3_Node000001_Node000004" class="edge">
<title>Node1&#45;&gt;Node4</title>
<g id="a_edge3_Node000001_Node000004"><a xlink:title=" ">
<path fill="none" stroke="#63b8ff" d="M26.8,-228.09C36.25,-240.55 53.8,-261.72 73,-275 74.57,-276.09 76.19,-277.14 77.86,-278.15"/>
<polygon fill="#63b8ff" stroke="#63b8ff" points="75.95,-281.1 86.4,-282.86 79.33,-274.97 75.95,-281.1"/>
</a>
</g>
</g>
<!-- Node5 -->
<g id="Node000005" class="node">
<title>Node5</title>
<g id="a_Node000005"><a xlink:href="errors_8c.html#a181699205e38f05a22ed4f87dbf11158" target="_top" xlink:title=" ">
<polygon fill="white" stroke="#666666" points="188.75,-266 79.75,-266 79.75,-246 188.75,-246 188.75,-266"/>
<text xml:space="preserve" text-anchor="middle" x="134.25" y="-252.5" font-family="Helvetica,sans-Serif" font-size="10.00">no_clues_string_error</text>
</a>
</g>
</g>
<!-- Node1&#45;&gt;Node5 -->
<g id="edge4_Node000001_Node000005" class="edge">
<title>Node1&#45;&gt;Node5</title>
<g id="a_edge4_Node000001_Node000005"><a xlink:title=" ">
<path fill="none" stroke="#63b8ff" d="M37.28,-224.49C47.66,-228.24 61.04,-232.99 73,-237 78.06,-238.7 83.38,-240.44 88.67,-242.14"/>
<polygon fill="#63b8ff" stroke="#63b8ff" points="87.37,-245.4 97.96,-245.1 89.5,-238.73 87.37,-245.4"/>
</a>
</g>
</g>
<!-- Node6 -->
<g id="Node000006" class="node">
<title>Node6</title>
<g id="a_Node000006"><a xlink:href="errors_8c.html#aeb91eaf020ae9908f7fff0784c675e4f" target="_top" xlink:title=" ">
<polygon fill="white" stroke="#666666" points="195.5,-228 73,-228 73,-208 195.5,-208 195.5,-228"/>
<text xml:space="preserve" text-anchor="middle" x="134.25" y="-214.5" font-family="Helvetica,sans-Serif" font-size="10.00">no_clues_to_parse_error</text>
</a>
</g>
</g>
<!-- Node1&#45;&gt;Node6 -->
<g id="edge5_Node000001_Node000006" class="edge">
<title>Node1&#45;&gt;Node6</title>
<g id="a_edge5_Node000001_Node000006"><a xlink:title=" ">
<path fill="none" stroke="#63b8ff" d="M37.27,-218C44.13,-218 52.45,-218 61.3,-218"/>
<polygon fill="#63b8ff" stroke="#63b8ff" points="61.2,-221.5 71.2,-218 61.2,-214.5 61.2,-221.5"/>
</a>
</g>
</g>
<!-- Node7 -->
<g id="Node000007" class="node">
<title>Node7</title>
<g id="a_Node000007"><a xlink:href="errors_8c.html#a6a845a777eb0f001aa554b790bc24c05" target="_top" xlink:title=" ">
<polygon fill="white" stroke="#666666" points="194,-190 74.5,-190 74.5,-170 194,-170 194,-190"/>
<text xml:space="preserve" text-anchor="middle" x="134.25" y="-176.5" font-family="Helvetica,sans-Serif" font-size="10.00">no_solution_found_error</text>
</a>
</g>
</g>
<!-- Node1&#45;&gt;Node7 -->
<g id="edge6_Node000001_Node000007" class="edge">
<title>Node1&#45;&gt;Node7</title>
<g id="a_edge6_Node000001_Node000007"><a xlink:title=" ">
<path fill="none" stroke="#63b8ff" d="M37.28,-211.51C47.66,-207.76 61.04,-203.01 73,-199 78.06,-197.3 83.38,-195.56 88.67,-193.86"/>
<polygon fill="#63b8ff" stroke="#63b8ff" points="89.5,-197.27 97.96,-190.9 87.37,-190.6 89.5,-197.27"/>
</a>
</g>
</g>
<!-- Node8 -->
<g id="Node000008" class="node">
<title>Node8</title>
<g id="a_Node000008"><a xlink:href="init_8c.html#ad2b598e6fe216760937cba9ce7c1bfb1" target="_top" xlink:title=" ">
<polygon fill="white" stroke="#666666" points="168.5,-152 100,-152 100,-132 168.5,-132 168.5,-152"/>
<text xml:space="preserve" text-anchor="middle" x="134.25" y="-138.5" font-family="Helvetica,sans-Serif" font-size="10.00">parse_clues</text>
</a>
</g>
</g>
<!-- Node1&#45;&gt;Node8 -->
<g id="edge7_Node000001_Node000008" class="edge">
<title>Node1&#45;&gt;Node8</title>
<g id="a_edge7_Node000001_Node000008"><a xlink:title=" ">
<path fill="none" stroke="#63b8ff" d="M26.62,-207.63C35.88,-194.88 53.24,-173.43 73,-161 77.92,-157.91 83.39,-155.28 88.97,-153.06"/>
<polygon fill="#63b8ff" stroke="#63b8ff" points="90.01,-156.4 98.28,-149.77 87.69,-149.8 90.01,-156.4"/>
</a>
</g>
</g>
<!-- Node9 -->
<g id="Node000009" class="node">
<title>Node9</title>
<g id="a_Node000009"><a xlink:href="print_8c.html#a7a29e751bf92be413970495fcd2517a9" target="_top" xlink:title=" ">
<polygon fill="white" stroke="#666666" points="162.12,-114 106.38,-114 106.38,-94 162.12,-94 162.12,-114"/>
<text xml:space="preserve" text-anchor="middle" x="134.25" y="-100.5" font-family="Helvetica,sans-Serif" font-size="10.00">print_grid</text>
</a>
</g>
</g>
<!-- Node1&#45;&gt;Node9 -->
<g id="edge8_Node000001_Node000009" class="edge">
<title>Node1&#45;&gt;Node9</title>
<g id="a_edge8_Node000001_Node000009"><a xlink:title=" ">
<path fill="none" stroke="#63b8ff" d="M22.47,-207.75C28.63,-188.33 44.63,-146.02 73,-123 79.37,-117.83 87.15,-114.06 94.99,-111.32"/>
<polygon fill="#63b8ff" stroke="#63b8ff" points="95.91,-114.69 104.5,-108.5 93.92,-107.98 95.91,-114.69"/>
</a>
</g>
</g>
<!-- Node10 -->
<g id="Node000010" class="node">
<title>Node10</title>
<g id="a_Node000010"><a xlink:href="solver_8c.html#a4b4d6ba034f2f53e23499f4c24716bad" target="_top" xlink:title=" ">
<polygon fill="white" stroke="#666666" points="164.38,-58 104.12,-58 104.12,-38 164.38,-38 164.38,-58"/>
<text xml:space="preserve" text-anchor="middle" x="134.25" y="-44.5" font-family="Helvetica,sans-Serif" font-size="10.00">solve_grid</text>
</a>
</g>
</g>
<!-- Node1&#45;&gt;Node10 -->
<g id="edge9_Node000001_Node000010" class="edge">
<title>Node1&#45;&gt;Node10</title>
<g id="a_edge9_Node000001_Node000010"><a xlink:title=" ">
<path fill="none" stroke="#63b8ff" d="M21.38,-207.51C26.15,-183.41 40.72,-123.22 73,-85 80.1,-76.6 89.6,-69.54 98.97,-63.93"/>
<polygon fill="#63b8ff" stroke="#63b8ff" points="100.57,-67.04 107.63,-59.13 97.18,-60.91 100.57,-67.04"/>
</a>
</g>
</g>
<!-- Node10&#45;&gt;Node10 -->
<g id="edge18_Node000010_Node000010" class="edge">
<title>Node10&#45;&gt;Node10</title>
<g id="a_edge18_Node000010_Node000010"><a xlink:title=" ">
<path fill="none" stroke="#63b8ff" d="M115.86,-58.34C108,-66.98 114.13,-76 134.25,-76 145.25,-76 152.07,-73.3 154.71,-69.44"/>
<polygon fill="#63b8ff" stroke="#63b8ff" points="158.19,-69.02 152.92,-59.83 151.31,-70.3 158.19,-69.02"/>
</a>
</g>
</g>
<!-- Node11 -->
<g id="Node000011" class="node">
<title>Node11</title>
<g id="a_Node000011"><a xlink:href="check_8c.html#a21871e8a813ff7cb6342a9fe2fba2c23" target="_top" xlink:title=" ">
<polygon fill="white" stroke="#666666" points="317.25,-96 231.5,-96 231.5,-76 317.25,-76 317.25,-96"/>
<text xml:space="preserve" text-anchor="middle" x="274.38" y="-82.5" font-family="Helvetica,sans-Serif" font-size="10.00">check_all_clues</text>
</a>
</g>
</g>
<!-- Node10&#45;&gt;Node11 -->
<g id="edge10_Node000010_Node000011" class="edge">
<title>Node10&#45;&gt;Node11</title>
<g id="a_edge10_Node000010_Node000011"><a xlink:title=" ">
<path fill="none" stroke="#63b8ff" d="M164.54,-56.06C181.98,-60.86 204.55,-67.07 224.62,-72.59"/>
<polygon fill="#63b8ff" stroke="#63b8ff" points="223.43,-75.89 234,-75.17 225.28,-69.14 223.43,-75.89"/>
</a>
</g>
</g>
<!-- Node16 -->
<g id="Node000016" class="node">
<title>Node16</title>
<g id="a_Node000016"><a xlink:href="solver_8c.html#a1b1ef40b9aeadd153cd681fe38ff66b8" target="_top" xlink:title=" ">
<polygon fill="white" stroke="#666666" points="304.5,-58 244.25,-58 244.25,-38 304.5,-38 304.5,-58"/>
<text xml:space="preserve" text-anchor="middle" x="274.38" y="-44.5" font-family="Helvetica,sans-Serif" font-size="10.00">check_col</text>
</a>
</g>
</g>
<!-- Node10&#45;&gt;Node16 -->
<g id="edge16_Node000010_Node000016" class="edge">
<title>Node10&#45;&gt;Node16</title>
<g id="a_edge16_Node000010_Node000016"><a xlink:title=" ">
<path fill="none" stroke="#63b8ff" d="M164.54,-48C184.41,-48 210.94,-48 232.84,-48"/>
<polygon fill="#63b8ff" stroke="#63b8ff" points="232.61,-51.5 242.61,-48 232.61,-44.5 232.61,-51.5"/>
</a>
</g>
</g>
<!-- Node17 -->
<g id="Node000017" class="node">
<title>Node17</title>
<g id="a_Node000017"><a xlink:href="solver_8c.html#a8fdf42d6de0577c41a94c8443499f059" target="_top" xlink:title=" ">
<polygon fill="white" stroke="#666666" points="306,-20 242.75,-20 242.75,0 306,0 306,-20"/>
<text xml:space="preserve" text-anchor="middle" x="274.38" y="-6.5" font-family="Helvetica,sans-Serif" font-size="10.00">check_row</text>
</a>
</g>
</g>
<!-- Node10&#45;&gt;Node17 -->
<g id="edge17_Node000010_Node000017" class="edge">
<title>Node10&#45;&gt;Node17</title>
<g id="a_edge17_Node000010_Node000017"><a xlink:title=" ">
<path fill="none" stroke="#63b8ff" d="M164.54,-39.94C184.1,-34.56 210.11,-27.41 231.8,-21.44"/>
<polygon fill="#63b8ff" stroke="#63b8ff" points="232.52,-24.87 241.23,-18.84 230.66,-18.12 232.52,-24.87"/>
</a>
</g>
</g>
<!-- Node12 -->
<g id="Node000012" class="node">
<title>Node12</title>
<g id="a_Node000012"><a xlink:href="check_8c.html#a38570858cbbc90a33ede0f90827c4823" target="_top" xlink:title=" ">
<polygon fill="white" stroke="#666666" points="471.25,-115 360.75,-115 360.75,-95 471.25,-95 471.25,-115"/>
<text xml:space="preserve" text-anchor="middle" x="416" y="-101.5" font-family="Helvetica,sans-Serif" font-size="10.00">check_line_first_pass</text>
</a>
</g>
</g>
<!-- Node11&#45;&gt;Node12 -->
<g id="edge11_Node000011_Node000012" class="edge">
<title>Node11&#45;&gt;Node12</title>
<g id="a_edge11_Node000011_Node000012"><a xlink:title=" ">
<path fill="none" stroke="#63b8ff" d="M317.65,-91.75C327.65,-93.11 338.56,-94.6 349.34,-96.06"/>
<polygon fill="#63b8ff" stroke="#63b8ff" points="348.59,-99.5 358.97,-97.38 349.54,-92.56 348.59,-99.5"/>
</a>
</g>
</g>
<!-- Node15 -->
<g id="Node000015" class="node">
<title>Node15</title>
<g id="a_Node000015"><a xlink:href="check_8c.html#abf8d801f4b0d3f44703ee26c29cbc7ea" target="_top" xlink:title=" ">
<polygon fill="white" stroke="#666666" points="478.75,-77 353.25,-77 353.25,-57 478.75,-57 478.75,-77"/>
<text xml:space="preserve" text-anchor="middle" x="416" y="-63.5" font-family="Helvetica,sans-Serif" font-size="10.00">check_line_second_pass</text>
</a>
</g>
</g>
<!-- Node11&#45;&gt;Node15 -->
<g id="edge14_Node000011_Node000015" class="edge">
<title>Node11&#45;&gt;Node15</title>
<g id="a_edge14_Node000011_Node000015"><a xlink:title=" ">
<path fill="none" stroke="#63b8ff" d="M317.65,-80.25C325.26,-79.21 333.4,-78.1 341.6,-76.99"/>
<polygon fill="#63b8ff" stroke="#63b8ff" points="341.85,-80.49 351.28,-75.67 340.9,-73.55 341.85,-80.49"/>
</a>
</g>
</g>
<!-- Node13 -->
<g id="Node000013" class="node">
<title>Node13</title>
<g id="a_Node000013"><a xlink:href="check_8c.html#a9f567b488719e781e686023ac13ef057" target="_top" xlink:title=" ">
<polygon fill="white" stroke="#666666" points="600.5,-96 514.75,-96 514.75,-76 600.5,-76 600.5,-96"/>
<text xml:space="preserve" text-anchor="middle" x="557.62" y="-82.5" font-family="Helvetica,sans-Serif" font-size="10.00">check_clue_line</text>
</a>
</g>
</g>
<!-- Node12&#45;&gt;Node13 -->
<g id="edge12_Node000012_Node000013" class="edge">
<title>Node12&#45;&gt;Node13</title>
<g id="a_edge12_Node000012_Node000013"><a xlink:title=" ">
<path fill="none" stroke="#63b8ff" d="M471.38,-97.6C481.73,-96.19 492.55,-94.72 502.88,-93.31"/>
<polygon fill="#63b8ff" stroke="#63b8ff" points="503.34,-96.78 512.78,-91.97 502.4,-89.85 503.34,-96.78"/>
</a>
</g>
</g>
<!-- Node14 -->
<g id="Node000014" class="node">
<title>Node14</title>
<g id="a_Node000014"><a xlink:href="check_8c.html#a819919c9c0b20e3ab94f293bb3aa3ab9" target="_top" xlink:title=" ">
<polygon fill="white" stroke="#666666" points="709.5,-96 636.5,-96 636.5,-76 709.5,-76 709.5,-96"/>
<text xml:space="preserve" text-anchor="middle" x="673" y="-82.5" font-family="Helvetica,sans-Serif" font-size="10.00">count_visible</text>
</a>
</g>
</g>
<!-- Node13&#45;&gt;Node14 -->
<g id="edge13_Node000013_Node000014" class="edge">
<title>Node13&#45;&gt;Node14</title>
<g id="a_edge13_Node000013_Node000014"><a xlink:title=" ">
<path fill="none" stroke="#63b8ff" d="M600.84,-86C608.62,-86 616.8,-86 624.72,-86"/>
<polygon fill="#63b8ff" stroke="#63b8ff" points="624.56,-89.5 634.56,-86 624.56,-82.5 624.56,-89.5"/>
</a>
</g>
</g>
<!-- Node15&#45;&gt;Node13 -->
<g id="edge15_Node000015_Node000013" class="edge">
<title>Node15&#45;&gt;Node13</title>
<g id="a_edge15_Node000015_Node000013"><a xlink:title=" ">
<path fill="none" stroke="#63b8ff" d="M479.05,-75.44C487.08,-76.54 495.24,-77.65 503.11,-78.72"/>
<polygon fill="#63b8ff" stroke="#63b8ff" points="502.51,-82.17 512.89,-80.05 503.45,-75.23 502.51,-82.17"/>
</a>
</g>
</g>
</g>
</svg>
