<?xml version="1.0" encoding="UTF-8" standalone="no"?>
<!DOCTYPE svg PUBLIC "-//W3C//DTD SVG 1.1//EN"
 "http://www.w3.org/Graphics/SVG/1.1/DTD/svg11.dtd">
<!-- Generated by graphviz version 13.1.2 (0)
 -->
<!-- Title: solve_grid Pages: 1 -->
<svg width="582pt" height="123pt"
 viewBox="0.00 0.00 582.00 123.00" xmlns="http://www.w3.org/2000/svg" xmlns:xlink="http://www.w3.org/1999/xlink">
<g id="graph0" class="graph" transform="scale(1 1) rotate(0) translate(4 119)">
<title>solve_grid</title>
<!-- Node1 -->
<g id="Node000001" class="node">
<title>Node1</title>
<g id="a_Node000001"><a xlink:title=" ">
<polygon fill="#999999" stroke="#666666" points="60.25,-58 0,-58 0,-38 60.25,-38 60.25,-58"/>
<text xml:space="preserve" text-anchor="middle" x="30.12" y="-44.5" font-family="Helvetica,sans-Serif" font-size="10.00">solve_grid</text>
</a>
</g>
</g>
<!-- Node1&#45;&gt;Node1 -->
<g id="edge9_Node000001_Node000001" class="edge">
<title>Node1&#45;&gt;Node1</title>
<g id="a_edge9_Node000001_Node000001"><a xlink:title=" ">
<path fill="none" stroke="#63b8ff" d="M12.81,-58.34C5.4,-66.98 11.18,-76 30.12,-76 40.49,-76 46.91,-73.3 49.39,-69.44"/>
<polygon fill="#63b8ff" stroke="#63b8ff" points="52.88,-69.08 47.71,-59.83 45.98,-70.28 52.88,-69.08"/>
</a>
</g>
</g>
<!-- Node2 -->
<g id="Node000002" class="node">
<title>Node2</title>
<g id="a_Node000002"><a xlink:href="check_8c.html#a21871e8a813ff7cb6342a9fe2fba2c23" target="_top" xlink:title=" ">
<polygon fill="white" stroke="#666666" points="182,-96 96.25,-96 96.25,-76 182,-76 182,-96"/>
<text xml:space="preserve" text-anchor="middle" x="139.12" y="-82.5" font-family="Helvetica,sans-Serif" font-size="10.00">check_all_clues</text>
</a>
</g>
</g>
<!-- Node1&#45;&gt;Node2 -->
<g id="edge1_Node000001_Node000002" class="edge">
<title>Node1&#45;&gt;Node2</title>
<g id="a_edge1_Node000001_Node000002"><a xlink:title=" ">
<path fill="none" stroke="#63b8ff" d="M60.65,-58.48C72.22,-62.6 85.69,-67.38 98.12,-71.79"/>
<polygon fill="#63b8ff" stroke="#63b8ff" points="96.68,-74.99 107.27,-75.04 99.02,-68.4 96.68,-74.99"/>
</a>
</g>
</g>
<!-- Node7 -->
<g id="Node000007" class="node">
<title>Node7</title>
<g id="a_Node000007"><a xlink:href="solver_8c.html#a1b1ef40b9aeadd153cd681fe38ff66b8" target="_top" xlink:title=" ">
<polygon fill="white" stroke="#666666" points="169.25,-58 109,-58 109,-38 169.25,-38 169.25,-58"/>
<text xml:space="preserve" text-anchor="middle" x="139.12" y="-44.5" font-family="Helvetica,sans-Serif" font-size="10.00">check_col</text>
</a>
</g>
</g>
<!-- Node1&#45;&gt;Node7 -->
<g id="edge7_Node000001_Node000007" class="edge">
<title>Node1&#45;&gt;Node7</title>
<g id="a_edge7_Node000001_Node000007"><a xlink:title=" ">
<path fill="none" stroke="#63b8ff" d="M60.65,-48C71.99,-48 85.15,-48 97.37,-48"/>
<polygon fill="#63b8ff" stroke="#63b8ff" points="97.19,-51.5 107.19,-48 97.19,-44.5 97.19,-51.5"/>
</a>
</g>
</g>
<!-- Node8 -->
<g id="Node000008" class="node">
<title>Node8</title>
<g id="a_Node000008"><a xlink:href="solver_8c.html#a8fdf42d6de0577c41a94c8443499f059" target="_top" xlink:title=" ">
<polygon fill="white" stroke="#666666" points="170.75,-20 107.5,-20 107.5,0 170.75,0 170.75,-20"/>
<text xml:space="preserve" text-anchor="middle" x="139.12" y="-6.5" font-family="Helvetica,sans-Serif" font-size="10.00">check_row</text>
</a>
</g>
</g>
<!-- Node1&#45;&gt;Node8 -->
<g id="edge8_Node000001_Node000008" class="edge">
<title>Node1&#45;&gt;Node8</title>
<g id="a_edge8_Node000001_Node000008"><a xlink:title=" ">
<path fill="none" stroke="#63b8ff" d="M60.65,-37.52C72.22,-33.4 85.69,-28.62 98.12,-24.21"/>
<polygon fill="#63b8ff" stroke="#63b8ff" points="99.02,-27.6 107.27,-20.96 96.68,-21.01 99.02,-27.6"/>
</a>
</g>
</g>
<!-- Node3 -->
<g id="Node000003" class="node">
<title>Node3</title>
<g id="a_Node000003"><a xlink:href="check_8c.html#a38570858cbbc90a33ede0f90827c4823" target="_top" xlink:title=" ">
<polygon fill="white" stroke="#666666" points="336,-115 225.5,-115 225.5,-95 336,-95 336,-115"/>
<text xml:space="preserve" text-anchor="middle" x="280.75" y="-101.5" font-family="Helvetica,sans-Serif" font-size="10.00">check_line_first_pass</text>
</a>
</g>
</g>
<!-- Node2&#45;&gt;Node3 -->
<g id="edge2_Node000002_Node000003" class="edge">
<title>Node2&#45;&gt;Node3</title>
<g id="a_edge2_Node000002_Node000003"><a xlink:title=" ">
<path fill="none" stroke="#63b8ff" d="M182.4,-91.75C192.4,-93.11 203.31,-94.6 214.09,-96.06"/>
<polygon fill="#63b8ff" stroke="#63b8ff" points="213.34,-99.5 223.72,-97.38 214.29,-92.56 213.34,-99.5"/>
</a>
</g>
</g>
<!-- Node6 -->
<g id="Node000006" class="node">
<title>Node6</title>
<g id="a_Node000006"><a xlink:href="check_8c.html#abf8d801f4b0d3f44703ee26c29cbc7ea" target="_top" xlink:title=" ">
<polygon fill="white" stroke="#666666" points="343.5,-77 218,-77 218,-57 343.5,-57 343.5,-77"/>
<text xml:space="preserve" text-anchor="middle" x="280.75" y="-63.5" font-family="Helvetica,sans-Serif" font-size="10.00">check_line_second_pass</text>
</a>
</g>
</g>
<!-- Node2&#45;&gt;Node6 -->
<g id="edge5_Node000002_Node000006" class="edge">
<title>Node2&#45;&gt;Node6</title>
<g id="a_edge5_Node000002_Node000006"><a xlink:title=" ">
<path fill="none" stroke="#63b8ff" d="M182.4,-80.25C190.01,-79.21 198.15,-78.1 206.35,-76.99"/>
<polygon fill="#63b8ff" stroke="#63b8ff" points="206.6,-80.49 216.03,-75.67 205.65,-73.55 206.6,-80.49"/>
</a>
</g>
</g>
<!-- Node4 -->
<g id="Node000004" class="node">
<title>Node4</title>
<g id="a_Node000004"><a xlink:href="check_8c.html#a9f567b488719e781e686023ac13ef057" target="_top" xlink:title=" ">
<polygon fill="white" stroke="#666666" points="465.25,-96 379.5,-96 379.5,-76 465.25,-76 465.25,-96"/>
<text xml:space="preserve" text-anchor="middle" x="422.38" y="-82.5" font-family="Helvetica,sans-Serif" font-size="10.00">check_clue_line</text>
</a>
</g>
</g>
<!-- Node3&#45;&gt;Node4 -->
<g id="edge3_Node000003_Node000004" class="edge">
<title>Node3&#45;&gt;Node4</title>
<g id="a_edge3_Node000003_Node000004"><a xlink:title=" ">
<path fill="none" stroke="#63b8ff" d="M336.13,-97.6C346.48,-96.19 357.3,-94.72 367.63,-93.31"/>
<polygon fill="#63b8ff" stroke="#63b8ff" points="368.09,-96.78 377.53,-91.97 367.15,-89.85 368.09,-96.78"/>
</a>
</g>
</g>
<!-- Node5 -->
<g id="Node000005" class="node">
<title>Node5</title>
<g id="a_Node000005"><a xlink:href="check_8c.html#a819919c9c0b20e3ab94f293bb3aa3ab9" target="_top" xlink:title=" ">
<polygon fill="white" stroke="#666666" points="574.25,-96 501.25,-96 501.25,-76 574.25,-76 574.25,-96"/>
<text xml:space="preserve" text-anchor="middle" x="537.75" y="-82.5" font-family="Helvetica,sans-Serif" font-size="10.00">count_visible</text>
</a>
</g>
</g>
<!-- Node4&#45;&gt;Node5 -->
<g id="edge4_Node000004_Node000005" class="edge">
<title>Node4&#45;&gt;Node5</title>
<g id="a_edge4_Node000004_Node000005"><a xlink:title=" ">
<path fill="none" stroke="#63b8ff" d="M465.59,-86C473.37,-86 481.55,-86 489.47,-86"/>
<polygon fill="#63b8ff" stroke="#63b8ff" points="489.31,-89.5 499.31,-86 489.31,-82.5 489.31,-89.5"/>
</a>
</g>
</g>
<!-- Node6&#45;&gt;Node4 -->
<g id="edge6_Node000006_Node000004" class="edge">
<title>Node6&#45;&gt;Node4</title>
<g id="a_edge6_Node000006_Node000004"><a xlink:title=" ">
<path fill="none" stroke="#63b8ff" d="M343.8,-75.44C351.83,-76.54 359.99,-77.65 367.86,-78.72"/>
<polygon fill="#63b8ff" stroke="#63b8ff" points="367.26,-82.17 377.64,-80.05 368.2,-75.23 367.26,-82.17"/>
</a>
</g>
</g>
</g>
</svg>
