<?xml version="1.0" encoding="UTF-8" standalone="no"?>
<!DOCTYPE svg PUBLIC "-//W3C//DTD SVG 1.1//EN"
 "http://www.w3.org/Graphics/SVG/1.1/DTD/svg11.dtd">
<!-- Generated by graphviz version 13.1.2 (0)
 -->
<!-- Title: check_col Pages: 1 -->
<svg width="238pt" height="46pt"
 viewBox="0.00 0.00 238.00 46.00" xmlns="http://www.w3.org/2000/svg" xmlns:xlink="http://www.w3.org/1999/xlink">
<g id="graph0" class="graph" transform="scale(1 1) rotate(0) translate(4 42)">
<title>check_col</title>
<!-- Node1 -->
<g id="Node000001" class="node">
<title>Node1</title>
<g id="a_Node000001"><a xlink:title=" ">
<polygon fill="#999999" stroke="#666666" points="229.5,-20 169.25,-20 169.25,0 229.5,0 229.5,-20"/>
<text xml:space="preserve" text-anchor="middle" x="199.38" y="-6.5" font-family="Helvetica,sans-Serif" font-size="10.00">check_col</text>
</a>
</g>
</g>
<!-- Node2 -->
<g id="Node000002" class="node">
<title>Node2</title>
<g id="a_Node000002"><a xlink:href="solver_8c.html#a4b4d6ba034f2f53e23499f4c24716bad" target="_top" xlink:title=" ">
<polygon fill="white" stroke="#666666" points="133.25,-20 73,-20 73,0 133.25,0 133.25,-20"/>
<text xml:space="preserve" text-anchor="middle" x="103.12" y="-6.5" font-family="Helvetica,sans-Serif" font-size="10.00">solve_grid</text>
</a>
</g>
</g>
<!-- Node1&#45;&gt;Node2 -->
<g id="edge1_Node000001_Node000002" class="edge">
<title>Node1&#45;&gt;Node2</title>
<g id="a_edge1_Node000001_Node000002"><a xlink:title=" ">
<path fill="none" stroke="#63b8ff" d="M157.37,-10C149.36,-10 141.12,-10 133.58,-10"/>
<polygon fill="#63b8ff" stroke="#63b8ff" points="157.3,-13.5 167.3,-10 157.3,-6.5 157.3,-13.5"/>
</a>
</g>
</g>
<!-- Node2&#45;&gt;Node2 -->
<g id="edge3_Node000002_Node000002" class="edge">
<title>Node2&#45;&gt;Node2</title>
<g id="a_edge3_Node000002_Node000002"><a xlink:title=" ">
<path fill="none" stroke="#63b8ff" d="M117.91,-31.77C115.87,-35.45 110.94,-38 103.12,-38 88.41,-38 83.93,-28.98 89.68,-20.34"/>
<polygon fill="#63b8ff" stroke="#63b8ff" points="121.39,-31.37 116.75,-21.84 114.43,-32.18 121.39,-31.37"/>
</a>
</g>
</g>
<!-- Node3 -->
<g id="Node000003" class="node">
<title>Node3</title>
<g id="a_Node000003"><a xlink:href="main_8c.html#a3c04138a5bfe5d72780bb7e82a18e627" target="_top" xlink:title=" ">
<polygon fill="white" stroke="#666666" points="37,-20 0,-20 0,0 37,0 37,-20"/>
<text xml:space="preserve" text-anchor="middle" x="18.5" y="-6.5" font-family="Helvetica,sans-Serif" font-size="10.00">main</text>
</a>
</g>
</g>
<!-- Node2&#45;&gt;Node3 -->
<g id="edge2_Node000002_Node000003" class="edge">
<title>Node2&#45;&gt;Node3</title>
<g id="a_edge2_Node000002_Node000003"><a xlink:title=" ">
<path fill="none" stroke="#63b8ff" d="M61.34,-10C52.86,-10 44.34,-10 37.23,-10"/>
<polygon fill="#63b8ff" stroke="#63b8ff" points="61.25,-13.5 71.25,-10 61.25,-6.5 61.25,-13.5"/>
</a>
</g>
</g>
</g>
</svg>
