<?xml version="1.0" encoding="UTF-8" standalone="no"?>
<!DOCTYPE svg PUBLIC "-//W3C//DTD SVG 1.1//EN"
 "http://www.w3.org/Graphics/SVG/1.1/DTD/svg11.dtd">
<!-- Generated by graphviz version 13.1.2 (0)
 -->
<!-- Title: convert_triplet Pages: 1 -->
<svg width="679pt" height="125pt"
 viewBox="0.00 0.00 679.00 125.00" xmlns="http://www.w3.org/2000/svg" xmlns:xlink="http://www.w3.org/1999/xlink">
<g id="graph0" class="graph" transform="scale(1 1) rotate(0) translate(4 121.08)">
<title>convert_triplet</title>
<!-- Node1 -->
<g id="Node000001" class="node">
<title>Node1</title>
<g id="a_Node000001"><a xlink:title=" ">
<polygon fill="#999999" stroke="#666666" points="77.5,-58 0,-58 0,-38 77.5,-38 77.5,-58"/>
<text xml:space="preserve" text-anchor="middle" x="38.75" y="-44.5" font-family="Helvetica,sans-Serif" font-size="10.00">convert_triplet</text>
</a>
</g>
</g>
<!-- Node2 -->
<g id="Node000002" class="node">
<title>Node2</title>
<g id="a_Node000002"><a xlink:href="conversion_8c.html#a1860eceee858703a4a25348759c51830" target="_top" xlink:title=" ">
<polygon fill="white" stroke="#666666" points="206.75,-77 113.5,-77 113.5,-57 206.75,-57 206.75,-77"/>
<text xml:space="preserve" text-anchor="middle" x="160.12" y="-63.5" font-family="Helvetica,sans-Serif" font-size="10.00">convert_hundreds</text>
</a>
</g>
</g>
<!-- Node1&#45;&gt;Node2 -->
<g id="edge1_Node000001_Node000002" class="edge">
<title>Node1&#45;&gt;Node2</title>
<g id="a_edge1_Node000001_Node000002"><a xlink:title=" ">
<path fill="none" stroke="#63b8ff" d="M77.85,-54.06C85.46,-55.27 93.6,-56.57 101.69,-57.86"/>
<polygon fill="#63b8ff" stroke="#63b8ff" points="101.11,-61.31 111.54,-59.43 102.21,-54.4 101.11,-61.31"/>
</a>
</g>
</g>
<!-- Node9 -->
<g id="Node000009" class="node">
<title>Node9</title>
<g id="a_Node000009"><a xlink:href="process_8c.html#aedbe09c9d81390246e7bed1b0c630a21" target="_top" xlink:title=" ">
<polygon fill="white" stroke="#666666" points="319.12,-20 264.88,-20 264.88,0 319.12,0 319.12,-20"/>
<text xml:space="preserve" text-anchor="middle" x="292" y="-6.5" font-family="Helvetica,sans-Serif" font-size="10.00">ft_strdup</text>
</a>
</g>
</g>
<!-- Node1&#45;&gt;Node9 -->
<g id="edge10_Node000001_Node000009" class="edge">
<title>Node1&#45;&gt;Node9</title>
<g id="a_edge10_Node000001_Node000009"><a xlink:title=" ">
<path fill="none" stroke="#63b8ff" d="M77.91,-42.23C125.37,-35.05 205.89,-22.87 253.18,-15.72"/>
<polygon fill="#63b8ff" stroke="#63b8ff" points="253.59,-19.2 262.96,-14.24 252.54,-12.28 253.59,-19.2"/>
</a>
</g>
</g>
<!-- Node3 -->
<g id="Node000003" class="node">
<title>Node3</title>
<g id="a_Node000003"><a xlink:href="helpers_8c.html#a3222789b62d41bef34bd5b3f1c9de0dc" target="_top" xlink:title=" ">
<polygon fill="white" stroke="#666666" points="577.25,-58 475,-58 475,-38 577.25,-38 577.25,-58"/>
<text xml:space="preserve" text-anchor="middle" x="526.12" y="-44.5" font-family="Helvetica,sans-Serif" font-size="10.00">append_with_space</text>
</a>
</g>
</g>
<!-- Node2&#45;&gt;Node3 -->
<g id="edge2_Node000002_Node000003" class="edge">
<title>Node2&#45;&gt;Node3</title>
<g id="a_edge2_Node000002_Node000003"><a xlink:title=" ">
<path fill="none" stroke="#63b8ff" d="M207.23,-64.59C272.23,-61.2 390.99,-55 463.51,-51.22"/>
<polygon fill="#63b8ff" stroke="#63b8ff" points="463.42,-54.73 473.22,-50.71 463.05,-47.74 463.42,-54.73"/>
</a>
</g>
</g>
<!-- Node5 -->
<g id="Node000005" class="node">
<title>Node5</title>
<g id="a_Node000005"><a xlink:href="helpers2_8c.html#a10f3a7bc3f2e2b5a3e5e43c0ba93e1f8" target="_top" xlink:title=" ">
<polygon fill="white" stroke="#666666" points="341.25,-96 242.75,-96 242.75,-76 341.25,-76 341.25,-96"/>
<text xml:space="preserve" text-anchor="middle" x="292" y="-82.5" font-family="Helvetica,sans-Serif" font-size="10.00">convert_tens_ones</text>
</a>
</g>
</g>
<!-- Node2&#45;&gt;Node5 -->
<g id="edge4_Node000002_Node000005" class="edge">
<title>Node2&#45;&gt;Node5</title>
<g id="a_edge4_Node000002_Node000005"><a xlink:title=" ">
<path fill="none" stroke="#63b8ff" d="M206.91,-73.7C214.76,-74.85 223.01,-76.05 231.15,-77.24"/>
<polygon fill="#63b8ff" stroke="#63b8ff" points="230.64,-80.71 241.05,-78.69 231.66,-73.78 230.64,-80.71"/>
</a>
</g>
</g>
<!-- Node7 -->
<g id="Node000007" class="node">
<title>Node7</title>
<g id="a_Node000007"><a xlink:href="conversion_8c.html#a4da89996f6f5a45fbb646c39ef3e6cb2" target="_top" xlink:title=" ">
<polygon fill="white" stroke="#666666" points="563,-115 489.25,-115 489.25,-95 563,-95 563,-115"/>
<text xml:space="preserve" text-anchor="middle" x="526.12" y="-101.5" font-family="Helvetica,sans-Serif" font-size="10.00">find_mapping</text>
</a>
</g>
</g>
<!-- Node2&#45;&gt;Node7 -->
<g id="edge9_Node000002_Node000007" class="edge">
<title>Node2&#45;&gt;Node7</title>
<g id="a_edge9_Node000002_Node000007"><a xlink:title=" ">
<path fill="none" stroke="#63b8ff" d="M177.86,-77.45C193.84,-86.77 218.94,-99.73 242.75,-105 323.8,-122.94 421.18,-117.15 477.82,-111.17"/>
<polygon fill="#63b8ff" stroke="#63b8ff" points="477.87,-114.68 487.42,-110.1 477.1,-107.73 477.87,-114.68"/>
</a>
</g>
</g>
<!-- Node4 -->
<g id="Node000004" class="node">
<title>Node4</title>
<g id="a_Node000004"><a xlink:href="process_8c.html#a7a9fe4f1210008b95e1b118945eb31ba" target="_top" xlink:title=" ">
<polygon fill="white" stroke="#666666" points="667.5,-39 616.25,-39 616.25,-19 667.5,-19 667.5,-39"/>
<text xml:space="preserve" text-anchor="middle" x="641.88" y="-25.5" font-family="Helvetica,sans-Serif" font-size="10.00">ft_strlen</text>
</a>
</g>
</g>
<!-- Node3&#45;&gt;Node4 -->
<g id="edge3_Node000003_Node000004" class="edge">
<title>Node3&#45;&gt;Node4</title>
<g id="a_edge3_Node000003_Node000004"><a xlink:title=" ">
<path fill="none" stroke="#63b8ff" d="M577.68,-39.56C586.82,-38.03 596.18,-36.47 604.79,-35.03"/>
<polygon fill="#63b8ff" stroke="#63b8ff" points="605.22,-38.5 614.51,-33.4 604.07,-31.6 605.22,-38.5"/>
</a>
</g>
</g>
<!-- Node6 -->
<g id="Node000006" class="node">
<title>Node6</title>
<g id="a_Node000006"><a xlink:href="helpers2_8c.html#a5496f04c16dcdf7089447f61a18e6032" target="_top" xlink:title=" ">
<polygon fill="white" stroke="#666666" points="439,-96 377.25,-96 377.25,-76 439,-76 439,-96"/>
<text xml:space="preserve" text-anchor="middle" x="408.12" y="-82.5" font-family="Helvetica,sans-Serif" font-size="10.00">temp_func</text>
</a>
</g>
</g>
<!-- Node5&#45;&gt;Node6 -->
<g id="edge5_Node000005_Node000006" class="edge">
<title>Node5&#45;&gt;Node6</title>
<g id="a_edge5_Node000005_Node000006"><a xlink:title=" ">
<path fill="none" stroke="#63b8ff" d="M341.73,-86C349.7,-86 357.88,-86 365.65,-86"/>
<polygon fill="#63b8ff" stroke="#63b8ff" points="365.53,-89.5 375.53,-86 365.53,-82.5 365.53,-89.5"/>
</a>
</g>
</g>
<!-- Node6&#45;&gt;Node3 -->
<g id="edge6_Node000006_Node000003" class="edge">
<title>Node6&#45;&gt;Node3</title>
<g id="a_edge6_Node000006_Node000003"><a xlink:title=" ">
<path fill="none" stroke="#63b8ff" d="M439.3,-76.12C452.57,-71.77 468.38,-66.59 482.79,-61.87"/>
<polygon fill="#63b8ff" stroke="#63b8ff" points="483.63,-65.28 492.04,-58.84 481.45,-58.62 483.63,-65.28"/>
</a>
</g>
</g>
<!-- Node6&#45;&gt;Node7 -->
<g id="edge7_Node000006_Node000007" class="edge">
<title>Node6&#45;&gt;Node7</title>
<g id="a_edge7_Node000006_Node000007"><a xlink:title=" ">
<path fill="none" stroke="#63b8ff" d="M439.3,-90.94C451.03,-92.86 464.76,-95.11 477.75,-97.24"/>
<polygon fill="#63b8ff" stroke="#63b8ff" points="476.98,-100.66 487.41,-98.82 478.11,-93.75 476.98,-100.66"/>
</a>
</g>
</g>
<!-- Node8 -->
<g id="Node000008" class="node">
<title>Node8</title>
<g id="a_Node000008"><a xlink:href="process_8c.html#abd118f33a5a0fe00b6cbbfb0eeae25a5" target="_top" xlink:title=" ">
<polygon fill="white" stroke="#666666" points="670.5,-115 613.25,-115 613.25,-95 670.5,-95 670.5,-115"/>
<text xml:space="preserve" text-anchor="middle" x="641.88" y="-101.5" font-family="Helvetica,sans-Serif" font-size="10.00">ft_strcmp</text>
</a>
</g>
</g>
<!-- Node7&#45;&gt;Node8 -->
<g id="edge8_Node000007_Node000008" class="edge">
<title>Node7&#45;&gt;Node8</title>
<g id="a_edge8_Node000007_Node000008"><a xlink:title=" ">
<path fill="none" stroke="#63b8ff" d="M563.43,-105C575.55,-105 589.11,-105 601.46,-105"/>
<polygon fill="#63b8ff" stroke="#63b8ff" points="601.32,-108.5 611.32,-105 601.32,-101.5 601.32,-108.5"/>
</a>
</g>
</g>
<!-- Node9&#45;&gt;Node4 -->
<g id="edge11_Node000009_Node000004" class="edge">
<title>Node9&#45;&gt;Node4</title>
<g id="a_edge11_Node000009_Node000004"><a xlink:title=" ">
<path fill="none" stroke="#63b8ff" d="M319.43,-11.44C381.04,-14.81 534.24,-23.18 604.56,-27.02"/>
<polygon fill="#63b8ff" stroke="#63b8ff" points="604.2,-30.5 614.38,-27.55 604.59,-23.51 604.2,-30.5"/>
</a>
</g>
</g>
</g>
</svg>
