<?xml version="1.0" encoding="UTF-8" standalone="no"?>
<!DOCTYPE svg PUBLIC "-//W3C//DTD SVG 1.1//EN"
 "http://www.w3.org/Graphics/SVG/1.1/DTD/svg11.dtd">
<!-- Generated by graphviz version 13.1.2 (0)
 -->
<!-- Title: parse_dictionary Pages: 1 -->
<svg width="551pt" height="199pt"
 viewBox="0.00 0.00 551.00 199.00" xmlns="http://www.w3.org/2000/svg" xmlns:xlink="http://www.w3.org/1999/xlink">
<g id="graph0" class="graph" transform="scale(1 1) rotate(0) translate(4 195)">
<title>parse_dictionary</title>
<!-- Node1 -->
<g id="Node000001" class="node">
<title>Node1</title>
<g id="a_Node000001"><a xlink:title=" ">
<polygon fill="#999999" stroke="#666666" points="87.25,-115 0,-115 0,-95 87.25,-95 87.25,-115"/>
<text xml:space="preserve" text-anchor="middle" x="43.62" y="-101.5" font-family="Helvetica,sans-Serif" font-size="10.00">parse_dictionary</text>
</a>
</g>
</g>
<!-- Node2 -->
<g id="Node000002" class="node">
<title>Node2</title>
<g id="a_Node000002"><a xlink:href="helpers2_8c.html#a25eedb6bb1efc6471fdbad00664ccf3f" target="_top" xlink:title=" ">
<polygon fill="white" stroke="#666666" points="298.88,-191 240.88,-191 240.88,-171 298.88,-171 298.88,-191"/>
<text xml:space="preserve" text-anchor="middle" x="269.88" y="-177.5" font-family="Helvetica,sans-Serif" font-size="10.00">free_lines</text>
</a>
</g>
</g>
<!-- Node1&#45;&gt;Node2 -->
<g id="edge1_Node000001_Node000002" class="edge">
<title>Node1&#45;&gt;Node2</title>
<g id="a_edge1_Node000001_Node000002"><a xlink:title=" ">
<path fill="none" stroke="#63b8ff" d="M63.56,-115.44C79.2,-123.76 102.19,-135.25 123.25,-143 158.32,-155.91 199.65,-166.25 229.31,-172.87"/>
<polygon fill="#63b8ff" stroke="#63b8ff" points="228.46,-176.27 238.98,-174.98 229.96,-169.43 228.46,-176.27"/>
</a>
</g>
</g>
<!-- Node3 -->
<g id="Node000003" class="node">
<title>Node3</title>
<g id="a_Node000003"><a xlink:href="dict__parser_8c.html#adcd1d9c253034ca41f33fcdf24ddd9fd" target="_top" xlink:title=" ">
<polygon fill="white" stroke="#666666" points="181.62,-134 124.38,-134 124.38,-114 181.62,-114 181.62,-134"/>
<text xml:space="preserve" text-anchor="middle" x="153" y="-120.5" font-family="Helvetica,sans-Serif" font-size="10.00">free_stuff</text>
</a>
</g>
</g>
<!-- Node1&#45;&gt;Node3 -->
<g id="edge2_Node000001_Node000003" class="edge">
<title>Node1&#45;&gt;Node3</title>
<g id="a_edge2_Node000001_Node000003"><a xlink:title=" ">
<path fill="none" stroke="#63b8ff" d="M87.68,-112.62C96.01,-114.09 104.69,-115.63 112.88,-117.08"/>
<polygon fill="#63b8ff" stroke="#63b8ff" points="112.11,-120.5 122.56,-118.79 113.33,-113.6 112.11,-120.5"/>
</a>
</g>
</g>
<!-- Node11 -->
<g id="Node000011" class="node">
<title>Node11</title>
<g id="a_Node000011"><a xlink:href="helpers__dict_8c.html#a68aa1ccec164997eebbb74f7d751555c" target="_top" xlink:title=" ">
<polygon fill="white" stroke="#666666" points="179.38,-96 126.62,-96 126.62,-76 179.38,-76 179.38,-96"/>
<text xml:space="preserve" text-anchor="middle" x="153" y="-82.5" font-family="Helvetica,sans-Serif" font-size="10.00">read_file</text>
</a>
</g>
</g>
<!-- Node1&#45;&gt;Node11 -->
<g id="edge12_Node000001_Node000011" class="edge">
<title>Node1&#45;&gt;Node11</title>
<g id="a_edge12_Node000001_Node000011"><a xlink:title=" ">
<path fill="none" stroke="#63b8ff" d="M87.68,-97.38C96.77,-95.77 106.28,-94.09 115.11,-92.53"/>
<polygon fill="#63b8ff" stroke="#63b8ff" points="115.52,-96.01 124.76,-90.82 114.3,-89.12 115.52,-96.01"/>
</a>
</g>
</g>
<!-- Node12 -->
<g id="Node000012" class="node">
<title>Node12</title>
<g id="a_Node000012"><a xlink:href="dict__parser_8c.html#a1c5b0b3fafa4233e41858d810a4bd1cd" target="_top" xlink:title=" ">
<polygon fill="white" stroke="#666666" points="182.75,-39 123.25,-39 123.25,-19 182.75,-19 182.75,-39"/>
<text xml:space="preserve" text-anchor="middle" x="153" y="-25.5" font-family="Helvetica,sans-Serif" font-size="10.00">split_lines</text>
</a>
</g>
</g>
<!-- Node1&#45;&gt;Node12 -->
<g id="edge13_Node000001_Node000012" class="edge">
<title>Node1&#45;&gt;Node12</title>
<g id="a_edge13_Node000001_Node000012"><a xlink:title=" ">
<path fill="none" stroke="#63b8ff" d="M59.11,-94.75C76.8,-82.23 106.98,-60.87 128.12,-45.9"/>
<polygon fill="#63b8ff" stroke="#63b8ff" points="130.03,-48.84 136.17,-40.2 125.99,-43.12 130.03,-48.84"/>
</a>
</g>
</g>
<!-- Node3&#45;&gt;Node2 -->
<g id="edge3_Node000003_Node000002" class="edge">
<title>Node3&#45;&gt;Node2</title>
<g id="a_edge3_Node000003_Node000002"><a xlink:title=" ">
<path fill="none" stroke="#63b8ff" d="M170.08,-134.47C182.94,-142.58 201.59,-153.78 218.75,-162 222.3,-163.7 226.04,-165.36 229.82,-166.94"/>
<polygon fill="#63b8ff" stroke="#63b8ff" points="228.43,-170.15 239.02,-170.61 231.03,-163.65 228.43,-170.15"/>
</a>
</g>
</g>
<!-- Node4 -->
<g id="Node000004" class="node">
<title>Node4</title>
<g id="a_Node000004"><a xlink:href="helpers2_8c.html#a947f1aa90d23e99b917dd7e3a0ab490e" target="_top" xlink:title=" ">
<polygon fill="white" stroke="#666666" points="309.75,-153 230,-153 230,-133 309.75,-133 309.75,-153"/>
<text xml:space="preserve" text-anchor="middle" x="269.88" y="-139.5" font-family="Helvetica,sans-Serif" font-size="10.00">free_mappings</text>
</a>
</g>
</g>
<!-- Node3&#45;&gt;Node4 -->
<g id="edge4_Node000003_Node000004" class="edge">
<title>Node3&#45;&gt;Node4</title>
<g id="a_edge4_Node000003_Node000004"><a xlink:title=" ">
<path fill="none" stroke="#63b8ff" d="M182.1,-128.65C193.09,-130.46 206.03,-132.61 218.52,-134.67"/>
<polygon fill="#63b8ff" stroke="#63b8ff" points="217.86,-138.11 228.29,-136.29 219,-131.2 217.86,-138.11"/>
</a>
</g>
</g>
<!-- Node5 -->
<g id="Node000005" class="node">
<title>Node5</title>
<g id="a_Node000005"><a xlink:href="helpers_8c.html#ad3e9fd83e20283e54a5adc9f5a9ea039" target="_top" xlink:title=" ">
<polygon fill="white" stroke="#666666" points="307.88,-115 231.88,-115 231.88,-95 307.88,-95 307.88,-115"/>
<text xml:space="preserve" text-anchor="middle" x="269.88" y="-101.5" font-family="Helvetica,sans-Serif" font-size="10.00">is_empty_line</text>
</a>
</g>
</g>
<!-- Node3&#45;&gt;Node5 -->
<g id="edge5_Node000003_Node000005" class="edge">
<title>Node3&#45;&gt;Node5</title>
<g id="a_edge5_Node000003_Node000005"><a xlink:title=" ">
<path fill="none" stroke="#63b8ff" d="M182.1,-119.35C193.61,-117.45 207.26,-115.19 220.3,-113.03"/>
<polygon fill="#63b8ff" stroke="#63b8ff" points="220.73,-116.51 230.03,-111.43 219.59,-109.6 220.73,-116.51"/>
</a>
</g>
</g>
<!-- Node6 -->
<g id="Node000006" class="node">
<title>Node6</title>
<g id="a_Node000006"><a xlink:href="dict__parser_8c.html#a5e0063cd44034d5e48a221f3f5890c3a" target="_top" xlink:title=" ">
<polygon fill="white" stroke="#666666" points="321,-77 218.75,-77 218.75,-57 321,-57 321,-77"/>
<text xml:space="preserve" text-anchor="middle" x="269.88" y="-63.5" font-family="Helvetica,sans-Serif" font-size="10.00">parse_mapping_line</text>
</a>
</g>
</g>
<!-- Node3&#45;&gt;Node6 -->
<g id="edge6_Node000003_Node000006" class="edge">
<title>Node3&#45;&gt;Node6</title>
<g id="a_edge6_Node000003_Node000006"><a xlink:title=" ">
<path fill="none" stroke="#63b8ff" d="M170.08,-113.53C182.94,-105.42 201.59,-94.22 218.75,-86 221.84,-84.52 225.08,-83.07 228.36,-81.68"/>
<polygon fill="#63b8ff" stroke="#63b8ff" points="229.48,-85 237.44,-78.01 226.86,-78.51 229.48,-85"/>
</a>
</g>
</g>
<!-- Node7 -->
<g id="Node000007" class="node">
<title>Node7</title>
<g id="a_Node000007"><a xlink:href="helpers_8c.html#a41989b306da817556af871fb6d5b72ff" target="_top" xlink:title=" ">
<polygon fill="white" stroke="#666666" points="448,-20 357,-20 357,0 448,0 448,-20"/>
<text xml:space="preserve" text-anchor="middle" x="402.5" y="-6.5" font-family="Helvetica,sans-Serif" font-size="10.00">extract_substring</text>
</a>
</g>
</g>
<!-- Node6&#45;&gt;Node7 -->
<g id="edge7_Node000006_Node000007" class="edge">
<title>Node6&#45;&gt;Node7</title>
<g id="a_edge7_Node000006_Node000007"><a xlink:title=" ">
<path fill="none" stroke="#63b8ff" d="M299.66,-56.53C306.68,-53.86 314.15,-50.91 321,-48 337.48,-41 355.54,-32.55 370.36,-25.4"/>
<polygon fill="#63b8ff" stroke="#63b8ff" points="371.7,-28.64 379.16,-21.12 368.63,-22.35 371.7,-28.64"/>
</a>
</g>
</g>
<!-- Node8 -->
<g id="Node000008" class="node">
<title>Node8</title>
<g id="a_Node000008"><a xlink:href="process_8c.html#a7a9fe4f1210008b95e1b118945eb31ba" target="_top" xlink:title=" ">
<polygon fill="white" stroke="#666666" points="539,-67 487.75,-67 487.75,-47 539,-47 539,-67"/>
<text xml:space="preserve" text-anchor="middle" x="513.38" y="-53.5" font-family="Helvetica,sans-Serif" font-size="10.00">ft_strlen</text>
</a>
</g>
</g>
<!-- Node6&#45;&gt;Node8 -->
<g id="edge8_Node000006_Node000008" class="edge">
<title>Node6&#45;&gt;Node8</title>
<g id="a_edge8_Node000006_Node000008"><a xlink:title=" ">
<path fill="none" stroke="#63b8ff" d="M321.21,-64.92C367.38,-63 434.67,-60.22 475.88,-58.51"/>
<polygon fill="#63b8ff" stroke="#63b8ff" points="475.91,-62.01 485.76,-58.1 475.62,-55.02 475.91,-62.01"/>
</a>
</g>
</g>
<!-- Node9 -->
<g id="Node000009" class="node">
<title>Node9</title>
<g id="a_Node000009"><a xlink:href="helpers__val_8c.html#abff58decf4919821527339856b7d8960" target="_top" xlink:title=" ">
<polygon fill="white" stroke="#666666" points="446.12,-105 358.88,-105 358.88,-85 446.12,-85 446.12,-105"/>
<text xml:space="preserve" text-anchor="middle" x="402.5" y="-91.5" font-family="Helvetica,sans-Serif" font-size="10.00">trim_whitespace</text>
</a>
</g>
</g>
<!-- Node6&#45;&gt;Node9 -->
<g id="edge9_Node000006_Node000009" class="edge">
<title>Node6&#45;&gt;Node9</title>
<g id="a_edge9_Node000006_Node000009"><a xlink:title=" ">
<path fill="none" stroke="#63b8ff" d="M319.51,-77.43C328.59,-79.37 338.13,-81.42 347.36,-83.39"/>
<polygon fill="#63b8ff" stroke="#63b8ff" points="346.42,-86.77 356.93,-85.45 347.89,-79.93 346.42,-86.77"/>
</a>
</g>
</g>
<!-- Node9&#45;&gt;Node8 -->
<g id="edge10_Node000009_Node000008" class="edge">
<title>Node9&#45;&gt;Node8</title>
<g id="a_edge10_Node000009_Node000008"><a xlink:title=" ">
<path fill="none" stroke="#63b8ff" d="M433.54,-84.52C446.95,-79.84 462.85,-74.29 476.84,-69.4"/>
<polygon fill="#63b8ff" stroke="#63b8ff" points="477.86,-72.75 486.15,-66.15 475.55,-66.14 477.86,-72.75"/>
</a>
</g>
</g>
<!-- Node10 -->
<g id="Node000010" class="node">
<title>Node10</title>
<g id="a_Node000010"><a xlink:href="helpers__val_8c.html#ad695bedaccc198754dd6dd42fdc88e8e" target="_top" xlink:title=" ">
<polygon fill="white" stroke="#666666" points="542.75,-105 484,-105 484,-85 542.75,-85 542.75,-105"/>
<text xml:space="preserve" text-anchor="middle" x="513.38" y="-91.5" font-family="Helvetica,sans-Serif" font-size="10.00">get_result</text>
</a>
</g>
</g>
<!-- Node9&#45;&gt;Node10 -->
<g id="edge11_Node000009_Node000010" class="edge">
<title>Node9&#45;&gt;Node10</title>
<g id="a_edge11_Node000009_Node000010"><a xlink:title=" ">
<path fill="none" stroke="#63b8ff" d="M446.53,-95C455.01,-95 463.89,-95 472.27,-95"/>
<polygon fill="#63b8ff" stroke="#63b8ff" points="472.19,-98.5 482.19,-95 472.19,-91.5 472.19,-98.5"/>
</a>
</g>
</g>
<!-- Node12&#45;&gt;Node7 -->
<g id="edge15_Node000012_Node000007" class="edge">
<title>Node12&#45;&gt;Node7</title>
<g id="a_edge15_Node000012_Node000007"><a xlink:title=" ">
<path fill="none" stroke="#63b8ff" d="M182.94,-18.59C193.99,-15.13 206.81,-11.72 218.75,-10 260.83,-3.95 308.93,-4.24 345.22,-5.88"/>
<polygon fill="#63b8ff" stroke="#63b8ff" points="344.88,-9.37 355.05,-6.38 345.24,-2.38 344.88,-9.37"/>
</a>
</g>
</g>
<!-- Node13 -->
<g id="Node000013" class="node">
<title>Node13</title>
<g id="a_Node000013"><a xlink:href="dict__parser_8c.html#a36d2da198013a616a7a0f98054824b45" target="_top" xlink:title=" ">
<polygon fill="white" stroke="#666666" points="302.62,-39 237.12,-39 237.12,-19 302.62,-19 302.62,-39"/>
<text xml:space="preserve" text-anchor="middle" x="269.88" y="-25.5" font-family="Helvetica,sans-Serif" font-size="10.00">count_lines</text>
</a>
</g>
</g>
<!-- Node12&#45;&gt;Node13 -->
<g id="edge14_Node000012_Node000013" class="edge">
<title>Node12&#45;&gt;Node13</title>
<g id="a_edge14_Node000012_Node000013"><a xlink:title=" ">
<path fill="none" stroke="#63b8ff" d="M182.99,-29C195.76,-29 211.05,-29 225.16,-29"/>
<polygon fill="#63b8ff" stroke="#63b8ff" points="225.14,-32.5 235.14,-29 225.14,-25.5 225.14,-32.5"/>
</a>
</g>
</g>
</g>
</svg>
