<?xml version="1.0" encoding="UTF-8" standalone="no"?>
<!DOCTYPE svg PUBLIC "-//W3C//DTD SVG 1.1//EN"
 "http://www.w3.org/Graphics/SVG/1.1/DTD/svg11.dtd">
<!-- Generated by graphviz version 13.1.2 (0)
 -->
<!-- Title: errors.c Pages: 1 -->
<svg width="205pt" height="84pt"
 viewBox="0.00 0.00 205.00 84.00" xmlns="http://www.w3.org/2000/svg" xmlns:xlink="http://www.w3.org/1999/xlink">
<g id="graph0" class="graph" transform="scale(1 1) rotate(0) translate(4 80)">
<title>errors.c</title>
<!-- Node1 -->
<g id="Node000001" class="node">
<title>Node1</title>
<g id="a_Node000001"><a xlink:title=" ">
<polygon fill="#999999" stroke="#666666" points="111,-76 62,-76 62,-56 111,-56 111,-76"/>
<text xml:space="preserve" text-anchor="middle" x="86.5" y="-62.5" font-family="Helvetica,sans-Serif" font-size="10.00">errors.c</text>
</a>
</g>
</g>
<!-- Node2 -->
<g id="Node000002" class="node">
<title>Node2</title>
<g id="a_Node000002"><a xlink:title=" ">
<polygon fill="#e0e0e0" stroke="#999999" points="43,-20 0,-20 0,0 43,0 43,-20"/>
<text xml:space="preserve" text-anchor="middle" x="21.5" y="-6.5" font-family="Helvetica,sans-Serif" font-size="10.00">fcntl.h</text>
</a>
</g>
</g>
<!-- Node1&#45;&gt;Node2 -->
<g id="edge1_Node000001_Node000002" class="edge">
<title>Node1&#45;&gt;Node2</title>
<g id="a_edge1_Node000001_Node000002"><a xlink:title=" ">
<path fill="none" stroke="#63b8ff" d="M75.18,-55.59C65.86,-47.85 52.42,-36.69 41.32,-27.47"/>
<polygon fill="#63b8ff" stroke="#63b8ff" points="43.79,-24.96 33.86,-21.27 39.31,-30.35 43.79,-24.96"/>
</a>
</g>
</g>
<!-- Node3 -->
<g id="Node000003" class="node">
<title>Node3</title>
<g id="a_Node000003"><a xlink:title=" ">
<polygon fill="#e0e0e0" stroke="#999999" points="111.75,-20 61.25,-20 61.25,0 111.75,0 111.75,-20"/>
<text xml:space="preserve" text-anchor="middle" x="86.5" y="-6.5" font-family="Helvetica,sans-Serif" font-size="10.00">unistd.h</text>
</a>
</g>
</g>
<!-- Node1&#45;&gt;Node3 -->
<g id="edge2_Node000001_Node000003" class="edge">
<title>Node1&#45;&gt;Node3</title>
<g id="a_edge2_Node000001_Node000003"><a xlink:title=" ">
<path fill="none" stroke="#63b8ff" d="M86.5,-55.59C86.5,-49.01 86.5,-39.96 86.5,-31.73"/>
<polygon fill="#63b8ff" stroke="#63b8ff" points="90,-31.81 86.5,-21.81 83,-31.81 90,-31.81"/>
</a>
</g>
</g>
<!-- Node4 -->
<g id="Node000004" class="node">
<title>Node4</title>
<g id="a_Node000004"><a xlink:href="ft__convert_8h.html" target="_top" xlink:title=" ">
<polygon fill="white" stroke="#666666" points="197.38,-20 129.62,-20 129.62,0 197.38,0 197.38,-20"/>
<text xml:space="preserve" text-anchor="middle" x="163.5" y="-6.5" font-family="Helvetica,sans-Serif" font-size="10.00">ft_convert.h</text>
</a>
</g>
</g>
<!-- Node1&#45;&gt;Node4 -->
<g id="edge3_Node000001_Node000004" class="edge">
<title>Node1&#45;&gt;Node4</title>
<g id="a_edge3_Node000001_Node000004"><a xlink:title=" ">
<path fill="none" stroke="#63b8ff" d="M99.91,-55.59C111.11,-47.74 127.31,-36.38 140.56,-27.09"/>
<polygon fill="#63b8ff" stroke="#63b8ff" points="142.57,-29.96 148.74,-21.35 138.55,-24.22 142.57,-29.96"/>
</a>
</g>
</g>
</g>
</svg>
