<?xml version="1.0" encoding="UTF-8" standalone="no"?>
<!DOCTYPE svg PUBLIC "-//W3C//DTD SVG 1.1//EN"
 "http://www.w3.org/Graphics/SVG/1.1/DTD/svg11.dtd">
<!-- Generated by graphviz version 13.1.2 (0)
 -->
<!-- Title: find_mapping Pages: 1 -->
<svg width="1142pt" height="170pt"
 viewBox="0.00 0.00 1142.00 170.00" xmlns="http://www.w3.org/2000/svg" xmlns:xlink="http://www.w3.org/1999/xlink">
<g id="graph0" class="graph" transform="scale(1 1) rotate(0) translate(4 166)">
<title>find_mapping</title>
<!-- Node1 -->
<g id="Node000001" class="node">
<title>Node1</title>
<g id="a_Node000001"><a xlink:title=" ">
<polygon fill="#999999" stroke="#666666" points="1134.25,-86 1060.5,-86 1060.5,-66 1134.25,-66 1134.25,-86"/>
<text xml:space="preserve" text-anchor="middle" x="1097.38" y="-72.5" font-family="Helvetica,sans-Serif" font-size="10.00">find_mapping</text>
</a>
</g>
</g>
<!-- Node2 -->
<g id="Node000002" class="node">
<title>Node2</title>
<g id="a_Node000002"><a xlink:href="dict__validation_8c.html#a58e73a2efb125a4b0f774511fd61c41d" target="_top" xlink:title=" ">
<polygon fill="white" stroke="#666666" points="899,-162 792.25,-162 792.25,-142 899,-142 899,-162"/>
<text xml:space="preserve" text-anchor="middle" x="845.62" y="-148.5" font-family="Helvetica,sans-Serif" font-size="10.00">can_convert_number</text>
</a>
</g>
</g>
<!-- Node1&#45;&gt;Node2 -->
<g id="edge1_Node000001_Node000002" class="edge">
<title>Node1&#45;&gt;Node2</title>
<g id="a_edge1_Node000001_Node000002"><a xlink:title=" ">
<path fill="none" stroke="#63b8ff" d="M1079.43,-94.09C1065.92,-107.28 1045.78,-124.29 1024.5,-133 984.69,-149.29 935.89,-153.52 899.48,-153.96"/>
<polygon fill="#63b8ff" stroke="#63b8ff" points="1081.71,-96.77 1086.24,-87.19 1076.73,-91.85 1081.71,-96.77"/>
</a>
</g>
</g>
<!-- Node6 -->
<g id="Node000006" class="node">
<title>Node6</title>
<g id="a_Node000006"><a xlink:href="conversion_8c.html#a1860eceee858703a4a25348759c51830" target="_top" xlink:title=" ">
<polygon fill="white" stroke="#666666" points="756.25,-86 663,-86 663,-66 756.25,-66 756.25,-86"/>
<text xml:space="preserve" text-anchor="middle" x="709.62" y="-72.5" font-family="Helvetica,sans-Serif" font-size="10.00">convert_hundreds</text>
</a>
</g>
</g>
<!-- Node1&#45;&gt;Node6 -->
<g id="edge5_Node000001_Node000006" class="edge">
<title>Node1&#45;&gt;Node6</title>
<g id="a_edge5_Node000001_Node000006"><a xlink:title=" ">
<path fill="none" stroke="#63b8ff" d="M1053.11,-62.64C1043.76,-60.29 1033.87,-58.22 1024.5,-57 922.14,-43.7 894.8,-45.22 792.25,-57 777.36,-58.71 761.24,-62.12 747.29,-65.58"/>
<polygon fill="#63b8ff" stroke="#63b8ff" points="1052.14,-66 1062.71,-65.2 1053.95,-59.24 1052.14,-66"/>
</a>
</g>
</g>
<!-- Node9 -->
<g id="Node000009" class="node">
<title>Node9</title>
<g id="a_Node000009"><a xlink:href="conversion_8c.html#a57f397d82b353b943410df86212e704d" target="_top" xlink:title=" ">
<polygon fill="white" stroke="#666666" points="397.75,-105 312,-105 312,-85 397.75,-85 397.75,-105"/>
<text xml:space="preserve" text-anchor="middle" x="354.88" y="-91.5" font-family="Helvetica,sans-Serif" font-size="10.00">convert_number</text>
</a>
</g>
</g>
<!-- Node1&#45;&gt;Node9 -->
<g id="edge10_Node000001_Node000009" class="edge">
<title>Node1&#45;&gt;Node9</title>
<g id="a_edge10_Node000001_Node000009"><a xlink:title=" ">
<path fill="none" stroke="#63b8ff" d="M1066.45,-60.59C1020.46,-38.38 929.07,0 846.62,0 846.62,0 846.62,0 587.25,0 498.88,0 404.8,-60.03 369.93,-84.65"/>
<polygon fill="#63b8ff" stroke="#63b8ff" points="1064.73,-63.64 1075.25,-64.92 1067.82,-57.36 1064.73,-63.64"/>
</a>
</g>
</g>
<!-- Node10 -->
<g id="Node000010" class="node">
<title>Node10</title>
<g id="a_Node000010"><a xlink:href="conversion_8c.html#aca6f8fd591fbde2a4d2c1e1833c827b5" target="_top" xlink:title=" ">
<polygon fill="white" stroke="#666666" points="1024.5,-124 935,-124 935,-104 1024.5,-104 1024.5,-124"/>
<text xml:space="preserve" text-anchor="middle" x="979.75" y="-110.5" font-family="Helvetica,sans-Serif" font-size="10.00">find_scale_name</text>
</a>
</g>
</g>
<!-- Node1&#45;&gt;Node10 -->
<g id="edge11_Node000001_Node000010" class="edge">
<title>Node1&#45;&gt;Node10</title>
<g id="a_edge11_Node000001_Node000010"><a xlink:title=" ">
<path fill="none" stroke="#63b8ff" d="M1053.85,-89.98C1040.19,-94.47 1025.3,-99.36 1012.55,-103.55"/>
<polygon fill="#63b8ff" stroke="#63b8ff" points="1054.63,-93.4 1063.04,-86.96 1052.44,-86.75 1054.63,-93.4"/>
</a>
</g>
</g>
<!-- Node11 -->
<g id="Node000011" class="node">
<title>Node11</title>
<g id="a_Node000011"><a xlink:href="helpers2_8c.html#a5496f04c16dcdf7089447f61a18e6032" target="_top" xlink:title=" ">
<polygon fill="white" stroke="#666666" points="1010.62,-86 948.88,-86 948.88,-66 1010.62,-66 1010.62,-86"/>
<text xml:space="preserve" text-anchor="middle" x="979.75" y="-72.5" font-family="Helvetica,sans-Serif" font-size="10.00">temp_func</text>
</a>
</g>
</g>
<!-- Node1&#45;&gt;Node11 -->
<g id="edge14_Node000001_Node000011" class="edge">
<title>Node1&#45;&gt;Node11</title>
<g id="a_edge14_Node000001_Node000011"><a xlink:title=" ">
<path fill="none" stroke="#63b8ff" d="M1048.69,-76C1035.97,-76 1022.57,-76 1011.06,-76"/>
<polygon fill="#63b8ff" stroke="#63b8ff" points="1048.59,-79.5 1058.59,-76 1048.59,-72.5 1048.59,-79.5"/>
</a>
</g>
</g>
<!-- Node3 -->
<g id="Node000003" class="node">
<title>Node3</title>
<g id="a_Node000003"><a xlink:href="process_8c.html#a5b78dd11ed0af8a3709ebbe817eea325" target="_top" xlink:title=" ">
<polygon fill="white" stroke="#666666" points="276,-124 173,-124 173,-104 276,-104 276,-124"/>
<text xml:space="preserve" text-anchor="middle" x="224.5" y="-110.5" font-family="Helvetica,sans-Serif" font-size="10.00">process_conversion</text>
</a>
</g>
</g>
<!-- Node2&#45;&gt;Node3 -->
<g id="edge2_Node000002_Node000003" class="edge">
<title>Node2&#45;&gt;Node3</title>
<g id="a_edge2_Node000002_Node000003"><a xlink:title=" ">
<path fill="none" stroke="#63b8ff" d="M780.49,-152C728.84,-152 654.38,-152 589.25,-152 589.25,-152 589.25,-152 472.62,-152 399.92,-152 316.56,-135.73 267.61,-124.48"/>
<polygon fill="#63b8ff" stroke="#63b8ff" points="780.29,-155.5 790.29,-152 780.29,-148.5 780.29,-155.5"/>
</a>
</g>
</g>
<!-- Node4 -->
<g id="Node000004" class="node">
<title>Node4</title>
<g id="a_Node000004"><a xlink:href="process_8c.html#a6b8653e5d6b8c2bc215b0f6296a57202" target="_top" xlink:title=" ">
<polygon fill="white" stroke="#666666" points="137,-124 73,-124 73,-104 137,-104 137,-124"/>
<text xml:space="preserve" text-anchor="middle" x="105" y="-110.5" font-family="Helvetica,sans-Serif" font-size="10.00">print_result</text>
</a>
</g>
</g>
<!-- Node3&#45;&gt;Node4 -->
<g id="edge3_Node000003_Node000004" class="edge">
<title>Node3&#45;&gt;Node4</title>
<g id="a_edge3_Node000003_Node000004"><a xlink:title=" ">
<path fill="none" stroke="#63b8ff" d="M161.3,-114C152.97,-114 144.74,-114 137.27,-114"/>
<polygon fill="#63b8ff" stroke="#63b8ff" points="161.13,-117.5 171.13,-114 161.13,-110.5 161.13,-117.5"/>
</a>
</g>
</g>
<!-- Node5 -->
<g id="Node000005" class="node">
<title>Node5</title>
<g id="a_Node000005"><a xlink:href="main_8c.html#a3c04138a5bfe5d72780bb7e82a18e627" target="_top" xlink:title=" ">
<polygon fill="white" stroke="#666666" points="37,-124 0,-124 0,-104 37,-104 37,-124"/>
<text xml:space="preserve" text-anchor="middle" x="18.5" y="-110.5" font-family="Helvetica,sans-Serif" font-size="10.00">main</text>
</a>
</g>
</g>
<!-- Node4&#45;&gt;Node5 -->
<g id="edge4_Node000004_Node000005" class="edge">
<title>Node4&#45;&gt;Node5</title>
<g id="a_edge4_Node000004_Node000005"><a xlink:title=" ">
<path fill="none" stroke="#63b8ff" d="M61.22,-114C52.84,-114 44.49,-114 37.49,-114"/>
<polygon fill="#63b8ff" stroke="#63b8ff" points="61.02,-117.5 71.02,-114 61.02,-110.5 61.02,-117.5"/>
</a>
</g>
</g>
<!-- Node7 -->
<g id="Node000007" class="node">
<title>Node7</title>
<g id="a_Node000007"><a xlink:href="conversion_8c.html#a82a1feca70c979ed51364bb42306d54f" target="_top" xlink:title=" ">
<polygon fill="white" stroke="#666666" points="627,-86 549.5,-86 549.5,-66 627,-66 627,-86"/>
<text xml:space="preserve" text-anchor="middle" x="588.25" y="-72.5" font-family="Helvetica,sans-Serif" font-size="10.00">convert_triplet</text>
</a>
</g>
</g>
<!-- Node6&#45;&gt;Node7 -->
<g id="edge6_Node000006_Node000007" class="edge">
<title>Node6&#45;&gt;Node7</title>
<g id="a_edge6_Node000006_Node000007"><a xlink:title=" ">
<path fill="none" stroke="#63b8ff" d="M651.4,-76C643.25,-76 635.04,-76 627.38,-76"/>
<polygon fill="#63b8ff" stroke="#63b8ff" points="651.3,-79.5 661.3,-76 651.3,-72.5 651.3,-79.5"/>
</a>
</g>
</g>
<!-- Node8 -->
<g id="Node000008" class="node">
<title>Node8</title>
<g id="a_Node000008"><a xlink:href="helpers2_8c.html#aa882d1da3eeeeb1db44316bf3994cef8" target="_top" xlink:title=" ">
<polygon fill="white" stroke="#666666" points="513.5,-105 433.75,-105 433.75,-85 513.5,-85 513.5,-105"/>
<text xml:space="preserve" text-anchor="middle" x="473.62" y="-91.5" font-family="Helvetica,sans-Serif" font-size="10.00">process_triplet</text>
</a>
</g>
</g>
<!-- Node7&#45;&gt;Node8 -->
<g id="edge7_Node000007_Node000008" class="edge">
<title>Node7&#45;&gt;Node8</title>
<g id="a_edge7_Node000007_Node000008"><a xlink:title=" ">
<path fill="none" stroke="#63b8ff" d="M537.93,-84.32C529.88,-85.68 521.64,-87.07 513.87,-88.38"/>
<polygon fill="#63b8ff" stroke="#63b8ff" points="538.35,-87.8 547.63,-82.68 537.18,-80.9 538.35,-87.8"/>
</a>
</g>
</g>
<!-- Node8&#45;&gt;Node9 -->
<g id="edge8_Node000008_Node000009" class="edge">
<title>Node8&#45;&gt;Node9</title>
<g id="a_edge8_Node000008_Node000009"><a xlink:title=" ">
<path fill="none" stroke="#63b8ff" d="M421.93,-95C413.93,-95 405.75,-95 397.98,-95"/>
<polygon fill="#63b8ff" stroke="#63b8ff" points="421.91,-98.5 431.91,-95 421.91,-91.5 421.91,-98.5"/>
</a>
</g>
</g>
<!-- Node9&#45;&gt;Node3 -->
<g id="edge9_Node000009_Node000003" class="edge">
<title>Node9&#45;&gt;Node3</title>
<g id="a_edge9_Node000009_Node000003"><a xlink:title=" ">
<path fill="none" stroke="#63b8ff" d="M300.61,-102.88C292.51,-104.08 284.17,-105.32 276.13,-106.51"/>
<polygon fill="#63b8ff" stroke="#63b8ff" points="300.96,-106.37 310.34,-101.44 299.94,-99.44 300.96,-106.37"/>
</a>
</g>
</g>
<!-- Node10&#45;&gt;Node2 -->
<g id="edge12_Node000010_Node000002" class="edge">
<title>Node10&#45;&gt;Node2</title>
<g id="a_edge12_Node000010_Node000002"><a xlink:title=" ">
<path fill="none" stroke="#63b8ff" d="M931.54,-127.58C915.56,-132.18 897.96,-137.23 882.96,-141.55"/>
<polygon fill="#63b8ff" stroke="#63b8ff" points="932.2,-131.03 940.84,-124.9 930.26,-124.3 932.2,-131.03"/>
</a>
</g>
</g>
<!-- Node10&#45;&gt;Node8 -->
<g id="edge13_Node000010_Node000008" class="edge">
<title>Node10&#45;&gt;Node8</title>
<g id="a_edge13_Node000010_Node000008"><a xlink:title=" ">
<path fill="none" stroke="#63b8ff" d="M923.55,-111.92C820.88,-108.05 602.92,-99.84 513.82,-96.48"/>
<polygon fill="#63b8ff" stroke="#63b8ff" points="923.26,-115.41 933.38,-112.29 923.52,-108.42 923.26,-115.41"/>
</a>
</g>
</g>
<!-- Node12 -->
<g id="Node000012" class="node">
<title>Node12</title>
<g id="a_Node000012"><a xlink:href="helpers2_8c.html#a10f3a7bc3f2e2b5a3e5e43c0ba93e1f8" target="_top" xlink:title=" ">
<polygon fill="white" stroke="#666666" points="894.88,-86 796.38,-86 796.38,-66 894.88,-66 894.88,-86"/>
<text xml:space="preserve" text-anchor="middle" x="845.62" y="-72.5" font-family="Helvetica,sans-Serif" font-size="10.00">convert_tens_ones</text>
</a>
</g>
</g>
<!-- Node11&#45;&gt;Node12 -->
<g id="edge15_Node000011_Node000012" class="edge">
<title>Node11&#45;&gt;Node12</title>
<g id="a_edge15_Node000011_Node000012"><a xlink:title=" ">
<path fill="none" stroke="#63b8ff" d="M937.19,-76C923.85,-76 908.97,-76 895.18,-76"/>
<polygon fill="#63b8ff" stroke="#63b8ff" points="936.92,-79.5 946.92,-76 936.92,-72.5 936.92,-79.5"/>
</a>
</g>
</g>
<!-- Node12&#45;&gt;Node6 -->
<g id="edge16_Node000012_Node000006" class="edge">
<title>Node12&#45;&gt;Node6</title>
<g id="a_edge16_Node000012_Node000006"><a xlink:title=" ">
<path fill="none" stroke="#63b8ff" d="M784.87,-76C775.42,-76 765.77,-76 756.69,-76"/>
<polygon fill="#63b8ff" stroke="#63b8ff" points="784.73,-79.5 794.73,-76 784.73,-72.5 784.73,-79.5"/>
</a>
</g>
</g>
</g>
</svg>
