<?xml version="1.0" encoding="UTF-8" standalone="no"?>
<!DOCTYPE svg PUBLIC "-//W3C//DTD SVG 1.1//EN"
 "http://www.w3.org/Graphics/SVG/1.1/DTD/svg11.dtd">
<!-- Generated by graphviz version 13.1.2 (0)
 -->
<!-- Title: is_digit Pages: 1 -->
<svg width="782pt" height="66pt"
 viewBox="0.00 0.00 782.00 66.00" xmlns="http://www.w3.org/2000/svg" xmlns:xlink="http://www.w3.org/1999/xlink">
<g id="graph0" class="graph" transform="scale(1 1) rotate(0) translate(4 62)">
<title>is_digit</title>
<!-- Node1 -->
<g id="Node000001" class="node">
<title>Node1</title>
<g id="a_Node000001"><a xlink:title=" ">
<polygon fill="#999999" stroke="#666666" points="773.5,-39 726.75,-39 726.75,-19 773.5,-19 773.5,-39"/>
<text xml:space="preserve" text-anchor="middle" x="750.12" y="-25.5" font-family="Helvetica,sans-Serif" font-size="10.00">is_digit</text>
</a>
</g>
</g>
<!-- Node2 -->
<g id="Node000002" class="node">
<title>Node2</title>
<g id="a_Node000002"><a xlink:href="helpers__val_8c.html#a3e980cd2c1e6948e57756f0475d64698" target="_top" xlink:title=" ">
<polygon fill="white" stroke="#666666" points="690.75,-58 578,-58 578,-38 690.75,-38 690.75,-58"/>
<text xml:space="preserve" text-anchor="middle" x="634.38" y="-44.5" font-family="Helvetica,sans-Serif" font-size="10.00">check_number_format</text>
</a>
</g>
</g>
<!-- Node1&#45;&gt;Node2 -->
<g id="edge1_Node000001_Node000002" class="edge">
<title>Node1&#45;&gt;Node2</title>
<g id="a_edge1_Node000001_Node000002"><a xlink:title=" ">
<path fill="none" stroke="#63b8ff" d="M715.08,-34.69C707.49,-35.95 699.25,-37.33 691.04,-38.7"/>
<polygon fill="#63b8ff" stroke="#63b8ff" points="715.6,-38.15 724.89,-33.05 714.45,-31.24 715.6,-38.15"/>
</a>
</g>
</g>
<!-- Node6 -->
<g id="Node000006" class="node">
<title>Node6</title>
<g id="a_Node000006"><a xlink:href="helpers__dict_8c.html#a086f2e1d45303f2ae2807884d121feac" target="_top" xlink:title=" ">
<polygon fill="white" stroke="#666666" points="680.25,-20 588.5,-20 588.5,0 680.25,0 680.25,-20"/>
<text xml:space="preserve" text-anchor="middle" x="634.38" y="-6.5" font-family="Helvetica,sans-Serif" font-size="10.00">validate_dict_key</text>
</a>
</g>
</g>
<!-- Node1&#45;&gt;Node6 -->
<g id="edge5_Node000001_Node000006" class="edge">
<title>Node1&#45;&gt;Node6</title>
<g id="a_edge5_Node000001_Node000006"><a xlink:title=" ">
<path fill="none" stroke="#63b8ff" d="M715.23,-23.34C704.38,-21.53 692.19,-19.49 680.66,-17.56"/>
<polygon fill="#63b8ff" stroke="#63b8ff" points="714.45,-26.76 724.89,-24.95 715.6,-19.85 714.45,-26.76"/>
</a>
</g>
</g>
<!-- Node3 -->
<g id="Node000003" class="node">
<title>Node3</title>
<g id="a_Node000003"><a xlink:href="validation_8c.html#acdce00e90ecf2feb9ff24fa3d39b802a" target="_top" xlink:title=" ">
<polygon fill="white" stroke="#666666" points="404.12,-58 316.88,-58 316.88,-38 404.12,-38 404.12,-58"/>
<text xml:space="preserve" text-anchor="middle" x="360.5" y="-44.5" font-family="Helvetica,sans-Serif" font-size="10.00">validate_number</text>
</a>
</g>
</g>
<!-- Node2&#45;&gt;Node3 -->
<g id="edge2_Node000002_Node000003" class="edge">
<title>Node2&#45;&gt;Node3</title>
<g id="a_edge2_Node000002_Node000003"><a xlink:title=" ">
<path fill="none" stroke="#63b8ff" d="M566.23,-48C515.74,-48 448.05,-48 404.6,-48"/>
<polygon fill="#63b8ff" stroke="#63b8ff" points="566.19,-51.5 576.19,-48 566.19,-44.5 566.19,-51.5"/>
</a>
</g>
</g>
<!-- Node4 -->
<g id="Node000004" class="node">
<title>Node4</title>
<g id="a_Node000004"><a xlink:href="process_8c.html#a6b8653e5d6b8c2bc215b0f6296a57202" target="_top" xlink:title=" ">
<polygon fill="white" stroke="#666666" points="137,-39 73,-39 73,-19 137,-19 137,-39"/>
<text xml:space="preserve" text-anchor="middle" x="105" y="-25.5" font-family="Helvetica,sans-Serif" font-size="10.00">print_result</text>
</a>
</g>
</g>
<!-- Node3&#45;&gt;Node4 -->
<g id="edge3_Node000003_Node000004" class="edge">
<title>Node3&#45;&gt;Node4</title>
<g id="a_edge3_Node000003_Node000004"><a xlink:title=" ">
<path fill="none" stroke="#63b8ff" d="M305.31,-43.94C254.1,-40.1 179.07,-34.48 137.2,-31.34"/>
<polygon fill="#63b8ff" stroke="#63b8ff" points="304.75,-47.41 314.99,-44.66 305.28,-40.43 304.75,-47.41"/>
</a>
</g>
</g>
<!-- Node5 -->
<g id="Node000005" class="node">
<title>Node5</title>
<g id="a_Node000005"><a xlink:href="main_8c.html#a3c04138a5bfe5d72780bb7e82a18e627" target="_top" xlink:title=" ">
<polygon fill="white" stroke="#666666" points="37,-39 0,-39 0,-19 37,-19 37,-39"/>
<text xml:space="preserve" text-anchor="middle" x="18.5" y="-25.5" font-family="Helvetica,sans-Serif" font-size="10.00">main</text>
</a>
</g>
</g>
<!-- Node4&#45;&gt;Node5 -->
<g id="edge4_Node000004_Node000005" class="edge">
<title>Node4&#45;&gt;Node5</title>
<g id="a_edge4_Node000004_Node000005"><a xlink:title=" ">
<path fill="none" stroke="#63b8ff" d="M61.22,-29C52.84,-29 44.49,-29 37.49,-29"/>
<polygon fill="#63b8ff" stroke="#63b8ff" points="61.02,-32.5 71.02,-29 61.02,-25.5 61.02,-32.5"/>
</a>
</g>
</g>
<!-- Node7 -->
<g id="Node000007" class="node">
<title>Node7</title>
<g id="a_Node000007"><a xlink:href="helpers__dict_8c.html#aec9289b69b670cc971a6c21f71ae0497" target="_top" xlink:title=" ">
<polygon fill="white" stroke="#666666" points="542,-20 445,-20 445,0 542,0 542,-20"/>
<text xml:space="preserve" text-anchor="middle" x="493.5" y="-6.5" font-family="Helvetica,sans-Serif" font-size="10.00">validate_dict_keys</text>
</a>
</g>
</g>
<!-- Node6&#45;&gt;Node7 -->
<g id="edge6_Node000006_Node000007" class="edge">
<title>Node6&#45;&gt;Node7</title>
<g id="a_edge6_Node000006_Node000007"><a xlink:title=" ">
<path fill="none" stroke="#63b8ff" d="M576.97,-10C565.45,-10 553.42,-10 542.23,-10"/>
<polygon fill="#63b8ff" stroke="#63b8ff" points="576.77,-13.5 586.77,-10 576.77,-6.5 576.77,-13.5"/>
</a>
</g>
</g>
<!-- Node8 -->
<g id="Node000008" class="node">
<title>Node8</title>
<g id="a_Node000008"><a xlink:href="dict__validation_8c.html#a3bcb38196dd6bd633a72e29431defb46" target="_top" xlink:title=" ">
<polygon fill="white" stroke="#666666" points="409,-20 312,-20 312,0 409,0 409,-20"/>
<text xml:space="preserve" text-anchor="middle" x="360.5" y="-6.5" font-family="Helvetica,sans-Serif" font-size="10.00">validate_dictionary</text>
</a>
</g>
</g>
<!-- Node7&#45;&gt;Node8 -->
<g id="edge7_Node000007_Node000008" class="edge">
<title>Node7&#45;&gt;Node8</title>
<g id="a_edge7_Node000007_Node000008"><a xlink:title=" ">
<path fill="none" stroke="#63b8ff" d="M433.53,-10C425.44,-10 417.21,-10 409.35,-10"/>
<polygon fill="#63b8ff" stroke="#63b8ff" points="433.32,-13.5 443.32,-10 433.32,-6.5 433.32,-13.5"/>
</a>
</g>
</g>
<!-- Node9 -->
<g id="Node000009" class="node">
<title>Node9</title>
<g id="a_Node000009"><a xlink:href="process_8c.html#a5b78dd11ed0af8a3709ebbe817eea325" target="_top" xlink:title=" ">
<polygon fill="white" stroke="#666666" points="276,-20 173,-20 173,0 276,0 276,-20"/>
<text xml:space="preserve" text-anchor="middle" x="224.5" y="-6.5" font-family="Helvetica,sans-Serif" font-size="10.00">process_conversion</text>
</a>
</g>
</g>
<!-- Node8&#45;&gt;Node9 -->
<g id="edge8_Node000008_Node000009" class="edge">
<title>Node8&#45;&gt;Node9</title>
<g id="a_edge8_Node000008_Node000009"><a xlink:title=" ">
<path fill="none" stroke="#63b8ff" d="M300.06,-10C292.14,-10 284.08,-10 276.33,-10"/>
<polygon fill="#63b8ff" stroke="#63b8ff" points="299.99,-13.5 309.99,-10 299.99,-6.5 299.99,-13.5"/>
</a>
</g>
</g>
<!-- Node9&#45;&gt;Node4 -->
<g id="edge9_Node000009_Node000004" class="edge">
<title>Node9&#45;&gt;Node4</title>
<g id="a_edge9_Node000009_Node000004"><a xlink:title=" ">
<path fill="none" stroke="#63b8ff" d="M161.3,-20.06C152.97,-21.4 144.74,-22.74 137.27,-23.94"/>
<polygon fill="#63b8ff" stroke="#63b8ff" points="161.84,-23.52 171.15,-18.46 160.72,-16.61 161.84,-23.52"/>
</a>
</g>
</g>
</g>
</svg>
