<?xml version="1.0" encoding="UTF-8" standalone="no"?>
<!DOCTYPE svg PUBLIC "-//W3C//DTD SVG 1.1//EN"
 "http://www.w3.org/Graphics/SVG/1.1/DTD/svg11.dtd">
<!-- Generated by graphviz version 13.1.2 (0)
 -->
<!-- Title: trim_whitespace Pages: 1 -->
<svg width="895pt" height="94pt"
 viewBox="0.00 0.00 895.00 94.00" xmlns="http://www.w3.org/2000/svg" xmlns:xlink="http://www.w3.org/1999/xlink">
<g id="graph0" class="graph" transform="scale(1 1) rotate(0) translate(4 90)">
<title>trim_whitespace</title>
<!-- Node1 -->
<g id="Node000001" class="node">
<title>Node1</title>
<g id="a_Node000001"><a xlink:title=" ">
<polygon fill="#999999" stroke="#666666" points="887,-77 799.75,-77 799.75,-57 887,-57 887,-77"/>
<text xml:space="preserve" text-anchor="middle" x="843.38" y="-63.5" font-family="Helvetica,sans-Serif" font-size="10.00">trim_whitespace</text>
</a>
</g>
</g>
<!-- Node2 -->
<g id="Node000002" class="node">
<title>Node2</title>
<g id="a_Node000002"><a xlink:href="main_8c.html#a3c04138a5bfe5d72780bb7e82a18e627" target="_top" xlink:title=" ">
<polygon fill="white" stroke="#666666" points="37,-77 0,-77 0,-57 37,-57 37,-77"/>
<text xml:space="preserve" text-anchor="middle" x="18.5" y="-63.5" font-family="Helvetica,sans-Serif" font-size="10.00">main</text>
</a>
</g>
</g>
<!-- Node1&#45;&gt;Node2 -->
<g id="edge1_Node000001_Node000002" class="edge">
<title>Node1&#45;&gt;Node2</title>
<g id="a_edge1_Node000001_Node000002"><a xlink:title=" ">
<path fill="none" stroke="#63b8ff" d="M788.22,-73.63C738.74,-79.11 663.5,-86 597.88,-86 597.88,-86 597.88,-86 223.5,-86 154.49,-86 72.92,-75.09 37.46,-69.8"/>
<polygon fill="#63b8ff" stroke="#63b8ff" points="788.56,-77.11 798.11,-72.51 787.78,-70.16 788.56,-77.11"/>
</a>
</g>
</g>
<!-- Node3 -->
<g id="Node000003" class="node">
<title>Node3</title>
<g id="a_Node000003"><a xlink:href="dict__parser_8c.html#a5e0063cd44034d5e48a221f3f5890c3a" target="_top" xlink:title=" ">
<polygon fill="white" stroke="#666666" points="763.75,-58 661.5,-58 661.5,-38 763.75,-38 763.75,-58"/>
<text xml:space="preserve" text-anchor="middle" x="712.62" y="-44.5" font-family="Helvetica,sans-Serif" font-size="10.00">parse_mapping_line</text>
</a>
</g>
</g>
<!-- Node1&#45;&gt;Node3 -->
<g id="edge2_Node000001_Node000003" class="edge">
<title>Node1&#45;&gt;Node3</title>
<g id="a_edge2_Node000001_Node000003"><a xlink:title=" ">
<path fill="none" stroke="#63b8ff" d="M788.28,-59.02C780.2,-57.82 771.89,-56.6 763.89,-55.42"/>
<polygon fill="#63b8ff" stroke="#63b8ff" points="787.6,-62.45 798.01,-60.45 788.62,-55.53 787.6,-62.45"/>
</a>
</g>
</g>
<!-- Node4 -->
<g id="Node000004" class="node">
<title>Node4</title>
<g id="a_Node000004"><a xlink:href="dict__parser_8c.html#adcd1d9c253034ca41f33fcdf24ddd9fd" target="_top" xlink:title=" ">
<polygon fill="white" stroke="#666666" points="625.5,-58 568.25,-58 568.25,-38 625.5,-38 625.5,-58"/>
<text xml:space="preserve" text-anchor="middle" x="596.88" y="-44.5" font-family="Helvetica,sans-Serif" font-size="10.00">free_stuff</text>
</a>
</g>
</g>
<!-- Node3&#45;&gt;Node4 -->
<g id="edge3_Node000003_Node000004" class="edge">
<title>Node3&#45;&gt;Node4</title>
<g id="a_edge3_Node000003_Node000004"><a xlink:title=" ">
<path fill="none" stroke="#63b8ff" d="M649.68,-48C641.34,-48 633.15,-48 625.83,-48"/>
<polygon fill="#63b8ff" stroke="#63b8ff" points="649.56,-51.5 659.56,-48 649.56,-44.5 649.56,-51.5"/>
</a>
</g>
</g>
<!-- Node5 -->
<g id="Node000005" class="node">
<title>Node5</title>
<g id="a_Node000005"><a xlink:href="dict__parser_8c.html#ac8c052382b5551373a06b30013b5ff4f" target="_top" xlink:title=" ">
<polygon fill="white" stroke="#666666" points="532.25,-58 445,-58 445,-38 532.25,-38 532.25,-58"/>
<text xml:space="preserve" text-anchor="middle" x="488.62" y="-44.5" font-family="Helvetica,sans-Serif" font-size="10.00">parse_dictionary</text>
</a>
</g>
</g>
<!-- Node4&#45;&gt;Node5 -->
<g id="edge4_Node000004_Node000005" class="edge">
<title>Node4&#45;&gt;Node5</title>
<g id="a_edge4_Node000004_Node000005"><a xlink:title=" ">
<path fill="none" stroke="#63b8ff" d="M556.53,-48C548.73,-48 540.49,-48 532.57,-48"/>
<polygon fill="#63b8ff" stroke="#63b8ff" points="556.45,-51.5 566.45,-48 556.45,-44.5 556.45,-51.5"/>
</a>
</g>
</g>
<!-- Node6 -->
<g id="Node000006" class="node">
<title>Node6</title>
<g id="a_Node000006"><a xlink:href="process_8c.html#a5b78dd11ed0af8a3709ebbe817eea325" target="_top" xlink:title=" ">
<polygon fill="white" stroke="#666666" points="276,-58 173,-58 173,-38 276,-38 276,-58"/>
<text xml:space="preserve" text-anchor="middle" x="224.5" y="-44.5" font-family="Helvetica,sans-Serif" font-size="10.00">process_conversion</text>
</a>
</g>
</g>
<!-- Node5&#45;&gt;Node6 -->
<g id="edge5_Node000005_Node000006" class="edge">
<title>Node5&#45;&gt;Node6</title>
<g id="a_edge5_Node000005_Node000006"><a xlink:title=" ">
<path fill="none" stroke="#63b8ff" d="M433.34,-48C387.14,-48 321.28,-48 276.15,-48"/>
<polygon fill="#63b8ff" stroke="#63b8ff" points="433.12,-51.5 443.12,-48 433.12,-44.5 433.12,-51.5"/>
</a>
</g>
</g>
<!-- Node8 -->
<g id="Node000008" class="node">
<title>Node8</title>
<g id="a_Node000008"><a xlink:href="dict__validation_8c.html#a3bcb38196dd6bd633a72e29431defb46" target="_top" xlink:title=" ">
<polygon fill="white" stroke="#666666" points="409,-20 312,-20 312,0 409,0 409,-20"/>
<text xml:space="preserve" text-anchor="middle" x="360.5" y="-6.5" font-family="Helvetica,sans-Serif" font-size="10.00">validate_dictionary</text>
</a>
</g>
</g>
<!-- Node5&#45;&gt;Node8 -->
<g id="edge8_Node000005_Node000008" class="edge">
<title>Node5&#45;&gt;Node8</title>
<g id="a_edge8_Node000005_Node000008"><a xlink:title=" ">
<path fill="none" stroke="#63b8ff" d="M442.12,-34.29C426.98,-29.73 410.37,-24.72 396.18,-20.45"/>
<polygon fill="#63b8ff" stroke="#63b8ff" points="440.79,-37.55 451.38,-37.08 442.81,-30.84 440.79,-37.55"/>
</a>
</g>
</g>
<!-- Node7 -->
<g id="Node000007" class="node">
<title>Node7</title>
<g id="a_Node000007"><a xlink:href="process_8c.html#a6b8653e5d6b8c2bc215b0f6296a57202" target="_top" xlink:title=" ">
<polygon fill="white" stroke="#666666" points="137,-58 73,-58 73,-38 137,-38 137,-58"/>
<text xml:space="preserve" text-anchor="middle" x="105" y="-44.5" font-family="Helvetica,sans-Serif" font-size="10.00">print_result</text>
</a>
</g>
</g>
<!-- Node6&#45;&gt;Node7 -->
<g id="edge6_Node000006_Node000007" class="edge">
<title>Node6&#45;&gt;Node7</title>
<g id="a_edge6_Node000006_Node000007"><a xlink:title=" ">
<path fill="none" stroke="#63b8ff" d="M161.3,-48C152.97,-48 144.74,-48 137.27,-48"/>
<polygon fill="#63b8ff" stroke="#63b8ff" points="161.13,-51.5 171.13,-48 161.13,-44.5 161.13,-51.5"/>
</a>
</g>
</g>
<!-- Node7&#45;&gt;Node2 -->
<g id="edge7_Node000007_Node000002" class="edge">
<title>Node7&#45;&gt;Node2</title>
<g id="a_edge7_Node000007_Node000002"><a xlink:title=" ">
<path fill="none" stroke="#63b8ff" d="M61.51,-57.56C53.03,-59.46 44.57,-61.36 37.49,-62.95"/>
<polygon fill="#63b8ff" stroke="#63b8ff" points="62.07,-61.02 71.06,-55.41 60.53,-54.19 62.07,-61.02"/>
</a>
</g>
</g>
<!-- Node8&#45;&gt;Node6 -->
<g id="edge9_Node000008_Node000006" class="edge">
<title>Node8&#45;&gt;Node6</title>
<g id="a_edge9_Node000008_Node000006"><a xlink:title=" ">
<path fill="none" stroke="#63b8ff" d="M311.62,-23.58C295.41,-28.18 277.57,-33.23 262.35,-37.55"/>
<polygon fill="#63b8ff" stroke="#63b8ff" points="312.41,-26.99 321.07,-20.9 310.5,-20.26 312.41,-26.99"/>
</a>
</g>
</g>
</g>
</svg>
