<?xml version="1.0" encoding="UTF-8" standalone="no"?>
<!DOCTYPE svg PUBLIC "-//W3C//DTD SVG 1.1//EN"
 "http://www.w3.org/Graphics/SVG/1.1/DTD/svg11.dtd">
<!-- Generated by graphviz version 13.1.2 (0)
 -->
<!-- Title: trim_whitespace Pages: 1 -->
<svg width="190pt" height="66pt"
 viewBox="0.00 0.00 190.00 66.00" xmlns="http://www.w3.org/2000/svg" xmlns:xlink="http://www.w3.org/1999/xlink">
<g id="graph0" class="graph" transform="scale(1 1) rotate(0) translate(4 62)">
<title>trim_whitespace</title>
<!-- Node1 -->
<g id="Node000001" class="node">
<title>Node1</title>
<g id="a_Node000001"><a xlink:title=" ">
<polygon fill="#999999" stroke="#666666" points="87.25,-39 0,-39 0,-19 87.25,-19 87.25,-39"/>
<text xml:space="preserve" text-anchor="middle" x="43.62" y="-25.5" font-family="Helvetica,sans-Serif" font-size="10.00">trim_whitespace</text>
</a>
</g>
</g>
<!-- Node2 -->
<g id="Node000002" class="node">
<title>Node2</title>
<g id="a_Node000002"><a xlink:href="process_8c.html#a7a9fe4f1210008b95e1b118945eb31ba" target="_top" xlink:title=" ">
<polygon fill="white" stroke="#666666" points="178.25,-58 127,-58 127,-38 178.25,-38 178.25,-58"/>
<text xml:space="preserve" text-anchor="middle" x="152.62" y="-44.5" font-family="Helvetica,sans-Serif" font-size="10.00">ft_strlen</text>
</a>
</g>
</g>
<!-- Node1&#45;&gt;Node2 -->
<g id="edge1_Node000001_Node000002" class="edge">
<title>Node1&#45;&gt;Node2</title>
<g id="a_edge1_Node000001_Node000002"><a xlink:title=" ">
<path fill="none" stroke="#63b8ff" d="M87.53,-36.62C96.75,-38.26 106.4,-39.97 115.34,-41.56"/>
<polygon fill="#63b8ff" stroke="#63b8ff" points="114.63,-44.99 125.09,-43.29 115.85,-38.09 114.63,-44.99"/>
</a>
</g>
</g>
<!-- Node3 -->
<g id="Node000003" class="node">
<title>Node3</title>
<g id="a_Node000003"><a xlink:href="helpers__val_8c.html#ad695bedaccc198754dd6dd42fdc88e8e" target="_top" xlink:title=" ">
<polygon fill="white" stroke="#666666" points="182,-20 123.25,-20 123.25,0 182,0 182,-20"/>
<text xml:space="preserve" text-anchor="middle" x="152.62" y="-6.5" font-family="Helvetica,sans-Serif" font-size="10.00">get_result</text>
</a>
</g>
</g>
<!-- Node1&#45;&gt;Node3 -->
<g id="edge2_Node000001_Node000003" class="edge">
<title>Node1&#45;&gt;Node3</title>
<g id="a_edge2_Node000001_Node000003"><a xlink:title=" ">
<path fill="none" stroke="#63b8ff" d="M87.53,-21.38C95.5,-19.97 103.79,-18.49 111.67,-17.09"/>
<polygon fill="#63b8ff" stroke="#63b8ff" points="112.1,-20.57 121.33,-15.38 110.88,-13.68 112.1,-20.57"/>
</a>
</g>
</g>
</g>
</svg>
