<?xml version="1.0" encoding="UTF-8" standalone="no"?>
<!DOCTYPE svg PUBLIC "-//W3C//DTD SVG 1.1//EN"
 "http://www.w3.org/Graphics/SVG/1.1/DTD/svg11.dtd">
<!-- Generated by graphviz version 13.1.2 (0)
 -->
<!-- Title: free_mappings Pages: 1 -->
<svg width="749pt" height="85pt"
 viewBox="0.00 0.00 749.00 85.00" xmlns="http://www.w3.org/2000/svg" xmlns:xlink="http://www.w3.org/1999/xlink">
<g id="graph0" class="graph" transform="scale(1 1) rotate(0) translate(4 80.99)">
<title>free_mappings</title>
<!-- Node1 -->
<g id="Node000001" class="node">
<title>Node1</title>
<g id="a_Node000001"><a xlink:title=" ">
<polygon fill="#999999" stroke="#666666" points="741.25,-58 661.5,-58 661.5,-38 741.25,-38 741.25,-58"/>
<text xml:space="preserve" text-anchor="middle" x="701.38" y="-44.5" font-family="Helvetica,sans-Serif" font-size="10.00">free_mappings</text>
</a>
</g>
</g>
<!-- Node2 -->
<g id="Node000002" class="node">
<title>Node2</title>
<g id="a_Node000002"><a xlink:href="dict__parser_8c.html#adcd1d9c253034ca41f33fcdf24ddd9fd" target="_top" xlink:title=" ">
<polygon fill="white" stroke="#666666" points="625.5,-58 568.25,-58 568.25,-38 625.5,-38 625.5,-58"/>
<text xml:space="preserve" text-anchor="middle" x="596.88" y="-44.5" font-family="Helvetica,sans-Serif" font-size="10.00">free_stuff</text>
</a>
</g>
</g>
<!-- Node1&#45;&gt;Node2 -->
<g id="edge1_Node000001_Node000002" class="edge">
<title>Node1&#45;&gt;Node2</title>
<g id="a_edge1_Node000001_Node000002"><a xlink:title=" ">
<path fill="none" stroke="#63b8ff" d="M649.57,-48C641.39,-48 633.19,-48 625.82,-48"/>
<polygon fill="#63b8ff" stroke="#63b8ff" points="649.53,-51.5 659.53,-48 649.53,-44.5 649.53,-51.5"/>
</a>
</g>
</g>
<!-- Node4 -->
<g id="Node000004" class="node">
<title>Node4</title>
<g id="a_Node000004"><a xlink:href="process_8c.html#a5b78dd11ed0af8a3709ebbe817eea325" target="_top" xlink:title=" ">
<polygon fill="white" stroke="#666666" points="276,-58 173,-58 173,-38 276,-38 276,-58"/>
<text xml:space="preserve" text-anchor="middle" x="224.5" y="-44.5" font-family="Helvetica,sans-Serif" font-size="10.00">process_conversion</text>
</a>
</g>
</g>
<!-- Node1&#45;&gt;Node4 -->
<g id="edge8_Node000001_Node000004" class="edge">
<title>Node1&#45;&gt;Node4</title>
<g id="a_edge8_Node000001_Node000004"><a xlink:title=" ">
<path fill="none" stroke="#63b8ff" d="M655.92,-61.21C645.99,-63.62 635.46,-65.76 625.5,-67 487.22,-84.27 450.67,-75.78 312,-62 300.34,-60.84 287.87,-59.11 276.13,-57.26"/>
<polygon fill="#63b8ff" stroke="#63b8ff" points="656.52,-64.67 665.33,-58.79 654.77,-57.89 656.52,-64.67"/>
</a>
</g>
</g>
<!-- Node7 -->
<g id="Node000007" class="node">
<title>Node7</title>
<g id="a_Node000007"><a xlink:href="dict__validation_8c.html#a3bcb38196dd6bd633a72e29431defb46" target="_top" xlink:title=" ">
<polygon fill="white" stroke="#666666" points="409,-20 312,-20 312,0 409,0 409,-20"/>
<text xml:space="preserve" text-anchor="middle" x="360.5" y="-6.5" font-family="Helvetica,sans-Serif" font-size="10.00">validate_dictionary</text>
</a>
</g>
</g>
<!-- Node1&#45;&gt;Node7 -->
<g id="edge9_Node000001_Node000007" class="edge">
<title>Node1&#45;&gt;Node7</title>
<g id="a_edge9_Node000001_Node000007"><a xlink:title=" ">
<path fill="none" stroke="#63b8ff" d="M653.49,-34.76C644.27,-32.53 634.63,-30.48 625.5,-29 550.65,-16.91 462.62,-12.51 409.49,-10.91"/>
<polygon fill="#63b8ff" stroke="#63b8ff" points="652.45,-38.1 663,-37.15 654.15,-31.31 652.45,-38.1"/>
</a>
</g>
</g>
<!-- Node3 -->
<g id="Node000003" class="node">
<title>Node3</title>
<g id="a_Node000003"><a xlink:href="dict__parser_8c.html#ac8c052382b5551373a06b30013b5ff4f" target="_top" xlink:title=" ">
<polygon fill="white" stroke="#666666" points="532.25,-58 445,-58 445,-38 532.25,-38 532.25,-58"/>
<text xml:space="preserve" text-anchor="middle" x="488.62" y="-44.5" font-family="Helvetica,sans-Serif" font-size="10.00">parse_dictionary</text>
</a>
</g>
</g>
<!-- Node2&#45;&gt;Node3 -->
<g id="edge2_Node000002_Node000003" class="edge">
<title>Node2&#45;&gt;Node3</title>
<g id="a_edge2_Node000002_Node000003"><a xlink:title=" ">
<path fill="none" stroke="#63b8ff" d="M556.53,-48C548.73,-48 540.49,-48 532.57,-48"/>
<polygon fill="#63b8ff" stroke="#63b8ff" points="556.45,-51.5 566.45,-48 556.45,-44.5 556.45,-51.5"/>
</a>
</g>
</g>
<!-- Node3&#45;&gt;Node4 -->
<g id="edge3_Node000003_Node000004" class="edge">
<title>Node3&#45;&gt;Node4</title>
<g id="a_edge3_Node000003_Node000004"><a xlink:title=" ">
<path fill="none" stroke="#63b8ff" d="M433.34,-48C387.14,-48 321.28,-48 276.15,-48"/>
<polygon fill="#63b8ff" stroke="#63b8ff" points="433.12,-51.5 443.12,-48 433.12,-44.5 433.12,-51.5"/>
</a>
</g>
</g>
<!-- Node3&#45;&gt;Node7 -->
<g id="edge6_Node000003_Node000007" class="edge">
<title>Node3&#45;&gt;Node7</title>
<g id="a_edge6_Node000003_Node000007"><a xlink:title=" ">
<path fill="none" stroke="#63b8ff" d="M442.12,-34.29C426.98,-29.73 410.37,-24.72 396.18,-20.45"/>
<polygon fill="#63b8ff" stroke="#63b8ff" points="440.79,-37.55 451.38,-37.08 442.81,-30.84 440.79,-37.55"/>
</a>
</g>
</g>
<!-- Node5 -->
<g id="Node000005" class="node">
<title>Node5</title>
<g id="a_Node000005"><a xlink:href="process_8c.html#a6b8653e5d6b8c2bc215b0f6296a57202" target="_top" xlink:title=" ">
<polygon fill="white" stroke="#666666" points="137,-58 73,-58 73,-38 137,-38 137,-58"/>
<text xml:space="preserve" text-anchor="middle" x="105" y="-44.5" font-family="Helvetica,sans-Serif" font-size="10.00">print_result</text>
</a>
</g>
</g>
<!-- Node4&#45;&gt;Node5 -->
<g id="edge4_Node000004_Node000005" class="edge">
<title>Node4&#45;&gt;Node5</title>
<g id="a_edge4_Node000004_Node000005"><a xlink:title=" ">
<path fill="none" stroke="#63b8ff" d="M161.3,-48C152.97,-48 144.74,-48 137.27,-48"/>
<polygon fill="#63b8ff" stroke="#63b8ff" points="161.13,-51.5 171.13,-48 161.13,-44.5 161.13,-51.5"/>
</a>
</g>
</g>
<!-- Node6 -->
<g id="Node000006" class="node">
<title>Node6</title>
<g id="a_Node000006"><a xlink:href="main_8c.html#a3c04138a5bfe5d72780bb7e82a18e627" target="_top" xlink:title=" ">
<polygon fill="white" stroke="#666666" points="37,-58 0,-58 0,-38 37,-38 37,-58"/>
<text xml:space="preserve" text-anchor="middle" x="18.5" y="-44.5" font-family="Helvetica,sans-Serif" font-size="10.00">main</text>
</a>
</g>
</g>
<!-- Node5&#45;&gt;Node6 -->
<g id="edge5_Node000005_Node000006" class="edge">
<title>Node5&#45;&gt;Node6</title>
<g id="a_edge5_Node000005_Node000006"><a xlink:title=" ">
<path fill="none" stroke="#63b8ff" d="M61.22,-48C52.84,-48 44.49,-48 37.49,-48"/>
<polygon fill="#63b8ff" stroke="#63b8ff" points="61.02,-51.5 71.02,-48 61.02,-44.5 61.02,-51.5"/>
</a>
</g>
</g>
<!-- Node7&#45;&gt;Node4 -->
<g id="edge7_Node000007_Node000004" class="edge">
<title>Node7&#45;&gt;Node4</title>
<g id="a_edge7_Node000007_Node000004"><a xlink:title=" ">
<path fill="none" stroke="#63b8ff" d="M311.62,-23.58C295.41,-28.18 277.57,-33.23 262.35,-37.55"/>
<polygon fill="#63b8ff" stroke="#63b8ff" points="312.41,-26.99 321.07,-20.9 310.5,-20.26 312.41,-26.99"/>
</a>
</g>
</g>
</g>
</svg>
