<?xml version="1.0" encoding="UTF-8" standalone="no"?>
<!DOCTYPE svg PUBLIC "-//W3C//DTD SVG 1.1//EN"
 "http://www.w3.org/Graphics/SVG/1.1/DTD/svg11.dtd">
<!-- Generated by graphviz version 13.1.2 (0)
 -->
<!-- Title: process_conversion Pages: 1 -->
<svg width="1180pt" height="800pt"
 viewBox="0.00 0.00 1180.00 800.00" xmlns="http://www.w3.org/2000/svg" xmlns:xlink="http://www.w3.org/1999/xlink">
<g id="graph0" class="graph" transform="scale(1 1) rotate(0) translate(4 796.33)">
<title>process_conversion</title>
<!-- Node1 -->
<g id="Node000001" class="node">
<title>Node1</title>
<g id="a_Node000001"><a xlink:title=" ">
<polygon fill="#999999" stroke="#666666" points="103,-414 0,-414 0,-394 103,-394 103,-414"/>
<text xml:space="preserve" text-anchor="middle" x="51.5" y="-400.5" font-family="Helvetica,sans-Serif" font-size="10.00">process_conversion</text>
</a>
</g>
</g>
<!-- Node2 -->
<g id="Node000002" class="node">
<title>Node2</title>
<g id="a_Node000002"><a xlink:href="dict__validation_8c.html#a58e73a2efb125a4b0f774511fd61c41d" target="_top" xlink:title=" ">
<polygon fill="white" stroke="#666666" points="773.25,-381 666.5,-381 666.5,-361 773.25,-361 773.25,-381"/>
<text xml:space="preserve" text-anchor="middle" x="719.88" y="-367.5" font-family="Helvetica,sans-Serif" font-size="10.00">can_convert_number</text>
</a>
</g>
</g>
<!-- Node1&#45;&gt;Node2 -->
<g id="edge1_Node000001_Node000002" class="edge">
<title>Node1&#45;&gt;Node2</title>
<g id="a_edge1_Node000001_Node000002"><a xlink:title=" ">
<path fill="none" stroke="#63b8ff" d="M103.06,-397.83C152.94,-392.28 231.42,-385 299.62,-385 299.62,-385 299.62,-385 426,-385 504.74,-385 595.26,-379.89 654.57,-375.84"/>
<polygon fill="#63b8ff" stroke="#63b8ff" points="654.76,-379.34 664.49,-375.15 654.27,-372.35 654.76,-379.34"/>
</a>
</g>
</g>
<!-- Node7 -->
<g id="Node000007" class="node">
<title>Node7</title>
<g id="a_Node000007"><a xlink:href="conversion_8c.html#a57f397d82b353b943410df86212e704d" target="_top" xlink:title=" ">
<polygon fill="white" stroke="#666666" points="224.75,-229 139,-229 139,-209 224.75,-209 224.75,-229"/>
<text xml:space="preserve" text-anchor="middle" x="181.88" y="-215.5" font-family="Helvetica,sans-Serif" font-size="10.00">convert_number</text>
</a>
</g>
</g>
<!-- Node1&#45;&gt;Node7 -->
<g id="edge7_Node000001_Node000007" class="edge">
<title>Node1&#45;&gt;Node7</title>
<g id="a_edge7_Node000001_Node000007"><a xlink:title=" ">
<path fill="none" stroke="#63b8ff" d="M59.77,-393.52C80.51,-363.63 140.22,-277.59 167.27,-238.61"/>
<polygon fill="#63b8ff" stroke="#63b8ff" points="170,-240.82 172.82,-230.61 164.25,-236.83 170,-240.82"/>
</a>
</g>
</g>
<!-- Node17 -->
<g id="Node000017" class="node">
<title>Node17</title>
<g id="a_Node000017"><a xlink:href="helpers2_8c.html#a947f1aa90d23e99b917dd7e3a0ab490e" target="_top" xlink:title=" ">
<polygon fill="white" stroke="#666666" points="900.25,-628 820.5,-628 820.5,-608 900.25,-608 900.25,-628"/>
<text xml:space="preserve" text-anchor="middle" x="860.38" y="-614.5" font-family="Helvetica,sans-Serif" font-size="10.00">free_mappings</text>
</a>
</g>
</g>
<!-- Node1&#45;&gt;Node17 -->
<g id="edge28_Node000001_Node000017" class="edge">
<title>Node1&#45;&gt;Node17</title>
<g id="a_edge28_Node000001_Node000017"><a xlink:title=" ">
<path fill="none" stroke="#63b8ff" d="M59.63,-414.48C86.33,-452.37 184.8,-580 299.62,-580 299.62,-580 299.62,-580 571,-580 655.09,-580 751.81,-596.08 809.14,-607.32"/>
<polygon fill="#63b8ff" stroke="#63b8ff" points="808.43,-610.75 818.92,-609.27 809.8,-603.88 808.43,-610.75"/>
</a>
</g>
</g>
<!-- Node18 -->
<g id="Node000018" class="node">
<title>Node18</title>
<g id="a_Node000018"><a xlink:href="dict__parser_8c.html#ac8c052382b5551373a06b30013b5ff4f" target="_top" xlink:title=" ">
<polygon fill="white" stroke="#666666" points="613.62,-495 526.38,-495 526.38,-475 613.62,-475 613.62,-495"/>
<text xml:space="preserve" text-anchor="middle" x="570" y="-481.5" font-family="Helvetica,sans-Serif" font-size="10.00">parse_dictionary</text>
</a>
</g>
</g>
<!-- Node1&#45;&gt;Node18 -->
<g id="edge29_Node000001_Node000018" class="edge">
<title>Node1&#45;&gt;Node18</title>
<g id="a_edge29_Node000001_Node000018"><a xlink:title=" ">
<path fill="none" stroke="#63b8ff" d="M103.44,-411.99C201.24,-427.33 414.5,-460.77 514.8,-476.5"/>
<polygon fill="#63b8ff" stroke="#63b8ff" points="514.26,-479.96 524.68,-478.05 515.34,-473.04 514.26,-479.96"/>
</a>
</g>
</g>
<!-- Node29 -->
<g id="Node000029" class="node">
<title>Node29</title>
<g id="a_Node000029"><a xlink:href="errors_8c.html#a7b73ebc2584d27b83a7cd097c0926418" target="_top" xlink:title=" ">
<polygon fill="white" stroke="#666666" points="219.5,-191 144.25,-191 144.25,-171 219.5,-171 219.5,-191"/>
<text xml:space="preserve" text-anchor="middle" x="181.88" y="-177.5" font-family="Helvetica,sans-Serif" font-size="10.00">set_last_error</text>
</a>
</g>
</g>
<!-- Node1&#45;&gt;Node29 -->
<g id="edge45_Node000001_Node000029" class="edge">
<title>Node1&#45;&gt;Node29</title>
<g id="a_edge45_Node000001_Node000029"><a xlink:title=" ">
<path fill="none" stroke="#63b8ff" d="M54.16,-393.63C59.9,-360.93 81.79,-258.66 139,-200 139.73,-199.25 140.5,-198.53 141.29,-197.83"/>
<polygon fill="#63b8ff" stroke="#63b8ff" points="143.22,-200.75 149.46,-192.19 139.24,-194.99 143.22,-200.75"/>
</a>
</g>
</g>
<!-- Node30 -->
<g id="Node000030" class="node">
<title>Node30</title>
<g id="a_Node000030"><a xlink:href="dict__validation_8c.html#a3bcb38196dd6bd633a72e29431defb46" target="_top" xlink:title=" ">
<polygon fill="white" stroke="#666666" points="473.5,-666 376.5,-666 376.5,-646 473.5,-646 473.5,-666"/>
<text xml:space="preserve" text-anchor="middle" x="425" y="-652.5" font-family="Helvetica,sans-Serif" font-size="10.00">validate_dictionary</text>
</a>
</g>
</g>
<!-- Node1&#45;&gt;Node30 -->
<g id="edge46_Node000001_Node000030" class="edge">
<title>Node1&#45;&gt;Node30</title>
<g id="a_edge46_Node000001_Node000030"><a xlink:title=" ">
<path fill="none" stroke="#63b8ff" d="M53.92,-414.18C58.93,-446.18 78.92,-545.52 139,-594 203.55,-646.08 302.18,-656.9 364.85,-657.93"/>
<polygon fill="#63b8ff" stroke="#63b8ff" points="364.58,-661.43 374.6,-658.01 364.63,-654.43 364.58,-661.43"/>
</a>
</g>
</g>
<!-- Node3 -->
<g id="Node000003" class="node">
<title>Node3</title>
<g id="a_Node000003"><a xlink:href="conversion_8c.html#a4da89996f6f5a45fbb646c39ef3e6cb2" target="_top" xlink:title=" ">
<polygon fill="white" stroke="#666666" points="1049,-305 975.25,-305 975.25,-285 1049,-285 1049,-305"/>
<text xml:space="preserve" text-anchor="middle" x="1012.12" y="-291.5" font-family="Helvetica,sans-Serif" font-size="10.00">find_mapping</text>
</a>
</g>
</g>
<!-- Node2&#45;&gt;Node3 -->
<g id="edge2_Node000002_Node000003" class="edge">
<title>Node2&#45;&gt;Node3</title>
<g id="a_edge2_Node000002_Node000003"><a xlink:title=" ">
<path fill="none" stroke="#63b8ff" d="M773.63,-362.93C812.22,-356.44 865.62,-346.22 911.5,-333 933.66,-326.62 957.84,-317.45 976.82,-309.72"/>
<polygon fill="#63b8ff" stroke="#63b8ff" points="978.05,-313 985.95,-305.94 975.37,-306.53 978.05,-313"/>
</a>
</g>
</g>
<!-- Node5 -->
<g id="Node000005" class="node">
<title>Node5</title>
<g id="a_Node000005"><a xlink:href="conversion_8c.html#aca6f8fd591fbde2a4d2c1e1833c827b5" target="_top" xlink:title=" ">
<polygon fill="white" stroke="#666666" points="905.12,-324 815.62,-324 815.62,-304 905.12,-304 905.12,-324"/>
<text xml:space="preserve" text-anchor="middle" x="860.38" y="-310.5" font-family="Helvetica,sans-Serif" font-size="10.00">find_scale_name</text>
</a>
</g>
</g>
<!-- Node2&#45;&gt;Node5 -->
<g id="edge4_Node000002_Node000005" class="edge">
<title>Node2&#45;&gt;Node5</title>
<g id="a_edge4_Node000002_Node000005"><a xlink:title=" ">
<path fill="none" stroke="#63b8ff" d="M746.28,-360.55C767.95,-351.63 799.35,-338.7 823.57,-328.74"/>
<polygon fill="#63b8ff" stroke="#63b8ff" points="824.82,-332.01 832.73,-324.96 822.15,-325.53 824.82,-332.01"/>
</a>
</g>
</g>
<!-- Node6 -->
<g id="Node000006" class="node">
<title>Node6</title>
<g id="a_Node000006"><a xlink:href="process_8c.html#a7a9fe4f1210008b95e1b118945eb31ba" target="_top" xlink:title=" ">
<polygon fill="white" stroke="#666666" points="1167.75,-324 1116.5,-324 1116.5,-304 1167.75,-304 1167.75,-324"/>
<text xml:space="preserve" text-anchor="middle" x="1142.12" y="-310.5" font-family="Helvetica,sans-Serif" font-size="10.00">ft_strlen</text>
</a>
</g>
</g>
<!-- Node2&#45;&gt;Node6 -->
<g id="edge6_Node000002_Node000006" class="edge">
<title>Node2&#45;&gt;Node6</title>
<g id="a_edge6_Node000002_Node000006"><a xlink:title=" ">
<path fill="none" stroke="#63b8ff" d="M773.64,-369.12C812,-367.34 865.12,-364 911.5,-358 980.42,-349.08 1059.85,-332.41 1104.92,-322.35"/>
<polygon fill="#63b8ff" stroke="#63b8ff" points="1105.68,-325.77 1114.67,-320.15 1104.14,-318.94 1105.68,-325.77"/>
</a>
</g>
</g>
<!-- Node4 -->
<g id="Node000004" class="node">
<title>Node4</title>
<g id="a_Node000004"><a xlink:href="process_8c.html#abd118f33a5a0fe00b6cbbfb0eeae25a5" target="_top" xlink:title=" ">
<polygon fill="white" stroke="#666666" points="1170.75,-742 1113.5,-742 1113.5,-722 1170.75,-722 1170.75,-742"/>
<text xml:space="preserve" text-anchor="middle" x="1142.12" y="-728.5" font-family="Helvetica,sans-Serif" font-size="10.00">ft_strcmp</text>
</a>
</g>
</g>
<!-- Node3&#45;&gt;Node4 -->
<g id="edge3_Node000003_Node000004" class="edge">
<title>Node3&#45;&gt;Node4</title>
<g id="a_edge3_Node000003_Node000004"><a xlink:title=" ">
<path fill="none" stroke="#63b8ff" d="M1020.45,-305.46C1033.73,-324.91 1061.79,-368.38 1076.75,-409 1097.55,-465.47 1127.67,-647.46 1137.72,-710.37"/>
<polygon fill="#63b8ff" stroke="#63b8ff" points="1134.24,-710.77 1139.26,-720.1 1141.15,-709.67 1134.24,-710.77"/>
</a>
</g>
</g>
<!-- Node5&#45;&gt;Node3 -->
<g id="edge5_Node000005_Node000003" class="edge">
<title>Node5&#45;&gt;Node3</title>
<g id="a_edge5_Node000005_Node000003"><a xlink:title=" ">
<path fill="none" stroke="#63b8ff" d="M905.49,-308.4C923.79,-306.08 945.04,-303.38 963.67,-301.02"/>
<polygon fill="#63b8ff" stroke="#63b8ff" points="963.89,-304.52 973.37,-299.79 963.01,-297.58 963.89,-304.52"/>
</a>
</g>
</g>
<!-- Node7&#45;&gt;Node3 -->
<g id="edge9_Node000007_Node000003" class="edge">
<title>Node7&#45;&gt;Node3</title>
<g id="a_edge9_Node000007_Node000003"><a xlink:title=" ">
<path fill="none" stroke="#63b8ff" d="M202.09,-229.35C217.48,-237.08 239.87,-247.13 260.75,-252 395.32,-283.37 820.83,-292.27 963.77,-294.4"/>
<polygon fill="#63b8ff" stroke="#63b8ff" points="963.58,-297.9 973.63,-294.55 963.68,-290.9 963.58,-297.9"/>
</a>
</g>
</g>
<!-- Node7&#45;&gt;Node6 -->
<g id="edge12_Node000007_Node000006" class="edge">
<title>Node7&#45;&gt;Node6</title>
<g id="a_edge12_Node000007_Node000006"><a xlink:title=" ">
<path fill="none" stroke="#63b8ff" d="M225.05,-224.34C273.12,-229.96 354.08,-238 424,-238 424,-238 424,-238 861.38,-238 958.58,-238 985.57,-242.31 1076.75,-276 1091.06,-281.29 1105.8,-289.73 1117.56,-297.32"/>
<polygon fill="#63b8ff" stroke="#63b8ff" points="1115.53,-300.17 1125.79,-302.82 1119.42,-294.35 1115.53,-300.17"/>
</a>
</g>
</g>
<!-- Node8 -->
<g id="Node000008" class="node">
<title>Node8</title>
<g id="a_Node000008"><a xlink:href="helpers_8c.html#a96e81da608bac4cd34a4c93a1131e57c" target="_top" xlink:title=" ">
<polygon fill="white" stroke="#666666" points="338.25,-172 263,-172 263,-152 338.25,-152 338.25,-172"/>
<text xml:space="preserve" text-anchor="middle" x="300.62" y="-158.5" font-family="Helvetica,sans-Serif" font-size="10.00">extract_triplet</text>
</a>
</g>
</g>
<!-- Node7&#45;&gt;Node8 -->
<g id="edge8_Node000007_Node000008" class="edge">
<title>Node7&#45;&gt;Node8</title>
<g id="a_edge8_Node000007_Node000008"><a xlink:title=" ">
<path fill="none" stroke="#63b8ff" d="M206.47,-208.59C212.46,-205.87 218.87,-202.88 224.75,-200 240.99,-192.04 244.62,-189.2 260.75,-181 263.12,-179.79 265.58,-178.56 268.06,-177.32"/>
<polygon fill="#63b8ff" stroke="#63b8ff" points="269.4,-180.57 276.82,-173 266.3,-174.29 269.4,-180.57"/>
</a>
</g>
</g>
<!-- Node9 -->
<g id="Node000009" class="node">
<title>Node9</title>
<g id="a_Node000009"><a xlink:href="process_8c.html#aedbe09c9d81390246e7bed1b0c630a21" target="_top" xlink:title=" ">
<polygon fill="white" stroke="#666666" points="597.12,-58 542.88,-58 542.88,-38 597.12,-38 597.12,-58"/>
<text xml:space="preserve" text-anchor="middle" x="570" y="-44.5" font-family="Helvetica,sans-Serif" font-size="10.00">ft_strdup</text>
</a>
</g>
</g>
<!-- Node7&#45;&gt;Node9 -->
<g id="edge10_Node000007_Node000009" class="edge">
<title>Node7&#45;&gt;Node9</title>
<g id="a_edge10_Node000007_Node000009"><a xlink:title=" ">
<path fill="none" stroke="#63b8ff" d="M211.71,-208.63C216.35,-206.22 220.9,-203.36 224.75,-200 247.34,-180.32 239.75,-164.37 260.75,-143 303.88,-99.1 318.47,-87.51 376.5,-67 427.86,-48.85 491.43,-46.07 531.11,-46.47"/>
<polygon fill="#63b8ff" stroke="#63b8ff" points="531.04,-49.97 541.1,-46.66 531.17,-42.97 531.04,-49.97"/>
</a>
</g>
</g>
<!-- Node10 -->
<g id="Node000010" class="node">
<title>Node10</title>
<g id="a_Node000010"><a xlink:href="helpers_8c.html#a6277098847a9d44fa9582093bf5328a0" target="_top" xlink:title=" ">
<polygon fill="white" stroke="#666666" points="459.62,-20 390.38,-20 390.38,0 459.62,0 459.62,-20"/>
<text xml:space="preserve" text-anchor="middle" x="425" y="-6.5" font-family="Helvetica,sans-Serif" font-size="10.00">pad_number</text>
</a>
</g>
</g>
<!-- Node7&#45;&gt;Node10 -->
<g id="edge13_Node000007_Node000010" class="edge">
<title>Node7&#45;&gt;Node10</title>
<g id="a_edge13_Node000007_Node000010"><a xlink:title=" ">
<path fill="none" stroke="#63b8ff" d="M214.47,-208.7C218.36,-206.34 221.94,-203.48 224.75,-200 272.17,-141.26 205.6,-85.55 260.75,-34 292.01,-4.79 342.35,-1.49 378.87,-3.81"/>
<polygon fill="#63b8ff" stroke="#63b8ff" points="378.45,-7.29 388.7,-4.62 379.02,-0.31 378.45,-7.29"/>
</a>
</g>
</g>
<!-- Node11 -->
<g id="Node000011" class="node">
<title>Node11</title>
<g id="a_Node000011"><a xlink:href="helpers2_8c.html#aa882d1da3eeeeb1db44316bf3994cef8" target="_top" xlink:title=" ">
<polygon fill="white" stroke="#666666" points="340.5,-210 260.75,-210 260.75,-190 340.5,-190 340.5,-210"/>
<text xml:space="preserve" text-anchor="middle" x="300.62" y="-196.5" font-family="Helvetica,sans-Serif" font-size="10.00">process_triplet</text>
</a>
</g>
</g>
<!-- Node7&#45;&gt;Node11 -->
<g id="edge15_Node000007_Node000011" class="edge">
<title>Node7&#45;&gt;Node11</title>
<g id="a_edge15_Node000007_Node000011"><a xlink:title=" ">
<path fill="none" stroke="#63b8ff" d="M225.02,-212.14C232.84,-210.87 241.07,-209.53 249.11,-208.22"/>
<polygon fill="#63b8ff" stroke="#63b8ff" points="249.46,-211.71 258.77,-206.65 248.34,-204.8 249.46,-211.71"/>
</a>
</g>
</g>
<!-- Node9&#45;&gt;Node6 -->
<g id="edge11_Node000009_Node000006" class="edge">
<title>Node9&#45;&gt;Node6</title>
<g id="a_edge11_Node000009_Node000006"><a xlink:title=" ">
<path fill="none" stroke="#63b8ff" d="M597.57,-42.52C681.22,-26.95 941.57,8.26 1076.75,-124 1124.27,-170.49 1136.71,-253.29 1139.97,-292.4"/>
<polygon fill="#63b8ff" stroke="#63b8ff" points="1136.47,-292.42 1140.65,-302.16 1143.45,-291.94 1136.47,-292.42"/>
</a>
</g>
</g>
<!-- Node10&#45;&gt;Node6 -->
<g id="edge14_Node000010_Node000006" class="edge">
<title>Node10&#45;&gt;Node6</title>
<g id="a_edge14_Node000010_Node000006"><a xlink:title=" ">
<path fill="none" stroke="#63b8ff" d="M459.82,-10C514.35,-10 625.06,-10 718.88,-10 718.88,-10 718.88,-10 861.38,-10 958.65,-10 1005.96,17.72 1076.75,-49 1112.46,-82.66 1132.55,-235.6 1138.9,-292.55"/>
<polygon fill="#63b8ff" stroke="#63b8ff" points="1135.39,-292.66 1139.94,-302.23 1142.35,-291.91 1135.39,-292.66"/>
</a>
</g>
</g>
<!-- Node11&#45;&gt;Node5 -->
<g id="edge27_Node000011_Node000005" class="edge">
<title>Node11&#45;&gt;Node5</title>
<g id="a_edge27_Node000011_Node000005"><a xlink:title=" ">
<path fill="none" stroke="#63b8ff" d="M340.84,-208.02C438.29,-227.93 691.65,-279.72 804.16,-302.71"/>
<polygon fill="#63b8ff" stroke="#63b8ff" points="803.26,-306.1 813.76,-304.68 804.66,-299.24 803.26,-306.1"/>
</a>
</g>
</g>
<!-- Node12 -->
<g id="Node000012" class="node">
<title>Node12</title>
<g id="a_Node000012"><a xlink:href="helpers_8c.html#a3222789b62d41bef34bd5b3f1c9de0dc" target="_top" xlink:title=" ">
<polygon fill="white" stroke="#666666" points="1063.25,-153 961,-153 961,-133 1063.25,-133 1063.25,-153"/>
<text xml:space="preserve" text-anchor="middle" x="1012.12" y="-139.5" font-family="Helvetica,sans-Serif" font-size="10.00">append_with_space</text>
</a>
</g>
</g>
<!-- Node11&#45;&gt;Node12 -->
<g id="edge16_Node000011_Node000012" class="edge">
<title>Node11&#45;&gt;Node12</title>
<g id="a_edge16_Node000011_Node000012"><a xlink:title=" ">
<path fill="none" stroke="#63b8ff" d="M325.66,-189.52C363.76,-173.54 440.76,-143.8 509.5,-133 666.24,-108.36 853.89,-123.85 949.11,-134.83"/>
<polygon fill="#63b8ff" stroke="#63b8ff" points="948.69,-138.31 959.03,-136 949.51,-131.36 948.69,-138.31"/>
</a>
</g>
</g>
<!-- Node13 -->
<g id="Node000013" class="node">
<title>Node13</title>
<g id="a_Node000013"><a xlink:href="conversion_8c.html#a82a1feca70c979ed51364bb42306d54f" target="_top" xlink:title=" ">
<polygon fill="white" stroke="#666666" points="463.75,-96 386.25,-96 386.25,-76 463.75,-76 463.75,-96"/>
<text xml:space="preserve" text-anchor="middle" x="425" y="-82.5" font-family="Helvetica,sans-Serif" font-size="10.00">convert_triplet</text>
</a>
</g>
</g>
<!-- Node11&#45;&gt;Node13 -->
<g id="edge18_Node000011_Node000013" class="edge">
<title>Node11&#45;&gt;Node13</title>
<g id="a_edge18_Node000011_Node000013"><a xlink:title=" ">
<path fill="none" stroke="#63b8ff" d="M328.65,-189.66C332.93,-187.25 337.08,-184.37 340.5,-181 365.7,-156.17 351.46,-135 376.5,-110 379.49,-107.02 382.92,-104.33 386.55,-101.94"/>
<polygon fill="#63b8ff" stroke="#63b8ff" points="388.18,-105.04 395.11,-97.02 384.69,-98.97 388.18,-105.04"/>
</a>
</g>
</g>
<!-- Node12&#45;&gt;Node6 -->
<g id="edge17_Node000012_Node000006" class="edge">
<title>Node12&#45;&gt;Node6</title>
<g id="a_edge17_Node000012_Node000006"><a xlink:title=" ">
<path fill="none" stroke="#63b8ff" d="M1021.51,-153.37C1033.83,-168.66 1057.44,-198.25 1076.75,-224 1094.66,-247.88 1114.54,-275.93 1127.4,-294.28"/>
<polygon fill="#63b8ff" stroke="#63b8ff" points="1124.47,-296.2 1133.07,-302.39 1130.21,-292.19 1124.47,-296.2"/>
</a>
</g>
</g>
<!-- Node13&#45;&gt;Node9 -->
<g id="edge26_Node000013_Node000009" class="edge">
<title>Node13&#45;&gt;Node9</title>
<g id="a_edge26_Node000013_Node000009"><a xlink:title=" ">
<path fill="none" stroke="#63b8ff" d="M463.95,-75.92C484.89,-70.35 510.8,-63.47 531.65,-57.92"/>
<polygon fill="#63b8ff" stroke="#63b8ff" points="532.42,-61.34 541.19,-55.39 530.62,-54.58 532.42,-61.34"/>
</a>
</g>
</g>
<!-- Node14 -->
<g id="Node000014" class="node">
<title>Node14</title>
<g id="a_Node000014"><a xlink:href="conversion_8c.html#a1860eceee858703a4a25348759c51830" target="_top" xlink:title=" ">
<polygon fill="white" stroke="#666666" points="616.62,-162 523.38,-162 523.38,-142 616.62,-142 616.62,-162"/>
<text xml:space="preserve" text-anchor="middle" x="570" y="-148.5" font-family="Helvetica,sans-Serif" font-size="10.00">convert_hundreds</text>
</a>
</g>
</g>
<!-- Node13&#45;&gt;Node14 -->
<g id="edge19_Node000013_Node000014" class="edge">
<title>Node13&#45;&gt;Node14</title>
<g id="a_edge19_Node000013_Node000014"><a xlink:title=" ">
<path fill="none" stroke="#63b8ff" d="M448.66,-96.46C472.19,-107.32 509.25,-124.42 536.03,-136.78"/>
<polygon fill="#63b8ff" stroke="#63b8ff" points="534.53,-139.94 545.07,-140.96 537.46,-133.59 534.53,-139.94"/>
</a>
</g>
</g>
<!-- Node14&#45;&gt;Node3 -->
<g id="edge25_Node000014_Node000003" class="edge">
<title>Node14&#45;&gt;Node3</title>
<g id="a_edge25_Node000014_Node000003"><a xlink:title=" ">
<path fill="none" stroke="#63b8ff" d="M603.42,-162.39C663.99,-181.81 798.43,-225.01 911.5,-262 930.34,-268.16 951.16,-275.05 968.88,-280.93"/>
<polygon fill="#63b8ff" stroke="#63b8ff" points="967.71,-284.23 978.3,-284.06 969.91,-277.59 967.71,-284.23"/>
</a>
</g>
</g>
<!-- Node14&#45;&gt;Node12 -->
<g id="edge20_Node000014_Node000012" class="edge">
<title>Node14&#45;&gt;Node12</title>
<g id="a_edge20_Node000014_Node000012"><a xlink:title=" ">
<path fill="none" stroke="#63b8ff" d="M617.08,-146.78C632.75,-145.23 650.36,-143.76 666.5,-143 765.23,-138.36 880.04,-139.71 949.07,-141.25"/>
<polygon fill="#63b8ff" stroke="#63b8ff" points="948.99,-144.75 959.06,-141.48 949.15,-137.75 948.99,-144.75"/>
</a>
</g>
</g>
<!-- Node15 -->
<g id="Node000015" class="node">
<title>Node15</title>
<g id="a_Node000015"><a xlink:href="helpers2_8c.html#a10f3a7bc3f2e2b5a3e5e43c0ba93e1f8" target="_top" xlink:title=" ">
<polygon fill="white" stroke="#666666" points="769.12,-172 670.62,-172 670.62,-152 769.12,-152 769.12,-172"/>
<text xml:space="preserve" text-anchor="middle" x="719.88" y="-158.5" font-family="Helvetica,sans-Serif" font-size="10.00">convert_tens_ones</text>
</a>
</g>
</g>
<!-- Node14&#45;&gt;Node15 -->
<g id="edge21_Node000014_Node000015" class="edge">
<title>Node14&#45;&gt;Node15</title>
<g id="a_edge21_Node000014_Node000015"><a xlink:title=" ">
<path fill="none" stroke="#63b8ff" d="M616.98,-155.11C630.36,-156.01 645.17,-157.02 659.26,-157.97"/>
<polygon fill="#63b8ff" stroke="#63b8ff" points="658.64,-161.43 668.86,-158.62 659.11,-154.45 658.64,-161.43"/>
</a>
</g>
</g>
<!-- Node16 -->
<g id="Node000016" class="node">
<title>Node16</title>
<g id="a_Node000016"><a xlink:href="helpers2_8c.html#a5496f04c16dcdf7089447f61a18e6032" target="_top" xlink:title=" ">
<polygon fill="white" stroke="#666666" points="891.25,-172 829.5,-172 829.5,-152 891.25,-152 891.25,-172"/>
<text xml:space="preserve" text-anchor="middle" x="860.38" y="-158.5" font-family="Helvetica,sans-Serif" font-size="10.00">temp_func</text>
</a>
</g>
</g>
<!-- Node15&#45;&gt;Node16 -->
<g id="edge22_Node000015_Node000016" class="edge">
<title>Node15&#45;&gt;Node16</title>
<g id="a_edge22_Node000015_Node000016"><a xlink:title=" ">
<path fill="none" stroke="#63b8ff" d="M769.32,-162C785.23,-162 802.76,-162 818.09,-162"/>
<polygon fill="#63b8ff" stroke="#63b8ff" points="817.81,-165.5 827.81,-162 817.81,-158.5 817.81,-165.5"/>
</a>
</g>
</g>
<!-- Node16&#45;&gt;Node3 -->
<g id="edge24_Node000016_Node000003" class="edge">
<title>Node16&#45;&gt;Node3</title>
<g id="a_edge24_Node000016_Node000003"><a xlink:title=" ">
<path fill="none" stroke="#63b8ff" d="M887.96,-172.42C895.89,-176.12 904.37,-180.71 911.5,-186 946.81,-212.2 979.52,-252.22 997.27,-275.78"/>
<polygon fill="#63b8ff" stroke="#63b8ff" points="994.26,-277.6 1003.02,-283.56 999.89,-273.44 994.26,-277.6"/>
</a>
</g>
</g>
<!-- Node16&#45;&gt;Node12 -->
<g id="edge23_Node000016_Node000012" class="edge">
<title>Node16&#45;&gt;Node12</title>
<g id="a_edge23_Node000016_Node000012"><a xlink:title=" ">
<path fill="none" stroke="#63b8ff" d="M891.68,-158.16C908.26,-156.05 929.42,-153.37 949.32,-150.84"/>
<polygon fill="#63b8ff" stroke="#63b8ff" points="949.54,-154.34 959.02,-149.61 948.66,-147.4 949.54,-154.34"/>
</a>
</g>
</g>
<!-- Node19 -->
<g id="Node000019" class="node">
<title>Node19</title>
<g id="a_Node000019"><a xlink:href="helpers2_8c.html#a25eedb6bb1efc6471fdbad00664ccf3f" target="_top" xlink:title=" ">
<polygon fill="white" stroke="#666666" points="889.38,-514 831.38,-514 831.38,-494 889.38,-494 889.38,-514"/>
<text xml:space="preserve" text-anchor="middle" x="860.38" y="-500.5" font-family="Helvetica,sans-Serif" font-size="10.00">free_lines</text>
</a>
</g>
</g>
<!-- Node18&#45;&gt;Node19 -->
<g id="edge30_Node000018_Node000019" class="edge">
<title>Node18&#45;&gt;Node19</title>
<g id="a_edge30_Node000018_Node000019"><a xlink:title=" ">
<path fill="none" stroke="#63b8ff" d="M613.76,-482.32C654.79,-480.38 718.45,-479.03 773.25,-485 788.62,-486.68 805.27,-489.99 819.8,-493.38"/>
<polygon fill="#63b8ff" stroke="#63b8ff" points="818.91,-496.77 829.45,-495.73 820.57,-489.97 818.91,-496.77"/>
</a>
</g>
</g>
<!-- Node20 -->
<g id="Node000020" class="node">
<title>Node20</title>
<g id="a_Node000020"><a xlink:href="dict__parser_8c.html#adcd1d9c253034ca41f33fcdf24ddd9fd" target="_top" xlink:title=" ">
<polygon fill="white" stroke="#666666" points="748.5,-514 691.25,-514 691.25,-494 748.5,-494 748.5,-514"/>
<text xml:space="preserve" text-anchor="middle" x="719.88" y="-500.5" font-family="Helvetica,sans-Serif" font-size="10.00">free_stuff</text>
</a>
</g>
</g>
<!-- Node18&#45;&gt;Node20 -->
<g id="edge31_Node000018_Node000020" class="edge">
<title>Node18&#45;&gt;Node20</title>
<g id="a_edge31_Node000018_Node000020"><a xlink:title=" ">
<path fill="none" stroke="#63b8ff" d="M613.77,-490.5C634.59,-493.17 659.45,-496.36 679.76,-498.97"/>
<polygon fill="#63b8ff" stroke="#63b8ff" points="679.27,-502.44 689.63,-500.24 680.16,-495.5 679.27,-502.44"/>
</a>
</g>
</g>
<!-- Node26 -->
<g id="Node000026" class="node">
<title>Node26</title>
<g id="a_Node000026"><a xlink:href="helpers__dict_8c.html#a68aa1ccec164997eebbb74f7d751555c" target="_top" xlink:title=" ">
<polygon fill="white" stroke="#666666" points="746.25,-552 693.5,-552 693.5,-532 746.25,-532 746.25,-552"/>
<text xml:space="preserve" text-anchor="middle" x="719.88" y="-538.5" font-family="Helvetica,sans-Serif" font-size="10.00">read_file</text>
</a>
</g>
</g>
<!-- Node18&#45;&gt;Node26 -->
<g id="edge41_Node000018_Node000026" class="edge">
<title>Node18&#45;&gt;Node26</title>
<g id="a_edge41_Node000018_Node000026"><a xlink:title=" ">
<path fill="none" stroke="#63b8ff" d="M596.45,-495.37C615.65,-503.14 642.65,-513.93 666.5,-523 671.65,-524.96 677.11,-526.99 682.48,-528.96"/>
<polygon fill="#63b8ff" stroke="#63b8ff" points="681.23,-532.23 691.82,-532.36 683.62,-525.65 681.23,-532.23"/>
</a>
</g>
</g>
<!-- Node27 -->
<g id="Node000027" class="node">
<title>Node27</title>
<g id="a_Node000027"><a xlink:href="dict__parser_8c.html#a1c5b0b3fafa4233e41858d810a4bd1cd" target="_top" xlink:title=" ">
<polygon fill="white" stroke="#666666" points="749.62,-438 690.12,-438 690.12,-418 749.62,-418 749.62,-438"/>
<text xml:space="preserve" text-anchor="middle" x="719.88" y="-424.5" font-family="Helvetica,sans-Serif" font-size="10.00">split_lines</text>
</a>
</g>
</g>
<!-- Node18&#45;&gt;Node27 -->
<g id="edge42_Node000018_Node000027" class="edge">
<title>Node18&#45;&gt;Node27</title>
<g id="a_edge42_Node000018_Node000027"><a xlink:title=" ">
<path fill="none" stroke="#63b8ff" d="M598.12,-474.55C621.4,-465.57 655.18,-452.55 681.1,-442.56"/>
<polygon fill="#63b8ff" stroke="#63b8ff" points="682.19,-445.89 690.26,-439.03 679.67,-439.36 682.19,-445.89"/>
</a>
</g>
</g>
<!-- Node20&#45;&gt;Node17 -->
<g id="edge33_Node000020_Node000017" class="edge">
<title>Node20&#45;&gt;Node17</title>
<g id="a_edge33_Node000020_Node000017"><a xlink:title=" ">
<path fill="none" stroke="#63b8ff" d="M748.9,-509.75C757.49,-512.61 766.45,-516.82 773.25,-523 800.9,-548.15 781.79,-573.65 809.25,-599 810.17,-599.85 811.14,-600.67 812.14,-601.45"/>
<polygon fill="#63b8ff" stroke="#63b8ff" points="810.28,-604.41 820.61,-606.74 813.99,-598.48 810.28,-604.41"/>
</a>
</g>
</g>
<!-- Node20&#45;&gt;Node19 -->
<g id="edge32_Node000020_Node000019" class="edge">
<title>Node20&#45;&gt;Node19</title>
<g id="a_edge32_Node000020_Node000019"><a xlink:title=" ">
<path fill="none" stroke="#63b8ff" d="M748.9,-504C769.23,-504 797.01,-504 819.62,-504"/>
<polygon fill="#63b8ff" stroke="#63b8ff" points="819.4,-507.5 829.4,-504 819.4,-500.5 819.4,-507.5"/>
</a>
</g>
</g>
<!-- Node21 -->
<g id="Node000021" class="node">
<title>Node21</title>
<g id="a_Node000021"><a xlink:href="helpers_8c.html#ad3e9fd83e20283e54a5adc9f5a9ea039" target="_top" xlink:title=" ">
<polygon fill="white" stroke="#666666" points="898.38,-590 822.38,-590 822.38,-570 898.38,-570 898.38,-590"/>
<text xml:space="preserve" text-anchor="middle" x="860.38" y="-576.5" font-family="Helvetica,sans-Serif" font-size="10.00">is_empty_line</text>
</a>
</g>
</g>
<!-- Node20&#45;&gt;Node21 -->
<g id="edge34_Node000020_Node000021" class="edge">
<title>Node20&#45;&gt;Node21</title>
<g id="a_edge34_Node000020_Node000021"><a xlink:title=" ">
<path fill="none" stroke="#63b8ff" d="M748.93,-511.49C757.14,-514.38 765.89,-518.17 773.25,-523 792.71,-535.75 789.88,-548.11 809.25,-561 811.19,-562.29 813.22,-563.51 815.32,-564.66"/>
<polygon fill="#63b8ff" stroke="#63b8ff" points="813.56,-567.69 824.09,-568.88 816.6,-561.39 813.56,-567.69"/>
</a>
</g>
</g>
<!-- Node22 -->
<g id="Node000022" class="node">
<title>Node22</title>
<g id="a_Node000022"><a xlink:href="dict__parser_8c.html#a5e0063cd44034d5e48a221f3f5890c3a" target="_top" xlink:title=" ">
<polygon fill="white" stroke="#666666" points="911.5,-552 809.25,-552 809.25,-532 911.5,-532 911.5,-552"/>
<text xml:space="preserve" text-anchor="middle" x="860.38" y="-538.5" font-family="Helvetica,sans-Serif" font-size="10.00">parse_mapping_line</text>
</a>
</g>
</g>
<!-- Node20&#45;&gt;Node22 -->
<g id="edge35_Node000020_Node000022" class="edge">
<title>Node20&#45;&gt;Node22</title>
<g id="a_edge35_Node000020_Node000022"><a xlink:title=" ">
<path fill="none" stroke="#63b8ff" d="M748.9,-511.69C766.44,-516.5 789.53,-522.84 810.06,-528.47"/>
<polygon fill="#63b8ff" stroke="#63b8ff" points="809.12,-531.84 819.69,-531.11 810.98,-525.09 809.12,-531.84"/>
</a>
</g>
</g>
<!-- Node22&#45;&gt;Node6 -->
<g id="edge37_Node000022_Node000006" class="edge">
<title>Node22&#45;&gt;Node6</title>
<g id="a_edge37_Node000022_Node000006"><a xlink:title=" ">
<path fill="none" stroke="#63b8ff" d="M895.3,-531.54C900.93,-529.14 906.54,-526.3 911.5,-523 930.87,-510.11 927.66,-497.14 947.5,-485 998.57,-453.75 1031.07,-485.71 1076.75,-447 1111.51,-417.54 1129.03,-364.93 1136.49,-335.48"/>
<polygon fill="#63b8ff" stroke="#63b8ff" points="1139.87,-336.42 1138.75,-325.89 1133.05,-334.82 1139.87,-336.42"/>
</a>
</g>
</g>
<!-- Node23 -->
<g id="Node000023" class="node">
<title>Node23</title>
<g id="a_Node000023"><a xlink:href="helpers_8c.html#a41989b306da817556af871fb6d5b72ff" target="_top" xlink:title=" ">
<polygon fill="white" stroke="#666666" points="1057.62,-438 966.62,-438 966.62,-418 1057.62,-418 1057.62,-438"/>
<text xml:space="preserve" text-anchor="middle" x="1012.12" y="-424.5" font-family="Helvetica,sans-Serif" font-size="10.00">extract_substring</text>
</a>
</g>
</g>
<!-- Node22&#45;&gt;Node23 -->
<g id="edge36_Node000022_Node000023" class="edge">
<title>Node22&#45;&gt;Node23</title>
<g id="a_edge36_Node000022_Node000023"><a xlink:title=" ">
<path fill="none" stroke="#63b8ff" d="M898.51,-531.58C903.21,-529.25 907.69,-526.42 911.5,-523 937.82,-499.36 921.16,-475.62 947.5,-452 951.21,-448.67 955.42,-445.79 959.88,-443.3"/>
<polygon fill="#63b8ff" stroke="#63b8ff" points="961.07,-446.61 968.54,-439.1 958.02,-440.31 961.07,-446.61"/>
</a>
</g>
</g>
<!-- Node24 -->
<g id="Node000024" class="node">
<title>Node24</title>
<g id="a_Node000024"><a xlink:href="helpers__val_8c.html#abff58decf4919821527339856b7d8960" target="_top" xlink:title=" ">
<polygon fill="white" stroke="#666666" points="1055.75,-552 968.5,-552 968.5,-532 1055.75,-532 1055.75,-552"/>
<text xml:space="preserve" text-anchor="middle" x="1012.12" y="-538.5" font-family="Helvetica,sans-Serif" font-size="10.00">trim_whitespace</text>
</a>
</g>
</g>
<!-- Node22&#45;&gt;Node24 -->
<g id="edge38_Node000022_Node000024" class="edge">
<title>Node22&#45;&gt;Node24</title>
<g id="a_edge38_Node000022_Node000024"><a xlink:title=" ">
<path fill="none" stroke="#63b8ff" d="M911.66,-542C926.14,-542 942,-542 956.72,-542"/>
<polygon fill="#63b8ff" stroke="#63b8ff" points="956.72,-545.5 966.72,-542 956.72,-538.5 956.72,-545.5"/>
</a>
</g>
</g>
<!-- Node24&#45;&gt;Node6 -->
<g id="edge39_Node000024_Node000006" class="edge">
<title>Node24&#45;&gt;Node6</title>
<g id="a_edge39_Node000024_Node000006"><a xlink:title=" ">
<path fill="none" stroke="#63b8ff" d="M1056,-535.48C1063.67,-532.68 1071.02,-528.68 1076.75,-523 1129.04,-471.16 1139.05,-377.92 1140.83,-335.75"/>
<polygon fill="#63b8ff" stroke="#63b8ff" points="1144.32,-336.02 1141.11,-325.92 1137.33,-335.82 1144.32,-336.02"/>
</a>
</g>
</g>
<!-- Node25 -->
<g id="Node000025" class="node">
<title>Node25</title>
<g id="a_Node000025"><a xlink:href="helpers__val_8c.html#ad695bedaccc198754dd6dd42fdc88e8e" target="_top" xlink:title=" ">
<polygon fill="white" stroke="#666666" points="1171.5,-552 1112.75,-552 1112.75,-532 1171.5,-532 1171.5,-552"/>
<text xml:space="preserve" text-anchor="middle" x="1142.12" y="-538.5" font-family="Helvetica,sans-Serif" font-size="10.00">get_result</text>
</a>
</g>
</g>
<!-- Node24&#45;&gt;Node25 -->
<g id="edge40_Node000024_Node000025" class="edge">
<title>Node24&#45;&gt;Node25</title>
<g id="a_edge40_Node000024_Node000025"><a xlink:title=" ">
<path fill="none" stroke="#63b8ff" d="M1056.1,-542C1070.63,-542 1086.78,-542 1101.07,-542"/>
<polygon fill="#63b8ff" stroke="#63b8ff" points="1101.05,-545.5 1111.05,-542 1101.05,-538.5 1101.05,-545.5"/>
</a>
</g>
</g>
<!-- Node27&#45;&gt;Node23 -->
<g id="edge44_Node000027_Node000023" class="edge">
<title>Node27&#45;&gt;Node23</title>
<g id="a_edge44_Node000027_Node000023"><a xlink:title=" ">
<path fill="none" stroke="#63b8ff" d="M750.03,-428C797.78,-428 893.43,-428 954.76,-428"/>
<polygon fill="#63b8ff" stroke="#63b8ff" points="954.65,-431.5 964.65,-428 954.65,-424.5 954.65,-431.5"/>
</a>
</g>
</g>
<!-- Node28 -->
<g id="Node000028" class="node">
<title>Node28</title>
<g id="a_Node000028"><a xlink:href="dict__parser_8c.html#a36d2da198013a616a7a0f98054824b45" target="_top" xlink:title=" ">
<polygon fill="white" stroke="#666666" points="893.12,-476 827.62,-476 827.62,-456 893.12,-456 893.12,-476"/>
<text xml:space="preserve" text-anchor="middle" x="860.38" y="-462.5" font-family="Helvetica,sans-Serif" font-size="10.00">count_lines</text>
</a>
</g>
</g>
<!-- Node27&#45;&gt;Node28 -->
<g id="edge43_Node000027_Node000028" class="edge">
<title>Node27&#45;&gt;Node28</title>
<g id="a_edge43_Node000027_Node000028"><a xlink:title=" ">
<path fill="none" stroke="#63b8ff" d="M749.91,-435.97C769.23,-441.27 794.94,-448.32 816.58,-454.26"/>
<polygon fill="#63b8ff" stroke="#63b8ff" points="815.45,-457.58 826.02,-456.85 817.3,-450.83 815.45,-457.58"/>
</a>
</g>
</g>
<!-- Node30&#45;&gt;Node17 -->
<g id="edge54_Node000030_Node000017" class="edge">
<title>Node30&#45;&gt;Node17</title>
<g id="a_edge54_Node000030_Node000017"><a xlink:title=" ">
<path fill="none" stroke="#63b8ff" d="M465.67,-645.53C479.45,-642.28 495.07,-639.02 509.5,-637 615.29,-622.2 740.56,-618.76 808.82,-618.07"/>
<polygon fill="#63b8ff" stroke="#63b8ff" points="808.59,-621.57 818.56,-617.98 808.53,-614.57 808.59,-621.57"/>
</a>
</g>
</g>
<!-- Node30&#45;&gt;Node18 -->
<g id="edge55_Node000030_Node000018" class="edge">
<title>Node30&#45;&gt;Node18</title>
<g id="a_edge55_Node000030_Node000018"><a xlink:title=" ">
<path fill="none" stroke="#63b8ff" d="M434.73,-645.56C458.22,-617.47 523.03,-539.97 553.18,-503.91"/>
<polygon fill="#63b8ff" stroke="#63b8ff" points="555.68,-506.38 559.41,-496.46 550.31,-501.89 555.68,-506.38"/>
</a>
</g>
</g>
<!-- Node31 -->
<g id="Node000031" class="node">
<title>Node31</title>
<g id="a_Node000031"><a xlink:href="helpers__dict_8c.html#ad883df9e614e2d03dea3356b891e744e" target="_top" xlink:title=" ">
<polygon fill="white" stroke="#666666" points="630.5,-666 509.5,-666 509.5,-646 630.5,-646 630.5,-666"/>
<text xml:space="preserve" text-anchor="middle" x="570" y="-652.5" font-family="Helvetica,sans-Serif" font-size="10.00">check_acceptable_keys</text>
</a>
</g>
</g>
<!-- Node30&#45;&gt;Node31 -->
<g id="edge47_Node000030_Node000031" class="edge">
<title>Node30&#45;&gt;Node31</title>
<g id="a_edge47_Node000030_Node000031"><a xlink:title=" ">
<path fill="none" stroke="#63b8ff" d="M473.62,-656C481.35,-656 489.5,-656 497.65,-656"/>
<polygon fill="#63b8ff" stroke="#63b8ff" points="497.61,-659.5 507.61,-656 497.61,-652.5 497.61,-659.5"/>
</a>
</g>
</g>
<!-- Node33 -->
<g id="Node000033" class="node">
<title>Node33</title>
<g id="a_Node000033"><a xlink:href="dict__validation_8c.html#a13f8040bd2b69e2e88c5b818b1a18079" target="_top" xlink:title=" ">
<polygon fill="white" stroke="#666666" points="1068.5,-780 955.75,-780 955.75,-760 1068.5,-760 1068.5,-780"/>
<text xml:space="preserve" text-anchor="middle" x="1012.12" y="-766.5" font-family="Helvetica,sans-Serif" font-size="10.00">check_duplicate_keys</text>
</a>
</g>
</g>
<!-- Node30&#45;&gt;Node33 -->
<g id="edge50_Node000030_Node000033" class="edge">
<title>Node30&#45;&gt;Node33</title>
<g id="a_edge50_Node000030_Node000033"><a xlink:title=" ">
<path fill="none" stroke="#63b8ff" d="M432.56,-666.23C445.02,-684.66 474.05,-723.09 509.5,-740 652.24,-808.07 844.33,-794.78 944.33,-781.23"/>
<polygon fill="#63b8ff" stroke="#63b8ff" points="944.55,-784.73 953.97,-779.87 943.58,-777.8 944.55,-784.73"/>
</a>
</g>
</g>
<!-- Node34 -->
<g id="Node000034" class="node">
<title>Node34</title>
<g id="a_Node000034"><a xlink:href="dict__validation_8c.html#a66282b0e52ae8e9cc350d490592f3165" target="_top" xlink:title=" ">
<polygon fill="white" stroke="#666666" points="1076.75,-742 947.5,-742 947.5,-722 1076.75,-722 1076.75,-742"/>
<text xml:space="preserve" text-anchor="middle" x="1012.12" y="-728.5" font-family="Helvetica,sans-Serif" font-size="10.00">check_required_mappings</text>
</a>
</g>
</g>
<!-- Node30&#45;&gt;Node34 -->
<g id="edge52_Node000030_Node000034" class="edge">
<title>Node30&#45;&gt;Node34</title>
<g id="a_edge52_Node000030_Node000034"><a xlink:title=" ">
<path fill="none" stroke="#63b8ff" d="M436.77,-666.39C451.7,-680.01 480.16,-703.33 509.5,-713 654.55,-760.81 836.08,-752.07 936.17,-741.79"/>
<polygon fill="#63b8ff" stroke="#63b8ff" points="936.3,-745.3 945.87,-740.76 935.56,-738.34 936.3,-745.3"/>
</a>
</g>
</g>
<!-- Node35 -->
<g id="Node000035" class="node">
<title>Node35</title>
<g id="a_Node000035"><a xlink:href="helpers__dict_8c.html#aec9289b69b670cc971a6c21f71ae0497" target="_top" xlink:title=" ">
<polygon fill="white" stroke="#666666" points="618.5,-704 521.5,-704 521.5,-684 618.5,-684 618.5,-704"/>
<text xml:space="preserve" text-anchor="middle" x="570" y="-690.5" font-family="Helvetica,sans-Serif" font-size="10.00">validate_dict_keys</text>
</a>
</g>
</g>
<!-- Node30&#45;&gt;Node35 -->
<g id="edge56_Node000030_Node000035" class="edge">
<title>Node30&#45;&gt;Node35</title>
<g id="a_edge56_Node000030_Node000035"><a xlink:title=" ">
<path fill="none" stroke="#63b8ff" d="M465.45,-666.48C482.02,-670.89 501.48,-676.06 519.04,-680.72"/>
<polygon fill="#63b8ff" stroke="#63b8ff" points="517.65,-683.98 528.21,-683.16 519.45,-677.21 517.65,-683.98"/>
</a>
</g>
</g>
<!-- Node32 -->
<g id="Node000032" class="node">
<title>Node32</title>
<g id="a_Node000032"><a xlink:href="helpers__dict_8c.html#afaea0edcdc4d41af28ab4c6ecadf91a2" target="_top" xlink:title=" ">
<polygon fill="white" stroke="#666666" points="1073.75,-514 950.5,-514 950.5,-494 1073.75,-494 1073.75,-514"/>
<text xml:space="preserve" text-anchor="middle" x="1012.12" y="-500.5" font-family="Helvetica,sans-Serif" font-size="10.00">validate_acceptable_key</text>
</a>
</g>
</g>
<!-- Node31&#45;&gt;Node32 -->
<g id="edge48_Node000031_Node000032" class="edge">
<title>Node31&#45;&gt;Node32</title>
<g id="a_edge48_Node000031_Node000032"><a xlink:title=" ">
<path fill="none" stroke="#63b8ff" d="M630.66,-660.53C716.49,-665.76 869.18,-669.87 911.5,-637 953.46,-604.41 909.64,-560.27 947.5,-523 948.38,-522.13 949.3,-521.3 950.26,-520.51"/>
<polygon fill="#63b8ff" stroke="#63b8ff" points="951.92,-523.6 958.35,-515.18 948.08,-517.75 951.92,-523.6"/>
</a>
</g>
</g>
<!-- Node32&#45;&gt;Node6 -->
<g id="edge49_Node000032_Node000006" class="edge">
<title>Node32&#45;&gt;Node6</title>
<g id="a_edge49_Node000032_Node000006"><a xlink:title=" ">
<path fill="none" stroke="#63b8ff" d="M1055.78,-493.61C1063.46,-490.25 1070.88,-485.82 1076.75,-480 1117.62,-439.5 1133.09,-370.14 1138.49,-335.29"/>
<polygon fill="#63b8ff" stroke="#63b8ff" points="1141.92,-336.02 1139.84,-325.63 1134.99,-335.05 1141.92,-336.02"/>
</a>
</g>
</g>
<!-- Node33&#45;&gt;Node4 -->
<g id="edge51_Node000033_Node000004" class="edge">
<title>Node33&#45;&gt;Node4</title>
<g id="a_edge51_Node000033_Node000004"><a xlink:title=" ">
<path fill="none" stroke="#63b8ff" d="M1048.44,-759.52C1065.19,-754.54 1085.25,-748.59 1102.42,-743.49"/>
<polygon fill="#63b8ff" stroke="#63b8ff" points="1103.18,-746.92 1111.77,-740.72 1101.19,-740.21 1103.18,-746.92"/>
</a>
</g>
</g>
<!-- Node34&#45;&gt;Node4 -->
<g id="edge53_Node000034_Node000004" class="edge">
<title>Node34&#45;&gt;Node4</title>
<g id="a_edge53_Node000034_Node000004"><a xlink:title=" ">
<path fill="none" stroke="#63b8ff" d="M1077.12,-732C1085.51,-732 1093.89,-732 1101.7,-732"/>
<polygon fill="#63b8ff" stroke="#63b8ff" points="1101.52,-735.5 1111.52,-732 1101.52,-728.5 1101.52,-735.5"/>
</a>
</g>
</g>
<!-- Node36 -->
<g id="Node000036" class="node">
<title>Node36</title>
<g id="a_Node000036"><a xlink:href="helpers__dict_8c.html#a086f2e1d45303f2ae2807884d121feac" target="_top" xlink:title=" ">
<polygon fill="white" stroke="#666666" points="765.75,-704 674,-704 674,-684 765.75,-684 765.75,-704"/>
<text xml:space="preserve" text-anchor="middle" x="719.88" y="-690.5" font-family="Helvetica,sans-Serif" font-size="10.00">validate_dict_key</text>
</a>
</g>
</g>
<!-- Node35&#45;&gt;Node36 -->
<g id="edge57_Node000035_Node000036" class="edge">
<title>Node35&#45;&gt;Node36</title>
<g id="a_edge57_Node000035_Node000036"><a xlink:title=" ">
<path fill="none" stroke="#63b8ff" d="M618.6,-694C632.59,-694 648.03,-694 662.51,-694"/>
<polygon fill="#63b8ff" stroke="#63b8ff" points="662.36,-697.5 672.36,-694 662.36,-690.5 662.36,-697.5"/>
</a>
</g>
</g>
<!-- Node37 -->
<g id="Node000037" class="node">
<title>Node37</title>
<g id="a_Node000037"><a xlink:href="helpers__val_8c.html#afcb8cf4ba18ad43ea5c643b027cf0170" target="_top" xlink:title=" ">
<polygon fill="white" stroke="#666666" points="883.75,-704 837,-704 837,-684 883.75,-684 883.75,-704"/>
<text xml:space="preserve" text-anchor="middle" x="860.38" y="-690.5" font-family="Helvetica,sans-Serif" font-size="10.00">is_digit</text>
</a>
</g>
</g>
<!-- Node36&#45;&gt;Node37 -->
<g id="edge58_Node000036_Node000037" class="edge">
<title>Node36&#45;&gt;Node37</title>
<g id="a_edge58_Node000036_Node000037"><a xlink:title=" ">
<path fill="none" stroke="#63b8ff" d="M766.23,-694C785.55,-694 807.7,-694 825.55,-694"/>
<polygon fill="#63b8ff" stroke="#63b8ff" points="825.35,-697.5 835.35,-694 825.35,-690.5 825.35,-697.5"/>
</a>
</g>
</g>
</g>
</svg>
