<?xml version="1.0" encoding="UTF-8" standalone="no"?>
<!DOCTYPE svg PUBLIC "-//W3C//DTD SVG 1.1//EN"
 "http://www.w3.org/Graphics/SVG/1.1/DTD/svg11.dtd">
<!-- Generated by graphviz version 13.1.2 (0)
 -->
<!-- Title: find_scale_name Pages: 1 -->
<svg width="668pt" height="66pt"
 viewBox="0.00 0.00 668.00 66.00" xmlns="http://www.w3.org/2000/svg" xmlns:xlink="http://www.w3.org/1999/xlink">
<g id="graph0" class="graph" transform="scale(1 1) rotate(0) translate(4 62)">
<title>find_scale_name</title>
<!-- Node1 -->
<g id="Node000001" class="node">
<title>Node1</title>
<g id="a_Node000001"><a xlink:title=" ">
<polygon fill="#999999" stroke="#666666" points="660,-39 570.5,-39 570.5,-19 660,-19 660,-39"/>
<text xml:space="preserve" text-anchor="middle" x="615.25" y="-25.5" font-family="Helvetica,sans-Serif" font-size="10.00">find_scale_name</text>
</a>
</g>
</g>
<!-- Node2 -->
<g id="Node000002" class="node">
<title>Node2</title>
<g id="a_Node000002"><a xlink:href="dict__validation_8c.html#a58e73a2efb125a4b0f774511fd61c41d" target="_top" xlink:title=" ">
<polygon fill="white" stroke="#666666" points="418.75,-58 312,-58 312,-38 418.75,-38 418.75,-58"/>
<text xml:space="preserve" text-anchor="middle" x="365.38" y="-44.5" font-family="Helvetica,sans-Serif" font-size="10.00">can_convert_number</text>
</a>
</g>
</g>
<!-- Node1&#45;&gt;Node2 -->
<g id="edge1_Node000001_Node000002" class="edge">
<title>Node1&#45;&gt;Node2</title>
<g id="a_edge1_Node000001_Node000002"><a xlink:title=" ">
<path fill="none" stroke="#63b8ff" d="M558.86,-33.25C517.08,-36.45 460.13,-40.81 419.03,-43.96"/>
<polygon fill="#63b8ff" stroke="#63b8ff" points="559.01,-36.74 568.71,-32.49 558.47,-29.77 559.01,-36.74"/>
</a>
</g>
</g>
<!-- Node6 -->
<g id="Node000006" class="node">
<title>Node6</title>
<g id="a_Node000006"><a xlink:href="helpers2_8c.html#aa882d1da3eeeeb1db44316bf3994cef8" target="_top" xlink:title=" ">
<polygon fill="white" stroke="#666666" points="534.5,-20 454.75,-20 454.75,0 534.5,0 534.5,-20"/>
<text xml:space="preserve" text-anchor="middle" x="494.62" y="-6.5" font-family="Helvetica,sans-Serif" font-size="10.00">process_triplet</text>
</a>
</g>
</g>
<!-- Node1&#45;&gt;Node6 -->
<g id="edge5_Node000001_Node000006" class="edge">
<title>Node1&#45;&gt;Node6</title>
<g id="a_edge5_Node000001_Node000006"><a xlink:title=" ">
<path fill="none" stroke="#63b8ff" d="M558.75,-20.11C550.64,-18.81 542.44,-17.5 534.75,-16.27"/>
<polygon fill="#63b8ff" stroke="#63b8ff" points="558.16,-23.56 568.58,-21.69 559.26,-16.65 558.16,-23.56"/>
</a>
</g>
</g>
<!-- Node3 -->
<g id="Node000003" class="node">
<title>Node3</title>
<g id="a_Node000003"><a xlink:href="process_8c.html#a5b78dd11ed0af8a3709ebbe817eea325" target="_top" xlink:title=" ">
<polygon fill="white" stroke="#666666" points="276,-39 173,-39 173,-19 276,-19 276,-39"/>
<text xml:space="preserve" text-anchor="middle" x="224.5" y="-25.5" font-family="Helvetica,sans-Serif" font-size="10.00">process_conversion</text>
</a>
</g>
</g>
<!-- Node2&#45;&gt;Node3 -->
<g id="edge2_Node000002_Node000003" class="edge">
<title>Node2&#45;&gt;Node3</title>
<g id="a_edge2_Node000002_Node000003"><a xlink:title=" ">
<path fill="none" stroke="#63b8ff" d="M300.49,-39.26C292.36,-38.15 284.13,-37.02 276.24,-35.94"/>
<polygon fill="#63b8ff" stroke="#63b8ff" points="299.99,-42.72 310.37,-40.61 300.94,-35.79 299.99,-42.72"/>
</a>
</g>
</g>
<!-- Node4 -->
<g id="Node000004" class="node">
<title>Node4</title>
<g id="a_Node000004"><a xlink:href="process_8c.html#a6b8653e5d6b8c2bc215b0f6296a57202" target="_top" xlink:title=" ">
<polygon fill="white" stroke="#666666" points="137,-39 73,-39 73,-19 137,-19 137,-39"/>
<text xml:space="preserve" text-anchor="middle" x="105" y="-25.5" font-family="Helvetica,sans-Serif" font-size="10.00">print_result</text>
</a>
</g>
</g>
<!-- Node3&#45;&gt;Node4 -->
<g id="edge3_Node000003_Node000004" class="edge">
<title>Node3&#45;&gt;Node4</title>
<g id="a_edge3_Node000003_Node000004"><a xlink:title=" ">
<path fill="none" stroke="#63b8ff" d="M161.3,-29C152.97,-29 144.74,-29 137.27,-29"/>
<polygon fill="#63b8ff" stroke="#63b8ff" points="161.13,-32.5 171.13,-29 161.13,-25.5 161.13,-32.5"/>
</a>
</g>
</g>
<!-- Node5 -->
<g id="Node000005" class="node">
<title>Node5</title>
<g id="a_Node000005"><a xlink:href="main_8c.html#a3c04138a5bfe5d72780bb7e82a18e627" target="_top" xlink:title=" ">
<polygon fill="white" stroke="#666666" points="37,-39 0,-39 0,-19 37,-19 37,-39"/>
<text xml:space="preserve" text-anchor="middle" x="18.5" y="-25.5" font-family="Helvetica,sans-Serif" font-size="10.00">main</text>
</a>
</g>
</g>
<!-- Node4&#45;&gt;Node5 -->
<g id="edge4_Node000004_Node000005" class="edge">
<title>Node4&#45;&gt;Node5</title>
<g id="a_edge4_Node000004_Node000005"><a xlink:title=" ">
<path fill="none" stroke="#63b8ff" d="M61.22,-29C52.84,-29 44.49,-29 37.49,-29"/>
<polygon fill="#63b8ff" stroke="#63b8ff" points="61.02,-32.5 71.02,-29 61.02,-25.5 61.02,-32.5"/>
</a>
</g>
</g>
<!-- Node7 -->
<g id="Node000007" class="node">
<title>Node7</title>
<g id="a_Node000007"><a xlink:href="conversion_8c.html#a57f397d82b353b943410df86212e704d" target="_top" xlink:title=" ">
<polygon fill="white" stroke="#666666" points="408.25,-20 322.5,-20 322.5,0 408.25,0 408.25,-20"/>
<text xml:space="preserve" text-anchor="middle" x="365.38" y="-6.5" font-family="Helvetica,sans-Serif" font-size="10.00">convert_number</text>
</a>
</g>
</g>
<!-- Node6&#45;&gt;Node7 -->
<g id="edge6_Node000006_Node000007" class="edge">
<title>Node6&#45;&gt;Node7</title>
<g id="a_edge6_Node000006_Node000007"><a xlink:title=" ">
<path fill="none" stroke="#63b8ff" d="M443.13,-10C431.6,-10 419.46,-10 408.33,-10"/>
<polygon fill="#63b8ff" stroke="#63b8ff" points="442.89,-13.5 452.89,-10 442.89,-6.5 442.89,-13.5"/>
</a>
</g>
</g>
<!-- Node7&#45;&gt;Node3 -->
<g id="edge7_Node000007_Node000003" class="edge">
<title>Node7&#45;&gt;Node3</title>
<g id="a_edge7_Node000007_Node000003"><a xlink:title=" ">
<path fill="none" stroke="#63b8ff" d="M311.13,-17.29C299.66,-18.85 287.58,-20.51 276.22,-22.06"/>
<polygon fill="#63b8ff" stroke="#63b8ff" points="311.4,-20.78 320.83,-15.96 310.45,-13.85 311.4,-20.78"/>
</a>
</g>
</g>
</g>
</svg>
