<?xml version="1.0" encoding="UTF-8" standalone="no"?>
<!DOCTYPE svg PUBLIC "-//W3C//DTD SVG 1.1//EN"
 "http://www.w3.org/Graphics/SVG/1.1/DTD/svg11.dtd">
<!-- Generated by graphviz version 13.1.2 (0)
 -->
<!-- Title: parse_mapping_line Pages: 1 -->
<svg width="332pt" height="104pt"
 viewBox="0.00 0.00 332.00 104.00" xmlns="http://www.w3.org/2000/svg" xmlns:xlink="http://www.w3.org/1999/xlink">
<g id="graph0" class="graph" transform="scale(1 1) rotate(0) translate(4 100)">
<title>parse_mapping_line</title>
<!-- Node1 -->
<g id="Node000001" class="node">
<title>Node1</title>
<g id="a_Node000001"><a xlink:title=" ">
<polygon fill="#999999" stroke="#666666" points="102.25,-58 0,-58 0,-38 102.25,-38 102.25,-58"/>
<text xml:space="preserve" text-anchor="middle" x="51.12" y="-44.5" font-family="Helvetica,sans-Serif" font-size="10.00">parse_mapping_line</text>
</a>
</g>
</g>
<!-- Node2 -->
<g id="Node000002" class="node">
<title>Node2</title>
<g id="a_Node000002"><a xlink:href="helpers_8c.html#a41989b306da817556af871fb6d5b72ff" target="_top" xlink:title=" ">
<polygon fill="white" stroke="#666666" points="229.25,-96 138.25,-96 138.25,-76 229.25,-76 229.25,-96"/>
<text xml:space="preserve" text-anchor="middle" x="183.75" y="-82.5" font-family="Helvetica,sans-Serif" font-size="10.00">extract_substring</text>
</a>
</g>
</g>
<!-- Node1&#45;&gt;Node2 -->
<g id="edge1_Node000001_Node000002" class="edge">
<title>Node1&#45;&gt;Node2</title>
<g id="a_edge1_Node000001_Node000002"><a xlink:title=" ">
<path fill="none" stroke="#63b8ff" d="M88.16,-58.48C103.01,-62.8 120.41,-67.86 136.2,-72.46"/>
<polygon fill="#63b8ff" stroke="#63b8ff" points="134.8,-75.69 145.37,-75.13 136.75,-68.97 134.8,-75.69"/>
</a>
</g>
</g>
<!-- Node3 -->
<g id="Node000003" class="node">
<title>Node3</title>
<g id="a_Node000003"><a xlink:href="process_8c.html#a7a9fe4f1210008b95e1b118945eb31ba" target="_top" xlink:title=" ">
<polygon fill="white" stroke="#666666" points="320.25,-58 269,-58 269,-38 320.25,-38 320.25,-58"/>
<text xml:space="preserve" text-anchor="middle" x="294.62" y="-44.5" font-family="Helvetica,sans-Serif" font-size="10.00">ft_strlen</text>
</a>
</g>
</g>
<!-- Node1&#45;&gt;Node3 -->
<g id="edge2_Node000001_Node000003" class="edge">
<title>Node1&#45;&gt;Node3</title>
<g id="a_edge2_Node000001_Node000003"><a xlink:title=" ">
<path fill="none" stroke="#63b8ff" d="M102.46,-48C148.63,-48 215.92,-48 257.13,-48"/>
<polygon fill="#63b8ff" stroke="#63b8ff" points="257.01,-51.5 267.01,-48 257.01,-44.5 257.01,-51.5"/>
</a>
</g>
</g>
<!-- Node4 -->
<g id="Node000004" class="node">
<title>Node4</title>
<g id="a_Node000004"><a xlink:href="helpers__val_8c.html#abff58decf4919821527339856b7d8960" target="_top" xlink:title=" ">
<polygon fill="white" stroke="#666666" points="227.38,-20 140.12,-20 140.12,0 227.38,0 227.38,-20"/>
<text xml:space="preserve" text-anchor="middle" x="183.75" y="-6.5" font-family="Helvetica,sans-Serif" font-size="10.00">trim_whitespace</text>
</a>
</g>
</g>
<!-- Node1&#45;&gt;Node4 -->
<g id="edge3_Node000001_Node000004" class="edge">
<title>Node1&#45;&gt;Node4</title>
<g id="a_edge3_Node000001_Node000004"><a xlink:title=" ">
<path fill="none" stroke="#63b8ff" d="M88.16,-37.52C103.01,-33.2 120.41,-28.14 136.2,-23.54"/>
<polygon fill="#63b8ff" stroke="#63b8ff" points="136.75,-27.03 145.37,-20.87 134.8,-20.31 136.75,-27.03"/>
</a>
</g>
</g>
<!-- Node4&#45;&gt;Node3 -->
<g id="edge4_Node000004_Node000003" class="edge">
<title>Node4&#45;&gt;Node3</title>
<g id="a_edge4_Node000004_Node000003"><a xlink:title=" ">
<path fill="none" stroke="#63b8ff" d="M214.79,-20.48C228.2,-25.16 244.1,-30.71 258.09,-35.6"/>
<polygon fill="#63b8ff" stroke="#63b8ff" points="256.8,-38.86 267.4,-38.85 259.11,-32.25 256.8,-38.86"/>
</a>
</g>
</g>
<!-- Node5 -->
<g id="Node000005" class="node">
<title>Node5</title>
<g id="a_Node000005"><a xlink:href="helpers__val_8c.html#ad695bedaccc198754dd6dd42fdc88e8e" target="_top" xlink:title=" ">
<polygon fill="white" stroke="#666666" points="324,-20 265.25,-20 265.25,0 324,0 324,-20"/>
<text xml:space="preserve" text-anchor="middle" x="294.62" y="-6.5" font-family="Helvetica,sans-Serif" font-size="10.00">get_result</text>
</a>
</g>
</g>
<!-- Node4&#45;&gt;Node5 -->
<g id="edge5_Node000004_Node000005" class="edge">
<title>Node4&#45;&gt;Node5</title>
<g id="a_edge5_Node000004_Node000005"><a xlink:title=" ">
<path fill="none" stroke="#63b8ff" d="M227.78,-10C236.26,-10 245.14,-10 253.52,-10"/>
<polygon fill="#63b8ff" stroke="#63b8ff" points="253.44,-13.5 263.44,-10 253.44,-6.5 253.44,-13.5"/>
</a>
</g>
</g>
</g>
</svg>
