<?xml version="1.0" encoding="UTF-8" standalone="no"?>
<!DOCTYPE svg PUBLIC "-//W3C//DTD SVG 1.1//EN"
 "http://www.w3.org/Graphics/SVG/1.1/DTD/svg11.dtd">
<!-- Generated by graphviz version 13.1.2 (0)
 -->
<!-- Title: free_stuff Pages: 1 -->
<svg width="425pt" height="180pt"
 viewBox="0.00 0.00 425.00 180.00" xmlns="http://www.w3.org/2000/svg" xmlns:xlink="http://www.w3.org/1999/xlink">
<g id="graph0" class="graph" transform="scale(1 1) rotate(0) translate(4 176)">
<title>free_stuff</title>
<!-- Node1 -->
<g id="Node000001" class="node">
<title>Node1</title>
<g id="a_Node000001"><a xlink:title=" ">
<polygon fill="#999999" stroke="#666666" points="57.25,-115 0,-115 0,-95 57.25,-95 57.25,-115"/>
<text xml:space="preserve" text-anchor="middle" x="28.62" y="-101.5" font-family="Helvetica,sans-Serif" font-size="10.00">free_stuff</text>
</a>
</g>
</g>
<!-- Node2 -->
<g id="Node000002" class="node">
<title>Node2</title>
<g id="a_Node000002"><a xlink:href="helpers2_8c.html#a25eedb6bb1efc6471fdbad00664ccf3f" target="_top" xlink:title=" ">
<polygon fill="white" stroke="#666666" points="173.38,-172 115.38,-172 115.38,-152 173.38,-152 173.38,-172"/>
<text xml:space="preserve" text-anchor="middle" x="144.38" y="-158.5" font-family="Helvetica,sans-Serif" font-size="10.00">free_lines</text>
</a>
</g>
</g>
<!-- Node1&#45;&gt;Node2 -->
<g id="edge1_Node000001_Node000002" class="edge">
<title>Node1&#45;&gt;Node2</title>
<g id="a_edge1_Node000001_Node000002"><a xlink:title=" ">
<path fill="none" stroke="#63b8ff" d="M45.4,-115.49C58.02,-123.61 76.34,-134.82 93.25,-143 96.79,-144.71 100.53,-146.38 104.31,-147.96"/>
<polygon fill="#63b8ff" stroke="#63b8ff" points="102.92,-151.18 113.5,-151.64 105.51,-144.68 102.92,-151.18"/>
</a>
</g>
</g>
<!-- Node3 -->
<g id="Node000003" class="node">
<title>Node3</title>
<g id="a_Node000003"><a xlink:href="helpers2_8c.html#a947f1aa90d23e99b917dd7e3a0ab490e" target="_top" xlink:title=" ">
<polygon fill="white" stroke="#666666" points="184.25,-134 104.5,-134 104.5,-114 184.25,-114 184.25,-134"/>
<text xml:space="preserve" text-anchor="middle" x="144.38" y="-120.5" font-family="Helvetica,sans-Serif" font-size="10.00">free_mappings</text>
</a>
</g>
</g>
<!-- Node1&#45;&gt;Node3 -->
<g id="edge2_Node000001_Node000003" class="edge">
<title>Node1&#45;&gt;Node3</title>
<g id="a_edge2_Node000001_Node000003"><a xlink:title=" ">
<path fill="none" stroke="#63b8ff" d="M57.74,-109.7C68.52,-111.5 81.17,-113.61 93.39,-115.65"/>
<polygon fill="#63b8ff" stroke="#63b8ff" points="92.49,-119.05 102.93,-117.24 93.65,-112.14 92.49,-119.05"/>
</a>
</g>
</g>
<!-- Node4 -->
<g id="Node000004" class="node">
<title>Node4</title>
<g id="a_Node000004"><a xlink:href="helpers_8c.html#ad3e9fd83e20283e54a5adc9f5a9ea039" target="_top" xlink:title=" ">
<polygon fill="white" stroke="#666666" points="182.38,-96 106.38,-96 106.38,-76 182.38,-76 182.38,-96"/>
<text xml:space="preserve" text-anchor="middle" x="144.38" y="-82.5" font-family="Helvetica,sans-Serif" font-size="10.00">is_empty_line</text>
</a>
</g>
</g>
<!-- Node1&#45;&gt;Node4 -->
<g id="edge3_Node000001_Node000004" class="edge">
<title>Node1&#45;&gt;Node4</title>
<g id="a_edge3_Node000001_Node000004"><a xlink:title=" ">
<path fill="none" stroke="#63b8ff" d="M57.74,-100.3C69.04,-98.42 82.39,-96.19 95.15,-94.06"/>
<polygon fill="#63b8ff" stroke="#63b8ff" points="95.36,-97.57 104.64,-92.47 94.2,-90.66 95.36,-97.57"/>
</a>
</g>
</g>
<!-- Node5 -->
<g id="Node000005" class="node">
<title>Node5</title>
<g id="a_Node000005"><a xlink:href="dict__parser_8c.html#a5e0063cd44034d5e48a221f3f5890c3a" target="_top" xlink:title=" ">
<polygon fill="white" stroke="#666666" points="195.5,-58 93.25,-58 93.25,-38 195.5,-38 195.5,-58"/>
<text xml:space="preserve" text-anchor="middle" x="144.38" y="-44.5" font-family="Helvetica,sans-Serif" font-size="10.00">parse_mapping_line</text>
</a>
</g>
</g>
<!-- Node1&#45;&gt;Node5 -->
<g id="edge4_Node000001_Node000005" class="edge">
<title>Node1&#45;&gt;Node5</title>
<g id="a_edge4_Node000001_Node000005"><a xlink:title=" ">
<path fill="none" stroke="#63b8ff" d="M45.4,-94.51C58.02,-86.39 76.34,-75.18 93.25,-67 96.33,-65.51 99.57,-64.05 102.84,-62.65"/>
<polygon fill="#63b8ff" stroke="#63b8ff" points="103.97,-65.98 111.92,-58.97 101.34,-59.49 103.97,-65.98"/>
</a>
</g>
</g>
<!-- Node6 -->
<g id="Node000006" class="node">
<title>Node6</title>
<g id="a_Node000006"><a xlink:href="helpers_8c.html#a41989b306da817556af871fb6d5b72ff" target="_top" xlink:title=" ">
<polygon fill="white" stroke="#666666" points="322.5,-96 231.5,-96 231.5,-76 322.5,-76 322.5,-96"/>
<text xml:space="preserve" text-anchor="middle" x="277" y="-82.5" font-family="Helvetica,sans-Serif" font-size="10.00">extract_substring</text>
</a>
</g>
</g>
<!-- Node5&#45;&gt;Node6 -->
<g id="edge5_Node000005_Node000006" class="edge">
<title>Node5&#45;&gt;Node6</title>
<g id="a_edge5_Node000005_Node000006"><a xlink:title=" ">
<path fill="none" stroke="#63b8ff" d="M181.41,-58.48C196.26,-62.8 213.66,-67.86 229.45,-72.46"/>
<polygon fill="#63b8ff" stroke="#63b8ff" points="228.05,-75.69 238.62,-75.13 230,-68.97 228.05,-75.69"/>
</a>
</g>
</g>
<!-- Node7 -->
<g id="Node000007" class="node">
<title>Node7</title>
<g id="a_Node000007"><a xlink:href="process_8c.html#a7a9fe4f1210008b95e1b118945eb31ba" target="_top" xlink:title=" ">
<polygon fill="white" stroke="#666666" points="413.5,-58 362.25,-58 362.25,-38 413.5,-38 413.5,-58"/>
<text xml:space="preserve" text-anchor="middle" x="387.88" y="-44.5" font-family="Helvetica,sans-Serif" font-size="10.00">ft_strlen</text>
</a>
</g>
</g>
<!-- Node5&#45;&gt;Node7 -->
<g id="edge6_Node000005_Node000007" class="edge">
<title>Node5&#45;&gt;Node7</title>
<g id="a_edge6_Node000005_Node000007"><a xlink:title=" ">
<path fill="none" stroke="#63b8ff" d="M195.71,-48C241.88,-48 309.17,-48 350.38,-48"/>
<polygon fill="#63b8ff" stroke="#63b8ff" points="350.26,-51.5 360.26,-48 350.26,-44.5 350.26,-51.5"/>
</a>
</g>
</g>
<!-- Node8 -->
<g id="Node000008" class="node">
<title>Node8</title>
<g id="a_Node000008"><a xlink:href="helpers__val_8c.html#abff58decf4919821527339856b7d8960" target="_top" xlink:title=" ">
<polygon fill="white" stroke="#666666" points="320.62,-20 233.38,-20 233.38,0 320.62,0 320.62,-20"/>
<text xml:space="preserve" text-anchor="middle" x="277" y="-6.5" font-family="Helvetica,sans-Serif" font-size="10.00">trim_whitespace</text>
</a>
</g>
</g>
<!-- Node5&#45;&gt;Node8 -->
<g id="edge7_Node000005_Node000008" class="edge">
<title>Node5&#45;&gt;Node8</title>
<g id="a_edge7_Node000005_Node000008"><a xlink:title=" ">
<path fill="none" stroke="#63b8ff" d="M181.41,-37.52C196.26,-33.2 213.66,-28.14 229.45,-23.54"/>
<polygon fill="#63b8ff" stroke="#63b8ff" points="230,-27.03 238.62,-20.87 228.05,-20.31 230,-27.03"/>
</a>
</g>
</g>
<!-- Node8&#45;&gt;Node7 -->
<g id="edge8_Node000008_Node000007" class="edge">
<title>Node8&#45;&gt;Node7</title>
<g id="a_edge8_Node000008_Node000007"><a xlink:title=" ">
<path fill="none" stroke="#63b8ff" d="M308.04,-20.48C321.45,-25.16 337.35,-30.71 351.34,-35.6"/>
<polygon fill="#63b8ff" stroke="#63b8ff" points="350.05,-38.86 360.65,-38.85 352.36,-32.25 350.05,-38.86"/>
</a>
</g>
</g>
<!-- Node9 -->
<g id="Node000009" class="node">
<title>Node9</title>
<g id="a_Node000009"><a xlink:href="helpers__val_8c.html#ad695bedaccc198754dd6dd42fdc88e8e" target="_top" xlink:title=" ">
<polygon fill="white" stroke="#666666" points="417.25,-20 358.5,-20 358.5,0 417.25,0 417.25,-20"/>
<text xml:space="preserve" text-anchor="middle" x="387.88" y="-6.5" font-family="Helvetica,sans-Serif" font-size="10.00">get_result</text>
</a>
</g>
</g>
<!-- Node8&#45;&gt;Node9 -->
<g id="edge9_Node000008_Node000009" class="edge">
<title>Node8&#45;&gt;Node9</title>
<g id="a_edge9_Node000008_Node000009"><a xlink:title=" ">
<path fill="none" stroke="#63b8ff" d="M321.03,-10C329.51,-10 338.39,-10 346.77,-10"/>
<polygon fill="#63b8ff" stroke="#63b8ff" points="346.69,-13.5 356.69,-10 346.69,-6.5 346.69,-13.5"/>
</a>
</g>
</g>
</g>
</svg>
