<?xml version="1.0" encoding="UTF-8" standalone="no"?>
<!DOCTYPE svg PUBLIC "-//W3C//DTD SVG 1.1//EN"
 "http://www.w3.org/Graphics/SVG/1.1/DTD/svg11.dtd">
<!-- Generated by graphviz version 13.1.2 (0)
 -->
<!-- Title: ft_strdup Pages: 1 -->
<svg width="733pt" height="84pt"
 viewBox="0.00 0.00 733.00 84.00" xmlns="http://www.w3.org/2000/svg" xmlns:xlink="http://www.w3.org/1999/xlink">
<g id="graph0" class="graph" transform="scale(1 1) rotate(0) translate(4 80.1)">
<title>ft_strdup</title>
<!-- Node1 -->
<g id="Node000001" class="node">
<title>Node1</title>
<g id="a_Node000001"><a xlink:title=" ">
<polygon fill="#999999" stroke="#666666" points="724.75,-58 670.5,-58 670.5,-38 724.75,-38 724.75,-58"/>
<text xml:space="preserve" text-anchor="middle" x="697.62" y="-44.5" font-family="Helvetica,sans-Serif" font-size="10.00">ft_strdup</text>
</a>
</g>
</g>
<!-- Node2 -->
<g id="Node000002" class="node">
<title>Node2</title>
<g id="a_Node000002"><a xlink:href="conversion_8c.html#a57f397d82b353b943410df86212e704d" target="_top" xlink:title=" ">
<polygon fill="white" stroke="#666666" points="397.75,-58 312,-58 312,-38 397.75,-38 397.75,-58"/>
<text xml:space="preserve" text-anchor="middle" x="354.88" y="-44.5" font-family="Helvetica,sans-Serif" font-size="10.00">convert_number</text>
</a>
</g>
</g>
<!-- Node1&#45;&gt;Node2 -->
<g id="edge1_Node000001_Node000002" class="edge">
<title>Node1&#45;&gt;Node2</title>
<g id="a_edge1_Node000001_Node000002"><a xlink:title=" ">
<path fill="none" stroke="#63b8ff" d="M659.17,-61.41C651.13,-63.73 642.61,-65.79 634.5,-67 546.26,-80.19 522.33,-77.65 433.75,-67 419.52,-65.29 404.13,-61.88 390.82,-58.41"/>
<polygon fill="#63b8ff" stroke="#63b8ff" points="660.16,-64.76 668.67,-58.45 658.08,-58.08 660.16,-64.76"/>
</a>
</g>
</g>
<!-- Node6 -->
<g id="Node000006" class="node">
<title>Node6</title>
<g id="a_Node000006"><a xlink:href="conversion_8c.html#a82a1feca70c979ed51364bb42306d54f" target="_top" xlink:title=" ">
<polygon fill="white" stroke="#666666" points="634.5,-58 557,-58 557,-38 634.5,-38 634.5,-58"/>
<text xml:space="preserve" text-anchor="middle" x="595.75" y="-44.5" font-family="Helvetica,sans-Serif" font-size="10.00">convert_triplet</text>
</a>
</g>
</g>
<!-- Node1&#45;&gt;Node6 -->
<g id="edge5_Node000001_Node000006" class="edge">
<title>Node1&#45;&gt;Node6</title>
<g id="a_edge5_Node000001_Node000006"><a xlink:title=" ">
<path fill="none" stroke="#63b8ff" d="M658.63,-48C650.78,-48 642.51,-48 634.66,-48"/>
<polygon fill="#63b8ff" stroke="#63b8ff" points="658.61,-51.5 668.61,-48 658.61,-44.5 658.61,-51.5"/>
</a>
</g>
</g>
<!-- Node8 -->
<g id="Node000008" class="node">
<title>Node8</title>
<g id="a_Node000008"><a xlink:href="validation_8c.html#acdce00e90ecf2feb9ff24fa3d39b802a" target="_top" xlink:title=" ">
<polygon fill="white" stroke="#666666" points="521,-20 433.75,-20 433.75,0 521,0 521,-20"/>
<text xml:space="preserve" text-anchor="middle" x="477.38" y="-6.5" font-family="Helvetica,sans-Serif" font-size="10.00">validate_number</text>
</a>
</g>
</g>
<!-- Node1&#45;&gt;Node8 -->
<g id="edge8_Node000001_Node000008" class="edge">
<title>Node1&#45;&gt;Node8</title>
<g id="a_edge8_Node000001_Node000008"><a xlink:title=" ">
<path fill="none" stroke="#63b8ff" d="M659.53,-35.49C651.36,-33.06 642.69,-30.74 634.5,-29 596.7,-20.99 552.99,-16.03 521.45,-13.19"/>
<polygon fill="#63b8ff" stroke="#63b8ff" points="658.26,-38.76 668.84,-38.38 660.33,-32.08 658.26,-38.76"/>
</a>
</g>
</g>
<!-- Node3 -->
<g id="Node000003" class="node">
<title>Node3</title>
<g id="a_Node000003"><a xlink:href="process_8c.html#a5b78dd11ed0af8a3709ebbe817eea325" target="_top" xlink:title=" ">
<polygon fill="white" stroke="#666666" points="276,-58 173,-58 173,-38 276,-38 276,-58"/>
<text xml:space="preserve" text-anchor="middle" x="224.5" y="-44.5" font-family="Helvetica,sans-Serif" font-size="10.00">process_conversion</text>
</a>
</g>
</g>
<!-- Node2&#45;&gt;Node3 -->
<g id="edge2_Node000002_Node000003" class="edge">
<title>Node2&#45;&gt;Node3</title>
<g id="a_edge2_Node000002_Node000003"><a xlink:title=" ">
<path fill="none" stroke="#63b8ff" d="M300.33,-48C292.32,-48 284.08,-48 276.13,-48"/>
<polygon fill="#63b8ff" stroke="#63b8ff" points="300.33,-51.5 310.33,-48 300.33,-44.5 300.33,-51.5"/>
</a>
</g>
</g>
<!-- Node4 -->
<g id="Node000004" class="node">
<title>Node4</title>
<g id="a_Node000004"><a xlink:href="process_8c.html#a6b8653e5d6b8c2bc215b0f6296a57202" target="_top" xlink:title=" ">
<polygon fill="white" stroke="#666666" points="137,-39 73,-39 73,-19 137,-19 137,-39"/>
<text xml:space="preserve" text-anchor="middle" x="105" y="-25.5" font-family="Helvetica,sans-Serif" font-size="10.00">print_result</text>
</a>
</g>
</g>
<!-- Node3&#45;&gt;Node4 -->
<g id="edge3_Node000003_Node000004" class="edge">
<title>Node3&#45;&gt;Node4</title>
<g id="a_edge3_Node000003_Node000004"><a xlink:title=" ">
<path fill="none" stroke="#63b8ff" d="M161.3,-37.94C152.97,-36.6 144.74,-35.26 137.27,-34.06"/>
<polygon fill="#63b8ff" stroke="#63b8ff" points="160.72,-41.39 171.15,-39.54 161.84,-34.48 160.72,-41.39"/>
</a>
</g>
</g>
<!-- Node5 -->
<g id="Node000005" class="node">
<title>Node5</title>
<g id="a_Node000005"><a xlink:href="main_8c.html#a3c04138a5bfe5d72780bb7e82a18e627" target="_top" xlink:title=" ">
<polygon fill="white" stroke="#666666" points="37,-39 0,-39 0,-19 37,-19 37,-39"/>
<text xml:space="preserve" text-anchor="middle" x="18.5" y="-25.5" font-family="Helvetica,sans-Serif" font-size="10.00">main</text>
</a>
</g>
</g>
<!-- Node4&#45;&gt;Node5 -->
<g id="edge4_Node000004_Node000005" class="edge">
<title>Node4&#45;&gt;Node5</title>
<g id="a_edge4_Node000004_Node000005"><a xlink:title=" ">
<path fill="none" stroke="#63b8ff" d="M61.22,-29C52.84,-29 44.49,-29 37.49,-29"/>
<polygon fill="#63b8ff" stroke="#63b8ff" points="61.02,-32.5 71.02,-29 61.02,-25.5 61.02,-32.5"/>
</a>
</g>
</g>
<!-- Node7 -->
<g id="Node000007" class="node">
<title>Node7</title>
<g id="a_Node000007"><a xlink:href="helpers2_8c.html#aa882d1da3eeeeb1db44316bf3994cef8" target="_top" xlink:title=" ">
<polygon fill="white" stroke="#666666" points="517.25,-58 437.5,-58 437.5,-38 517.25,-38 517.25,-58"/>
<text xml:space="preserve" text-anchor="middle" x="477.38" y="-44.5" font-family="Helvetica,sans-Serif" font-size="10.00">process_triplet</text>
</a>
</g>
</g>
<!-- Node6&#45;&gt;Node7 -->
<g id="edge6_Node000006_Node000007" class="edge">
<title>Node6&#45;&gt;Node7</title>
<g id="a_edge6_Node000006_Node000007"><a xlink:title=" ">
<path fill="none" stroke="#63b8ff" d="M545.43,-48C536.06,-48 526.36,-48 517.36,-48"/>
<polygon fill="#63b8ff" stroke="#63b8ff" points="545.13,-51.5 555.13,-48 545.13,-44.5 545.13,-51.5"/>
</a>
</g>
</g>
<!-- Node7&#45;&gt;Node2 -->
<g id="edge7_Node000007_Node000002" class="edge">
<title>Node7&#45;&gt;Node2</title>
<g id="a_edge7_Node000007_Node000002"><a xlink:title=" ">
<path fill="none" stroke="#63b8ff" d="M425.81,-48C416.6,-48 407.07,-48 398.13,-48"/>
<polygon fill="#63b8ff" stroke="#63b8ff" points="425.74,-51.5 435.74,-48 425.74,-44.5 425.74,-51.5"/>
</a>
</g>
</g>
<!-- Node8&#45;&gt;Node4 -->
<g id="edge9_Node000008_Node000004" class="edge">
<title>Node8&#45;&gt;Node4</title>
<g id="a_edge9_Node000008_Node000004"><a xlink:title=" ">
<path fill="none" stroke="#63b8ff" d="M422.43,-12.77C343.93,-16.79 200.71,-24.14 137.46,-27.39"/>
<polygon fill="#63b8ff" stroke="#63b8ff" points="422.21,-16.28 432.01,-12.28 421.85,-9.29 422.21,-16.28"/>
</a>
</g>
</g>
</g>
</svg>
