<?xml version="1.0" encoding="UTF-8" standalone="no"?>
<!DOCTYPE svg PUBLIC "-//W3C//DTD SVG 1.1//EN"
 "http://www.w3.org/Graphics/SVG/1.1/DTD/svg11.dtd">
<!-- Generated by graphviz version 13.1.2 (0)
 -->
<!-- Title: handle_error Pages: 1 -->
<svg width="250pt" height="47pt"
 viewBox="0.00 0.00 250.00 47.00" xmlns="http://www.w3.org/2000/svg" xmlns:xlink="http://www.w3.org/1999/xlink">
<g id="graph0" class="graph" transform="scale(1 1) rotate(0) translate(4 43)">
<title>handle_error</title>
<!-- Node1 -->
<g id="Node000001" class="node">
<title>Node1</title>
<g id="a_Node000001"><a xlink:title=" ">
<polygon fill="#999999" stroke="#666666" points="242.25,-39 173,-39 173,-19 242.25,-19 242.25,-39"/>
<text xml:space="preserve" text-anchor="middle" x="207.62" y="-25.5" font-family="Helvetica,sans-Serif" font-size="10.00">handle_error</text>
</a>
</g>
</g>
<!-- Node2 -->
<g id="Node000002" class="node">
<title>Node2</title>
<g id="a_Node000002"><a xlink:href="main_8c.html#a3c04138a5bfe5d72780bb7e82a18e627" target="_top" xlink:title=" ">
<polygon fill="white" stroke="#666666" points="37,-39 0,-39 0,-19 37,-19 37,-39"/>
<text xml:space="preserve" text-anchor="middle" x="18.5" y="-25.5" font-family="Helvetica,sans-Serif" font-size="10.00">main</text>
</a>
</g>
</g>
<!-- Node1&#45;&gt;Node2 -->
<g id="edge1_Node000001_Node000002" class="edge">
<title>Node1&#45;&gt;Node2</title>
<g id="a_edge1_Node000001_Node000002"><a xlink:title=" ">
<path fill="none" stroke="#63b8ff" d="M161.45,-29C121.6,-29 65.58,-29 37.31,-29"/>
<polygon fill="#63b8ff" stroke="#63b8ff" points="161.22,-32.5 171.22,-29 161.22,-25.5 161.22,-32.5"/>
</a>
</g>
</g>
<!-- Node3 -->
<g id="Node000003" class="node">
<title>Node3</title>
<g id="a_Node000003"><a xlink:href="process_8c.html#a6b8653e5d6b8c2bc215b0f6296a57202" target="_top" xlink:title=" ">
<polygon fill="white" stroke="#666666" points="137,-20 73,-20 73,0 137,0 137,-20"/>
<text xml:space="preserve" text-anchor="middle" x="105" y="-6.5" font-family="Helvetica,sans-Serif" font-size="10.00">print_result</text>
</a>
</g>
</g>
<!-- Node1&#45;&gt;Node3 -->
<g id="edge2_Node000001_Node000003" class="edge">
<title>Node1&#45;&gt;Node3</title>
<g id="a_edge2_Node000001_Node000003"><a xlink:title=" ">
<path fill="none" stroke="#63b8ff" d="M161.31,-20.44C153.2,-18.91 144.92,-17.35 137.32,-15.91"/>
<polygon fill="#63b8ff" stroke="#63b8ff" points="160.59,-23.87 171.07,-22.29 161.89,-16.99 160.59,-23.87"/>
</a>
</g>
</g>
<!-- Node3&#45;&gt;Node2 -->
<g id="edge3_Node000003_Node000002" class="edge">
<title>Node3&#45;&gt;Node2</title>
<g id="a_edge3_Node000003_Node000002"><a xlink:title=" ">
<path fill="none" stroke="#63b8ff" d="M61.51,-19.56C53.03,-21.46 44.57,-23.36 37.49,-24.95"/>
<polygon fill="#63b8ff" stroke="#63b8ff" points="62.07,-23.02 71.06,-17.41 60.53,-16.19 62.07,-23.02"/>
</a>
</g>
</g>
</g>
</svg>
