<?xml version="1.0" encoding="UTF-8" standalone="no"?>
<!DOCTYPE svg PUBLIC "-//W3C//DTD SVG 1.1//EN"
 "http://www.w3.org/Graphics/SVG/1.1/DTD/svg11.dtd">
<!-- Generated by graphviz version 13.1.2 (0)
 -->
<!-- Title: validate_number Pages: 1 -->
<svg width="331pt" height="104pt"
 viewBox="0.00 0.00 331.00 104.00" xmlns="http://www.w3.org/2000/svg" xmlns:xlink="http://www.w3.org/1999/xlink">
<g id="graph0" class="graph" transform="scale(1 1) rotate(0) translate(4 100)">
<title>validate_number</title>
<!-- Node1 -->
<g id="Node000001" class="node">
<title>Node1</title>
<g id="a_Node000001"><a xlink:title=" ">
<polygon fill="#999999" stroke="#666666" points="87.25,-58 0,-58 0,-38 87.25,-38 87.25,-58"/>
<text xml:space="preserve" text-anchor="middle" x="43.62" y="-44.5" font-family="Helvetica,sans-Serif" font-size="10.00">validate_number</text>
</a>
</g>
</g>
<!-- Node2 -->
<g id="Node000002" class="node">
<title>Node2</title>
<g id="a_Node000002"><a xlink:href="helpers__val_8c.html#a3e980cd2c1e6948e57756f0475d64698" target="_top" xlink:title=" ">
<polygon fill="white" stroke="#666666" points="236,-96 123.25,-96 123.25,-76 236,-76 236,-96"/>
<text xml:space="preserve" text-anchor="middle" x="179.62" y="-82.5" font-family="Helvetica,sans-Serif" font-size="10.00">check_number_format</text>
</a>
</g>
</g>
<!-- Node1&#45;&gt;Node2 -->
<g id="edge1_Node000001_Node000002" class="edge">
<title>Node1&#45;&gt;Node2</title>
<g id="a_edge1_Node000001_Node000002"><a xlink:title=" ">
<path fill="none" stroke="#63b8ff" d="M81.6,-58.48C96.83,-62.8 114.67,-67.86 130.87,-72.46"/>
<polygon fill="#63b8ff" stroke="#63b8ff" points="129.74,-75.78 140.32,-75.14 131.65,-69.04 129.74,-75.78"/>
</a>
</g>
</g>
<!-- Node4 -->
<g id="Node000004" class="node">
<title>Node4</title>
<g id="a_Node000004"><a xlink:href="process_8c.html#aedbe09c9d81390246e7bed1b0c630a21" target="_top" xlink:title=" ">
<polygon fill="white" stroke="#666666" points="206.75,-58 152.5,-58 152.5,-38 206.75,-38 206.75,-58"/>
<text xml:space="preserve" text-anchor="middle" x="179.62" y="-44.5" font-family="Helvetica,sans-Serif" font-size="10.00">ft_strdup</text>
</a>
</g>
</g>
<!-- Node1&#45;&gt;Node4 -->
<g id="edge3_Node000001_Node000004" class="edge">
<title>Node1&#45;&gt;Node4</title>
<g id="a_edge3_Node000001_Node000004"><a xlink:title=" ">
<path fill="none" stroke="#63b8ff" d="M87.39,-48C104.53,-48 124.1,-48 140.72,-48"/>
<polygon fill="#63b8ff" stroke="#63b8ff" points="140.7,-51.5 150.7,-48 140.7,-44.5 140.7,-51.5"/>
</a>
</g>
</g>
<!-- Node6 -->
<g id="Node000006" class="node">
<title>Node6</title>
<g id="a_Node000006"><a xlink:href="helpers__val_8c.html#a85170ea7fb559677633e0bc85bc56863" target="_top" xlink:title=" ">
<polygon fill="white" stroke="#666666" points="229.62,-20 129.62,-20 129.62,0 229.62,0 229.62,-20"/>
<text xml:space="preserve" text-anchor="middle" x="179.62" y="-6.5" font-family="Helvetica,sans-Serif" font-size="10.00">strip_leading_zeros</text>
</a>
</g>
</g>
<!-- Node1&#45;&gt;Node6 -->
<g id="edge5_Node000001_Node000006" class="edge">
<title>Node1&#45;&gt;Node6</title>
<g id="a_edge5_Node000001_Node000006"><a xlink:title=" ">
<path fill="none" stroke="#63b8ff" d="M81.6,-37.52C96.83,-33.2 114.67,-28.14 130.87,-23.54"/>
<polygon fill="#63b8ff" stroke="#63b8ff" points="131.65,-26.96 140.32,-20.86 129.74,-20.22 131.65,-26.96"/>
</a>
</g>
</g>
<!-- Node3 -->
<g id="Node000003" class="node">
<title>Node3</title>
<g id="a_Node000003"><a xlink:href="helpers__val_8c.html#afcb8cf4ba18ad43ea5c643b027cf0170" target="_top" xlink:title=" ">
<polygon fill="white" stroke="#666666" points="321,-96 274.25,-96 274.25,-76 321,-76 321,-96"/>
<text xml:space="preserve" text-anchor="middle" x="297.62" y="-82.5" font-family="Helvetica,sans-Serif" font-size="10.00">is_digit</text>
</a>
</g>
</g>
<!-- Node2&#45;&gt;Node3 -->
<g id="edge2_Node000002_Node000003" class="edge">
<title>Node2&#45;&gt;Node3</title>
<g id="a_edge2_Node000002_Node000003"><a xlink:title=" ">
<path fill="none" stroke="#63b8ff" d="M236.25,-86C245.23,-86 254.29,-86 262.57,-86"/>
<polygon fill="#63b8ff" stroke="#63b8ff" points="262.51,-89.5 272.51,-86 262.51,-82.5 262.51,-89.5"/>
</a>
</g>
</g>
<!-- Node5 -->
<g id="Node000005" class="node">
<title>Node5</title>
<g id="a_Node000005"><a xlink:href="process_8c.html#a7a9fe4f1210008b95e1b118945eb31ba" target="_top" xlink:title=" ">
<polygon fill="white" stroke="#666666" points="323.25,-39 272,-39 272,-19 323.25,-19 323.25,-39"/>
<text xml:space="preserve" text-anchor="middle" x="297.62" y="-25.5" font-family="Helvetica,sans-Serif" font-size="10.00">ft_strlen</text>
</a>
</g>
</g>
<!-- Node4&#45;&gt;Node5 -->
<g id="edge4_Node000004_Node000005" class="edge">
<title>Node4&#45;&gt;Node5</title>
<g id="a_edge4_Node000004_Node000005"><a xlink:title=" ">
<path fill="none" stroke="#63b8ff" d="M207.24,-43.64C223,-41.06 243.18,-37.75 260.38,-34.94"/>
<polygon fill="#63b8ff" stroke="#63b8ff" points="260.93,-38.39 270.23,-33.32 259.8,-31.49 260.93,-38.39"/>
</a>
</g>
</g>
<!-- Node6&#45;&gt;Node5 -->
<g id="edge6_Node000006_Node000005" class="edge">
<title>Node6&#45;&gt;Node5</title>
<g id="a_edge6_Node000006_Node000005"><a xlink:title=" ">
<path fill="none" stroke="#63b8ff" d="M229.82,-18.06C240.09,-19.74 250.74,-21.48 260.44,-23.07"/>
<polygon fill="#63b8ff" stroke="#63b8ff" points="259.78,-26.51 270.21,-24.67 260.91,-19.6 259.78,-26.51"/>
</a>
</g>
</g>
</g>
</svg>
