<?xml version="1.0" encoding="UTF-8" standalone="no"?>
<!DOCTYPE svg PUBLIC "-//W3C//DTD SVG 1.1//EN"
 "http://www.w3.org/Graphics/SVG/1.1/DTD/svg11.dtd">
<!-- Generated by graphviz version 13.1.2 (0)
 -->
<!-- Title: process_triplet Pages: 1 -->
<svg width="794pt" height="218pt"
 viewBox="0.00 0.00 794.00 218.00" xmlns="http://www.w3.org/2000/svg" xmlns:xlink="http://www.w3.org/1999/xlink">
<g id="graph0" class="graph" transform="scale(1 1) rotate(0) translate(4 214)">
<title>process_triplet</title>
<!-- Node1 -->
<g id="Node000001" class="node">
<title>Node1</title>
<g id="a_Node000001"><a xlink:title=" ">
<polygon fill="#999999" stroke="#666666" points="79.75,-58 0,-58 0,-38 79.75,-38 79.75,-58"/>
<text xml:space="preserve" text-anchor="middle" x="39.88" y="-44.5" font-family="Helvetica,sans-Serif" font-size="10.00">process_triplet</text>
</a>
</g>
</g>
<!-- Node2 -->
<g id="Node000002" class="node">
<title>Node2</title>
<g id="a_Node000002"><a xlink:href="helpers_8c.html#a3222789b62d41bef34bd5b3f1c9de0dc" target="_top" xlink:title=" ">
<polygon fill="white" stroke="#666666" points="693,-77 590.75,-77 590.75,-57 693,-57 693,-77"/>
<text xml:space="preserve" text-anchor="middle" x="641.88" y="-63.5" font-family="Helvetica,sans-Serif" font-size="10.00">append_with_space</text>
</a>
</g>
</g>
<!-- Node1&#45;&gt;Node2 -->
<g id="edge1_Node000001_Node000002" class="edge">
<title>Node1&#45;&gt;Node2</title>
<g id="a_edge1_Node000001_Node000002"><a xlink:title=" ">
<path fill="none" stroke="#63b8ff" d="M80.21,-48C126.7,-48 206.42,-48 274.88,-48 274.88,-48 274.88,-48 408.75,-48 466.65,-48 532.4,-53.94 579.11,-59.18"/>
<polygon fill="#63b8ff" stroke="#63b8ff" points="578.42,-62.63 588.75,-60.29 579.22,-55.67 578.42,-62.63"/>
</a>
</g>
</g>
<!-- Node4 -->
<g id="Node000004" class="node">
<title>Node4</title>
<g id="a_Node000004"><a xlink:href="conversion_8c.html#a82a1feca70c979ed51364bb42306d54f" target="_top" xlink:title=" ">
<polygon fill="white" stroke="#666666" points="193.25,-20 115.75,-20 115.75,0 193.25,0 193.25,-20"/>
<text xml:space="preserve" text-anchor="middle" x="154.5" y="-6.5" font-family="Helvetica,sans-Serif" font-size="10.00">convert_triplet</text>
</a>
</g>
</g>
<!-- Node1&#45;&gt;Node4 -->
<g id="edge3_Node000001_Node000004" class="edge">
<title>Node1&#45;&gt;Node4</title>
<g id="a_edge3_Node000001_Node000004"><a xlink:title=" ">
<path fill="none" stroke="#63b8ff" d="M71.95,-37.52C84.26,-33.36 98.6,-28.52 111.79,-24.07"/>
<polygon fill="#63b8ff" stroke="#63b8ff" points="112.74,-27.45 121.09,-20.93 110.5,-20.81 112.74,-27.45"/>
</a>
</g>
</g>
<!-- Node11 -->
<g id="Node000011" class="node">
<title>Node11</title>
<g id="a_Node000011"><a xlink:href="conversion_8c.html#aca6f8fd591fbde2a4d2c1e1833c827b5" target="_top" xlink:title=" ">
<polygon fill="white" stroke="#666666" points="452.5,-210 363,-210 363,-190 452.5,-190 452.5,-210"/>
<text xml:space="preserve" text-anchor="middle" x="407.75" y="-196.5" font-family="Helvetica,sans-Serif" font-size="10.00">find_scale_name</text>
</a>
</g>
</g>
<!-- Node1&#45;&gt;Node11 -->
<g id="edge14_Node000001_Node000011" class="edge">
<title>Node1&#45;&gt;Node11</title>
<g id="a_edge14_Node000001_Node000011"><a xlink:title=" ">
<path fill="none" stroke="#63b8ff" d="M66.02,-58.45C129.75,-84.92 297.74,-154.71 371.35,-185.29"/>
<polygon fill="#63b8ff" stroke="#63b8ff" points="369.93,-188.5 380.51,-189.1 372.62,-182.03 369.93,-188.5"/>
</a>
</g>
</g>
<!-- Node3 -->
<g id="Node000003" class="node">
<title>Node3</title>
<g id="a_Node000003"><a xlink:href="process_8c.html#a7a9fe4f1210008b95e1b118945eb31ba" target="_top" xlink:title=" ">
<polygon fill="white" stroke="#666666" points="783.25,-58 732,-58 732,-38 783.25,-38 783.25,-58"/>
<text xml:space="preserve" text-anchor="middle" x="757.62" y="-44.5" font-family="Helvetica,sans-Serif" font-size="10.00">ft_strlen</text>
</a>
</g>
</g>
<!-- Node2&#45;&gt;Node3 -->
<g id="edge2_Node000002_Node000003" class="edge">
<title>Node2&#45;&gt;Node3</title>
<g id="a_edge2_Node000002_Node000003"><a xlink:title=" ">
<path fill="none" stroke="#63b8ff" d="M693.43,-58.56C702.57,-57.03 711.93,-55.47 720.54,-54.03"/>
<polygon fill="#63b8ff" stroke="#63b8ff" points="720.97,-57.5 730.26,-52.4 719.82,-50.6 720.97,-57.5"/>
</a>
</g>
</g>
<!-- Node5 -->
<g id="Node000005" class="node">
<title>Node5</title>
<g id="a_Node000005"><a xlink:href="conversion_8c.html#a1860eceee858703a4a25348759c51830" target="_top" xlink:title=" ">
<polygon fill="white" stroke="#666666" points="322.5,-115 229.25,-115 229.25,-95 322.5,-95 322.5,-115"/>
<text xml:space="preserve" text-anchor="middle" x="275.88" y="-101.5" font-family="Helvetica,sans-Serif" font-size="10.00">convert_hundreds</text>
</a>
</g>
</g>
<!-- Node4&#45;&gt;Node5 -->
<g id="edge4_Node000004_Node000005" class="edge">
<title>Node4&#45;&gt;Node5</title>
<g id="a_edge4_Node000004_Node000005"><a xlink:title=" ">
<path fill="none" stroke="#63b8ff" d="M168.28,-20.17C188.54,-36.3 228.3,-67.94 253.12,-87.69"/>
<polygon fill="#63b8ff" stroke="#63b8ff" points="250.64,-90.19 260.65,-93.68 255,-84.71 250.64,-90.19"/>
</a>
</g>
</g>
<!-- Node10 -->
<g id="Node000010" class="node">
<title>Node10</title>
<g id="a_Node000010"><a xlink:href="process_8c.html#aedbe09c9d81390246e7bed1b0c630a21" target="_top" xlink:title=" ">
<polygon fill="white" stroke="#666666" points="551,-20 496.75,-20 496.75,0 551,0 551,-20"/>
<text xml:space="preserve" text-anchor="middle" x="523.88" y="-6.5" font-family="Helvetica,sans-Serif" font-size="10.00">ft_strdup</text>
</a>
</g>
</g>
<!-- Node4&#45;&gt;Node10 -->
<g id="edge12_Node000004_Node000010" class="edge">
<title>Node4&#45;&gt;Node10</title>
<g id="a_edge12_Node000004_Node000010"><a xlink:title=" ">
<path fill="none" stroke="#63b8ff" d="M193.43,-10C263.97,-10 414.52,-10 485.01,-10"/>
<polygon fill="#63b8ff" stroke="#63b8ff" points="484.89,-13.5 494.89,-10 484.89,-6.5 484.89,-13.5"/>
</a>
</g>
</g>
<!-- Node5&#45;&gt;Node2 -->
<g id="edge5_Node000005_Node000002" class="edge">
<title>Node5&#45;&gt;Node2</title>
<g id="a_edge5_Node000005_Node000002"><a xlink:title=" ">
<path fill="none" stroke="#63b8ff" d="M322.98,-100.19C387.98,-93.4 506.74,-81 579.26,-73.43"/>
<polygon fill="#63b8ff" stroke="#63b8ff" points="579.4,-76.94 588.98,-72.42 578.67,-69.98 579.4,-76.94"/>
</a>
</g>
</g>
<!-- Node6 -->
<g id="Node000006" class="node">
<title>Node6</title>
<g id="a_Node000006"><a xlink:href="helpers2_8c.html#a10f3a7bc3f2e2b5a3e5e43c0ba93e1f8" target="_top" xlink:title=" ">
<polygon fill="white" stroke="#666666" points="457,-134 358.5,-134 358.5,-114 457,-114 457,-134"/>
<text xml:space="preserve" text-anchor="middle" x="407.75" y="-120.5" font-family="Helvetica,sans-Serif" font-size="10.00">convert_tens_ones</text>
</a>
</g>
</g>
<!-- Node5&#45;&gt;Node6 -->
<g id="edge6_Node000005_Node000006" class="edge">
<title>Node5&#45;&gt;Node6</title>
<g id="a_edge6_Node000005_Node000006"><a xlink:title=" ">
<path fill="none" stroke="#63b8ff" d="M322.66,-111.7C330.51,-112.85 338.76,-114.05 346.9,-115.24"/>
<polygon fill="#63b8ff" stroke="#63b8ff" points="346.39,-118.71 356.8,-116.69 347.41,-111.78 346.39,-118.71"/>
</a>
</g>
</g>
<!-- Node8 -->
<g id="Node000008" class="node">
<title>Node8</title>
<g id="a_Node000008"><a xlink:href="conversion_8c.html#a4da89996f6f5a45fbb646c39ef3e6cb2" target="_top" xlink:title=" ">
<polygon fill="white" stroke="#666666" points="678.75,-172 605,-172 605,-152 678.75,-152 678.75,-172"/>
<text xml:space="preserve" text-anchor="middle" x="641.88" y="-158.5" font-family="Helvetica,sans-Serif" font-size="10.00">find_mapping</text>
</a>
</g>
</g>
<!-- Node5&#45;&gt;Node8 -->
<g id="edge11_Node000005_Node000008" class="edge">
<title>Node5&#45;&gt;Node8</title>
<g id="a_edge11_Node000005_Node000008"><a xlink:title=" ">
<path fill="none" stroke="#63b8ff" d="M294.32,-115.44C310.38,-124.48 335.18,-137.01 358.5,-143 438.92,-163.66 536.2,-165.32 593.05,-164.07"/>
<polygon fill="#63b8ff" stroke="#63b8ff" points="593.13,-167.57 603.03,-163.8 592.94,-160.57 593.13,-167.57"/>
</a>
</g>
</g>
<!-- Node7 -->
<g id="Node000007" class="node">
<title>Node7</title>
<g id="a_Node000007"><a xlink:href="helpers2_8c.html#a5496f04c16dcdf7089447f61a18e6032" target="_top" xlink:title=" ">
<polygon fill="white" stroke="#666666" points="554.75,-134 493,-134 493,-114 554.75,-114 554.75,-134"/>
<text xml:space="preserve" text-anchor="middle" x="523.88" y="-120.5" font-family="Helvetica,sans-Serif" font-size="10.00">temp_func</text>
</a>
</g>
</g>
<!-- Node6&#45;&gt;Node7 -->
<g id="edge7_Node000006_Node000007" class="edge">
<title>Node6&#45;&gt;Node7</title>
<g id="a_edge7_Node000006_Node000007"><a xlink:title=" ">
<path fill="none" stroke="#63b8ff" d="M457.48,-124C465.45,-124 473.63,-124 481.4,-124"/>
<polygon fill="#63b8ff" stroke="#63b8ff" points="481.28,-127.5 491.28,-124 481.28,-120.5 481.28,-127.5"/>
</a>
</g>
</g>
<!-- Node7&#45;&gt;Node2 -->
<g id="edge8_Node000007_Node000002" class="edge">
<title>Node7&#45;&gt;Node2</title>
<g id="a_edge8_Node000007_Node000002"><a xlink:title=" ">
<path fill="none" stroke="#63b8ff" d="M546.15,-113.55C563.89,-104.83 589.42,-92.28 609.51,-82.41"/>
<polygon fill="#63b8ff" stroke="#63b8ff" points="610.94,-85.61 618.38,-78.06 607.86,-79.32 610.94,-85.61"/>
</a>
</g>
</g>
<!-- Node7&#45;&gt;Node8 -->
<g id="edge9_Node000007_Node000008" class="edge">
<title>Node7&#45;&gt;Node8</title>
<g id="a_edge9_Node000007_Node000008"><a xlink:title=" ">
<path fill="none" stroke="#63b8ff" d="M555.05,-133.88C568.32,-138.23 584.13,-143.41 598.54,-148.13"/>
<polygon fill="#63b8ff" stroke="#63b8ff" points="597.2,-151.38 607.79,-151.16 599.38,-144.72 597.2,-151.38"/>
</a>
</g>
</g>
<!-- Node9 -->
<g id="Node000009" class="node">
<title>Node9</title>
<g id="a_Node000009"><a xlink:href="process_8c.html#abd118f33a5a0fe00b6cbbfb0eeae25a5" target="_top" xlink:title=" ">
<polygon fill="white" stroke="#666666" points="786.25,-172 729,-172 729,-152 786.25,-152 786.25,-172"/>
<text xml:space="preserve" text-anchor="middle" x="757.62" y="-158.5" font-family="Helvetica,sans-Serif" font-size="10.00">ft_strcmp</text>
</a>
</g>
</g>
<!-- Node8&#45;&gt;Node9 -->
<g id="edge10_Node000008_Node000009" class="edge">
<title>Node8&#45;&gt;Node9</title>
<g id="a_edge10_Node000008_Node000009"><a xlink:title=" ">
<path fill="none" stroke="#63b8ff" d="M679.18,-162C691.3,-162 704.86,-162 717.21,-162"/>
<polygon fill="#63b8ff" stroke="#63b8ff" points="717.07,-165.5 727.07,-162 717.07,-158.5 717.07,-165.5"/>
</a>
</g>
</g>
<!-- Node10&#45;&gt;Node3 -->
<g id="edge13_Node000010_Node000003" class="edge">
<title>Node10&#45;&gt;Node3</title>
<g id="a_edge13_Node000010_Node000003"><a xlink:title=" ">
<path fill="none" stroke="#63b8ff" d="M551.46,-14.36C593.11,-21.19 673.81,-34.42 720.63,-42.1"/>
<polygon fill="#63b8ff" stroke="#63b8ff" points="719.83,-45.51 730.26,-43.68 720.96,-38.61 719.83,-45.51"/>
</a>
</g>
</g>
<!-- Node11&#45;&gt;Node8 -->
<g id="edge15_Node000011_Node000008" class="edge">
<title>Node11&#45;&gt;Node8</title>
<g id="a_edge15_Node000011_Node000008"><a xlink:title=" ">
<path fill="none" stroke="#63b8ff" d="M452.96,-192.76C493.24,-186.17 552.55,-176.46 593.73,-169.72"/>
<polygon fill="#63b8ff" stroke="#63b8ff" points="594.03,-173.22 603.33,-168.15 592.9,-166.31 594.03,-173.22"/>
</a>
</g>
</g>
</g>
</svg>
