<?xml version="1.0" encoding="UTF-8" standalone="no"?>
<!DOCTYPE svg PUBLIC "-//W3C//DTD SVG 1.1//EN"
 "http://www.w3.org/Graphics/SVG/1.1/DTD/svg11.dtd">
<!-- Generated by graphviz version 13.1.2 (0)
 -->
<!-- Title: convert_number Pages: 1 -->
<svg width="944pt" height="360pt"
 viewBox="0.00 0.00 944.00 360.00" xmlns="http://www.w3.org/2000/svg" xmlns:xlink="http://www.w3.org/1999/xlink">
<g id="graph0" class="graph" transform="scale(1 1) rotate(0) translate(4 356)">
<title>convert_number</title>
<!-- Node1 -->
<g id="Node000001" class="node">
<title>Node1</title>
<g id="a_Node000001"><a xlink:title=" ">
<polygon fill="#999999" stroke="#666666" points="85.75,-124 0,-124 0,-104 85.75,-104 85.75,-124"/>
<text xml:space="preserve" text-anchor="middle" x="42.88" y="-110.5" font-family="Helvetica,sans-Serif" font-size="10.00">convert_number</text>
</a>
</g>
</g>
<!-- Node2 -->
<g id="Node000002" class="node">
<title>Node2</title>
<g id="a_Node000002"><a xlink:href="helpers_8c.html#a96e81da608bac4cd34a4c93a1131e57c" target="_top" xlink:title=" ">
<polygon fill="white" stroke="#666666" points="199.25,-352 124,-352 124,-332 199.25,-332 199.25,-352"/>
<text xml:space="preserve" text-anchor="middle" x="161.62" y="-338.5" font-family="Helvetica,sans-Serif" font-size="10.00">extract_triplet</text>
</a>
</g>
</g>
<!-- Node1&#45;&gt;Node2 -->
<g id="edge1_Node000001_Node000002" class="edge">
<title>Node1&#45;&gt;Node2</title>
<g id="a_edge1_Node000001_Node000002"><a xlink:title=" ">
<path fill="none" stroke="#63b8ff" d="M45.37,-124.07C50.55,-155.88 70.28,-255.79 121.75,-318 123.84,-320.52 126.26,-322.85 128.86,-324.99"/>
<polygon fill="#63b8ff" stroke="#63b8ff" points="126.69,-327.75 136.88,-330.64 130.72,-322.02 126.69,-327.75"/>
</a>
</g>
</g>
<!-- Node3 -->
<g id="Node000003" class="node">
<title>Node3</title>
<g id="a_Node000003"><a xlink:href="conversion_8c.html#a4da89996f6f5a45fbb646c39ef3e6cb2" target="_top" xlink:title=" ">
<polygon fill="white" stroke="#666666" points="828.25,-257 754.5,-257 754.5,-237 828.25,-237 828.25,-257"/>
<text xml:space="preserve" text-anchor="middle" x="791.38" y="-243.5" font-family="Helvetica,sans-Serif" font-size="10.00">find_mapping</text>
</a>
</g>
</g>
<!-- Node1&#45;&gt;Node3 -->
<g id="edge2_Node000001_Node000003" class="edge">
<title>Node1&#45;&gt;Node3</title>
<g id="a_edge2_Node000001_Node000003"><a xlink:title=" ">
<path fill="none" stroke="#63b8ff" d="M49.69,-124.49C72.62,-164.32 161.16,-304 275.25,-304 275.25,-304 275.25,-304 530.5,-304 608.18,-304 629.22,-305.14 704.25,-285 724.06,-279.68 745.15,-270.45 761.5,-262.41"/>
<polygon fill="#63b8ff" stroke="#63b8ff" points="762.8,-265.67 770.15,-258.04 759.64,-259.43 762.8,-265.67"/>
</a>
</g>
</g>
<!-- Node5 -->
<g id="Node000005" class="node">
<title>Node5</title>
<g id="a_Node000005"><a xlink:href="process_8c.html#aedbe09c9d81390246e7bed1b0c630a21" target="_top" xlink:title=" ">
<polygon fill="white" stroke="#666666" points="424.75,-48 370.5,-48 370.5,-28 424.75,-28 424.75,-48"/>
<text xml:space="preserve" text-anchor="middle" x="397.62" y="-34.5" font-family="Helvetica,sans-Serif" font-size="10.00">ft_strdup</text>
</a>
</g>
</g>
<!-- Node1&#45;&gt;Node5 -->
<g id="edge4_Node000001_Node000005" class="edge">
<title>Node1&#45;&gt;Node5</title>
<g id="a_edge4_Node000001_Node000005"><a xlink:title=" ">
<path fill="none" stroke="#63b8ff" d="M55.26,-103.66C69.59,-91.32 95.52,-71.22 121.75,-62 202.63,-33.58 304.76,-33.17 358.91,-35.49"/>
<polygon fill="#63b8ff" stroke="#63b8ff" points="358.66,-38.98 368.82,-35.98 359.01,-31.99 358.66,-38.98"/>
</a>
</g>
</g>
<!-- Node6 -->
<g id="Node000006" class="node">
<title>Node6</title>
<g id="a_Node000006"><a xlink:href="process_8c.html#a7a9fe4f1210008b95e1b118945eb31ba" target="_top" xlink:title=" ">
<polygon fill="white" stroke="#666666" points="932.75,-67 881.5,-67 881.5,-47 932.75,-47 932.75,-67"/>
<text xml:space="preserve" text-anchor="middle" x="907.12" y="-53.5" font-family="Helvetica,sans-Serif" font-size="10.00">ft_strlen</text>
</a>
</g>
</g>
<!-- Node1&#45;&gt;Node6 -->
<g id="edge6_Node000001_Node000006" class="edge">
<title>Node1&#45;&gt;Node6</title>
<g id="a_edge6_Node000001_Node000006"><a xlink:title=" ">
<path fill="none" stroke="#63b8ff" d="M51.73,-103.52C64.54,-87.19 91.57,-55.79 121.75,-39 183.26,-4.78 204.86,0 275.25,0 275.25,0 275.25,0 660.5,0 736.89,0 823.27,-26.49 870.53,-43.35"/>
<polygon fill="#63b8ff" stroke="#63b8ff" points="869.09,-46.55 879.69,-46.68 871.49,-39.98 869.09,-46.55"/>
</a>
</g>
</g>
<!-- Node7 -->
<g id="Node000007" class="node">
<title>Node7</title>
<g id="a_Node000007"><a xlink:href="helpers_8c.html#a6277098847a9d44fa9582093bf5328a0" target="_top" xlink:title=" ">
<polygon fill="white" stroke="#666666" points="564.12,-86 494.88,-86 494.88,-66 564.12,-66 564.12,-86"/>
<text xml:space="preserve" text-anchor="middle" x="529.5" y="-72.5" font-family="Helvetica,sans-Serif" font-size="10.00">pad_number</text>
</a>
</g>
</g>
<!-- Node1&#45;&gt;Node7 -->
<g id="edge7_Node000001_Node000007" class="edge">
<title>Node1&#45;&gt;Node7</title>
<g id="a_edge7_Node000001_Node000007"><a xlink:title=" ">
<path fill="none" stroke="#63b8ff" d="M86.14,-109.45C125.34,-105.33 185.32,-99.26 237.5,-95 324.36,-87.9 425.99,-81.76 483.24,-78.5"/>
<polygon fill="#63b8ff" stroke="#63b8ff" points="483.13,-82.01 492.91,-77.95 482.73,-75.02 483.13,-82.01"/>
</a>
</g>
</g>
<!-- Node8 -->
<g id="Node000008" class="node">
<title>Node8</title>
<g id="a_Node000008"><a xlink:href="helpers2_8c.html#aa882d1da3eeeeb1db44316bf3994cef8" target="_top" xlink:title=" ">
<polygon fill="white" stroke="#666666" points="201.5,-143 121.75,-143 121.75,-123 201.5,-123 201.5,-143"/>
<text xml:space="preserve" text-anchor="middle" x="161.62" y="-129.5" font-family="Helvetica,sans-Serif" font-size="10.00">process_triplet</text>
</a>
</g>
</g>
<!-- Node1&#45;&gt;Node8 -->
<g id="edge9_Node000001_Node000008" class="edge">
<title>Node1&#45;&gt;Node8</title>
<g id="a_edge9_Node000001_Node000008"><a xlink:title=" ">
<path fill="none" stroke="#63b8ff" d="M86.02,-120.86C93.84,-122.13 102.07,-123.47 110.11,-124.78"/>
<polygon fill="#63b8ff" stroke="#63b8ff" points="109.34,-128.2 119.77,-126.35 110.46,-121.29 109.34,-128.2"/>
</a>
</g>
</g>
<!-- Node4 -->
<g id="Node000004" class="node">
<title>Node4</title>
<g id="a_Node000004"><a xlink:href="process_8c.html#abd118f33a5a0fe00b6cbbfb0eeae25a5" target="_top" xlink:title=" ">
<polygon fill="white" stroke="#666666" points="935.75,-257 878.5,-257 878.5,-237 935.75,-237 935.75,-257"/>
<text xml:space="preserve" text-anchor="middle" x="907.12" y="-243.5" font-family="Helvetica,sans-Serif" font-size="10.00">ft_strcmp</text>
</a>
</g>
</g>
<!-- Node3&#45;&gt;Node4 -->
<g id="edge3_Node000003_Node000004" class="edge">
<title>Node3&#45;&gt;Node4</title>
<g id="a_edge3_Node000003_Node000004"><a xlink:title=" ">
<path fill="none" stroke="#63b8ff" d="M828.68,-247C840.8,-247 854.36,-247 866.71,-247"/>
<polygon fill="#63b8ff" stroke="#63b8ff" points="866.57,-250.5 876.57,-247 866.57,-243.5 866.57,-250.5"/>
</a>
</g>
</g>
<!-- Node5&#45;&gt;Node6 -->
<g id="edge5_Node000005_Node000006" class="edge">
<title>Node5&#45;&gt;Node6</title>
<g id="a_edge5_Node000005_Node000006"><a xlink:title=" ">
<path fill="none" stroke="#63b8ff" d="M425.2,-38.99C509.77,-42.16 772.85,-52.01 869.79,-55.64"/>
<polygon fill="#63b8ff" stroke="#63b8ff" points="869.39,-59.13 879.51,-56 869.65,-52.13 869.39,-59.13"/>
</a>
</g>
</g>
<!-- Node7&#45;&gt;Node6 -->
<g id="edge8_Node000007_Node000006" class="edge">
<title>Node7&#45;&gt;Node6</title>
<g id="a_edge8_Node000007_Node000006"><a xlink:title=" ">
<path fill="none" stroke="#63b8ff" d="M564.5,-74.28C635.15,-70.71 797.29,-62.51 869.86,-58.83"/>
<polygon fill="#63b8ff" stroke="#63b8ff" points="869.79,-62.34 879.6,-58.34 869.44,-55.35 869.79,-62.34"/>
</a>
</g>
</g>
<!-- Node9 -->
<g id="Node000009" class="node">
<title>Node9</title>
<g id="a_Node000009"><a xlink:href="helpers_8c.html#a3222789b62d41bef34bd5b3f1c9de0dc" target="_top" xlink:title=" ">
<polygon fill="white" stroke="#666666" points="842.5,-143 740.25,-143 740.25,-123 842.5,-123 842.5,-143"/>
<text xml:space="preserve" text-anchor="middle" x="791.38" y="-129.5" font-family="Helvetica,sans-Serif" font-size="10.00">append_with_space</text>
</a>
</g>
</g>
<!-- Node8&#45;&gt;Node9 -->
<g id="edge10_Node000008_Node000009" class="edge">
<title>Node8&#45;&gt;Node9</title>
<g id="a_edge10_Node000008_Node000009"><a xlink:title=" ">
<path fill="none" stroke="#63b8ff" d="M201.89,-133C307.94,-133 600.72,-133 728.91,-133"/>
<polygon fill="#63b8ff" stroke="#63b8ff" points="728.55,-136.5 738.55,-133 728.55,-129.5 728.55,-136.5"/>
</a>
</g>
</g>
<!-- Node10 -->
<g id="Node000010" class="node">
<title>Node10</title>
<g id="a_Node000010"><a xlink:href="conversion_8c.html#a82a1feca70c979ed51364bb42306d54f" target="_top" xlink:title=" ">
<polygon fill="white" stroke="#666666" points="315,-124 237.5,-124 237.5,-104 315,-104 315,-124"/>
<text xml:space="preserve" text-anchor="middle" x="276.25" y="-110.5" font-family="Helvetica,sans-Serif" font-size="10.00">convert_triplet</text>
</a>
</g>
</g>
<!-- Node8&#45;&gt;Node10 -->
<g id="edge12_Node000008_Node000010" class="edge">
<title>Node8&#45;&gt;Node10</title>
<g id="a_edge12_Node000008_Node000010"><a xlink:title=" ">
<path fill="none" stroke="#63b8ff" d="M201.7,-126.41C209.47,-125.1 217.73,-123.7 225.8,-122.34"/>
<polygon fill="#63b8ff" stroke="#63b8ff" points="226.23,-125.82 235.51,-120.7 225.07,-118.92 226.23,-125.82"/>
</a>
</g>
</g>
<!-- Node14 -->
<g id="Node000014" class="node">
<title>Node14</title>
<g id="a_Node000014"><a xlink:href="conversion_8c.html#aca6f8fd591fbde2a4d2c1e1833c827b5" target="_top" xlink:title=" ">
<polygon fill="white" stroke="#666666" points="704.25,-276 614.75,-276 614.75,-256 704.25,-256 704.25,-276"/>
<text xml:space="preserve" text-anchor="middle" x="659.5" y="-262.5" font-family="Helvetica,sans-Serif" font-size="10.00">find_scale_name</text>
</a>
</g>
</g>
<!-- Node8&#45;&gt;Node14 -->
<g id="edge21_Node000008_Node000014" class="edge">
<title>Node8&#45;&gt;Node14</title>
<g id="a_edge21_Node000008_Node000014"><a xlink:title=" ">
<path fill="none" stroke="#63b8ff" d="M184.27,-143.45C199.05,-150.36 219.21,-159.34 237.5,-166 364.93,-212.38 521.97,-243.07 603.51,-257.14"/>
<polygon fill="#63b8ff" stroke="#63b8ff" points="602.56,-260.53 613.01,-258.76 603.74,-253.63 602.56,-260.53"/>
</a>
</g>
</g>
<!-- Node9&#45;&gt;Node6 -->
<g id="edge11_Node000009_Node000006" class="edge">
<title>Node9&#45;&gt;Node6</title>
<g id="a_edge11_Node000009_Node000006"><a xlink:title=" ">
<path fill="none" stroke="#63b8ff" d="M807.72,-122.75C826.54,-110.17 858.72,-88.67 881.13,-73.7"/>
<polygon fill="#63b8ff" stroke="#63b8ff" points="883.03,-76.64 889.41,-68.17 879.15,-70.82 883.03,-76.64"/>
</a>
</g>
</g>
<!-- Node10&#45;&gt;Node5 -->
<g id="edge20_Node000010_Node000005" class="edge">
<title>Node10&#45;&gt;Node5</title>
<g id="a_edge20_Node000010_Node000005"><a xlink:title=" ">
<path fill="none" stroke="#63b8ff" d="M293.35,-103.75C313.2,-91.11 347.18,-69.48 370.72,-54.49"/>
<polygon fill="#63b8ff" stroke="#63b8ff" points="372.57,-57.47 379.12,-49.14 368.81,-51.56 372.57,-57.47"/>
</a>
</g>
</g>
<!-- Node11 -->
<g id="Node000011" class="node">
<title>Node11</title>
<g id="a_Node000011"><a xlink:href="conversion_8c.html#a1860eceee858703a4a25348759c51830" target="_top" xlink:title=" ">
<polygon fill="white" stroke="#666666" points="444.25,-190 351,-190 351,-170 444.25,-170 444.25,-190"/>
<text xml:space="preserve" text-anchor="middle" x="397.62" y="-176.5" font-family="Helvetica,sans-Serif" font-size="10.00">convert_hundreds</text>
</a>
</g>
</g>
<!-- Node10&#45;&gt;Node11 -->
<g id="edge13_Node000010_Node000011" class="edge">
<title>Node10&#45;&gt;Node11</title>
<g id="a_edge13_Node000010_Node000011"><a xlink:title=" ">
<path fill="none" stroke="#63b8ff" d="M296.17,-124.46C315.46,-135.13 345.65,-151.82 367.9,-164.12"/>
<polygon fill="#63b8ff" stroke="#63b8ff" points="366.03,-167.08 376.47,-168.86 369.42,-160.96 366.03,-167.08"/>
</a>
</g>
</g>
<!-- Node11&#45;&gt;Node3 -->
<g id="edge19_Node000011_Node000003" class="edge">
<title>Node11&#45;&gt;Node3</title>
<g id="a_edge19_Node000011_Node000003"><a xlink:title=" ">
<path fill="none" stroke="#63b8ff" d="M423.57,-190.47C439.51,-196.76 460.78,-204.41 480.25,-209 571.76,-230.59 681.52,-240.36 742.87,-244.42"/>
<polygon fill="#63b8ff" stroke="#63b8ff" points="742.4,-247.9 752.6,-245.04 742.84,-240.92 742.4,-247.9"/>
</a>
</g>
</g>
<!-- Node11&#45;&gt;Node9 -->
<g id="edge14_Node000011_Node000009" class="edge">
<title>Node11&#45;&gt;Node9</title>
<g id="a_edge14_Node000011_Node000009"><a xlink:title=" ">
<path fill="none" stroke="#63b8ff" d="M444.72,-174.47C515.18,-166.02 649.78,-149.87 728.61,-140.41"/>
<polygon fill="#63b8ff" stroke="#63b8ff" points="728.81,-143.91 738.33,-139.24 727.98,-136.96 728.81,-143.91"/>
</a>
</g>
</g>
<!-- Node12 -->
<g id="Node000012" class="node">
<title>Node12</title>
<g id="a_Node000012"><a xlink:href="helpers2_8c.html#a10f3a7bc3f2e2b5a3e5e43c0ba93e1f8" target="_top" xlink:title=" ">
<polygon fill="white" stroke="#666666" points="578.75,-200 480.25,-200 480.25,-180 578.75,-180 578.75,-200"/>
<text xml:space="preserve" text-anchor="middle" x="529.5" y="-186.5" font-family="Helvetica,sans-Serif" font-size="10.00">convert_tens_ones</text>
</a>
</g>
</g>
<!-- Node11&#45;&gt;Node12 -->
<g id="edge15_Node000011_Node000012" class="edge">
<title>Node11&#45;&gt;Node12</title>
<g id="a_edge15_Node000011_Node000012"><a xlink:title=" ">
<path fill="none" stroke="#63b8ff" d="M444.41,-183.53C452.26,-184.13 460.51,-184.76 468.65,-185.39"/>
<polygon fill="#63b8ff" stroke="#63b8ff" points="468.29,-188.87 478.53,-186.15 468.83,-181.9 468.29,-188.87"/>
</a>
</g>
</g>
<!-- Node13 -->
<g id="Node000013" class="node">
<title>Node13</title>
<g id="a_Node000013"><a xlink:href="helpers2_8c.html#a5496f04c16dcdf7089447f61a18e6032" target="_top" xlink:title=" ">
<polygon fill="white" stroke="#666666" points="690.38,-200 628.62,-200 628.62,-180 690.38,-180 690.38,-200"/>
<text xml:space="preserve" text-anchor="middle" x="659.5" y="-186.5" font-family="Helvetica,sans-Serif" font-size="10.00">temp_func</text>
</a>
</g>
</g>
<!-- Node12&#45;&gt;Node13 -->
<g id="edge16_Node000012_Node000013" class="edge">
<title>Node12&#45;&gt;Node13</title>
<g id="a_edge16_Node000012_Node000013"><a xlink:title=" ">
<path fill="none" stroke="#63b8ff" d="M578.89,-190C591.45,-190 604.85,-190 617.02,-190"/>
<polygon fill="#63b8ff" stroke="#63b8ff" points="616.72,-193.5 626.72,-190 616.72,-186.5 616.72,-193.5"/>
</a>
</g>
</g>
<!-- Node13&#45;&gt;Node3 -->
<g id="edge18_Node000013_Node000003" class="edge">
<title>Node13&#45;&gt;Node3</title>
<g id="a_edge18_Node000013_Node000003"><a xlink:title=" ">
<path fill="none" stroke="#63b8ff" d="M684.32,-200.45C704.46,-209.29 733.56,-222.06 756.19,-231.99"/>
<polygon fill="#63b8ff" stroke="#63b8ff" points="754.76,-235.19 765.32,-236 757.57,-228.78 754.76,-235.19"/>
</a>
</g>
</g>
<!-- Node13&#45;&gt;Node9 -->
<g id="edge17_Node000013_Node000009" class="edge">
<title>Node13&#45;&gt;Node9</title>
<g id="a_edge17_Node000013_Node000009"><a xlink:title=" ">
<path fill="none" stroke="#63b8ff" d="M684.32,-179.55C704.46,-170.71 733.56,-157.94 756.19,-148.01"/>
<polygon fill="#63b8ff" stroke="#63b8ff" points="757.57,-151.22 765.32,-144 754.76,-144.81 757.57,-151.22"/>
</a>
</g>
</g>
<!-- Node14&#45;&gt;Node3 -->
<g id="edge22_Node000014_Node000003" class="edge">
<title>Node14&#45;&gt;Node3</title>
<g id="a_edge22_Node000014_Node000003"><a xlink:title=" ">
<path fill="none" stroke="#63b8ff" d="M704.47,-259.57C716.86,-257.75 730.4,-255.77 742.99,-253.93"/>
<polygon fill="#63b8ff" stroke="#63b8ff" points="743.33,-257.42 752.72,-252.51 742.32,-250.49 743.33,-257.42"/>
</a>
</g>
</g>
</g>
</svg>
