<?xml version="1.0" encoding="UTF-8" standalone="no"?>
<!DOCTYPE svg PUBLIC "-//W3C//DTD SVG 1.1//EN"
 "http://www.w3.org/Graphics/SVG/1.1/DTD/svg11.dtd">
<!-- Generated by graphviz version 13.1.2 (0)
 -->
<!-- Title: split_lines Pages: 1 -->
<svg width="195pt" height="66pt"
 viewBox="0.00 0.00 195.00 66.00" xmlns="http://www.w3.org/2000/svg" xmlns:xlink="http://www.w3.org/1999/xlink">
<g id="graph0" class="graph" transform="scale(1 1) rotate(0) translate(4 62)">
<title>split_lines</title>
<!-- Node1 -->
<g id="Node000001" class="node">
<title>Node1</title>
<g id="a_Node000001"><a xlink:title=" ">
<polygon fill="#999999" stroke="#666666" points="59.5,-39 0,-39 0,-19 59.5,-19 59.5,-39"/>
<text xml:space="preserve" text-anchor="middle" x="29.75" y="-25.5" font-family="Helvetica,sans-Serif" font-size="10.00">split_lines</text>
</a>
</g>
</g>
<!-- Node2 -->
<g id="Node000002" class="node">
<title>Node2</title>
<g id="a_Node000002"><a xlink:href="dict__parser_8c.html#a36d2da198013a616a7a0f98054824b45" target="_top" xlink:title=" ">
<polygon fill="white" stroke="#666666" points="173.75,-58 108.25,-58 108.25,-38 173.75,-38 173.75,-58"/>
<text xml:space="preserve" text-anchor="middle" x="141" y="-44.5" font-family="Helvetica,sans-Serif" font-size="10.00">count_lines</text>
</a>
</g>
</g>
<!-- Node1&#45;&gt;Node2 -->
<g id="edge1_Node000001_Node000002" class="edge">
<title>Node1&#45;&gt;Node2</title>
<g id="a_edge1_Node000001_Node000002"><a xlink:title=" ">
<path fill="none" stroke="#63b8ff" d="M59.74,-34.04C71.07,-36.01 84.29,-38.31 96.7,-40.47"/>
<polygon fill="#63b8ff" stroke="#63b8ff" points="95.85,-43.87 106.3,-42.14 97.05,-36.98 95.85,-43.87"/>
</a>
</g>
</g>
<!-- Node3 -->
<g id="Node000003" class="node">
<title>Node3</title>
<g id="a_Node000003"><a xlink:href="helpers_8c.html#a41989b306da817556af871fb6d5b72ff" target="_top" xlink:title=" ">
<polygon fill="white" stroke="#666666" points="186.5,-20 95.5,-20 95.5,0 186.5,0 186.5,-20"/>
<text xml:space="preserve" text-anchor="middle" x="141" y="-6.5" font-family="Helvetica,sans-Serif" font-size="10.00">extract_substring</text>
</a>
</g>
</g>
<!-- Node1&#45;&gt;Node3 -->
<g id="edge2_Node000001_Node000003" class="edge">
<title>Node1&#45;&gt;Node3</title>
<g id="a_edge2_Node000001_Node000003"><a xlink:title=" ">
<path fill="none" stroke="#63b8ff" d="M59.74,-23.96C67.22,-22.66 75.52,-21.21 83.87,-19.76"/>
<polygon fill="#63b8ff" stroke="#63b8ff" points="84.47,-23.21 93.72,-18.05 83.27,-16.31 84.47,-23.21"/>
</a>
</g>
</g>
</g>
</svg>
