<?xml version="1.0" encoding="UTF-8" standalone="no"?>
<!DOCTYPE svg PUBLIC "-//W3C//DTD SVG 1.1//EN"
 "http://www.w3.org/Graphics/SVG/1.1/DTD/svg11.dtd">
<!-- Generated by graphviz version 13.1.2 (0)
 -->
<!-- Title: ft_convert.h Pages: 1 -->
<svg width="904pt" height="84pt"
 viewBox="0.00 0.00 904.00 84.00" xmlns="http://www.w3.org/2000/svg" xmlns:xlink="http://www.w3.org/1999/xlink">
<g id="graph0" class="graph" transform="scale(1 1) rotate(0) translate(4 80)">
<title>ft_convert.h</title>
<!-- Node1 -->
<g id="Node000001" class="node">
<title>Node1</title>
<g id="a_Node000001"><a xlink:title=" ">
<polygon fill="#999999" stroke="#666666" points="488.62,-76 420.88,-76 420.88,-56 488.62,-56 488.62,-76"/>
<text xml:space="preserve" text-anchor="middle" x="454.75" y="-62.5" font-family="Helvetica,sans-Serif" font-size="10.00">ft_convert.h</text>
</a>
</g>
</g>
<!-- Node2 -->
<g id="Node000002" class="node">
<title>Node2</title>
<g id="a_Node000002"><a xlink:href="conversion_8c.html" target="_top" xlink:title=" ">
<polygon fill="white" stroke="#666666" points="71.5,-20 0,-20 0,0 71.5,0 71.5,-20"/>
<text xml:space="preserve" text-anchor="middle" x="35.75" y="-6.5" font-family="Helvetica,sans-Serif" font-size="10.00">conversion.c</text>
</a>
</g>
</g>
<!-- Node1&#45;&gt;Node2 -->
<g id="edge1_Node000001_Node000002" class="edge">
<title>Node1&#45;&gt;Node2</title>
<g id="a_edge1_Node000001_Node000002"><a xlink:title=" ">
<path fill="none" stroke="#63b8ff" d="M409.48,-60.7C338.99,-53.74 198.81,-38.88 80.75,-20 77.76,-19.52 74.67,-18.99 71.57,-18.42"/>
<polygon fill="#63b8ff" stroke="#63b8ff" points="408.79,-64.15 419.09,-61.64 409.47,-57.18 408.79,-64.15"/>
</a>
</g>
</g>
<!-- Node3 -->
<g id="Node000003" class="node">
<title>Node3</title>
<g id="a_Node000003"><a xlink:href="dict__parser_8c.html" target="_top" xlink:title=" ">
<polygon fill="white" stroke="#666666" points="161.5,-20 90,-20 90,0 161.5,0 161.5,-20"/>
<text xml:space="preserve" text-anchor="middle" x="125.75" y="-6.5" font-family="Helvetica,sans-Serif" font-size="10.00">dict_parser.c</text>
</a>
</g>
</g>
<!-- Node1&#45;&gt;Node3 -->
<g id="edge2_Node000001_Node000003" class="edge">
<title>Node1&#45;&gt;Node3</title>
<g id="a_edge2_Node000001_Node000003"><a xlink:title=" ">
<path fill="none" stroke="#63b8ff" d="M409.25,-58.37C353.09,-50.05 254.7,-35.04 170.75,-20 167.77,-19.47 164.68,-18.89 161.59,-18.3"/>
<polygon fill="#63b8ff" stroke="#63b8ff" points="408.68,-61.82 419.08,-59.82 409.7,-54.9 408.68,-61.82"/>
</a>
</g>
</g>
<!-- Node4 -->
<g id="Node000004" class="node">
<title>Node4</title>
<g id="a_Node000004"><a xlink:href="dict__validation_8c.html" target="_top" xlink:title=" ">
<polygon fill="white" stroke="#666666" points="266,-20 179.5,-20 179.5,0 266,0 266,-20"/>
<text xml:space="preserve" text-anchor="middle" x="222.75" y="-6.5" font-family="Helvetica,sans-Serif" font-size="10.00">dict_validation.c</text>
</a>
</g>
</g>
<!-- Node1&#45;&gt;Node4 -->
<g id="edge3_Node000001_Node000004" class="edge">
<title>Node1&#45;&gt;Node4</title>
<g id="a_edge3_Node000001_Node000004"><a xlink:title=" ">
<path fill="none" stroke="#63b8ff" d="M409.4,-54.44C366.97,-44.57 304.2,-29.96 263.38,-20.46"/>
<polygon fill="#63b8ff" stroke="#63b8ff" points="408.51,-57.83 419.04,-56.69 410.1,-51.01 408.51,-57.83"/>
</a>
</g>
</g>
<!-- Node5 -->
<g id="Node000005" class="node">
<title>Node5</title>
<g id="a_Node000005"><a xlink:href="errors_8c.html" target="_top" xlink:title=" ">
<polygon fill="white" stroke="#666666" points="333.25,-20 284.25,-20 284.25,0 333.25,0 333.25,-20"/>
<text xml:space="preserve" text-anchor="middle" x="308.75" y="-6.5" font-family="Helvetica,sans-Serif" font-size="10.00">errors.c</text>
</a>
</g>
</g>
<!-- Node1&#45;&gt;Node5 -->
<g id="edge4_Node000001_Node000005" class="edge">
<title>Node1&#45;&gt;Node5</title>
<g id="a_edge4_Node000001_Node000005"><a xlink:title=" ">
<path fill="none" stroke="#63b8ff" d="M418.55,-51.61C392.03,-41.8 356.73,-28.75 333.4,-20.12"/>
<polygon fill="#63b8ff" stroke="#63b8ff" points="417.31,-54.88 427.9,-55.07 419.73,-48.32 417.31,-54.88"/>
</a>
</g>
</g>
<!-- Node6 -->
<g id="Node000006" class="node">
<title>Node6</title>
<g id="a_Node000006"><a xlink:href="helpers_8c.html" target="_top" xlink:title=" ">
<polygon fill="white" stroke="#666666" points="406.62,-20 350.88,-20 350.88,0 406.62,0 406.62,-20"/>
<text xml:space="preserve" text-anchor="middle" x="378.75" y="-6.5" font-family="Helvetica,sans-Serif" font-size="10.00">helpers.c</text>
</a>
</g>
</g>
<!-- Node1&#45;&gt;Node6 -->
<g id="edge5_Node000001_Node000006" class="edge">
<title>Node1&#45;&gt;Node6</title>
<g id="a_edge5_Node000001_Node000006"><a xlink:title=" ">
<path fill="none" stroke="#63b8ff" d="M432.23,-49C419.17,-39.72 403.17,-28.35 392.09,-20.48"/>
<polygon fill="#63b8ff" stroke="#63b8ff" points="430.1,-51.78 440.28,-54.72 434.15,-46.07 430.1,-51.78"/>
</a>
</g>
</g>
<!-- Node7 -->
<g id="Node000007" class="node">
<title>Node7</title>
<g id="a_Node000007"><a xlink:href="helpers2_8c.html" target="_top" xlink:title=" ">
<polygon fill="white" stroke="#666666" points="485.25,-20 424.25,-20 424.25,0 485.25,0 485.25,-20"/>
<text xml:space="preserve" text-anchor="middle" x="454.75" y="-6.5" font-family="Helvetica,sans-Serif" font-size="10.00">helpers2.c</text>
</a>
</g>
</g>
<!-- Node1&#45;&gt;Node7 -->
<g id="edge6_Node000001_Node000007" class="edge">
<title>Node1&#45;&gt;Node7</title>
<g id="a_edge6_Node000001_Node000007"><a xlink:title=" ">
<path fill="none" stroke="#63b8ff" d="M454.75,-44.13C454.75,-35.9 454.75,-26.85 454.75,-20.3"/>
<polygon fill="#63b8ff" stroke="#63b8ff" points="451.25,-44.08 454.75,-54.08 458.25,-44.08 451.25,-44.08"/>
</a>
</g>
</g>
<!-- Node8 -->
<g id="Node000008" class="node">
<title>Node8</title>
<g id="a_Node000008"><a xlink:href="helpers__dict_8c.html" target="_top" xlink:title=" ">
<polygon fill="white" stroke="#666666" points="580.12,-20 503.38,-20 503.38,0 580.12,0 580.12,-20"/>
<text xml:space="preserve" text-anchor="middle" x="541.75" y="-6.5" font-family="Helvetica,sans-Serif" font-size="10.00">helpers_dict.c</text>
</a>
</g>
</g>
<!-- Node1&#45;&gt;Node8 -->
<g id="edge7_Node000001_Node000008" class="edge">
<title>Node1&#45;&gt;Node8</title>
<g id="a_edge7_Node000001_Node000008"><a xlink:title=" ">
<path fill="none" stroke="#63b8ff" d="M479.65,-49.54C494.76,-40.17 513.55,-28.51 526.48,-20.48"/>
<polygon fill="#63b8ff" stroke="#63b8ff" points="477.84,-46.55 471.19,-54.8 481.53,-52.5 477.84,-46.55"/>
</a>
</g>
</g>
<!-- Node9 -->
<g id="Node000009" class="node">
<title>Node9</title>
<g id="a_Node000009"><a xlink:href="helpers__val_8c.html" target="_top" xlink:title=" ">
<polygon fill="white" stroke="#666666" points="671.62,-20 597.88,-20 597.88,0 671.62,0 671.62,-20"/>
<text xml:space="preserve" text-anchor="middle" x="634.75" y="-6.5" font-family="Helvetica,sans-Serif" font-size="10.00">helpers_val.c</text>
</a>
</g>
</g>
<!-- Node1&#45;&gt;Node9 -->
<g id="edge8_Node000001_Node000009" class="edge">
<title>Node1&#45;&gt;Node9</title>
<g id="a_edge8_Node000001_Node000009"><a xlink:title=" ">
<path fill="none" stroke="#63b8ff" d="M497.07,-52.31C529.55,-42.56 573.7,-29.32 603.15,-20.48"/>
<polygon fill="#63b8ff" stroke="#63b8ff" points="496.13,-48.93 487.55,-55.16 498.14,-55.64 496.13,-48.93"/>
</a>
</g>
</g>
<!-- Node10 -->
<g id="Node000010" class="node">
<title>Node10</title>
<g id="a_Node000010"><a xlink:href="main_8c.html" target="_top" xlink:title=" ">
<polygon fill="white" stroke="#666666" points="735.38,-20 690.12,-20 690.12,0 735.38,0 735.38,-20"/>
<text xml:space="preserve" text-anchor="middle" x="712.75" y="-6.5" font-family="Helvetica,sans-Serif" font-size="10.00">main.c</text>
</a>
</g>
</g>
<!-- Node1&#45;&gt;Node10 -->
<g id="edge9_Node000001_Node000010" class="edge">
<title>Node1&#45;&gt;Node10</title>
<g id="a_edge9_Node000001_Node000010"><a xlink:title=" ">
<path fill="none" stroke="#63b8ff" d="M500.34,-57C546.14,-48.7 618.66,-34.89 680.75,-20 683.67,-19.3 686.72,-18.51 689.73,-17.7"/>
<polygon fill="#63b8ff" stroke="#63b8ff" points="499.72,-53.55 490.5,-58.77 500.96,-60.44 499.72,-53.55"/>
</a>
</g>
</g>
<!-- Node11 -->
<g id="Node000011" class="node">
<title>Node11</title>
<g id="a_Node000011"><a xlink:href="process_8c.html" target="_top" xlink:title=" ">
<polygon fill="white" stroke="#666666" points="812.12,-20 753.38,-20 753.38,0 812.12,0 812.12,-20"/>
<text xml:space="preserve" text-anchor="middle" x="782.75" y="-6.5" font-family="Helvetica,sans-Serif" font-size="10.00">process.c</text>
</a>
</g>
</g>
<!-- Node1&#45;&gt;Node11 -->
<g id="edge10_Node000001_Node000011" class="edge">
<title>Node1&#45;&gt;Node11</title>
<g id="a_edge10_Node000001_Node000011"><a xlink:title=" ">
<path fill="none" stroke="#63b8ff" d="M500.01,-59.1C557.23,-51.38 658.68,-36.84 744.75,-20 747.41,-19.48 750.17,-18.9 752.93,-18.3"/>
<polygon fill="#63b8ff" stroke="#63b8ff" points="499.78,-55.6 490.33,-60.4 500.71,-62.54 499.78,-55.6"/>
</a>
</g>
</g>
<!-- Node12 -->
<g id="Node000012" class="node">
<title>Node12</title>
<g id="a_Node000012"><a xlink:href="validation_8c.html" target="_top" xlink:title=" ">
<polygon fill="white" stroke="#666666" points="895.5,-20 830,-20 830,0 895.5,0 895.5,-20"/>
<text xml:space="preserve" text-anchor="middle" x="862.75" y="-6.5" font-family="Helvetica,sans-Serif" font-size="10.00">validation.c</text>
</a>
</g>
</g>
<!-- Node1&#45;&gt;Node12 -->
<g id="edge11_Node000001_Node000012" class="edge">
<title>Node1&#45;&gt;Node12</title>
<g id="a_edge11_Node000001_Node000012"><a xlink:title=" ">
<path fill="none" stroke="#63b8ff" d="M500.31,-60.71C569.73,-53.88 706.02,-39.31 820.75,-20 823.69,-19.51 826.74,-18.94 829.79,-18.35"/>
<polygon fill="#63b8ff" stroke="#63b8ff" points="500.08,-57.22 490.46,-61.67 500.75,-64.18 500.08,-57.22"/>
</a>
</g>
</g>
</g>
</svg>
