<?xml version="1.0" encoding="UTF-8" standalone="no"?>
<!DOCTYPE svg PUBLIC "-//W3C//DTD SVG 1.1//EN"
 "http://www.w3.org/Graphics/SVG/1.1/DTD/svg11.dtd">
<!-- Generated by graphviz version 13.1.2 (0)
 -->
<!-- Title: validate_dict_keys Pages: 1 -->
<svg width="316pt" height="28pt"
 viewBox="0.00 0.00 316.00 28.00" xmlns="http://www.w3.org/2000/svg" xmlns:xlink="http://www.w3.org/1999/xlink">
<g id="graph0" class="graph" transform="scale(1 1) rotate(0) translate(4 24)">
<title>validate_dict_keys</title>
<!-- Node1 -->
<g id="Node000001" class="node">
<title>Node1</title>
<g id="a_Node000001"><a xlink:title=" ">
<polygon fill="#999999" stroke="#666666" points="97,-20 0,-20 0,0 97,0 97,-20"/>
<text xml:space="preserve" text-anchor="middle" x="48.5" y="-6.5" font-family="Helvetica,sans-Serif" font-size="10.00">validate_dict_keys</text>
</a>
</g>
</g>
<!-- Node2 -->
<g id="Node000002" class="node">
<title>Node2</title>
<g id="a_Node000002"><a xlink:href="helpers__dict_8c.html#a086f2e1d45303f2ae2807884d121feac" target="_top" xlink:title=" ">
<polygon fill="white" stroke="#666666" points="224.75,-20 133,-20 133,0 224.75,0 224.75,-20"/>
<text xml:space="preserve" text-anchor="middle" x="178.88" y="-6.5" font-family="Helvetica,sans-Serif" font-size="10.00">validate_dict_key</text>
</a>
</g>
</g>
<!-- Node1&#45;&gt;Node2 -->
<g id="edge1_Node000001_Node000002" class="edge">
<title>Node1&#45;&gt;Node2</title>
<g id="a_edge1_Node000001_Node000002"><a xlink:title=" ">
<path fill="none" stroke="#63b8ff" d="M97.3,-10C105.06,-10 113.16,-10 121.11,-10"/>
<polygon fill="#63b8ff" stroke="#63b8ff" points="121.07,-13.5 131.07,-10 121.07,-6.5 121.07,-13.5"/>
</a>
</g>
</g>
<!-- Node3 -->
<g id="Node000003" class="node">
<title>Node3</title>
<g id="a_Node000003"><a xlink:href="helpers__val_8c.html#afcb8cf4ba18ad43ea5c643b027cf0170" target="_top" xlink:title=" ">
<polygon fill="white" stroke="#666666" points="307.5,-20 260.75,-20 260.75,0 307.5,0 307.5,-20"/>
<text xml:space="preserve" text-anchor="middle" x="284.12" y="-6.5" font-family="Helvetica,sans-Serif" font-size="10.00">is_digit</text>
</a>
</g>
</g>
<!-- Node2&#45;&gt;Node3 -->
<g id="edge2_Node000002_Node000003" class="edge">
<title>Node2&#45;&gt;Node3</title>
<g id="a_edge2_Node000002_Node000003"><a xlink:title=" ">
<path fill="none" stroke="#63b8ff" d="M225.16,-10C233.13,-10 241.3,-10 248.9,-10"/>
<polygon fill="#63b8ff" stroke="#63b8ff" points="248.75,-13.5 258.74,-10 248.74,-6.5 248.75,-13.5"/>
</a>
</g>
</g>
</g>
</svg>
