<?xml version="1.0" encoding="UTF-8" standalone="no"?>
<!DOCTYPE svg PUBLIC "-//W3C//DTD SVG 1.1//EN"
 "http://www.w3.org/Graphics/SVG/1.1/DTD/svg11.dtd">
<!-- Generated by graphviz version 13.1.2 (0)
 -->
<!-- Title: ft_strcmp Pages: 1 -->
<svg width="1299pt" height="218pt"
 viewBox="0.00 0.00 1299.00 218.00" xmlns="http://www.w3.org/2000/svg" xmlns:xlink="http://www.w3.org/1999/xlink">
<g id="graph0" class="graph" transform="scale(1 1) rotate(0) translate(4 214)">
<title>ft_strcmp</title>
<!-- Node1 -->
<g id="Node000001" class="node">
<title>Node1</title>
<g id="a_Node000001"><a xlink:title=" ">
<polygon fill="#999999" stroke="#666666" points="1290.5,-172 1233.25,-172 1233.25,-152 1290.5,-152 1290.5,-172"/>
<text xml:space="preserve" text-anchor="middle" x="1261.88" y="-158.5" font-family="Helvetica,sans-Serif" font-size="10.00">ft_strcmp</text>
</a>
</g>
</g>
<!-- Node2 -->
<g id="Node000002" class="node">
<title>Node2</title>
<g id="a_Node000002"><a xlink:href="dict__validation_8c.html#a13f8040bd2b69e2e88c5b818b1a18079" target="_top" xlink:title=" ">
<polygon fill="white" stroke="#666666" points="1189,-210 1076.25,-210 1076.25,-190 1189,-190 1189,-210"/>
<text xml:space="preserve" text-anchor="middle" x="1132.62" y="-196.5" font-family="Helvetica,sans-Serif" font-size="10.00">check_duplicate_keys</text>
</a>
</g>
</g>
<!-- Node1&#45;&gt;Node2 -->
<g id="edge1_Node000001_Node000002" class="edge">
<title>Node1&#45;&gt;Node2</title>
<g id="a_edge1_Node000001_Node000002"><a xlink:title=" ">
<path fill="none" stroke="#63b8ff" d="M1222.24,-173.54C1205.22,-178.62 1185.37,-184.55 1168.77,-189.51"/>
<polygon fill="#63b8ff" stroke="#63b8ff" points="1222.92,-176.99 1231.5,-170.77 1220.92,-170.28 1222.92,-176.99"/>
</a>
</g>
</g>
<!-- Node7 -->
<g id="Node000007" class="node">
<title>Node7</title>
<g id="a_Node000007"><a xlink:href="dict__validation_8c.html#a66282b0e52ae8e9cc350d490592f3165" target="_top" xlink:title=" ">
<polygon fill="white" stroke="#666666" points="1197.25,-172 1068,-172 1068,-152 1197.25,-152 1197.25,-172"/>
<text xml:space="preserve" text-anchor="middle" x="1132.62" y="-158.5" font-family="Helvetica,sans-Serif" font-size="10.00">check_required_mappings</text>
</a>
</g>
</g>
<!-- Node1&#45;&gt;Node7 -->
<g id="edge6_Node000001_Node000007" class="edge">
<title>Node1&#45;&gt;Node7</title>
<g id="a_edge6_Node000001_Node000007"><a xlink:title=" ">
<path fill="none" stroke="#63b8ff" d="M1221.56,-162C1213.98,-162 1205.86,-162 1197.73,-162"/>
<polygon fill="#63b8ff" stroke="#63b8ff" points="1221.44,-165.5 1231.44,-162 1221.44,-158.5 1221.44,-165.5"/>
</a>
</g>
</g>
<!-- Node8 -->
<g id="Node000008" class="node">
<title>Node8</title>
<g id="a_Node000008"><a xlink:href="conversion_8c.html#a4da89996f6f5a45fbb646c39ef3e6cb2" target="_top" xlink:title=" ">
<polygon fill="white" stroke="#666666" points="1169.5,-115 1095.75,-115 1095.75,-95 1169.5,-95 1169.5,-115"/>
<text xml:space="preserve" text-anchor="middle" x="1132.62" y="-101.5" font-family="Helvetica,sans-Serif" font-size="10.00">find_mapping</text>
</a>
</g>
</g>
<!-- Node1&#45;&gt;Node8 -->
<g id="edge8_Node000001_Node000008" class="edge">
<title>Node1&#45;&gt;Node8</title>
<g id="a_edge8_Node000001_Node000008"><a xlink:title=" ">
<path fill="none" stroke="#63b8ff" d="M1227.21,-146.92C1205.01,-136.98 1176.5,-124.21 1156.82,-115.39"/>
<polygon fill="#63b8ff" stroke="#63b8ff" points="1225.6,-150.03 1236.15,-150.93 1228.46,-143.64 1225.6,-150.03"/>
</a>
</g>
</g>
<!-- Node3 -->
<g id="Node000003" class="node">
<title>Node3</title>
<g id="a_Node000003"><a xlink:href="dict__validation_8c.html#a3bcb38196dd6bd633a72e29431defb46" target="_top" xlink:title=" ">
<polygon fill="white" stroke="#666666" points="1032,-210 935,-210 935,-190 1032,-190 1032,-210"/>
<text xml:space="preserve" text-anchor="middle" x="983.5" y="-196.5" font-family="Helvetica,sans-Serif" font-size="10.00">validate_dictionary</text>
</a>
</g>
</g>
<!-- Node2&#45;&gt;Node3 -->
<g id="edge2_Node000002_Node000003" class="edge">
<title>Node2&#45;&gt;Node3</title>
<g id="a_edge2_Node000002_Node000003"><a xlink:title=" ">
<path fill="none" stroke="#63b8ff" d="M1064.77,-200C1053.89,-200 1042.81,-200 1032.5,-200"/>
<polygon fill="#63b8ff" stroke="#63b8ff" points="1064.49,-203.5 1074.49,-200 1064.49,-196.5 1064.49,-203.5"/>
</a>
</g>
</g>
<!-- Node4 -->
<g id="Node000004" class="node">
<title>Node4</title>
<g id="a_Node000004"><a xlink:href="process_8c.html#a5b78dd11ed0af8a3709ebbe817eea325" target="_top" xlink:title=" ">
<polygon fill="white" stroke="#666666" points="276,-143 173,-143 173,-123 276,-123 276,-143"/>
<text xml:space="preserve" text-anchor="middle" x="224.5" y="-129.5" font-family="Helvetica,sans-Serif" font-size="10.00">process_conversion</text>
</a>
</g>
</g>
<!-- Node3&#45;&gt;Node4 -->
<g id="edge3_Node000003_Node000004" class="edge">
<title>Node3&#45;&gt;Node4</title>
<g id="a_edge3_Node000003_Node000004"><a xlink:title=" ">
<path fill="none" stroke="#63b8ff" d="M923.57,-200C868.5,-200 784,-200 710.62,-200 710.62,-200 710.62,-200 472.62,-200 387.28,-200 290.94,-162.31 248.11,-143.47"/>
<polygon fill="#63b8ff" stroke="#63b8ff" points="923.35,-203.5 933.35,-200 923.35,-196.5 923.35,-203.5"/>
</a>
</g>
</g>
<!-- Node5 -->
<g id="Node000005" class="node">
<title>Node5</title>
<g id="a_Node000005"><a xlink:href="process_8c.html#a6b8653e5d6b8c2bc215b0f6296a57202" target="_top" xlink:title=" ">
<polygon fill="white" stroke="#666666" points="137,-143 73,-143 73,-123 137,-123 137,-143"/>
<text xml:space="preserve" text-anchor="middle" x="105" y="-129.5" font-family="Helvetica,sans-Serif" font-size="10.00">print_result</text>
</a>
</g>
</g>
<!-- Node4&#45;&gt;Node5 -->
<g id="edge4_Node000004_Node000005" class="edge">
<title>Node4&#45;&gt;Node5</title>
<g id="a_edge4_Node000004_Node000005"><a xlink:title=" ">
<path fill="none" stroke="#63b8ff" d="M161.3,-133C152.97,-133 144.74,-133 137.27,-133"/>
<polygon fill="#63b8ff" stroke="#63b8ff" points="161.13,-136.5 171.13,-133 161.13,-129.5 161.13,-136.5"/>
</a>
</g>
</g>
<!-- Node6 -->
<g id="Node000006" class="node">
<title>Node6</title>
<g id="a_Node000006"><a xlink:href="main_8c.html#a3c04138a5bfe5d72780bb7e82a18e627" target="_top" xlink:title=" ">
<polygon fill="white" stroke="#666666" points="37,-143 0,-143 0,-123 37,-123 37,-143"/>
<text xml:space="preserve" text-anchor="middle" x="18.5" y="-129.5" font-family="Helvetica,sans-Serif" font-size="10.00">main</text>
</a>
</g>
</g>
<!-- Node5&#45;&gt;Node6 -->
<g id="edge5_Node000005_Node000006" class="edge">
<title>Node5&#45;&gt;Node6</title>
<g id="a_edge5_Node000005_Node000006"><a xlink:title=" ">
<path fill="none" stroke="#63b8ff" d="M61.22,-133C52.84,-133 44.49,-133 37.49,-133"/>
<polygon fill="#63b8ff" stroke="#63b8ff" points="61.02,-136.5 71.02,-133 61.02,-129.5 61.02,-136.5"/>
</a>
</g>
</g>
<!-- Node7&#45;&gt;Node3 -->
<g id="edge7_Node000007_Node000003" class="edge">
<title>Node7&#45;&gt;Node3</title>
<g id="a_edge7_Node000007_Node000003"><a xlink:title=" ">
<path fill="none" stroke="#63b8ff" d="M1080.08,-175.31C1062.01,-179.98 1041.99,-185.15 1024.96,-189.55"/>
<polygon fill="#63b8ff" stroke="#63b8ff" points="1080.76,-178.75 1089.57,-172.86 1079.01,-171.97 1080.76,-178.75"/>
</a>
</g>
</g>
<!-- Node9 -->
<g id="Node000009" class="node">
<title>Node9</title>
<g id="a_Node000009"><a xlink:href="dict__validation_8c.html#a58e73a2efb125a4b0f774511fd61c41d" target="_top" xlink:title=" ">
<polygon fill="white" stroke="#666666" points="899,-20 792.25,-20 792.25,0 899,0 899,-20"/>
<text xml:space="preserve" text-anchor="middle" x="845.62" y="-6.5" font-family="Helvetica,sans-Serif" font-size="10.00">can_convert_number</text>
</a>
</g>
</g>
<!-- Node8&#45;&gt;Node9 -->
<g id="edge9_Node000008_Node000009" class="edge">
<title>Node8&#45;&gt;Node9</title>
<g id="a_edge9_Node000008_Node000009"><a xlink:title=" ">
<path fill="none" stroke="#63b8ff" d="M1114,-86.6C1095.46,-68.53 1064.51,-41.87 1032,-29 989.44,-12.15 937.29,-8.12 899.16,-7.89"/>
<polygon fill="#63b8ff" stroke="#63b8ff" points="1111.45,-88.99 1120.99,-93.6 1116.41,-84.05 1111.45,-88.99"/>
</a>
</g>
</g>
<!-- Node10 -->
<g id="Node000010" class="node">
<title>Node10</title>
<g id="a_Node000010"><a xlink:href="conversion_8c.html#a1860eceee858703a4a25348759c51830" target="_top" xlink:title=" ">
<polygon fill="white" stroke="#666666" points="756.25,-115 663,-115 663,-95 756.25,-95 756.25,-115"/>
<text xml:space="preserve" text-anchor="middle" x="709.62" y="-101.5" font-family="Helvetica,sans-Serif" font-size="10.00">convert_hundreds</text>
</a>
</g>
</g>
<!-- Node8&#45;&gt;Node10 -->
<g id="edge11_Node000008_Node000010" class="edge">
<title>Node8&#45;&gt;Node10</title>
<g id="a_edge11_Node000008_Node000010"><a xlink:title=" ">
<path fill="none" stroke="#63b8ff" d="M1083.96,-105C1002.42,-105 837.16,-105 756.71,-105"/>
<polygon fill="#63b8ff" stroke="#63b8ff" points="1083.85,-108.5 1093.85,-105 1083.85,-101.5 1083.85,-108.5"/>
</a>
</g>
</g>
<!-- Node13 -->
<g id="Node000013" class="node">
<title>Node13</title>
<g id="a_Node000013"><a xlink:href="conversion_8c.html#a57f397d82b353b943410df86212e704d" target="_top" xlink:title=" ">
<polygon fill="white" stroke="#666666" points="397.75,-143 312,-143 312,-123 397.75,-123 397.75,-143"/>
<text xml:space="preserve" text-anchor="middle" x="354.88" y="-129.5" font-family="Helvetica,sans-Serif" font-size="10.00">convert_number</text>
</a>
</g>
</g>
<!-- Node8&#45;&gt;Node13 -->
<g id="edge16_Node000008_Node000013" class="edge">
<title>Node8&#45;&gt;Node13</title>
<g id="a_edge16_Node000008_Node000013"><a xlink:title=" ">
<path fill="none" stroke="#63b8ff" d="M1098.68,-120.07C1079.59,-128.16 1054.88,-137.56 1032,-143 951.42,-162.14 929.45,-162 846.62,-162 846.62,-162 846.62,-162 587.25,-162 520.65,-162 444.11,-150.03 397.9,-141.47"/>
<polygon fill="#63b8ff" stroke="#63b8ff" points="1100.04,-123.29 1107.82,-116.1 1097.26,-116.87 1100.04,-123.29"/>
</a>
</g>
</g>
<!-- Node14 -->
<g id="Node000014" class="node">
<title>Node14</title>
<g id="a_Node000014"><a xlink:href="conversion_8c.html#aca6f8fd591fbde2a4d2c1e1833c827b5" target="_top" xlink:title=" ">
<polygon fill="white" stroke="#666666" points="1028.25,-58 938.75,-58 938.75,-38 1028.25,-38 1028.25,-58"/>
<text xml:space="preserve" text-anchor="middle" x="983.5" y="-44.5" font-family="Helvetica,sans-Serif" font-size="10.00">find_scale_name</text>
</a>
</g>
</g>
<!-- Node8&#45;&gt;Node14 -->
<g id="edge17_Node000008_Node000014" class="edge">
<title>Node8&#45;&gt;Node14</title>
<g id="a_edge17_Node000008_Node000014"><a xlink:title=" ">
<path fill="none" stroke="#63b8ff" d="M1094.13,-90.47C1068.36,-80.49 1034.74,-67.46 1011.56,-58.48"/>
<polygon fill="#63b8ff" stroke="#63b8ff" points="1092.64,-93.65 1103.23,-94 1095.17,-87.12 1092.64,-93.65"/>
</a>
</g>
</g>
<!-- Node15 -->
<g id="Node000015" class="node">
<title>Node15</title>
<g id="a_Node000015"><a xlink:href="helpers2_8c.html#a5496f04c16dcdf7089447f61a18e6032" target="_top" xlink:title=" ">
<polygon fill="white" stroke="#666666" points="1014.38,-134 952.62,-134 952.62,-114 1014.38,-114 1014.38,-134"/>
<text xml:space="preserve" text-anchor="middle" x="983.5" y="-120.5" font-family="Helvetica,sans-Serif" font-size="10.00">temp_func</text>
</a>
</g>
</g>
<!-- Node8&#45;&gt;Node15 -->
<g id="edge20_Node000008_Node000015" class="edge">
<title>Node8&#45;&gt;Node15</title>
<g id="a_edge20_Node000008_Node000015"><a xlink:title=" ">
<path fill="none" stroke="#63b8ff" d="M1084.05,-111.14C1061.2,-114.1 1034.5,-117.54 1014.51,-120.12"/>
<polygon fill="#63b8ff" stroke="#63b8ff" points="1084.29,-114.64 1093.76,-109.89 1083.39,-107.7 1084.29,-114.64"/>
</a>
</g>
</g>
<!-- Node9&#45;&gt;Node4 -->
<g id="edge10_Node000009_Node000004" class="edge">
<title>Node9&#45;&gt;Node4</title>
<g id="a_edge10_Node000009_Node000004"><a xlink:title=" ">
<path fill="none" stroke="#63b8ff" d="M780.49,-10C728.84,-10 654.38,-10 589.25,-10 589.25,-10 589.25,-10 472.62,-10 371.98,-10 270.16,-92.77 236.82,-122.51"/>
<polygon fill="#63b8ff" stroke="#63b8ff" points="780.29,-13.5 790.29,-10 780.29,-6.5 780.29,-13.5"/>
</a>
</g>
</g>
<!-- Node11 -->
<g id="Node000011" class="node">
<title>Node11</title>
<g id="a_Node000011"><a xlink:href="conversion_8c.html#a82a1feca70c979ed51364bb42306d54f" target="_top" xlink:title=" ">
<polygon fill="white" stroke="#666666" points="627,-115 549.5,-115 549.5,-95 627,-95 627,-115"/>
<text xml:space="preserve" text-anchor="middle" x="588.25" y="-101.5" font-family="Helvetica,sans-Serif" font-size="10.00">convert_triplet</text>
</a>
</g>
</g>
<!-- Node10&#45;&gt;Node11 -->
<g id="edge12_Node000010_Node000011" class="edge">
<title>Node10&#45;&gt;Node11</title>
<g id="a_edge12_Node000010_Node000011"><a xlink:title=" ">
<path fill="none" stroke="#63b8ff" d="M651.4,-105C643.25,-105 635.04,-105 627.38,-105"/>
<polygon fill="#63b8ff" stroke="#63b8ff" points="651.3,-108.5 661.3,-105 651.3,-101.5 651.3,-108.5"/>
</a>
</g>
</g>
<!-- Node12 -->
<g id="Node000012" class="node">
<title>Node12</title>
<g id="a_Node000012"><a xlink:href="helpers2_8c.html#aa882d1da3eeeeb1db44316bf3994cef8" target="_top" xlink:title=" ">
<polygon fill="white" stroke="#666666" points="513.5,-115 433.75,-115 433.75,-95 513.5,-95 513.5,-115"/>
<text xml:space="preserve" text-anchor="middle" x="473.62" y="-101.5" font-family="Helvetica,sans-Serif" font-size="10.00">process_triplet</text>
</a>
</g>
</g>
<!-- Node11&#45;&gt;Node12 -->
<g id="edge13_Node000011_Node000012" class="edge">
<title>Node11&#45;&gt;Node12</title>
<g id="a_edge13_Node000011_Node000012"><a xlink:title=" ">
<path fill="none" stroke="#63b8ff" d="M537.66,-105C529.69,-105 521.55,-105 513.87,-105"/>
<polygon fill="#63b8ff" stroke="#63b8ff" points="537.61,-108.5 547.61,-105 537.61,-101.5 537.61,-108.5"/>
</a>
</g>
</g>
<!-- Node12&#45;&gt;Node13 -->
<g id="edge14_Node000012_Node000013" class="edge">
<title>Node12&#45;&gt;Node13</title>
<g id="a_edge14_Node000012_Node000013"><a xlink:title=" ">
<path fill="none" stroke="#63b8ff" d="M422.48,-117.03C414.31,-118.98 405.93,-121 397.98,-122.9"/>
<polygon fill="#63b8ff" stroke="#63b8ff" points="423.04,-120.49 431.95,-114.75 421.41,-113.68 423.04,-120.49"/>
</a>
</g>
</g>
<!-- Node13&#45;&gt;Node4 -->
<g id="edge15_Node000013_Node000004" class="edge">
<title>Node13&#45;&gt;Node4</title>
<g id="a_edge15_Node000013_Node000004"><a xlink:title=" ">
<path fill="none" stroke="#63b8ff" d="M300.33,-133C292.32,-133 284.08,-133 276.13,-133"/>
<polygon fill="#63b8ff" stroke="#63b8ff" points="300.33,-136.5 310.33,-133 300.33,-129.5 300.33,-136.5"/>
</a>
</g>
</g>
<!-- Node14&#45;&gt;Node9 -->
<g id="edge18_Node000014_Node000009" class="edge">
<title>Node14&#45;&gt;Node9</title>
<g id="a_edge18_Node000014_Node000009"><a xlink:title=" ">
<path fill="none" stroke="#63b8ff" d="M933.95,-34.42C917.51,-29.82 899.42,-24.77 883.99,-20.45"/>
<polygon fill="#63b8ff" stroke="#63b8ff" points="932.98,-37.79 943.55,-37.11 934.87,-31.04 932.98,-37.79"/>
</a>
</g>
</g>
<!-- Node14&#45;&gt;Node12 -->
<g id="edge19_Node000014_Node000012" class="edge">
<title>Node14&#45;&gt;Node12</title>
<g id="a_edge19_Node000014_Node000012"><a xlink:title=" ">
<path fill="none" stroke="#63b8ff" d="M926.86,-50.02C844.08,-53.67 683.84,-63.21 549.5,-86 536.81,-88.15 523.1,-91.36 510.93,-94.53"/>
<polygon fill="#63b8ff" stroke="#63b8ff" points="926.9,-53.52 936.74,-49.6 926.6,-46.53 926.9,-53.52"/>
</a>
</g>
</g>
<!-- Node16 -->
<g id="Node000016" class="node">
<title>Node16</title>
<g id="a_Node000016"><a xlink:href="helpers2_8c.html#a10f3a7bc3f2e2b5a3e5e43c0ba93e1f8" target="_top" xlink:title=" ">
<polygon fill="white" stroke="#666666" points="894.88,-134 796.38,-134 796.38,-114 894.88,-114 894.88,-134"/>
<text xml:space="preserve" text-anchor="middle" x="845.62" y="-120.5" font-family="Helvetica,sans-Serif" font-size="10.00">convert_tens_ones</text>
</a>
</g>
</g>
<!-- Node15&#45;&gt;Node16 -->
<g id="edge21_Node000015_Node000016" class="edge">
<title>Node15&#45;&gt;Node16</title>
<g id="a_edge21_Node000015_Node000016"><a xlink:title=" ">
<path fill="none" stroke="#63b8ff" d="M941.22,-124C926.76,-124 910.39,-124 895.37,-124"/>
<polygon fill="#63b8ff" stroke="#63b8ff" points="940.83,-127.5 950.83,-124 940.83,-120.5 940.83,-127.5"/>
</a>
</g>
</g>
<!-- Node16&#45;&gt;Node10 -->
<g id="edge22_Node000016_Node000010" class="edge">
<title>Node16&#45;&gt;Node10</title>
<g id="a_edge22_Node000016_Node000010"><a xlink:title=" ">
<path fill="none" stroke="#63b8ff" d="M784.87,-115.53C775.42,-114.19 765.77,-112.82 756.69,-111.53"/>
<polygon fill="#63b8ff" stroke="#63b8ff" points="784.36,-118.99 794.75,-116.93 785.34,-112.06 784.36,-118.99"/>
</a>
</g>
</g>
</g>
</svg>
