<?xml version="1.0" encoding="UTF-8" standalone="no"?>
<!DOCTYPE svg PUBLIC "-//W3C//DTD SVG 1.1//EN"
 "http://www.w3.org/Graphics/SVG/1.1/DTD/svg11.dtd">
<!-- Generated by graphviz version 13.1.2 (0)
 -->
<!-- Title: convert_hundreds Pages: 1 -->
<svg width="565pt" height="75pt"
 viewBox="0.00 0.00 565.00 75.00" xmlns="http://www.w3.org/2000/svg" xmlns:xlink="http://www.w3.org/1999/xlink">
<g id="graph0" class="graph" transform="scale(1 1) rotate(0) translate(4 71)">
<title>convert_hundreds</title>
<!-- Node1 -->
<g id="Node000001" class="node">
<title>Node1</title>
<g id="a_Node000001"><a xlink:title=" ">
<polygon fill="#999999" stroke="#666666" points="93.25,-39 0,-39 0,-19 93.25,-19 93.25,-39"/>
<text xml:space="preserve" text-anchor="middle" x="46.62" y="-25.5" font-family="Helvetica,sans-Serif" font-size="10.00">convert_hundreds</text>
</a>
</g>
</g>
<!-- Node2 -->
<g id="Node000002" class="node">
<title>Node2</title>
<g id="a_Node000002"><a xlink:href="helpers_8c.html#a3222789b62d41bef34bd5b3f1c9de0dc" target="_top" xlink:title=" ">
<polygon fill="white" stroke="#666666" points="463.75,-67 361.5,-67 361.5,-47 463.75,-47 463.75,-67"/>
<text xml:space="preserve" text-anchor="middle" x="412.62" y="-53.5" font-family="Helvetica,sans-Serif" font-size="10.00">append_with_space</text>
</a>
</g>
</g>
<!-- Node1&#45;&gt;Node2 -->
<g id="edge1_Node000001_Node000002" class="edge">
<title>Node1&#45;&gt;Node2</title>
<g id="a_edge1_Node000001_Node000002"><a xlink:title=" ">
<path fill="none" stroke="#63b8ff" d="M85.54,-39.46C99.21,-42.8 114.82,-46.11 129.25,-48 204.66,-57.88 292.32,-59.09 349.72,-58.51"/>
<polygon fill="#63b8ff" stroke="#63b8ff" points="349.67,-62.01 359.63,-58.39 349.58,-55.02 349.67,-62.01"/>
</a>
</g>
</g>
<!-- Node4 -->
<g id="Node000004" class="node">
<title>Node4</title>
<g id="a_Node000004"><a xlink:href="helpers2_8c.html#a10f3a7bc3f2e2b5a3e5e43c0ba93e1f8" target="_top" xlink:title=" ">
<polygon fill="white" stroke="#666666" points="227.75,-39 129.25,-39 129.25,-19 227.75,-19 227.75,-39"/>
<text xml:space="preserve" text-anchor="middle" x="178.5" y="-25.5" font-family="Helvetica,sans-Serif" font-size="10.00">convert_tens_ones</text>
</a>
</g>
</g>
<!-- Node1&#45;&gt;Node4 -->
<g id="edge3_Node000001_Node000004" class="edge">
<title>Node1&#45;&gt;Node4</title>
<g id="a_edge3_Node000001_Node000004"><a xlink:title=" ">
<path fill="none" stroke="#63b8ff" d="M93.41,-29C101.26,-29 109.51,-29 117.65,-29"/>
<polygon fill="#63b8ff" stroke="#63b8ff" points="117.53,-32.5 127.53,-29 117.53,-25.5 117.53,-32.5"/>
</a>
</g>
</g>
<!-- Node6 -->
<g id="Node000006" class="node">
<title>Node6</title>
<g id="a_Node000006"><a xlink:href="conversion_8c.html#a4da89996f6f5a45fbb646c39ef3e6cb2" target="_top" xlink:title=" ">
<polygon fill="white" stroke="#666666" points="449.5,-20 375.75,-20 375.75,0 449.5,0 449.5,-20"/>
<text xml:space="preserve" text-anchor="middle" x="412.62" y="-6.5" font-family="Helvetica,sans-Serif" font-size="10.00">find_mapping</text>
</a>
</g>
</g>
<!-- Node1&#45;&gt;Node6 -->
<g id="edge8_Node000001_Node000006" class="edge">
<title>Node1&#45;&gt;Node6</title>
<g id="a_edge8_Node000001_Node000006"><a xlink:title=" ">
<path fill="none" stroke="#63b8ff" d="M84.29,-18.58C98.24,-15.12 114.36,-11.71 129.25,-10 211.32,-0.57 307.7,-3.56 363.99,-6.7"/>
<polygon fill="#63b8ff" stroke="#63b8ff" points="363.67,-10.18 373.86,-7.28 364.08,-3.2 363.67,-10.18"/>
</a>
</g>
</g>
<!-- Node3 -->
<g id="Node000003" class="node">
<title>Node3</title>
<g id="a_Node000003"><a xlink:href="process_8c.html#a7a9fe4f1210008b95e1b118945eb31ba" target="_top" xlink:title=" ">
<polygon fill="white" stroke="#666666" points="554,-67 502.75,-67 502.75,-47 554,-47 554,-67"/>
<text xml:space="preserve" text-anchor="middle" x="528.38" y="-53.5" font-family="Helvetica,sans-Serif" font-size="10.00">ft_strlen</text>
</a>
</g>
</g>
<!-- Node2&#45;&gt;Node3 -->
<g id="edge2_Node000002_Node000003" class="edge">
<title>Node2&#45;&gt;Node3</title>
<g id="a_edge2_Node000002_Node000003"><a xlink:title=" ">
<path fill="none" stroke="#63b8ff" d="M464.18,-57C473.21,-57 482.46,-57 491,-57"/>
<polygon fill="#63b8ff" stroke="#63b8ff" points="490.99,-60.5 500.99,-57 490.99,-53.5 490.99,-60.5"/>
</a>
</g>
</g>
<!-- Node5 -->
<g id="Node000005" class="node">
<title>Node5</title>
<g id="a_Node000005"><a xlink:href="helpers2_8c.html#a5496f04c16dcdf7089447f61a18e6032" target="_top" xlink:title=" ">
<polygon fill="white" stroke="#666666" points="325.5,-39 263.75,-39 263.75,-19 325.5,-19 325.5,-39"/>
<text xml:space="preserve" text-anchor="middle" x="294.62" y="-25.5" font-family="Helvetica,sans-Serif" font-size="10.00">temp_func</text>
</a>
</g>
</g>
<!-- Node4&#45;&gt;Node5 -->
<g id="edge4_Node000004_Node000005" class="edge">
<title>Node4&#45;&gt;Node5</title>
<g id="a_edge4_Node000004_Node000005"><a xlink:title=" ">
<path fill="none" stroke="#63b8ff" d="M228.23,-29C236.2,-29 244.38,-29 252.15,-29"/>
<polygon fill="#63b8ff" stroke="#63b8ff" points="252.03,-32.5 262.03,-29 252.03,-25.5 252.03,-32.5"/>
</a>
</g>
</g>
<!-- Node5&#45;&gt;Node2 -->
<g id="edge5_Node000005_Node000002" class="edge">
<title>Node5&#45;&gt;Node2</title>
<g id="a_edge5_Node000005_Node000002"><a xlink:title=" ">
<path fill="none" stroke="#63b8ff" d="M325.8,-36.28C335.47,-38.62 346.48,-41.28 357.33,-43.89"/>
<polygon fill="#63b8ff" stroke="#63b8ff" points="356.49,-47.29 367.03,-46.24 358.13,-40.49 356.49,-47.29"/>
</a>
</g>
</g>
<!-- Node5&#45;&gt;Node6 -->
<g id="edge6_Node000005_Node000006" class="edge">
<title>Node5&#45;&gt;Node6</title>
<g id="a_edge6_Node000005_Node000006"><a xlink:title=" ">
<path fill="none" stroke="#63b8ff" d="M325.8,-24.06C337.53,-22.14 351.26,-19.89 364.25,-17.76"/>
<polygon fill="#63b8ff" stroke="#63b8ff" points="364.61,-21.25 373.91,-16.18 363.48,-14.34 364.61,-21.25"/>
</a>
</g>
</g>
<!-- Node7 -->
<g id="Node000007" class="node">
<title>Node7</title>
<g id="a_Node000007"><a xlink:href="process_8c.html#abd118f33a5a0fe00b6cbbfb0eeae25a5" target="_top" xlink:title=" ">
<polygon fill="white" stroke="#666666" points="557,-20 499.75,-20 499.75,0 557,0 557,-20"/>
<text xml:space="preserve" text-anchor="middle" x="528.38" y="-6.5" font-family="Helvetica,sans-Serif" font-size="10.00">ft_strcmp</text>
</a>
</g>
</g>
<!-- Node6&#45;&gt;Node7 -->
<g id="edge7_Node000006_Node000007" class="edge">
<title>Node6&#45;&gt;Node7</title>
<g id="a_edge7_Node000006_Node000007"><a xlink:title=" ">
<path fill="none" stroke="#63b8ff" d="M449.93,-10C462.05,-10 475.61,-10 487.96,-10"/>
<polygon fill="#63b8ff" stroke="#63b8ff" points="487.82,-13.5 497.82,-10 487.82,-6.5 487.82,-13.5"/>
</a>
</g>
</g>
</g>
</svg>
