<?xml version="1.0" encoding="UTF-8" standalone="no"?>
<!DOCTYPE svg PUBLIC "-//W3C//DTD SVG 1.1//EN"
 "http://www.w3.org/Graphics/SVG/1.1/DTD/svg11.dtd">
<!-- Generated by graphviz version 13.1.2 (0)
 -->
<!-- Title: extract_substring Pages: 1 -->
<svg width="901pt" height="66pt"
 viewBox="0.00 0.00 901.00 66.00" xmlns="http://www.w3.org/2000/svg" xmlns:xlink="http://www.w3.org/1999/xlink">
<g id="graph0" class="graph" transform="scale(1 1) rotate(0) translate(4 62)">
<title>extract_substring</title>
<!-- Node1 -->
<g id="Node000001" class="node">
<title>Node1</title>
<g id="a_Node000001"><a xlink:title=" ">
<polygon fill="#999999" stroke="#666666" points="893,-39 802,-39 802,-19 893,-19 893,-39"/>
<text xml:space="preserve" text-anchor="middle" x="847.5" y="-25.5" font-family="Helvetica,sans-Serif" font-size="10.00">extract_substring</text>
</a>
</g>
</g>
<!-- Node2 -->
<g id="Node000002" class="node">
<title>Node2</title>
<g id="a_Node000002"><a xlink:href="dict__parser_8c.html#a5e0063cd44034d5e48a221f3f5890c3a" target="_top" xlink:title=" ">
<polygon fill="white" stroke="#666666" points="766,-58 663.75,-58 663.75,-38 766,-38 766,-58"/>
<text xml:space="preserve" text-anchor="middle" x="714.88" y="-44.5" font-family="Helvetica,sans-Serif" font-size="10.00">parse_mapping_line</text>
</a>
</g>
</g>
<!-- Node1&#45;&gt;Node2 -->
<g id="edge1_Node000001_Node000002" class="edge">
<title>Node1&#45;&gt;Node2</title>
<g id="a_edge1_Node000001_Node000002"><a xlink:title=" ">
<path fill="none" stroke="#63b8ff" d="M790.4,-37.16C782.38,-38.33 774.18,-39.52 766.29,-40.67"/>
<polygon fill="#63b8ff" stroke="#63b8ff" points="790.66,-40.66 800.05,-35.76 789.65,-33.73 790.66,-40.66"/>
</a>
</g>
</g>
<!-- Node9 -->
<g id="Node000009" class="node">
<title>Node9</title>
<g id="a_Node000009"><a xlink:href="dict__parser_8c.html#a1c5b0b3fafa4233e41858d810a4bd1cd" target="_top" xlink:title=" ">
<polygon fill="white" stroke="#666666" points="627.75,-20 568.25,-20 568.25,0 627.75,0 627.75,-20"/>
<text xml:space="preserve" text-anchor="middle" x="598" y="-6.5" font-family="Helvetica,sans-Serif" font-size="10.00">split_lines</text>
</a>
</g>
</g>
<!-- Node1&#45;&gt;Node9 -->
<g id="edge9_Node000001_Node000009" class="edge">
<title>Node1&#45;&gt;Node9</title>
<g id="a_edge9_Node000001_Node000009"><a xlink:title=" ">
<path fill="none" stroke="#63b8ff" d="M790.3,-24.69C739.82,-20.81 667.72,-15.28 628.01,-12.23"/>
<polygon fill="#63b8ff" stroke="#63b8ff" points="789.93,-28.17 800.17,-25.44 790.47,-21.19 789.93,-28.17"/>
</a>
</g>
</g>
<!-- Node3 -->
<g id="Node000003" class="node">
<title>Node3</title>
<g id="a_Node000003"><a xlink:href="dict__parser_8c.html#adcd1d9c253034ca41f33fcdf24ddd9fd" target="_top" xlink:title=" ">
<polygon fill="white" stroke="#666666" points="626.62,-58 569.38,-58 569.38,-38 626.62,-38 626.62,-58"/>
<text xml:space="preserve" text-anchor="middle" x="598" y="-44.5" font-family="Helvetica,sans-Serif" font-size="10.00">free_stuff</text>
</a>
</g>
</g>
<!-- Node2&#45;&gt;Node3 -->
<g id="edge2_Node000002_Node000003" class="edge">
<title>Node2&#45;&gt;Node3</title>
<g id="a_edge2_Node000002_Node000003"><a xlink:title=" ">
<path fill="none" stroke="#63b8ff" d="M652.26,-48C643.41,-48 634.69,-48 626.95,-48"/>
<polygon fill="#63b8ff" stroke="#63b8ff" points="651.98,-51.5 661.98,-48 651.98,-44.5 651.98,-51.5"/>
</a>
</g>
</g>
<!-- Node4 -->
<g id="Node000004" class="node">
<title>Node4</title>
<g id="a_Node000004"><a xlink:href="dict__parser_8c.html#ac8c052382b5551373a06b30013b5ff4f" target="_top" xlink:title=" ">
<polygon fill="white" stroke="#666666" points="532.25,-39 445,-39 445,-19 532.25,-19 532.25,-39"/>
<text xml:space="preserve" text-anchor="middle" x="488.62" y="-25.5" font-family="Helvetica,sans-Serif" font-size="10.00">parse_dictionary</text>
</a>
</g>
</g>
<!-- Node3&#45;&gt;Node4 -->
<g id="edge3_Node000003_Node000004" class="edge">
<title>Node3&#45;&gt;Node4</title>
<g id="a_edge3_Node000003_Node000004"><a xlink:title=" ">
<path fill="none" stroke="#63b8ff" d="M557.81,-41.07C549.55,-39.6 540.79,-38.05 532.41,-36.57"/>
<polygon fill="#63b8ff" stroke="#63b8ff" points="557.12,-44.5 567.58,-42.79 558.34,-37.6 557.12,-44.5"/>
</a>
</g>
</g>
<!-- Node5 -->
<g id="Node000005" class="node">
<title>Node5</title>
<g id="a_Node000005"><a xlink:href="process_8c.html#a5b78dd11ed0af8a3709ebbe817eea325" target="_top" xlink:title=" ">
<polygon fill="white" stroke="#666666" points="276,-39 173,-39 173,-19 276,-19 276,-39"/>
<text xml:space="preserve" text-anchor="middle" x="224.5" y="-25.5" font-family="Helvetica,sans-Serif" font-size="10.00">process_conversion</text>
</a>
</g>
</g>
<!-- Node4&#45;&gt;Node5 -->
<g id="edge4_Node000004_Node000005" class="edge">
<title>Node4&#45;&gt;Node5</title>
<g id="a_edge4_Node000004_Node000005"><a xlink:title=" ">
<path fill="none" stroke="#63b8ff" d="M433.34,-29C387.14,-29 321.28,-29 276.15,-29"/>
<polygon fill="#63b8ff" stroke="#63b8ff" points="433.12,-32.5 443.12,-29 433.12,-25.5 433.12,-32.5"/>
</a>
</g>
</g>
<!-- Node8 -->
<g id="Node000008" class="node">
<title>Node8</title>
<g id="a_Node000008"><a xlink:href="dict__validation_8c.html#a3bcb38196dd6bd633a72e29431defb46" target="_top" xlink:title=" ">
<polygon fill="white" stroke="#666666" points="409,-20 312,-20 312,0 409,0 409,-20"/>
<text xml:space="preserve" text-anchor="middle" x="360.5" y="-6.5" font-family="Helvetica,sans-Serif" font-size="10.00">validate_dictionary</text>
</a>
</g>
</g>
<!-- Node4&#45;&gt;Node8 -->
<g id="edge7_Node000004_Node000008" class="edge">
<title>Node4&#45;&gt;Node8</title>
<g id="a_edge7_Node000004_Node000008"><a xlink:title=" ">
<path fill="none" stroke="#63b8ff" d="M433.36,-20.82C425.29,-19.61 417.03,-18.37 409.12,-17.17"/>
<polygon fill="#63b8ff" stroke="#63b8ff" points="432.67,-24.26 443.08,-22.29 433.71,-17.34 432.67,-24.26"/>
</a>
</g>
</g>
<!-- Node6 -->
<g id="Node000006" class="node">
<title>Node6</title>
<g id="a_Node000006"><a xlink:href="process_8c.html#a6b8653e5d6b8c2bc215b0f6296a57202" target="_top" xlink:title=" ">
<polygon fill="white" stroke="#666666" points="137,-39 73,-39 73,-19 137,-19 137,-39"/>
<text xml:space="preserve" text-anchor="middle" x="105" y="-25.5" font-family="Helvetica,sans-Serif" font-size="10.00">print_result</text>
</a>
</g>
</g>
<!-- Node5&#45;&gt;Node6 -->
<g id="edge5_Node000005_Node000006" class="edge">
<title>Node5&#45;&gt;Node6</title>
<g id="a_edge5_Node000005_Node000006"><a xlink:title=" ">
<path fill="none" stroke="#63b8ff" d="M161.3,-29C152.97,-29 144.74,-29 137.27,-29"/>
<polygon fill="#63b8ff" stroke="#63b8ff" points="161.13,-32.5 171.13,-29 161.13,-25.5 161.13,-32.5"/>
</a>
</g>
</g>
<!-- Node7 -->
<g id="Node000007" class="node">
<title>Node7</title>
<g id="a_Node000007"><a xlink:href="main_8c.html#a3c04138a5bfe5d72780bb7e82a18e627" target="_top" xlink:title=" ">
<polygon fill="white" stroke="#666666" points="37,-39 0,-39 0,-19 37,-19 37,-39"/>
<text xml:space="preserve" text-anchor="middle" x="18.5" y="-25.5" font-family="Helvetica,sans-Serif" font-size="10.00">main</text>
</a>
</g>
</g>
<!-- Node6&#45;&gt;Node7 -->
<g id="edge6_Node000006_Node000007" class="edge">
<title>Node6&#45;&gt;Node7</title>
<g id="a_edge6_Node000006_Node000007"><a xlink:title=" ">
<path fill="none" stroke="#63b8ff" d="M61.22,-29C52.84,-29 44.49,-29 37.49,-29"/>
<polygon fill="#63b8ff" stroke="#63b8ff" points="61.02,-32.5 71.02,-29 61.02,-25.5 61.02,-32.5"/>
</a>
</g>
</g>
<!-- Node8&#45;&gt;Node5 -->
<g id="edge8_Node000008_Node000005" class="edge">
<title>Node8&#45;&gt;Node5</title>
<g id="a_edge8_Node000008_Node000005"><a xlink:title=" ">
<path fill="none" stroke="#63b8ff" d="M300.33,-18.39C292.33,-19.52 284.17,-20.68 276.33,-21.79"/>
<polygon fill="#63b8ff" stroke="#63b8ff" points="300.59,-21.89 310,-17.02 299.61,-14.96 300.59,-21.89"/>
</a>
</g>
</g>
<!-- Node9&#45;&gt;Node4 -->
<g id="edge10_Node000009_Node000004" class="edge">
<title>Node9&#45;&gt;Node4</title>
<g id="a_edge10_Node000009_Node000004"><a xlink:title=" ">
<path fill="none" stroke="#63b8ff" d="M556.71,-17.13C548.78,-18.53 540.43,-20.01 532.42,-21.43"/>
<polygon fill="#63b8ff" stroke="#63b8ff" points="557.22,-20.59 566.45,-15.41 556,-13.7 557.22,-20.59"/>
</a>
</g>
</g>
</g>
</svg>
