<?xml version="1.0" encoding="UTF-8" standalone="no"?>
<!DOCTYPE svg PUBLIC "-//W3C//DTD SVG 1.1//EN"
 "http://www.w3.org/Graphics/SVG/1.1/DTD/svg11.dtd">
<!-- Generated by graphviz version 13.1.2 (0)
 -->
<!-- Title: helpers_dict.c Pages: 1 -->
<svg width="270pt" height="84pt"
 viewBox="0.00 0.00 270.00 84.00" xmlns="http://www.w3.org/2000/svg" xmlns:xlink="http://www.w3.org/1999/xlink">
<g id="graph0" class="graph" transform="scale(1 1) rotate(0) translate(4 80)">
<title>helpers_dict.c</title>
<!-- Node1 -->
<g id="Node000001" class="node">
<title>Node1</title>
<g id="a_Node000001"><a xlink:title=" ">
<polygon fill="#999999" stroke="#666666" points="155.88,-76 79.12,-76 79.12,-56 155.88,-56 155.88,-76"/>
<text xml:space="preserve" text-anchor="middle" x="117.5" y="-62.5" font-family="Helvetica,sans-Serif" font-size="10.00">helpers_dict.c</text>
</a>
</g>
</g>
<!-- Node2 -->
<g id="Node000002" class="node">
<title>Node2</title>
<g id="a_Node000002"><a xlink:title=" ">
<polygon fill="#e0e0e0" stroke="#999999" points="43,-20 0,-20 0,0 43,0 43,-20"/>
<text xml:space="preserve" text-anchor="middle" x="21.5" y="-6.5" font-family="Helvetica,sans-Serif" font-size="10.00">fcntl.h</text>
</a>
</g>
</g>
<!-- Node1&#45;&gt;Node2 -->
<g id="edge1_Node000001_Node000002" class="edge">
<title>Node1&#45;&gt;Node2</title>
<g id="a_edge1_Node000001_Node000002"><a xlink:title=" ">
<path fill="none" stroke="#63b8ff" d="M100.78,-55.59C86.28,-47.44 65.03,-35.48 48.18,-26"/>
<polygon fill="#63b8ff" stroke="#63b8ff" points="50.1,-23.07 39.67,-21.22 46.67,-29.17 50.1,-23.07"/>
</a>
</g>
</g>
<!-- Node3 -->
<g id="Node000003" class="node">
<title>Node3</title>
<g id="a_Node000003"><a xlink:title=" ">
<polygon fill="#e0e0e0" stroke="#999999" points="108.25,-20 60.75,-20 60.75,0 108.25,0 108.25,-20"/>
<text xml:space="preserve" text-anchor="middle" x="84.5" y="-6.5" font-family="Helvetica,sans-Serif" font-size="10.00">stdlib.h</text>
</a>
</g>
</g>
<!-- Node1&#45;&gt;Node3 -->
<g id="edge2_Node000001_Node000003" class="edge">
<title>Node1&#45;&gt;Node3</title>
<g id="a_edge2_Node000001_Node000003"><a xlink:title=" ">
<path fill="none" stroke="#63b8ff" d="M111.75,-55.59C107.45,-48.55 101.41,-38.67 96.11,-30"/>
<polygon fill="#63b8ff" stroke="#63b8ff" points="99.17,-28.3 90.97,-21.59 93.2,-31.95 99.17,-28.3"/>
</a>
</g>
</g>
<!-- Node4 -->
<g id="Node000004" class="node">
<title>Node4</title>
<g id="a_Node000004"><a xlink:title=" ">
<polygon fill="#e0e0e0" stroke="#999999" points="176.75,-20 126.25,-20 126.25,0 176.75,0 176.75,-20"/>
<text xml:space="preserve" text-anchor="middle" x="151.5" y="-6.5" font-family="Helvetica,sans-Serif" font-size="10.00">unistd.h</text>
</a>
</g>
</g>
<!-- Node1&#45;&gt;Node4 -->
<g id="edge3_Node000001_Node000004" class="edge">
<title>Node1&#45;&gt;Node4</title>
<g id="a_edge3_Node000001_Node000004"><a xlink:title=" ">
<path fill="none" stroke="#63b8ff" d="M123.42,-55.59C127.86,-48.55 134.08,-38.67 139.54,-30"/>
<polygon fill="#63b8ff" stroke="#63b8ff" points="142.47,-31.91 144.84,-21.58 136.55,-28.18 142.47,-31.91"/>
</a>
</g>
</g>
<!-- Node5 -->
<g id="Node000005" class="node">
<title>Node5</title>
<g id="a_Node000005"><a xlink:href="ft__convert_8h.html" target="_top" xlink:title=" ">
<polygon fill="white" stroke="#666666" points="262.38,-20 194.62,-20 194.62,0 262.38,0 262.38,-20"/>
<text xml:space="preserve" text-anchor="middle" x="228.5" y="-6.5" font-family="Helvetica,sans-Serif" font-size="10.00">ft_convert.h</text>
</a>
</g>
</g>
<!-- Node1&#45;&gt;Node5 -->
<g id="edge4_Node000001_Node000005" class="edge">
<title>Node1&#45;&gt;Node5</title>
<g id="a_edge4_Node000001_Node000005"><a xlink:title=" ">
<path fill="none" stroke="#63b8ff" d="M136.83,-55.59C153.92,-47.28 179.1,-35.03 198.75,-25.47"/>
<polygon fill="#63b8ff" stroke="#63b8ff" points="200.19,-28.66 207.65,-21.14 197.13,-22.37 200.19,-28.66"/>
</a>
</g>
</g>
</g>
</svg>
