<?xml version="1.0" encoding="UTF-8" standalone="no"?>
<!DOCTYPE svg PUBLIC "-//W3C//DTD SVG 1.1//EN"
 "http://www.w3.org/Graphics/SVG/1.1/DTD/svg11.dtd">
<!-- Generated by graphviz version 13.1.2 (0)
 -->
<!-- Title: free_lines Pages: 1 -->
<svg width="728pt" height="66pt"
 viewBox="0.00 0.00 728.00 66.00" xmlns="http://www.w3.org/2000/svg" xmlns:xlink="http://www.w3.org/1999/xlink">
<g id="graph0" class="graph" transform="scale(1 1) rotate(0) translate(4 62)">
<title>free_lines</title>
<!-- Node1 -->
<g id="Node000001" class="node">
<title>Node1</title>
<g id="a_Node000001"><a xlink:title=" ">
<polygon fill="#999999" stroke="#666666" points="719.5,-39 661.5,-39 661.5,-19 719.5,-19 719.5,-39"/>
<text xml:space="preserve" text-anchor="middle" x="690.5" y="-25.5" font-family="Helvetica,sans-Serif" font-size="10.00">free_lines</text>
</a>
</g>
</g>
<!-- Node2 -->
<g id="Node000002" class="node">
<title>Node2</title>
<g id="a_Node000002"><a xlink:href="dict__parser_8c.html#adcd1d9c253034ca41f33fcdf24ddd9fd" target="_top" xlink:title=" ">
<polygon fill="white" stroke="#666666" points="625.5,-58 568.25,-58 568.25,-38 625.5,-38 625.5,-58"/>
<text xml:space="preserve" text-anchor="middle" x="596.88" y="-44.5" font-family="Helvetica,sans-Serif" font-size="10.00">free_stuff</text>
</a>
</g>
</g>
<!-- Node1&#45;&gt;Node2 -->
<g id="edge1_Node000001_Node000002" class="edge">
<title>Node1&#45;&gt;Node2</title>
<g id="a_edge1_Node000001_Node000002"><a xlink:title=" ">
<path fill="none" stroke="#63b8ff" d="M649.82,-37.23C641.7,-38.91 633.31,-40.65 625.72,-42.23"/>
<polygon fill="#63b8ff" stroke="#63b8ff" points="650.45,-40.67 659.53,-35.21 649.03,-33.82 650.45,-40.67"/>
</a>
</g>
</g>
<!-- Node3 -->
<g id="Node000003" class="node">
<title>Node3</title>
<g id="a_Node000003"><a xlink:href="dict__parser_8c.html#ac8c052382b5551373a06b30013b5ff4f" target="_top" xlink:title=" ">
<polygon fill="white" stroke="#666666" points="532.25,-39 445,-39 445,-19 532.25,-19 532.25,-39"/>
<text xml:space="preserve" text-anchor="middle" x="488.62" y="-25.5" font-family="Helvetica,sans-Serif" font-size="10.00">parse_dictionary</text>
</a>
</g>
</g>
<!-- Node1&#45;&gt;Node3 -->
<g id="edge8_Node000001_Node000003" class="edge">
<title>Node1&#45;&gt;Node3</title>
<g id="a_edge8_Node000001_Node000003"><a xlink:title=" ">
<path fill="none" stroke="#63b8ff" d="M649.99,-29C616.17,-29 567.57,-29 532.75,-29"/>
<polygon fill="#63b8ff" stroke="#63b8ff" points="649.77,-32.5 659.77,-29 649.77,-25.5 649.77,-32.5"/>
</a>
</g>
</g>
<!-- Node2&#45;&gt;Node3 -->
<g id="edge2_Node000002_Node000003" class="edge">
<title>Node2&#45;&gt;Node3</title>
<g id="a_edge2_Node000002_Node000003"><a xlink:title=" ">
<path fill="none" stroke="#63b8ff" d="M556.81,-41.01C548.92,-39.6 540.59,-38.11 532.57,-36.68"/>
<polygon fill="#63b8ff" stroke="#63b8ff" points="556.01,-44.43 566.47,-42.74 557.24,-37.54 556.01,-44.43"/>
</a>
</g>
</g>
<!-- Node4 -->
<g id="Node000004" class="node">
<title>Node4</title>
<g id="a_Node000004"><a xlink:href="process_8c.html#a5b78dd11ed0af8a3709ebbe817eea325" target="_top" xlink:title=" ">
<polygon fill="white" stroke="#666666" points="276,-39 173,-39 173,-19 276,-19 276,-39"/>
<text xml:space="preserve" text-anchor="middle" x="224.5" y="-25.5" font-family="Helvetica,sans-Serif" font-size="10.00">process_conversion</text>
</a>
</g>
</g>
<!-- Node3&#45;&gt;Node4 -->
<g id="edge3_Node000003_Node000004" class="edge">
<title>Node3&#45;&gt;Node4</title>
<g id="a_edge3_Node000003_Node000004"><a xlink:title=" ">
<path fill="none" stroke="#63b8ff" d="M433.34,-29C387.14,-29 321.28,-29 276.15,-29"/>
<polygon fill="#63b8ff" stroke="#63b8ff" points="433.12,-32.5 443.12,-29 433.12,-25.5 433.12,-32.5"/>
</a>
</g>
</g>
<!-- Node7 -->
<g id="Node000007" class="node">
<title>Node7</title>
<g id="a_Node000007"><a xlink:href="dict__validation_8c.html#a3bcb38196dd6bd633a72e29431defb46" target="_top" xlink:title=" ">
<polygon fill="white" stroke="#666666" points="409,-20 312,-20 312,0 409,0 409,-20"/>
<text xml:space="preserve" text-anchor="middle" x="360.5" y="-6.5" font-family="Helvetica,sans-Serif" font-size="10.00">validate_dictionary</text>
</a>
</g>
</g>
<!-- Node3&#45;&gt;Node7 -->
<g id="edge6_Node000003_Node000007" class="edge">
<title>Node3&#45;&gt;Node7</title>
<g id="a_edge6_Node000003_Node000007"><a xlink:title=" ">
<path fill="none" stroke="#63b8ff" d="M433.36,-20.82C425.29,-19.61 417.03,-18.37 409.12,-17.17"/>
<polygon fill="#63b8ff" stroke="#63b8ff" points="432.67,-24.26 443.08,-22.29 433.71,-17.34 432.67,-24.26"/>
</a>
</g>
</g>
<!-- Node5 -->
<g id="Node000005" class="node">
<title>Node5</title>
<g id="a_Node000005"><a xlink:href="process_8c.html#a6b8653e5d6b8c2bc215b0f6296a57202" target="_top" xlink:title=" ">
<polygon fill="white" stroke="#666666" points="137,-39 73,-39 73,-19 137,-19 137,-39"/>
<text xml:space="preserve" text-anchor="middle" x="105" y="-25.5" font-family="Helvetica,sans-Serif" font-size="10.00">print_result</text>
</a>
</g>
</g>
<!-- Node4&#45;&gt;Node5 -->
<g id="edge4_Node000004_Node000005" class="edge">
<title>Node4&#45;&gt;Node5</title>
<g id="a_edge4_Node000004_Node000005"><a xlink:title=" ">
<path fill="none" stroke="#63b8ff" d="M161.3,-29C152.97,-29 144.74,-29 137.27,-29"/>
<polygon fill="#63b8ff" stroke="#63b8ff" points="161.13,-32.5 171.13,-29 161.13,-25.5 161.13,-32.5"/>
</a>
</g>
</g>
<!-- Node6 -->
<g id="Node000006" class="node">
<title>Node6</title>
<g id="a_Node000006"><a xlink:href="main_8c.html#a3c04138a5bfe5d72780bb7e82a18e627" target="_top" xlink:title=" ">
<polygon fill="white" stroke="#666666" points="37,-39 0,-39 0,-19 37,-19 37,-39"/>
<text xml:space="preserve" text-anchor="middle" x="18.5" y="-25.5" font-family="Helvetica,sans-Serif" font-size="10.00">main</text>
</a>
</g>
</g>
<!-- Node5&#45;&gt;Node6 -->
<g id="edge5_Node000005_Node000006" class="edge">
<title>Node5&#45;&gt;Node6</title>
<g id="a_edge5_Node000005_Node000006"><a xlink:title=" ">
<path fill="none" stroke="#63b8ff" d="M61.22,-29C52.84,-29 44.49,-29 37.49,-29"/>
<polygon fill="#63b8ff" stroke="#63b8ff" points="61.02,-32.5 71.02,-29 61.02,-25.5 61.02,-32.5"/>
</a>
</g>
</g>
<!-- Node7&#45;&gt;Node4 -->
<g id="edge7_Node000007_Node000004" class="edge">
<title>Node7&#45;&gt;Node4</title>
<g id="a_edge7_Node000007_Node000004"><a xlink:title=" ">
<path fill="none" stroke="#63b8ff" d="M300.33,-18.39C292.33,-19.52 284.17,-20.68 276.33,-21.79"/>
<polygon fill="#63b8ff" stroke="#63b8ff" points="300.59,-21.89 310,-17.02 299.61,-14.96 300.59,-21.89"/>
</a>
</g>
</g>
</g>
</svg>
