<?xml version="1.0" encoding="UTF-8" standalone="no"?>
<!DOCTYPE svg PUBLIC "-//W3C//DTD SVG 1.1//EN"
 "http://www.w3.org/Graphics/SVG/1.1/DTD/svg11.dtd">
<!-- Generated by graphviz version 13.1.2 (0)
 -->
<!-- Title: convert_tens_ones Pages: 1 -->
<svg width="436pt" height="66pt"
 viewBox="0.00 0.00 436.00 66.00" xmlns="http://www.w3.org/2000/svg" xmlns:xlink="http://www.w3.org/1999/xlink">
<g id="graph0" class="graph" transform="scale(1 1) rotate(0) translate(4 62)">
<title>convert_tens_ones</title>
<!-- Node1 -->
<g id="Node000001" class="node">
<title>Node1</title>
<g id="a_Node000001"><a xlink:title=" ">
<polygon fill="#999999" stroke="#666666" points="98.5,-39 0,-39 0,-19 98.5,-19 98.5,-39"/>
<text xml:space="preserve" text-anchor="middle" x="49.25" y="-25.5" font-family="Helvetica,sans-Serif" font-size="10.00">convert_tens_ones</text>
</a>
</g>
</g>
<!-- Node2 -->
<g id="Node000002" class="node">
<title>Node2</title>
<g id="a_Node000002"><a xlink:href="helpers2_8c.html#a5496f04c16dcdf7089447f61a18e6032" target="_top" xlink:title=" ">
<polygon fill="white" stroke="#666666" points="196.25,-39 134.5,-39 134.5,-19 196.25,-19 196.25,-39"/>
<text xml:space="preserve" text-anchor="middle" x="165.38" y="-25.5" font-family="Helvetica,sans-Serif" font-size="10.00">temp_func</text>
</a>
</g>
</g>
<!-- Node1&#45;&gt;Node2 -->
<g id="edge1_Node000001_Node000002" class="edge">
<title>Node1&#45;&gt;Node2</title>
<g id="a_edge1_Node000001_Node000002"><a xlink:title=" ">
<path fill="none" stroke="#63b8ff" d="M98.98,-29C106.95,-29 115.13,-29 122.9,-29"/>
<polygon fill="#63b8ff" stroke="#63b8ff" points="122.78,-32.5 132.78,-29 122.78,-25.5 122.78,-32.5"/>
</a>
</g>
</g>
<!-- Node3 -->
<g id="Node000003" class="node">
<title>Node3</title>
<g id="a_Node000003"><a xlink:href="helpers_8c.html#a3222789b62d41bef34bd5b3f1c9de0dc" target="_top" xlink:title=" ">
<polygon fill="white" stroke="#666666" points="334.5,-58 232.25,-58 232.25,-38 334.5,-38 334.5,-58"/>
<text xml:space="preserve" text-anchor="middle" x="283.38" y="-44.5" font-family="Helvetica,sans-Serif" font-size="10.00">append_with_space</text>
</a>
</g>
</g>
<!-- Node2&#45;&gt;Node3 -->
<g id="edge2_Node000002_Node000003" class="edge">
<title>Node2&#45;&gt;Node3</title>
<g id="a_edge2_Node000002_Node000003"><a xlink:title=" ">
<path fill="none" stroke="#63b8ff" d="M196.55,-33.94C204.11,-35.18 212.5,-36.55 220.99,-37.94"/>
<polygon fill="#63b8ff" stroke="#63b8ff" points="220.21,-41.36 230.64,-39.53 221.34,-34.46 220.21,-41.36"/>
</a>
</g>
</g>
<!-- Node5 -->
<g id="Node000005" class="node">
<title>Node5</title>
<g id="a_Node000005"><a xlink:href="conversion_8c.html#a4da89996f6f5a45fbb646c39ef3e6cb2" target="_top" xlink:title=" ">
<polygon fill="white" stroke="#666666" points="320.25,-20 246.5,-20 246.5,0 320.25,0 320.25,-20"/>
<text xml:space="preserve" text-anchor="middle" x="283.38" y="-6.5" font-family="Helvetica,sans-Serif" font-size="10.00">find_mapping</text>
</a>
</g>
</g>
<!-- Node2&#45;&gt;Node5 -->
<g id="edge4_Node000002_Node000005" class="edge">
<title>Node2&#45;&gt;Node5</title>
<g id="a_edge4_Node000002_Node000005"><a xlink:title=" ">
<path fill="none" stroke="#63b8ff" d="M196.55,-24.06C208.28,-22.14 222.01,-19.89 235,-17.76"/>
<polygon fill="#63b8ff" stroke="#63b8ff" points="235.36,-21.25 244.66,-16.18 234.23,-14.34 235.36,-21.25"/>
</a>
</g>
</g>
<!-- Node4 -->
<g id="Node000004" class="node">
<title>Node4</title>
<g id="a_Node000004"><a xlink:href="process_8c.html#a7a9fe4f1210008b95e1b118945eb31ba" target="_top" xlink:title=" ">
<polygon fill="white" stroke="#666666" points="424.75,-58 373.5,-58 373.5,-38 424.75,-38 424.75,-58"/>
<text xml:space="preserve" text-anchor="middle" x="399.12" y="-44.5" font-family="Helvetica,sans-Serif" font-size="10.00">ft_strlen</text>
</a>
</g>
</g>
<!-- Node3&#45;&gt;Node4 -->
<g id="edge3_Node000003_Node000004" class="edge">
<title>Node3&#45;&gt;Node4</title>
<g id="a_edge3_Node000003_Node000004"><a xlink:title=" ">
<path fill="none" stroke="#63b8ff" d="M334.93,-48C343.96,-48 353.21,-48 361.75,-48"/>
<polygon fill="#63b8ff" stroke="#63b8ff" points="361.74,-51.5 371.74,-48 361.74,-44.5 361.74,-51.5"/>
</a>
</g>
</g>
<!-- Node6 -->
<g id="Node000006" class="node">
<title>Node6</title>
<g id="a_Node000006"><a xlink:href="process_8c.html#abd118f33a5a0fe00b6cbbfb0eeae25a5" target="_top" xlink:title=" ">
<polygon fill="white" stroke="#666666" points="427.75,-20 370.5,-20 370.5,0 427.75,0 427.75,-20"/>
<text xml:space="preserve" text-anchor="middle" x="399.12" y="-6.5" font-family="Helvetica,sans-Serif" font-size="10.00">ft_strcmp</text>
</a>
</g>
</g>
<!-- Node5&#45;&gt;Node6 -->
<g id="edge5_Node000005_Node000006" class="edge">
<title>Node5&#45;&gt;Node6</title>
<g id="a_edge5_Node000005_Node000006"><a xlink:title=" ">
<path fill="none" stroke="#63b8ff" d="M320.68,-10C332.8,-10 346.36,-10 358.71,-10"/>
<polygon fill="#63b8ff" stroke="#63b8ff" points="358.57,-13.5 368.57,-10 358.57,-6.5 358.57,-13.5"/>
</a>
</g>
</g>
</g>
</svg>
