<?xml version="1.0" encoding="UTF-8" standalone="no"?>
<!DOCTYPE svg PUBLIC "-//W3C//DTD SVG 1.1//EN"
 "http://www.w3.org/Graphics/SVG/1.1/DTD/svg11.dtd">
<!-- Generated by graphviz version 13.1.2 (0)
 -->
<!-- Title: temp_func Pages: 1 -->
<svg width="997pt" height="28pt"
 viewBox="0.00 0.00 997.00 28.00" xmlns="http://www.w3.org/2000/svg" xmlns:xlink="http://www.w3.org/1999/xlink">
<g id="graph0" class="graph" transform="scale(1 1) rotate(0) translate(4 24)">
<title>temp_func</title>
<!-- Node1 -->
<g id="Node000001" class="node">
<title>Node1</title>
<g id="a_Node000001"><a xlink:title=" ">
<polygon fill="#999999" stroke="#666666" points="988.5,-20 926.75,-20 926.75,0 988.5,0 988.5,-20"/>
<text xml:space="preserve" text-anchor="middle" x="957.62" y="-6.5" font-family="Helvetica,sans-Serif" font-size="10.00">temp_func</text>
</a>
</g>
</g>
<!-- Node2 -->
<g id="Node000002" class="node">
<title>Node2</title>
<g id="a_Node000002"><a xlink:href="helpers2_8c.html#a10f3a7bc3f2e2b5a3e5e43c0ba93e1f8" target="_top" xlink:title=" ">
<polygon fill="white" stroke="#666666" points="890.75,-20 792.25,-20 792.25,0 890.75,0 890.75,-20"/>
<text xml:space="preserve" text-anchor="middle" x="841.5" y="-6.5" font-family="Helvetica,sans-Serif" font-size="10.00">convert_tens_ones</text>
</a>
</g>
</g>
<!-- Node1&#45;&gt;Node2 -->
<g id="edge1_Node000001_Node000002" class="edge">
<title>Node1&#45;&gt;Node2</title>
<g id="a_edge1_Node000001_Node000002"><a xlink:title=" ">
<path fill="none" stroke="#63b8ff" d="M914.95,-10C907.17,-10 898.99,-10 891.04,-10"/>
<polygon fill="#63b8ff" stroke="#63b8ff" points="914.83,-13.5 924.83,-10 914.83,-6.5 914.83,-13.5"/>
</a>
</g>
</g>
<!-- Node3 -->
<g id="Node000003" class="node">
<title>Node3</title>
<g id="a_Node000003"><a xlink:href="conversion_8c.html#a1860eceee858703a4a25348759c51830" target="_top" xlink:title=" ">
<polygon fill="white" stroke="#666666" points="756.25,-20 663,-20 663,0 756.25,0 756.25,-20"/>
<text xml:space="preserve" text-anchor="middle" x="709.62" y="-6.5" font-family="Helvetica,sans-Serif" font-size="10.00">convert_hundreds</text>
</a>
</g>
</g>
<!-- Node2&#45;&gt;Node3 -->
<g id="edge2_Node000002_Node000003" class="edge">
<title>Node2&#45;&gt;Node3</title>
<g id="a_edge2_Node000002_Node000003"><a xlink:title=" ">
<path fill="none" stroke="#63b8ff" d="M780.53,-10C772.5,-10 764.36,-10 756.62,-10"/>
<polygon fill="#63b8ff" stroke="#63b8ff" points="780.26,-13.5 790.26,-10 780.26,-6.5 780.26,-13.5"/>
</a>
</g>
</g>
<!-- Node4 -->
<g id="Node000004" class="node">
<title>Node4</title>
<g id="a_Node000004"><a xlink:href="conversion_8c.html#a82a1feca70c979ed51364bb42306d54f" target="_top" xlink:title=" ">
<polygon fill="white" stroke="#666666" points="627,-20 549.5,-20 549.5,0 627,0 627,-20"/>
<text xml:space="preserve" text-anchor="middle" x="588.25" y="-6.5" font-family="Helvetica,sans-Serif" font-size="10.00">convert_triplet</text>
</a>
</g>
</g>
<!-- Node3&#45;&gt;Node4 -->
<g id="edge3_Node000003_Node000004" class="edge">
<title>Node3&#45;&gt;Node4</title>
<g id="a_edge3_Node000003_Node000004"><a xlink:title=" ">
<path fill="none" stroke="#63b8ff" d="M651.4,-10C643.25,-10 635.04,-10 627.38,-10"/>
<polygon fill="#63b8ff" stroke="#63b8ff" points="651.3,-13.5 661.3,-10 651.3,-6.5 651.3,-13.5"/>
</a>
</g>
</g>
<!-- Node5 -->
<g id="Node000005" class="node">
<title>Node5</title>
<g id="a_Node000005"><a xlink:href="helpers2_8c.html#aa882d1da3eeeeb1db44316bf3994cef8" target="_top" xlink:title=" ">
<polygon fill="white" stroke="#666666" points="513.5,-20 433.75,-20 433.75,0 513.5,0 513.5,-20"/>
<text xml:space="preserve" text-anchor="middle" x="473.62" y="-6.5" font-family="Helvetica,sans-Serif" font-size="10.00">process_triplet</text>
</a>
</g>
</g>
<!-- Node4&#45;&gt;Node5 -->
<g id="edge4_Node000004_Node000005" class="edge">
<title>Node4&#45;&gt;Node5</title>
<g id="a_edge4_Node000004_Node000005"><a xlink:title=" ">
<path fill="none" stroke="#63b8ff" d="M537.66,-10C529.69,-10 521.55,-10 513.87,-10"/>
<polygon fill="#63b8ff" stroke="#63b8ff" points="537.61,-13.5 547.61,-10 537.61,-6.5 537.61,-13.5"/>
</a>
</g>
</g>
<!-- Node6 -->
<g id="Node000006" class="node">
<title>Node6</title>
<g id="a_Node000006"><a xlink:href="conversion_8c.html#a57f397d82b353b943410df86212e704d" target="_top" xlink:title=" ">
<polygon fill="white" stroke="#666666" points="397.75,-20 312,-20 312,0 397.75,0 397.75,-20"/>
<text xml:space="preserve" text-anchor="middle" x="354.88" y="-6.5" font-family="Helvetica,sans-Serif" font-size="10.00">convert_number</text>
</a>
</g>
</g>
<!-- Node5&#45;&gt;Node6 -->
<g id="edge5_Node000005_Node000006" class="edge">
<title>Node5&#45;&gt;Node6</title>
<g id="a_edge5_Node000005_Node000006"><a xlink:title=" ">
<path fill="none" stroke="#63b8ff" d="M421.93,-10C413.93,-10 405.75,-10 397.98,-10"/>
<polygon fill="#63b8ff" stroke="#63b8ff" points="421.91,-13.5 431.91,-10 421.91,-6.5 421.91,-13.5"/>
</a>
</g>
</g>
<!-- Node7 -->
<g id="Node000007" class="node">
<title>Node7</title>
<g id="a_Node000007"><a xlink:href="process_8c.html#a5b78dd11ed0af8a3709ebbe817eea325" target="_top" xlink:title=" ">
<polygon fill="white" stroke="#666666" points="276,-20 173,-20 173,0 276,0 276,-20"/>
<text xml:space="preserve" text-anchor="middle" x="224.5" y="-6.5" font-family="Helvetica,sans-Serif" font-size="10.00">process_conversion</text>
</a>
</g>
</g>
<!-- Node6&#45;&gt;Node7 -->
<g id="edge6_Node000006_Node000007" class="edge">
<title>Node6&#45;&gt;Node7</title>
<g id="a_edge6_Node000006_Node000007"><a xlink:title=" ">
<path fill="none" stroke="#63b8ff" d="M300.33,-10C292.32,-10 284.08,-10 276.13,-10"/>
<polygon fill="#63b8ff" stroke="#63b8ff" points="300.33,-13.5 310.33,-10 300.33,-6.5 300.33,-13.5"/>
</a>
</g>
</g>
<!-- Node8 -->
<g id="Node000008" class="node">
<title>Node8</title>
<g id="a_Node000008"><a xlink:href="process_8c.html#a6b8653e5d6b8c2bc215b0f6296a57202" target="_top" xlink:title=" ">
<polygon fill="white" stroke="#666666" points="137,-20 73,-20 73,0 137,0 137,-20"/>
<text xml:space="preserve" text-anchor="middle" x="105" y="-6.5" font-family="Helvetica,sans-Serif" font-size="10.00">print_result</text>
</a>
</g>
</g>
<!-- Node7&#45;&gt;Node8 -->
<g id="edge7_Node000007_Node000008" class="edge">
<title>Node7&#45;&gt;Node8</title>
<g id="a_edge7_Node000007_Node000008"><a xlink:title=" ">
<path fill="none" stroke="#63b8ff" d="M161.3,-10C152.97,-10 144.74,-10 137.27,-10"/>
<polygon fill="#63b8ff" stroke="#63b8ff" points="161.13,-13.5 171.13,-10 161.13,-6.5 161.13,-13.5"/>
</a>
</g>
</g>
<!-- Node9 -->
<g id="Node000009" class="node">
<title>Node9</title>
<g id="a_Node000009"><a xlink:href="main_8c.html#a3c04138a5bfe5d72780bb7e82a18e627" target="_top" xlink:title=" ">
<polygon fill="white" stroke="#666666" points="37,-20 0,-20 0,0 37,0 37,-20"/>
<text xml:space="preserve" text-anchor="middle" x="18.5" y="-6.5" font-family="Helvetica,sans-Serif" font-size="10.00">main</text>
</a>
</g>
</g>
<!-- Node8&#45;&gt;Node9 -->
<g id="edge8_Node000008_Node000009" class="edge">
<title>Node8&#45;&gt;Node9</title>
<g id="a_edge8_Node000008_Node000009"><a xlink:title=" ">
<path fill="none" stroke="#63b8ff" d="M61.22,-10C52.84,-10 44.49,-10 37.49,-10"/>
<polygon fill="#63b8ff" stroke="#63b8ff" points="61.02,-13.5 71.02,-10 61.02,-6.5 61.02,-13.5"/>
</a>
</g>
</g>
</g>
</svg>
