<?xml version="1.0" encoding="UTF-8" standalone="no"?>
<!DOCTYPE svg PUBLIC "-//W3C//DTD SVG 1.1//EN"
 "http://www.w3.org/Graphics/SVG/1.1/DTD/svg11.dtd">
<!-- Generated by graphviz version 13.1.2 (0)
 -->
<!-- Title: append_with_space Pages: 1 -->
<svg width="1135pt" height="94pt"
 viewBox="0.00 0.00 1135.00 94.00" xmlns="http://www.w3.org/2000/svg" xmlns:xlink="http://www.w3.org/1999/xlink">
<g id="graph0" class="graph" transform="scale(1 1) rotate(0) translate(4 90)">
<title>append_with_space</title>
<!-- Node1 -->
<g id="Node000001" class="node">
<title>Node1</title>
<g id="a_Node000001"><a xlink:title=" ">
<polygon fill="#999999" stroke="#666666" points="1126.75,-48 1024.5,-48 1024.5,-28 1126.75,-28 1126.75,-48"/>
<text xml:space="preserve" text-anchor="middle" x="1075.62" y="-34.5" font-family="Helvetica,sans-Serif" font-size="10.00">append_with_space</text>
</a>
</g>
</g>
<!-- Node2 -->
<g id="Node000002" class="node">
<title>Node2</title>
<g id="a_Node000002"><a xlink:href="conversion_8c.html#a1860eceee858703a4a25348759c51830" target="_top" xlink:title=" ">
<polygon fill="white" stroke="#666666" points="756.25,-48 663,-48 663,-28 756.25,-28 756.25,-48"/>
<text xml:space="preserve" text-anchor="middle" x="709.62" y="-34.5" font-family="Helvetica,sans-Serif" font-size="10.00">convert_hundreds</text>
</a>
</g>
</g>
<!-- Node1&#45;&gt;Node2 -->
<g id="edge1_Node000001_Node000002" class="edge">
<title>Node1&#45;&gt;Node2</title>
<g id="a_edge1_Node000001_Node000002"><a xlink:title=" ">
<path fill="none" stroke="#63b8ff" d="M1012.77,-38C940.14,-38 821.39,-38 756.5,-38"/>
<polygon fill="#63b8ff" stroke="#63b8ff" points="1012.5,-41.5 1022.5,-38 1012.5,-34.5 1012.5,-41.5"/>
</a>
</g>
</g>
<!-- Node4 -->
<g id="Node000004" class="node">
<title>Node4</title>
<g id="a_Node000004"><a xlink:href="helpers2_8c.html#aa882d1da3eeeeb1db44316bf3994cef8" target="_top" xlink:title=" ">
<polygon fill="white" stroke="#666666" points="513.5,-29 433.75,-29 433.75,-9 513.5,-9 513.5,-29"/>
<text xml:space="preserve" text-anchor="middle" x="473.62" y="-15.5" font-family="Helvetica,sans-Serif" font-size="10.00">process_triplet</text>
</a>
</g>
</g>
<!-- Node1&#45;&gt;Node4 -->
<g id="edge8_Node000001_Node000004" class="edge">
<title>Node1&#45;&gt;Node4</title>
<g id="a_edge8_Node000001_Node000004"><a xlink:title=" ">
<path fill="none" stroke="#63b8ff" d="M1024.06,-24.87C977.3,-13.88 905.69,0 842.5,0 842.5,0 842.5,0 708.62,0 639.95,0 560.3,-8.23 513.88,-13.86"/>
<polygon fill="#63b8ff" stroke="#63b8ff" points="1023.09,-28.23 1033.63,-27.16 1024.73,-21.43 1023.09,-28.23"/>
</a>
</g>
</g>
<!-- Node9 -->
<g id="Node000009" class="node">
<title>Node9</title>
<g id="a_Node000009"><a xlink:href="helpers2_8c.html#a5496f04c16dcdf7089447f61a18e6032" target="_top" xlink:title=" ">
<polygon fill="white" stroke="#666666" points="988.5,-86 926.75,-86 926.75,-66 988.5,-66 988.5,-86"/>
<text xml:space="preserve" text-anchor="middle" x="957.62" y="-72.5" font-family="Helvetica,sans-Serif" font-size="10.00">temp_func</text>
</a>
</g>
</g>
<!-- Node1&#45;&gt;Node9 -->
<g id="edge9_Node000001_Node000009" class="edge">
<title>Node1&#45;&gt;Node9</title>
<g id="a_edge9_Node000001_Node000009"><a xlink:title=" ">
<path fill="none" stroke="#63b8ff" d="M1032.02,-51.96C1017.72,-56.64 1002.08,-61.76 988.93,-66.07"/>
<polygon fill="#63b8ff" stroke="#63b8ff" points="1032.77,-55.39 1041.18,-48.96 1030.59,-48.74 1032.77,-55.39"/>
</a>
</g>
</g>
<!-- Node3 -->
<g id="Node000003" class="node">
<title>Node3</title>
<g id="a_Node000003"><a xlink:href="conversion_8c.html#a82a1feca70c979ed51364bb42306d54f" target="_top" xlink:title=" ">
<polygon fill="white" stroke="#666666" points="627,-48 549.5,-48 549.5,-28 627,-28 627,-48"/>
<text xml:space="preserve" text-anchor="middle" x="588.25" y="-34.5" font-family="Helvetica,sans-Serif" font-size="10.00">convert_triplet</text>
</a>
</g>
</g>
<!-- Node2&#45;&gt;Node3 -->
<g id="edge2_Node000002_Node000003" class="edge">
<title>Node2&#45;&gt;Node3</title>
<g id="a_edge2_Node000002_Node000003"><a xlink:title=" ">
<path fill="none" stroke="#63b8ff" d="M651.4,-38C643.25,-38 635.04,-38 627.38,-38"/>
<polygon fill="#63b8ff" stroke="#63b8ff" points="651.3,-41.5 661.3,-38 651.3,-34.5 651.3,-41.5"/>
</a>
</g>
</g>
<!-- Node3&#45;&gt;Node4 -->
<g id="edge3_Node000003_Node000004" class="edge">
<title>Node3&#45;&gt;Node4</title>
<g id="a_edge3_Node000003_Node000004"><a xlink:title=" ">
<path fill="none" stroke="#63b8ff" d="M537.93,-29.68C529.88,-28.32 521.64,-26.93 513.87,-25.62"/>
<polygon fill="#63b8ff" stroke="#63b8ff" points="537.18,-33.1 547.63,-31.32 538.35,-26.2 537.18,-33.1"/>
</a>
</g>
</g>
<!-- Node5 -->
<g id="Node000005" class="node">
<title>Node5</title>
<g id="a_Node000005"><a xlink:href="conversion_8c.html#a57f397d82b353b943410df86212e704d" target="_top" xlink:title=" ">
<polygon fill="white" stroke="#666666" points="397.75,-29 312,-29 312,-9 397.75,-9 397.75,-29"/>
<text xml:space="preserve" text-anchor="middle" x="354.88" y="-15.5" font-family="Helvetica,sans-Serif" font-size="10.00">convert_number</text>
</a>
</g>
</g>
<!-- Node4&#45;&gt;Node5 -->
<g id="edge4_Node000004_Node000005" class="edge">
<title>Node4&#45;&gt;Node5</title>
<g id="a_edge4_Node000004_Node000005"><a xlink:title=" ">
<path fill="none" stroke="#63b8ff" d="M421.93,-19C413.93,-19 405.75,-19 397.98,-19"/>
<polygon fill="#63b8ff" stroke="#63b8ff" points="421.91,-22.5 431.91,-19 421.91,-15.5 421.91,-22.5"/>
</a>
</g>
</g>
<!-- Node6 -->
<g id="Node000006" class="node">
<title>Node6</title>
<g id="a_Node000006"><a xlink:href="process_8c.html#a5b78dd11ed0af8a3709ebbe817eea325" target="_top" xlink:title=" ">
<polygon fill="white" stroke="#666666" points="276,-29 173,-29 173,-9 276,-9 276,-29"/>
<text xml:space="preserve" text-anchor="middle" x="224.5" y="-15.5" font-family="Helvetica,sans-Serif" font-size="10.00">process_conversion</text>
</a>
</g>
</g>
<!-- Node5&#45;&gt;Node6 -->
<g id="edge5_Node000005_Node000006" class="edge">
<title>Node5&#45;&gt;Node6</title>
<g id="a_edge5_Node000005_Node000006"><a xlink:title=" ">
<path fill="none" stroke="#63b8ff" d="M300.33,-19C292.32,-19 284.08,-19 276.13,-19"/>
<polygon fill="#63b8ff" stroke="#63b8ff" points="300.33,-22.5 310.33,-19 300.33,-15.5 300.33,-22.5"/>
</a>
</g>
</g>
<!-- Node7 -->
<g id="Node000007" class="node">
<title>Node7</title>
<g id="a_Node000007"><a xlink:href="process_8c.html#a6b8653e5d6b8c2bc215b0f6296a57202" target="_top" xlink:title=" ">
<polygon fill="white" stroke="#666666" points="137,-29 73,-29 73,-9 137,-9 137,-29"/>
<text xml:space="preserve" text-anchor="middle" x="105" y="-15.5" font-family="Helvetica,sans-Serif" font-size="10.00">print_result</text>
</a>
</g>
</g>
<!-- Node6&#45;&gt;Node7 -->
<g id="edge6_Node000006_Node000007" class="edge">
<title>Node6&#45;&gt;Node7</title>
<g id="a_edge6_Node000006_Node000007"><a xlink:title=" ">
<path fill="none" stroke="#63b8ff" d="M161.3,-19C152.97,-19 144.74,-19 137.27,-19"/>
<polygon fill="#63b8ff" stroke="#63b8ff" points="161.13,-22.5 171.13,-19 161.13,-15.5 161.13,-22.5"/>
</a>
</g>
</g>
<!-- Node8 -->
<g id="Node000008" class="node">
<title>Node8</title>
<g id="a_Node000008"><a xlink:href="main_8c.html#a3c04138a5bfe5d72780bb7e82a18e627" target="_top" xlink:title=" ">
<polygon fill="white" stroke="#666666" points="37,-29 0,-29 0,-9 37,-9 37,-29"/>
<text xml:space="preserve" text-anchor="middle" x="18.5" y="-15.5" font-family="Helvetica,sans-Serif" font-size="10.00">main</text>
</a>
</g>
</g>
<!-- Node7&#45;&gt;Node8 -->
<g id="edge7_Node000007_Node000008" class="edge">
<title>Node7&#45;&gt;Node8</title>
<g id="a_edge7_Node000007_Node000008"><a xlink:title=" ">
<path fill="none" stroke="#63b8ff" d="M61.22,-19C52.84,-19 44.49,-19 37.49,-19"/>
<polygon fill="#63b8ff" stroke="#63b8ff" points="61.02,-22.5 71.02,-19 61.02,-15.5 61.02,-22.5"/>
</a>
</g>
</g>
<!-- Node10 -->
<g id="Node000010" class="node">
<title>Node10</title>
<g id="a_Node000010"><a xlink:href="helpers2_8c.html#a10f3a7bc3f2e2b5a3e5e43c0ba93e1f8" target="_top" xlink:title=" ">
<polygon fill="white" stroke="#666666" points="890.75,-86 792.25,-86 792.25,-66 890.75,-66 890.75,-86"/>
<text xml:space="preserve" text-anchor="middle" x="841.5" y="-72.5" font-family="Helvetica,sans-Serif" font-size="10.00">convert_tens_ones</text>
</a>
</g>
</g>
<!-- Node9&#45;&gt;Node10 -->
<g id="edge10_Node000009_Node000010" class="edge">
<title>Node9&#45;&gt;Node10</title>
<g id="a_edge10_Node000009_Node000010"><a xlink:title=" ">
<path fill="none" stroke="#63b8ff" d="M914.95,-76C907.17,-76 898.99,-76 891.04,-76"/>
<polygon fill="#63b8ff" stroke="#63b8ff" points="914.83,-79.5 924.83,-76 914.83,-72.5 914.83,-79.5"/>
</a>
</g>
</g>
<!-- Node10&#45;&gt;Node2 -->
<g id="edge11_Node000010_Node000002" class="edge">
<title>Node10&#45;&gt;Node2</title>
<g id="a_edge11_Node000010_Node000002"><a xlink:title=" ">
<path fill="none" stroke="#63b8ff" d="M793.64,-62.29C778.05,-57.73 760.95,-52.72 746.34,-48.45"/>
<polygon fill="#63b8ff" stroke="#63b8ff" points="792.63,-65.64 803.21,-65.09 794.6,-58.92 792.63,-65.64"/>
</a>
</g>
</g>
</g>
</svg>
