<?xml version="1.0" encoding="UTF-8" standalone="no"?>
<!DOCTYPE svg PUBLIC "-//W3C//DTD SVG 1.1//EN"
 "http://www.w3.org/Graphics/SVG/1.1/DTD/svg11.dtd">
<!-- Generated by graphviz version 13.1.2 (0)
 -->
<!-- Title: check_acceptable_keys Pages: 1 -->
<svg width="574pt" height="28pt"
 viewBox="0.00 0.00 574.00 28.00" xmlns="http://www.w3.org/2000/svg" xmlns:xlink="http://www.w3.org/1999/xlink">
<g id="graph0" class="graph" transform="scale(1 1) rotate(0) translate(4 24)">
<title>check_acceptable_keys</title>
<!-- Node1 -->
<g id="Node000001" class="node">
<title>Node1</title>
<g id="a_Node000001"><a xlink:title=" ">
<polygon fill="#999999" stroke="#666666" points="566,-20 445,-20 445,0 566,0 566,-20"/>
<text xml:space="preserve" text-anchor="middle" x="505.5" y="-6.5" font-family="Helvetica,sans-Serif" font-size="10.00">check_acceptable_keys</text>
</a>
</g>
</g>
<!-- Node2 -->
<g id="Node000002" class="node">
<title>Node2</title>
<g id="a_Node000002"><a xlink:href="dict__validation_8c.html#a3bcb38196dd6bd633a72e29431defb46" target="_top" xlink:title=" ">
<polygon fill="white" stroke="#666666" points="409,-20 312,-20 312,0 409,0 409,-20"/>
<text xml:space="preserve" text-anchor="middle" x="360.5" y="-6.5" font-family="Helvetica,sans-Serif" font-size="10.00">validate_dictionary</text>
</a>
</g>
</g>
<!-- Node1&#45;&gt;Node2 -->
<g id="edge1_Node000001_Node000002" class="edge">
<title>Node1&#45;&gt;Node2</title>
<g id="a_edge1_Node000001_Node000002"><a xlink:title=" ">
<path fill="none" stroke="#63b8ff" d="M433.27,-10C425.16,-10 417.05,-10 409.35,-10"/>
<polygon fill="#63b8ff" stroke="#63b8ff" points="433.17,-13.5 443.17,-10 433.17,-6.5 433.17,-13.5"/>
</a>
</g>
</g>
<!-- Node3 -->
<g id="Node000003" class="node">
<title>Node3</title>
<g id="a_Node000003"><a xlink:href="process_8c.html#a5b78dd11ed0af8a3709ebbe817eea325" target="_top" xlink:title=" ">
<polygon fill="white" stroke="#666666" points="276,-20 173,-20 173,0 276,0 276,-20"/>
<text xml:space="preserve" text-anchor="middle" x="224.5" y="-6.5" font-family="Helvetica,sans-Serif" font-size="10.00">process_conversion</text>
</a>
</g>
</g>
<!-- Node2&#45;&gt;Node3 -->
<g id="edge2_Node000002_Node000003" class="edge">
<title>Node2&#45;&gt;Node3</title>
<g id="a_edge2_Node000002_Node000003"><a xlink:title=" ">
<path fill="none" stroke="#63b8ff" d="M300.06,-10C292.14,-10 284.08,-10 276.33,-10"/>
<polygon fill="#63b8ff" stroke="#63b8ff" points="299.99,-13.5 309.99,-10 299.99,-6.5 299.99,-13.5"/>
</a>
</g>
</g>
<!-- Node4 -->
<g id="Node000004" class="node">
<title>Node4</title>
<g id="a_Node000004"><a xlink:href="process_8c.html#a6b8653e5d6b8c2bc215b0f6296a57202" target="_top" xlink:title=" ">
<polygon fill="white" stroke="#666666" points="137,-20 73,-20 73,0 137,0 137,-20"/>
<text xml:space="preserve" text-anchor="middle" x="105" y="-6.5" font-family="Helvetica,sans-Serif" font-size="10.00">print_result</text>
</a>
</g>
</g>
<!-- Node3&#45;&gt;Node4 -->
<g id="edge3_Node000003_Node000004" class="edge">
<title>Node3&#45;&gt;Node4</title>
<g id="a_edge3_Node000003_Node000004"><a xlink:title=" ">
<path fill="none" stroke="#63b8ff" d="M161.3,-10C152.97,-10 144.74,-10 137.27,-10"/>
<polygon fill="#63b8ff" stroke="#63b8ff" points="161.13,-13.5 171.13,-10 161.13,-6.5 161.13,-13.5"/>
</a>
</g>
</g>
<!-- Node5 -->
<g id="Node000005" class="node">
<title>Node5</title>
<g id="a_Node000005"><a xlink:href="main_8c.html#a3c04138a5bfe5d72780bb7e82a18e627" target="_top" xlink:title=" ">
<polygon fill="white" stroke="#666666" points="37,-20 0,-20 0,0 37,0 37,-20"/>
<text xml:space="preserve" text-anchor="middle" x="18.5" y="-6.5" font-family="Helvetica,sans-Serif" font-size="10.00">main</text>
</a>
</g>
</g>
<!-- Node4&#45;&gt;Node5 -->
<g id="edge4_Node000004_Node000005" class="edge">
<title>Node4&#45;&gt;Node5</title>
<g id="a_edge4_Node000004_Node000005"><a xlink:title=" ">
<path fill="none" stroke="#63b8ff" d="M61.22,-10C52.84,-10 44.49,-10 37.49,-10"/>
<polygon fill="#63b8ff" stroke="#63b8ff" points="61.02,-13.5 71.02,-10 61.02,-6.5 61.02,-13.5"/>
</a>
</g>
</g>
</g>
</svg>
