<?xml version="1.0" encoding="UTF-8" standalone="no"?>
<!DOCTYPE svg PUBLIC "-//W3C//DTD SVG 1.1//EN"
 "http://www.w3.org/Graphics/SVG/1.1/DTD/svg11.dtd">
<!-- Generated by graphviz version 13.1.2 (0)
 -->
<!-- Title: ft_strlen Pages: 1 -->
<svg width="1349pt" height="436pt"
 viewBox="0.00 0.00 1349.00 436.00" xmlns="http://www.w3.org/2000/svg" xmlns:xlink="http://www.w3.org/1999/xlink">
<g id="graph0" class="graph" transform="scale(1 1) rotate(0) translate(4 432.35)">
<title>ft_strlen</title>
<!-- Node1 -->
<g id="Node000001" class="node">
<title>Node1</title>
<g id="a_Node000001"><a xlink:title=" ">
<polygon fill="#999999" stroke="#666666" points="1340.75,-191 1289.5,-191 1289.5,-171 1340.75,-171 1340.75,-191"/>
<text xml:space="preserve" text-anchor="middle" x="1315.12" y="-177.5" font-family="Helvetica,sans-Serif" font-size="10.00">ft_strlen</text>
</a>
</g>
</g>
<!-- Node2 -->
<g id="Node000002" class="node">
<title>Node2</title>
<g id="a_Node000002"><a xlink:href="helpers_8c.html#a3222789b62d41bef34bd5b3f1c9de0dc" target="_top" xlink:title=" ">
<polygon fill="white" stroke="#666666" points="1243,-305 1140.75,-305 1140.75,-285 1243,-285 1243,-305"/>
<text xml:space="preserve" text-anchor="middle" x="1191.88" y="-291.5" font-family="Helvetica,sans-Serif" font-size="10.00">append_with_space</text>
</a>
</g>
</g>
<!-- Node1&#45;&gt;Node2 -->
<g id="edge1_Node000001_Node000002" class="edge">
<title>Node1&#45;&gt;Node2</title>
<g id="a_edge1_Node000001_Node000002"><a xlink:title=" ">
<path fill="none" stroke="#63b8ff" d="M1299.84,-200.21C1288.23,-215.18 1270.97,-236.03 1253.5,-252 1239.88,-264.45 1222.56,-276.41 1209.92,-284.54"/>
<polygon fill="#63b8ff" stroke="#63b8ff" points="1302.41,-202.62 1305.68,-192.54 1296.84,-198.38 1302.41,-202.62"/>
</a>
</g>
</g>
<!-- Node6 -->
<g id="Node000006" class="node">
<title>Node6</title>
<g id="a_Node000006"><a xlink:href="conversion_8c.html#a57f397d82b353b943410df86212e704d" target="_top" xlink:title=" ">
<polygon fill="white" stroke="#666666" points="397.75,-248 312,-248 312,-228 397.75,-228 397.75,-248"/>
<text xml:space="preserve" text-anchor="middle" x="354.88" y="-234.5" font-family="Helvetica,sans-Serif" font-size="10.00">convert_number</text>
</a>
</g>
</g>
<!-- Node1&#45;&gt;Node6 -->
<g id="edge15_Node000001_Node000006" class="edge">
<title>Node1&#45;&gt;Node6</title>
<g id="a_edge15_Node000001_Node000006"><a xlink:title=" ">
<path fill="none" stroke="#63b8ff" d="M1309.93,-202.23C1303.09,-231.39 1286.82,-283.65 1253.5,-314 1177.41,-383.3 1137.67,-390 1034.75,-390 1034.75,-390 1034.75,-390 624,-390 508.96,-390 398.03,-282.79 365.45,-248.45"/>
<polygon fill="#63b8ff" stroke="#63b8ff" points="1313.28,-203.28 1311.98,-192.76 1306.44,-201.79 1313.28,-203.28"/>
</a>
</g>
</g>
<!-- Node8 -->
<g id="Node000008" class="node">
<title>Node8</title>
<g id="a_Node000008"><a xlink:href="process_8c.html#a6b8653e5d6b8c2bc215b0f6296a57202" target="_top" xlink:title=" ">
<polygon fill="white" stroke="#666666" points="137,-96 73,-96 73,-76 137,-76 137,-96"/>
<text xml:space="preserve" text-anchor="middle" x="105" y="-82.5" font-family="Helvetica,sans-Serif" font-size="10.00">print_result</text>
</a>
</g>
</g>
<!-- Node1&#45;&gt;Node8 -->
<g id="edge29_Node000001_Node000008" class="edge">
<title>Node1&#45;&gt;Node8</title>
<g id="a_edge29_Node000001_Node000008"><a xlink:title=" ">
<path fill="none" stroke="#63b8ff" d="M1313.16,-202.54C1310.29,-240.41 1298.87,-319.09 1253.5,-363 1180.62,-433.53 1136.17,-428 1034.75,-428 1034.75,-428 1034.75,-428 353.88,-428 185.58,-428 119.82,-153.14 108.01,-96.24"/>
<polygon fill="#63b8ff" stroke="#63b8ff" points="1316.64,-203.07 1313.75,-192.87 1309.65,-202.64 1316.64,-203.07"/>
</a>
</g>
</g>
<!-- Node12 -->
<g id="Node000012" class="node">
<title>Node12</title>
<g id="a_Node000012"><a xlink:href="dict__validation_8c.html#a58e73a2efb125a4b0f774511fd61c41d" target="_top" xlink:title=" ">
<polygon fill="white" stroke="#666666" points="540.5,-172 433.75,-172 433.75,-152 540.5,-152 540.5,-172"/>
<text xml:space="preserve" text-anchor="middle" x="487.12" y="-158.5" font-family="Helvetica,sans-Serif" font-size="10.00">can_convert_number</text>
</a>
</g>
</g>
<!-- Node1&#45;&gt;Node12 -->
<g id="edge13_Node000001_Node000012" class="edge">
<title>Node1&#45;&gt;Node12</title>
<g id="a_edge13_Node000001_Node000012"><a xlink:title=" ">
<path fill="none" stroke="#63b8ff" d="M1277.92,-176.96C1224.71,-171.38 1122.21,-162 1034.75,-162 1034.75,-162 1034.75,-162 755.12,-162 680.73,-162 594.67,-162 540.81,-162"/>
<polygon fill="#63b8ff" stroke="#63b8ff" points="1277.3,-180.41 1287.62,-177.99 1278.04,-173.45 1277.3,-180.41"/>
</a>
</g>
</g>
<!-- Node13 -->
<g id="Node000013" class="node">
<title>Node13</title>
<g id="a_Node000013"><a xlink:href="process_8c.html#aedbe09c9d81390246e7bed1b0c630a21" target="_top" xlink:title=" ">
<polygon fill="white" stroke="#666666" points="783.25,-248 729,-248 729,-228 783.25,-228 783.25,-248"/>
<text xml:space="preserve" text-anchor="middle" x="756.12" y="-234.5" font-family="Helvetica,sans-Serif" font-size="10.00">ft_strdup</text>
</a>
</g>
</g>
<!-- Node1&#45;&gt;Node13 -->
<g id="edge16_Node000001_Node000013" class="edge">
<title>Node1&#45;&gt;Node13</title>
<g id="a_edge16_Node000001_Node000013"><a xlink:title=" ">
<path fill="none" stroke="#63b8ff" d="M1278.17,-193.74C1270.14,-196.17 1261.6,-198.44 1253.5,-200 1076.33,-234.08 858.05,-237.85 783.51,-238.08"/>
<polygon fill="#63b8ff" stroke="#63b8ff" points="1279.18,-197.09 1287.64,-190.71 1277.05,-190.42 1279.18,-197.09"/>
</a>
</g>
</g>
<!-- Node15 -->
<g id="Node000015" class="node">
<title>Node15</title>
<g id="a_Node000015"><a xlink:href="helpers_8c.html#a6277098847a9d44fa9582093bf5328a0" target="_top" xlink:title=" ">
<polygon fill="white" stroke="#666666" points="922.62,-210 853.38,-210 853.38,-190 922.62,-190 922.62,-210"/>
<text xml:space="preserve" text-anchor="middle" x="888" y="-196.5" font-family="Helvetica,sans-Serif" font-size="10.00">pad_number</text>
</a>
</g>
</g>
<!-- Node1&#45;&gt;Node15 -->
<g id="edge21_Node000001_Node000015" class="edge">
<title>Node1&#45;&gt;Node15</title>
<g id="a_edge21_Node000001_Node000015"><a xlink:title=" ">
<path fill="none" stroke="#63b8ff" d="M1277.77,-182.62C1196.6,-186.25 1001.58,-194.97 922.83,-198.49"/>
<polygon fill="#63b8ff" stroke="#63b8ff" points="1277.77,-186.13 1287.61,-182.19 1277.46,-179.14 1277.77,-186.13"/>
</a>
</g>
</g>
<!-- Node16 -->
<g id="Node000016" class="node">
<title>Node16</title>
<g id="a_Node000016"><a xlink:href="dict__parser_8c.html#a5e0063cd44034d5e48a221f3f5890c3a" target="_top" xlink:title=" ">
<polygon fill="white" stroke="#666666" points="1084.88,-134 982.62,-134 982.62,-114 1084.88,-114 1084.88,-134"/>
<text xml:space="preserve" text-anchor="middle" x="1033.75" y="-120.5" font-family="Helvetica,sans-Serif" font-size="10.00">parse_mapping_line</text>
</a>
</g>
</g>
<!-- Node1&#45;&gt;Node16 -->
<g id="edge23_Node000001_Node000016" class="edge">
<title>Node1&#45;&gt;Node16</title>
<g id="a_edge23_Node000001_Node000016"><a xlink:title=" ">
<path fill="none" stroke="#63b8ff" d="M1289.15,-164.55C1278.57,-158.35 1265.85,-151.87 1253.5,-148 1197.54,-130.45 1130.04,-125.32 1084.96,-124.02"/>
<polygon fill="#63b8ff" stroke="#63b8ff" points="1287.28,-167.51 1297.63,-169.75 1290.94,-161.54 1287.28,-167.51"/>
</a>
</g>
</g>
<!-- Node20 -->
<g id="Node000020" class="node">
<title>Node20</title>
<g id="a_Node000020"><a xlink:href="helpers__val_8c.html#a85170ea7fb559677633e0bc85bc56863" target="_top" xlink:title=" ">
<polygon fill="white" stroke="#666666" points="1241.88,-20 1141.88,-20 1141.88,0 1241.88,0 1241.88,-20"/>
<text xml:space="preserve" text-anchor="middle" x="1191.88" y="-6.5" font-family="Helvetica,sans-Serif" font-size="10.00">strip_leading_zeros</text>
</a>
</g>
</g>
<!-- Node1&#45;&gt;Node20 -->
<g id="edge30_Node000001_Node000020" class="edge">
<title>Node1&#45;&gt;Node20</title>
<g id="a_edge30_Node000001_Node000020"><a xlink:title=" ">
<path fill="none" stroke="#63b8ff" d="M1311.43,-159.45C1306.18,-126.65 1291.58,-64.29 1253.5,-29 1249.78,-25.55 1245.44,-22.73 1240.82,-20.42"/>
<polygon fill="#63b8ff" stroke="#63b8ff" points="1307.96,-159.92 1312.84,-169.32 1314.89,-158.93 1307.96,-159.92"/>
</a>
</g>
</g>
<!-- Node21 -->
<g id="Node000021" class="node">
<title>Node21</title>
<g id="a_Node000021"><a xlink:href="helpers__val_8c.html#abff58decf4919821527339856b7d8960" target="_top" xlink:title=" ">
<polygon fill="white" stroke="#666666" points="1235.5,-96 1148.25,-96 1148.25,-76 1235.5,-76 1235.5,-96"/>
<text xml:space="preserve" text-anchor="middle" x="1191.88" y="-82.5" font-family="Helvetica,sans-Serif" font-size="10.00">trim_whitespace</text>
</a>
</g>
</g>
<!-- Node1&#45;&gt;Node21 -->
<g id="edge32_Node000001_Node000021" class="edge">
<title>Node1&#45;&gt;Node21</title>
<g id="a_edge32_Node000001_Node000021"><a xlink:title=" ">
<path fill="none" stroke="#63b8ff" d="M1301.39,-161.35C1290.34,-145.64 1273.08,-123.99 1253.5,-110 1245.76,-104.47 1236.58,-99.99 1227.73,-96.46"/>
<polygon fill="#63b8ff" stroke="#63b8ff" points="1298.35,-163.11 1306.86,-169.43 1304.15,-159.19 1298.35,-163.11"/>
</a>
</g>
</g>
<!-- Node22 -->
<g id="Node000022" class="node">
<title>Node22</title>
<g id="a_Node000022"><a xlink:href="helpers__dict_8c.html#afaea0edcdc4d41af28ab4c6ecadf91a2" target="_top" xlink:title=" ">
<polygon fill="white" stroke="#666666" points="1253.5,-58 1130.25,-58 1130.25,-38 1253.5,-38 1253.5,-58"/>
<text xml:space="preserve" text-anchor="middle" x="1191.88" y="-44.5" font-family="Helvetica,sans-Serif" font-size="10.00">validate_acceptable_key</text>
</a>
</g>
</g>
<!-- Node1&#45;&gt;Node22 -->
<g id="edge35_Node000001_Node000022" class="edge">
<title>Node1&#45;&gt;Node22</title>
<g id="a_edge35_Node000001_Node000022"><a xlink:title=" ">
<path fill="none" stroke="#63b8ff" d="M1308.38,-160.1C1300.29,-134.52 1283.13,-91.6 1253.5,-67 1249.34,-63.55 1244.55,-60.72 1239.53,-58.41"/>
<polygon fill="#63b8ff" stroke="#63b8ff" points="1304.92,-160.75 1311.12,-169.35 1311.64,-158.77 1304.92,-160.75"/>
</a>
</g>
</g>
<!-- Node3 -->
<g id="Node000003" class="node">
<title>Node3</title>
<g id="a_Node000003"><a xlink:href="conversion_8c.html#a1860eceee858703a4a25348759c51830" target="_top" xlink:title=" ">
<polygon fill="white" stroke="#666666" points="802.75,-286 709.5,-286 709.5,-266 802.75,-266 802.75,-286"/>
<text xml:space="preserve" text-anchor="middle" x="756.12" y="-272.5" font-family="Helvetica,sans-Serif" font-size="10.00">convert_hundreds</text>
</a>
</g>
</g>
<!-- Node2&#45;&gt;Node3 -->
<g id="edge2_Node000002_Node000003" class="edge">
<title>Node2&#45;&gt;Node3</title>
<g id="a_edge2_Node000002_Node000003"><a xlink:title=" ">
<path fill="none" stroke="#63b8ff" d="M1129.21,-299.24C1058.72,-303.11 940,-306.63 838.75,-295 823.86,-293.29 807.74,-289.88 793.79,-286.42"/>
<polygon fill="#63b8ff" stroke="#63b8ff" points="1129.23,-302.75 1139.01,-298.68 1128.83,-295.76 1129.23,-302.75"/>
</a>
</g>
</g>
<!-- Node5 -->
<g id="Node000005" class="node">
<title>Node5</title>
<g id="a_Node000005"><a xlink:href="helpers2_8c.html#aa882d1da3eeeeb1db44316bf3994cef8" target="_top" xlink:title=" ">
<polygon fill="white" stroke="#666666" points="527,-286 447.25,-286 447.25,-266 527,-266 527,-286"/>
<text xml:space="preserve" text-anchor="middle" x="487.12" y="-272.5" font-family="Helvetica,sans-Serif" font-size="10.00">process_triplet</text>
</a>
</g>
</g>
<!-- Node2&#45;&gt;Node5 -->
<g id="edge9_Node000002_Node000005" class="edge">
<title>Node2&#45;&gt;Node5</title>
<g id="a_edge9_Node000002_Node000005"><a xlink:title=" ">
<path fill="none" stroke="#63b8ff" d="M1146.74,-308.69C1088.37,-325.55 982,-352 889,-352 889,-352 889,-352 755.12,-352 660.42,-352 553.79,-307.22 509.34,-286.41"/>
<polygon fill="#63b8ff" stroke="#63b8ff" points="1147.7,-312.06 1156.31,-305.88 1145.72,-305.34 1147.7,-312.06"/>
</a>
</g>
</g>
<!-- Node10 -->
<g id="Node000010" class="node">
<title>Node10</title>
<g id="a_Node000010"><a xlink:href="helpers2_8c.html#a5496f04c16dcdf7089447f61a18e6032" target="_top" xlink:title=" ">
<polygon fill="white" stroke="#666666" points="1064.62,-286 1002.88,-286 1002.88,-266 1064.62,-266 1064.62,-286"/>
<text xml:space="preserve" text-anchor="middle" x="1033.75" y="-272.5" font-family="Helvetica,sans-Serif" font-size="10.00">temp_func</text>
</a>
</g>
</g>
<!-- Node2&#45;&gt;Node10 -->
<g id="edge10_Node000002_Node000010" class="edge">
<title>Node2&#45;&gt;Node10</title>
<g id="a_edge10_Node000002_Node000010"><a xlink:title=" ">
<path fill="none" stroke="#63b8ff" d="M1129.25,-287.5C1107.13,-284.81 1083.15,-281.89 1064.89,-279.67"/>
<polygon fill="#63b8ff" stroke="#63b8ff" points="1128.76,-290.97 1139.11,-288.7 1129.61,-284.02 1128.76,-290.97"/>
</a>
</g>
</g>
<!-- Node4 -->
<g id="Node000004" class="node">
<title>Node4</title>
<g id="a_Node000004"><a xlink:href="conversion_8c.html#a82a1feca70c979ed51364bb42306d54f" target="_top" xlink:title=" ">
<polygon fill="white" stroke="#666666" points="663.75,-286 586.25,-286 586.25,-266 663.75,-266 663.75,-286"/>
<text xml:space="preserve" text-anchor="middle" x="625" y="-272.5" font-family="Helvetica,sans-Serif" font-size="10.00">convert_triplet</text>
</a>
</g>
</g>
<!-- Node3&#45;&gt;Node4 -->
<g id="edge3_Node000003_Node000004" class="edge">
<title>Node3&#45;&gt;Node4</title>
<g id="a_edge3_Node000003_Node000004"><a xlink:title=" ">
<path fill="none" stroke="#63b8ff" d="M697.93,-276C686.47,-276 674.69,-276 664.07,-276"/>
<polygon fill="#63b8ff" stroke="#63b8ff" points="697.72,-279.5 707.72,-276 697.72,-272.5 697.72,-279.5"/>
</a>
</g>
</g>
<!-- Node4&#45;&gt;Node5 -->
<g id="edge4_Node000004_Node000005" class="edge">
<title>Node4&#45;&gt;Node5</title>
<g id="a_edge4_Node000004_Node000005"><a xlink:title=" ">
<path fill="none" stroke="#63b8ff" d="M574.31,-276C558.88,-276 542.09,-276 527.47,-276"/>
<polygon fill="#63b8ff" stroke="#63b8ff" points="574.28,-279.5 584.28,-276 574.28,-272.5 574.28,-279.5"/>
</a>
</g>
</g>
<!-- Node5&#45;&gt;Node6 -->
<g id="edge5_Node000005_Node000006" class="edge">
<title>Node5&#45;&gt;Node6</title>
<g id="a_edge5_Node000005_Node000006"><a xlink:title=" ">
<path fill="none" stroke="#63b8ff" d="M439.58,-262.42C423.83,-257.82 406.49,-252.77 391.69,-248.45"/>
<polygon fill="#63b8ff" stroke="#63b8ff" points="438.16,-265.65 448.74,-265.09 440.12,-258.93 438.16,-265.65"/>
</a>
</g>
</g>
<!-- Node7 -->
<g id="Node000007" class="node">
<title>Node7</title>
<g id="a_Node000007"><a xlink:href="process_8c.html#a5b78dd11ed0af8a3709ebbe817eea325" target="_top" xlink:title=" ">
<polygon fill="white" stroke="#666666" points="276,-134 173,-134 173,-114 276,-114 276,-134"/>
<text xml:space="preserve" text-anchor="middle" x="224.5" y="-120.5" font-family="Helvetica,sans-Serif" font-size="10.00">process_conversion</text>
</a>
</g>
</g>
<!-- Node6&#45;&gt;Node7 -->
<g id="edge6_Node000006_Node000007" class="edge">
<title>Node6&#45;&gt;Node7</title>
<g id="a_edge6_Node000006_Node000007"><a xlink:title=" ">
<path fill="none" stroke="#63b8ff" d="M334.14,-220.48C307,-196.37 259.01,-153.76 237.05,-134.26"/>
<polygon fill="#63b8ff" stroke="#63b8ff" points="331.55,-222.86 341.35,-226.88 336.2,-217.62 331.55,-222.86"/>
</a>
</g>
</g>
<!-- Node7&#45;&gt;Node8 -->
<g id="edge7_Node000007_Node000008" class="edge">
<title>Node7&#45;&gt;Node8</title>
<g id="a_edge7_Node000007_Node000008"><a xlink:title=" ">
<path fill="none" stroke="#63b8ff" d="M180.43,-110.07C166.07,-105.43 150.37,-100.35 137.1,-96.06"/>
<polygon fill="#63b8ff" stroke="#63b8ff" points="179.05,-113.3 189.64,-113.05 181.2,-106.64 179.05,-113.3"/>
</a>
</g>
</g>
<!-- Node9 -->
<g id="Node000009" class="node">
<title>Node9</title>
<g id="a_Node000009"><a xlink:href="main_8c.html#a3c04138a5bfe5d72780bb7e82a18e627" target="_top" xlink:title=" ">
<polygon fill="white" stroke="#666666" points="37,-39 0,-39 0,-19 37,-19 37,-39"/>
<text xml:space="preserve" text-anchor="middle" x="18.5" y="-25.5" font-family="Helvetica,sans-Serif" font-size="10.00">main</text>
</a>
</g>
</g>
<!-- Node8&#45;&gt;Node9 -->
<g id="edge8_Node000008_Node000009" class="edge">
<title>Node8&#45;&gt;Node9</title>
<g id="a_edge8_Node000008_Node000009"><a xlink:title=" ">
<path fill="none" stroke="#63b8ff" d="M79.2,-69.27C64.86,-59.59 47.26,-47.73 34.9,-39.39"/>
<polygon fill="#63b8ff" stroke="#63b8ff" points="77,-72.01 87.25,-74.7 80.91,-66.21 77,-72.01"/>
</a>
</g>
</g>
<!-- Node11 -->
<g id="Node000011" class="node">
<title>Node11</title>
<g id="a_Node000011"><a xlink:href="helpers2_8c.html#a10f3a7bc3f2e2b5a3e5e43c0ba93e1f8" target="_top" xlink:title=" ">
<polygon fill="white" stroke="#666666" points="937.25,-286 838.75,-286 838.75,-266 937.25,-266 937.25,-286"/>
<text xml:space="preserve" text-anchor="middle" x="888" y="-272.5" font-family="Helvetica,sans-Serif" font-size="10.00">convert_tens_ones</text>
</a>
</g>
</g>
<!-- Node10&#45;&gt;Node11 -->
<g id="edge11_Node000010_Node000011" class="edge">
<title>Node10&#45;&gt;Node11</title>
<g id="a_edge11_Node000010_Node000011"><a xlink:title=" ">
<path fill="none" stroke="#63b8ff" d="M991.45,-276C974.6,-276 955,-276 937.48,-276"/>
<polygon fill="#63b8ff" stroke="#63b8ff" points="991.1,-279.5 1001.1,-276 991.1,-272.5 991.1,-279.5"/>
</a>
</g>
</g>
<!-- Node11&#45;&gt;Node3 -->
<g id="edge12_Node000011_Node000003" class="edge">
<title>Node11&#45;&gt;Node3</title>
<g id="a_edge12_Node000011_Node000003"><a xlink:title=" ">
<path fill="none" stroke="#63b8ff" d="M827.03,-276C819,-276 810.86,-276 803.12,-276"/>
<polygon fill="#63b8ff" stroke="#63b8ff" points="826.76,-279.5 836.76,-276 826.76,-272.5 826.76,-279.5"/>
</a>
</g>
</g>
<!-- Node12&#45;&gt;Node7 -->
<g id="edge14_Node000012_Node000007" class="edge">
<title>Node12&#45;&gt;Node7</title>
<g id="a_edge14_Node000012_Node000007"><a xlink:title=" ">
<path fill="none" stroke="#63b8ff" d="M422.2,-153.55C389.25,-149.11 348.44,-143.46 312,-138 300.42,-136.26 287.97,-134.31 276.24,-132.42"/>
<polygon fill="#63b8ff" stroke="#63b8ff" points="421.63,-157.01 432,-154.87 422.56,-150.07 421.63,-157.01"/>
</a>
</g>
</g>
<!-- Node13&#45;&gt;Node4 -->
<g id="edge18_Node000013_Node000004" class="edge">
<title>Node13&#45;&gt;Node4</title>
<g id="a_edge18_Node000013_Node000004"><a xlink:title=" ">
<path fill="none" stroke="#63b8ff" d="M717.81,-248.98C699.99,-254.23 678.77,-260.47 661.23,-265.63"/>
<polygon fill="#63b8ff" stroke="#63b8ff" points="718.63,-252.39 727.23,-246.21 716.65,-245.67 718.63,-252.39"/>
</a>
</g>
</g>
<!-- Node13&#45;&gt;Node6 -->
<g id="edge17_Node000013_Node000006" class="edge">
<title>Node13&#45;&gt;Node6</title>
<g id="a_edge17_Node000013_Node000006"><a xlink:title=" ">
<path fill="none" stroke="#63b8ff" d="M717.44,-238C642.72,-238 476.26,-238 398.03,-238"/>
<polygon fill="#63b8ff" stroke="#63b8ff" points="717.11,-241.5 727.11,-238 717.11,-234.5 717.11,-241.5"/>
</a>
</g>
</g>
<!-- Node14 -->
<g id="Node000014" class="node">
<title>Node14</title>
<g id="a_Node000014"><a xlink:href="validation_8c.html#acdce00e90ecf2feb9ff24fa3d39b802a" target="_top" xlink:title=" ">
<polygon fill="white" stroke="#666666" points="668.62,-58 581.38,-58 581.38,-38 668.62,-38 668.62,-58"/>
<text xml:space="preserve" text-anchor="middle" x="625" y="-44.5" font-family="Helvetica,sans-Serif" font-size="10.00">validate_number</text>
</a>
</g>
</g>
<!-- Node13&#45;&gt;Node14 -->
<g id="edge19_Node000013_Node000014" class="edge">
<title>Node13&#45;&gt;Node14</title>
<g id="a_edge19_Node000013_Node000014"><a xlink:title=" ">
<path fill="none" stroke="#63b8ff" d="M745.23,-217.48C735.97,-198.25 721.76,-168.69 709.5,-143 693.41,-109.27 700.73,-92.6 673.5,-67 669.88,-63.59 665.56,-60.77 661.04,-58.43"/>
<polygon fill="#63b8ff" stroke="#63b8ff" points="742.03,-218.89 749.52,-226.38 748.33,-215.85 742.03,-218.89"/>
</a>
</g>
</g>
<!-- Node14&#45;&gt;Node8 -->
<g id="edge20_Node000014_Node000008" class="edge">
<title>Node14&#45;&gt;Node8</title>
<g id="a_edge20_Node000014_Node000008"><a xlink:title=" ">
<path fill="none" stroke="#63b8ff" d="M569.91,-51.97C461.98,-59.89 222.93,-77.42 137.28,-83.71"/>
<polygon fill="#63b8ff" stroke="#63b8ff" points="569.94,-55.48 579.66,-51.25 569.43,-48.49 569.94,-55.48"/>
</a>
</g>
</g>
<!-- Node15&#45;&gt;Node6 -->
<g id="edge22_Node000015_Node000006" class="edge">
<title>Node15&#45;&gt;Node6</title>
<g id="a_edge22_Node000015_Node000006"><a xlink:title=" ">
<path fill="none" stroke="#63b8ff" d="M841.6,-203.25C740.12,-210.51 496.11,-227.97 397.89,-234.99"/>
<polygon fill="#63b8ff" stroke="#63b8ff" points="841.73,-206.75 851.46,-202.54 841.23,-199.77 841.73,-206.75"/>
</a>
</g>
</g>
<!-- Node17 -->
<g id="Node000017" class="node">
<title>Node17</title>
<g id="a_Node000017"><a xlink:href="dict__parser_8c.html#adcd1d9c253034ca41f33fcdf24ddd9fd" target="_top" xlink:title=" ">
<polygon fill="white" stroke="#666666" points="916.62,-134 859.38,-134 859.38,-114 916.62,-114 916.62,-134"/>
<text xml:space="preserve" text-anchor="middle" x="888" y="-120.5" font-family="Helvetica,sans-Serif" font-size="10.00">free_stuff</text>
</a>
</g>
</g>
<!-- Node16&#45;&gt;Node17 -->
<g id="edge24_Node000016_Node000017" class="edge">
<title>Node16&#45;&gt;Node17</title>
<g id="a_edge24_Node000016_Node000017"><a xlink:title=" ">
<path fill="none" stroke="#63b8ff" d="M971.17,-124C952.23,-124 932.32,-124 916.84,-124"/>
<polygon fill="#63b8ff" stroke="#63b8ff" points="970.96,-127.5 980.96,-124 970.96,-120.5 970.96,-127.5"/>
</a>
</g>
</g>
<!-- Node18 -->
<g id="Node000018" class="node">
<title>Node18</title>
<g id="a_Node000018"><a xlink:href="dict__parser_8c.html#ac8c052382b5551373a06b30013b5ff4f" target="_top" xlink:title=" ">
<polygon fill="white" stroke="#666666" points="799.75,-134 712.5,-134 712.5,-114 799.75,-114 799.75,-134"/>
<text xml:space="preserve" text-anchor="middle" x="756.12" y="-120.5" font-family="Helvetica,sans-Serif" font-size="10.00">parse_dictionary</text>
</a>
</g>
</g>
<!-- Node17&#45;&gt;Node18 -->
<g id="edge25_Node000017_Node000018" class="edge">
<title>Node17&#45;&gt;Node18</title>
<g id="a_edge25_Node000017_Node000018"><a xlink:title=" ">
<path fill="none" stroke="#63b8ff" d="M848.07,-124C832.93,-124 815.52,-124 800.02,-124"/>
<polygon fill="#63b8ff" stroke="#63b8ff" points="847.63,-127.5 857.63,-124 847.62,-120.5 847.63,-127.5"/>
</a>
</g>
</g>
<!-- Node18&#45;&gt;Node7 -->
<g id="edge26_Node000018_Node000007" class="edge">
<title>Node18&#45;&gt;Node7</title>
<g id="a_edge26_Node000018_Node000007"><a xlink:title=" ">
<path fill="none" stroke="#63b8ff" d="M700.9,-124C598.19,-124 376.61,-124 276.47,-124"/>
<polygon fill="#63b8ff" stroke="#63b8ff" points="700.72,-127.5 710.72,-124 700.72,-120.5 700.72,-127.5"/>
</a>
</g>
</g>
<!-- Node19 -->
<g id="Node000019" class="node">
<title>Node19</title>
<g id="a_Node000019"><a xlink:href="dict__validation_8c.html#a3bcb38196dd6bd633a72e29431defb46" target="_top" xlink:title=" ">
<polygon fill="white" stroke="#666666" points="673.5,-96 576.5,-96 576.5,-76 673.5,-76 673.5,-96"/>
<text xml:space="preserve" text-anchor="middle" x="625" y="-82.5" font-family="Helvetica,sans-Serif" font-size="10.00">validate_dictionary</text>
</a>
</g>
</g>
<!-- Node18&#45;&gt;Node19 -->
<g id="edge27_Node000018_Node000019" class="edge">
<title>Node18&#45;&gt;Node19</title>
<g id="a_edge27_Node000018_Node000019"><a xlink:title=" ">
<path fill="none" stroke="#63b8ff" d="M708.54,-110.29C693.03,-105.73 676.03,-100.72 661.51,-96.45"/>
<polygon fill="#63b8ff" stroke="#63b8ff" points="707.47,-113.62 718.05,-113.09 709.44,-106.91 707.47,-113.62"/>
</a>
</g>
</g>
<!-- Node19&#45;&gt;Node7 -->
<g id="edge28_Node000019_Node000007" class="edge">
<title>Node19&#45;&gt;Node7</title>
<g id="a_edge28_Node000019_Node000007"><a xlink:title=" ">
<path fill="none" stroke="#63b8ff" d="M564.77,-89.08C501.91,-92.69 399.73,-99.54 312,-110 300.37,-111.39 287.91,-113.21 276.17,-115.07"/>
<polygon fill="#63b8ff" stroke="#63b8ff" points="564.74,-92.58 574.53,-88.53 564.35,-85.6 564.74,-92.58"/>
</a>
</g>
</g>
<!-- Node20&#45;&gt;Node14 -->
<g id="edge31_Node000020_Node000014" class="edge">
<title>Node20&#45;&gt;Node14</title>
<g id="a_edge31_Node000020_Node000014"><a xlink:title=" ">
<path fill="none" stroke="#63b8ff" d="M1130.37,-14.07C1015.47,-21.8 768.26,-38.43 668.77,-45.12"/>
<polygon fill="#63b8ff" stroke="#63b8ff" points="1130.48,-17.57 1140.22,-13.41 1130.01,-10.59 1130.48,-17.57"/>
</a>
</g>
</g>
<!-- Node21&#45;&gt;Node9 -->
<g id="edge33_Node000021_Node000009" class="edge">
<title>Node21&#45;&gt;Node9</title>
<g id="a_edge33_Node000021_Node000009"><a xlink:title=" ">
<path fill="none" stroke="#63b8ff" d="M1142.48,-72.43C1063.78,-50.57 914.27,-10 889,-10 889,-10 889,-10 223.5,-10 154.49,-10 72.92,-20.91 37.46,-26.2"/>
<polygon fill="#63b8ff" stroke="#63b8ff" points="1141.52,-75.8 1152.09,-75.11 1143.4,-69.05 1141.52,-75.8"/>
</a>
</g>
</g>
<!-- Node21&#45;&gt;Node16 -->
<g id="edge34_Node000021_Node000016" class="edge">
<title>Node21&#45;&gt;Node16</title>
<g id="a_edge34_Node000021_Node000016"><a xlink:title=" ">
<path fill="none" stroke="#63b8ff" d="M1136.72,-99.18C1117.4,-103.88 1095.93,-109.11 1077.68,-113.55"/>
<polygon fill="#63b8ff" stroke="#63b8ff" points="1137.44,-102.61 1146.33,-96.84 1135.79,-95.81 1137.44,-102.61"/>
</a>
</g>
</g>
<!-- Node23 -->
<g id="Node000023" class="node">
<title>Node23</title>
<g id="a_Node000023"><a xlink:href="helpers__dict_8c.html#ad883df9e614e2d03dea3356b891e744e" target="_top" xlink:title=" ">
<polygon fill="white" stroke="#666666" points="1094.25,-96 973.25,-96 973.25,-76 1094.25,-76 1094.25,-96"/>
<text xml:space="preserve" text-anchor="middle" x="1033.75" y="-82.5" font-family="Helvetica,sans-Serif" font-size="10.00">check_acceptable_keys</text>
</a>
</g>
</g>
<!-- Node22&#45;&gt;Node23 -->
<g id="edge36_Node000022_Node000023" class="edge">
<title>Node22&#45;&gt;Node23</title>
<g id="a_edge36_Node000022_Node000023"><a xlink:title=" ">
<path fill="none" stroke="#63b8ff" d="M1136.72,-61.18C1117.4,-65.88 1095.93,-71.11 1077.68,-75.55"/>
<polygon fill="#63b8ff" stroke="#63b8ff" points="1137.44,-64.61 1146.33,-58.84 1135.79,-57.81 1137.44,-64.61"/>
</a>
</g>
</g>
<!-- Node23&#45;&gt;Node19 -->
<g id="edge37_Node000023_Node000019" class="edge">
<title>Node23&#45;&gt;Node19</title>
<g id="a_edge37_Node000023_Node000019"><a xlink:title=" ">
<path fill="none" stroke="#63b8ff" d="M961.87,-86C879.32,-86 745.19,-86 673.97,-86"/>
<polygon fill="#63b8ff" stroke="#63b8ff" points="961.66,-89.5 971.66,-86 961.66,-82.5 961.66,-89.5"/>
</a>
</g>
</g>
</g>
</svg>
