<?xml version="1.0" encoding="UTF-8" standalone="no"?>
<!DOCTYPE svg PUBLIC "-//W3C//DTD SVG 1.1//EN"
 "http://www.w3.org/Graphics/SVG/1.1/DTD/svg11.dtd">
<!-- Generated by graphviz version 13.1.2 (0)
 -->
<!-- Title: process.c Pages: 1 -->
<svg width="210pt" height="84pt"
 viewBox="0.00 0.00 210.00 84.00" xmlns="http://www.w3.org/2000/svg" xmlns:xlink="http://www.w3.org/1999/xlink">
<g id="graph0" class="graph" transform="scale(1 1) rotate(0) translate(4 80)">
<title>process.c</title>
<!-- Node1 -->
<g id="Node000001" class="node">
<title>Node1</title>
<g id="a_Node000001"><a xlink:title=" ">
<polygon fill="#999999" stroke="#666666" points="120.12,-76 61.38,-76 61.38,-56 120.12,-56 120.12,-76"/>
<text xml:space="preserve" text-anchor="middle" x="90.75" y="-62.5" font-family="Helvetica,sans-Serif" font-size="10.00">process.c</text>
</a>
</g>
</g>
<!-- Node2 -->
<g id="Node000002" class="node">
<title>Node2</title>
<g id="a_Node000002"><a xlink:title=" ">
<polygon fill="#e0e0e0" stroke="#999999" points="47.5,-20 0,-20 0,0 47.5,0 47.5,-20"/>
<text xml:space="preserve" text-anchor="middle" x="23.75" y="-6.5" font-family="Helvetica,sans-Serif" font-size="10.00">stdlib.h</text>
</a>
</g>
</g>
<!-- Node1&#45;&gt;Node2 -->
<g id="edge1_Node000001_Node000002" class="edge">
<title>Node1&#45;&gt;Node2</title>
<g id="a_edge1_Node000001_Node000002"><a xlink:title=" ">
<path fill="none" stroke="#63b8ff" d="M79.08,-55.59C69.47,-47.85 55.62,-36.69 44.18,-27.47"/>
<polygon fill="#63b8ff" stroke="#63b8ff" points="46.45,-24.8 36.47,-21.25 42.05,-30.25 46.45,-24.8"/>
</a>
</g>
</g>
<!-- Node3 -->
<g id="Node000003" class="node">
<title>Node3</title>
<g id="a_Node000003"><a xlink:title=" ">
<polygon fill="#e0e0e0" stroke="#999999" points="116,-20 65.5,-20 65.5,0 116,0 116,-20"/>
<text xml:space="preserve" text-anchor="middle" x="90.75" y="-6.5" font-family="Helvetica,sans-Serif" font-size="10.00">unistd.h</text>
</a>
</g>
</g>
<!-- Node1&#45;&gt;Node3 -->
<g id="edge2_Node000001_Node000003" class="edge">
<title>Node1&#45;&gt;Node3</title>
<g id="a_edge2_Node000001_Node000003"><a xlink:title=" ">
<path fill="none" stroke="#63b8ff" d="M90.75,-55.59C90.75,-49.01 90.75,-39.96 90.75,-31.73"/>
<polygon fill="#63b8ff" stroke="#63b8ff" points="94.25,-31.81 90.75,-21.81 87.25,-31.81 94.25,-31.81"/>
</a>
</g>
</g>
<!-- Node4 -->
<g id="Node000004" class="node">
<title>Node4</title>
<g id="a_Node000004"><a xlink:href="ft__convert_8h.html" target="_top" xlink:title=" ">
<polygon fill="white" stroke="#666666" points="201.62,-20 133.88,-20 133.88,0 201.62,0 201.62,-20"/>
<text xml:space="preserve" text-anchor="middle" x="167.75" y="-6.5" font-family="Helvetica,sans-Serif" font-size="10.00">ft_convert.h</text>
</a>
</g>
</g>
<!-- Node1&#45;&gt;Node4 -->
<g id="edge3_Node000001_Node000004" class="edge">
<title>Node1&#45;&gt;Node4</title>
<g id="a_edge3_Node000001_Node000004"><a xlink:title=" ">
<path fill="none" stroke="#63b8ff" d="M104.16,-55.59C115.36,-47.74 131.56,-36.38 144.81,-27.09"/>
<polygon fill="#63b8ff" stroke="#63b8ff" points="146.82,-29.96 152.99,-21.35 142.8,-24.22 146.82,-29.96"/>
</a>
</g>
</g>
</g>
</svg>
